<?xml version="1.0" encoding="utf-8"?>
<!-- Generator: Adobe Illustrator 16.0.0, SVG Export Plug-In . SVG Version: 6.00 Build 0)  -->
<!DOCTYPE svg PUBLIC "-//W3C//DTD SVG 1.1//EN" "http://www.w3.org/Graphics/SVG/1.1/DTD/svg11.dtd">
<svg version="1.1" id="Layer_1" xmlns="http://www.w3.org/2000/svg" xmlns:xlink="http://www.w3.org/1999/xlink" x="0px" y="0px"
	 width="300px" height="340.644px" viewBox="0 0 300 340.644" enable-background="new 0 0 300 340.644" xml:space="preserve">
<g>
	<path fill="#AFB5BF" d="M243.409,224.847c0.021-45.029,0.028-136.528-0.125-159.473c-0.329-48.186-42.311-44.11-42.311-44.11
		H85.756l0.088,28.61c-1.076,25.429-35.649,28.795-35.649,28.795H21.309v170.336c0.08,49.559,41.125,44.162,41.125,44.162h112.445
		l3.062,8.473l26.429,13.099H48.874C2.31,313.955,0,268.171,0,268.171V79.546C30.994,3.296,99.028,0,99.028,0h102.119
		c61.414,0,63.512,54.315,63.512,54.315v178.207L243.409,224.847L243.409,224.847z M158.663,160.47
		c-0.476,0.069-0.881,0.098-1.266,0.125c-0.999,7.584-8.66,12.701-8.66,12.701v12.071l10.135,5.312l15.602,7.025
		c0,0-12.057,2.11-20.83,16.958c-7.354,12.441-11.498,21.578-11.498,21.578H64.72l-0.21-17.657
		c-0.056-14.371,10.807-17.79,10.807-17.79l30.571-10.128l10.352-5.606l-0.076-11.52c0,0-7.731-3.704-7.741-12.959
		c-0.347-0.021-0.699-0.056-1.123-0.111c-5.508-0.699-10.229-9.35-10.639-15.225c-0.401-5.875,4.387-6.375,4.387-6.375l4.177,1.388
		c0,0-1.821-5.452-1.821-20.655c0-6.986,1.863-10.405,5.561-12.639c0-0.031-0.01-0.056-0.01-0.087c0,0-5.551-13.193,24.146-13.459
		c28.617,0.266,28.561,24.808,28.561,24.808l-0.098,9.006l-0.859,11.807c0.314-0.112,4.047-0.168,4.425-0.168
		c3.341,0,3.075,6.65,3.075,6.65S164.184,159.771,158.663,160.47L158.663,160.47z"/>
	<path fill="#19C1E5" d="M235.581,340.644c-35.579,0-64.42-28.841-64.42-64.42s28.841-64.42,64.42-64.42S300,240.645,300,276.224
		S271.16,340.644,235.581,340.644L235.581,340.644z M235.581,225.931c-27.729,0-50.301,22.563-50.301,50.293
		c0,27.729,22.571,50.3,50.301,50.3c27.729,0,50.293-22.571,50.293-50.3C285.874,248.494,263.309,225.931,235.581,225.931
		L235.581,225.931z M259.822,283.046H242.64v17.412c0,4.41-2.572,7.976-6.983,7.976h-0.153c-4.411,0-6.99-3.565-6.99-7.976v-17.412
		h-17.167c-4.404,0-7.969-2.335-7.969-6.746v-0.153c0-4.411,3.564-7.241,7.969-7.241h16.93v-16.923c0-4.397,2.816-7.962,7.228-7.962
		h0.153c4.411,0,6.983,3.564,6.983,7.962v16.923h17.182c4.396,0,7.962,2.83,7.962,7.241v0.153
		C267.784,280.711,264.218,283.046,259.822,283.046L259.822,283.046z"/>
</g>
</svg>
