<?xml version="1.0" encoding="utf-8"?>
<!-- Generator: Adobe Illustrator 16.0.0, SVG Export Plug-In . SVG Version: 6.00 Build 0)  -->
<!DOCTYPE svg PUBLIC "-//W3C//DTD SVG 1.1//EN" "http://www.w3.org/Graphics/SVG/1.1/DTD/svg11.dtd">
<svg version="1.1" id="Layer_1" xmlns="http://www.w3.org/2000/svg" xmlns:xlink="http://www.w3.org/1999/xlink" x="0px" y="0px"
	 width="300px" height="367.098px" viewBox="0 0 300 367.098" enable-background="new 0 0 300 367.098" xml:space="preserve">
<path fill="inherit" d="M260.362,248.667c-0.294,0.418-0.543,0.848-0.859,1.231l-95.877,111.112
	c-3.399,3.93-10.774,6.087-15.8,6.087c-2.032,0-4.099-0.351-6.075-1.084c-6.895-2.507-8.035-7.317-8.035-14.613
	c0,0-0.322-30.57-0.124-51.847c0,0-133.591-16.284-133.591-148.678C0,123.614,15.946,0,147.95,0C230.491,0,300,66.584,300,148.419
	C300,187.075,284.889,222.23,260.362,248.667L260.362,248.667z M149.249,32.948c-64.567,0-117.075,52.377-117.075,116.753
	c0,64.376,52.507,116.731,117.075,116.731c64.552,0,117.075-52.354,117.075-116.731C266.324,85.325,213.8,32.948,149.249,32.948
	L149.249,32.948z M196.375,138.419h-92.518c-6.38,0-11.564-5.184-11.564-11.558V115.28c0-6.381,5.184-11.564,11.564-11.564h92.518
	c6.381,0,11.564,5.184,11.564,11.564v11.581C207.939,133.235,202.755,138.419,196.375,138.419L196.375,138.419z M196.375,196.233
	h-92.518c-6.38,0-11.564-5.184-11.564-11.563v-11.559c0-6.397,5.184-11.564,11.564-11.564h92.518
	c6.381,0,11.564,5.167,11.564,11.564v11.559C207.939,191.05,202.755,196.233,196.375,196.233L196.375,196.233z"/>
</svg>
