<?xml version="1.0" encoding="utf-8"?>
<!-- Generator: Adobe Illustrator 16.0.0, SVG Export Plug-In . SVG Version: 6.00 Build 0)  -->
<!DOCTYPE svg PUBLIC "-//W3C//DTD SVG 1.1//EN" "http://www.w3.org/Graphics/SVG/1.1/DTD/svg11.dtd">
<svg version="1.1" id="Layer_1" xmlns="http://www.w3.org/2000/svg" xmlns:xlink="http://www.w3.org/1999/xlink" x="0px" y="0px"
	 width="300px" height="278.505px" viewBox="0 0 300 278.505" enable-background="new 0 0 300 278.505" xml:space="preserve">
<g>
	<path fill-rule="evenodd" clip-rule="evenodd" fill="#11131E" d="M212.986,120.292c49.5,0,71.413,29.808,71.413,76.455
		c0,46.668-38.569,70.724-75.708,70.034c-34.536-0.627-68.733-26.041-68.733-72.709
		C139.958,147.424,163.486,120.292,212.986,120.292L212.986,120.292z"/>
	<path fill-rule="evenodd" clip-rule="evenodd" fill="#D6DBE3" d="M214.135,278.505c-27.64,0-51.956-12.749-67.609-32.708H24.207
		C0.742,245.421,0,222.328,0,222.328V60.708C17.953,10.925,63.456,0,63.456,0h118.829c30.963,0,32.008,27.368,32.008,27.368v79.402
		c47.723,0.083,85.707,38.105,85.707,85.86C300,240.447,261.932,278.505,214.135,278.505L214.135,278.505z M192.525,35.053
		c-0.376-13.679-12.487-13.679-12.487-13.679H63.388l0.068,25.523c0.266,19.191-18.235,17.018-18.235,17.018H21.61v147.607
		c-0.429,14.232,11.155,13.396,11.155,13.396h101.717c-3.997-9.928-6.238-20.816-6.238-32.29c0-40.378,27.206-73.717,64.458-83.127
		C192.724,73.722,192.693,40.895,192.525,35.053L192.525,35.053z M214.292,128.014v0.428h-4.473
		c-33.606,2.273-60.332,30.038-60.332,64.188c0,35.634,29.003,64.286,64.647,64.286c35.623,0,64.276-28.652,64.276-64.286
		C278.412,157.058,249.863,128.113,214.292,128.014L214.292,128.014z M246.697,203.163h-21.725v22.049
		c0,5.894-4.818,10.7-10.743,10.7h-0.209c-5.915,0-10.731-4.807-10.731-10.7v-22.069h-21.725c-5.926,0-10.711-4.473-10.711-10.408
		v-0.209c0-5.914,4.785-10.722,10.711-10.722h21.777v-21.735c0-5.914,4.764-10.7,10.679-10.7h0.209
		c5.925,0,10.397,4.786,10.397,10.7v21.401h22.07c5.904,0,10.711,5.142,10.711,11.056v0.209
		C257.408,198.669,252.601,203.163,246.697,203.163L246.697,203.163z"/>
</g>
</svg>
