<?xml version="1.0" encoding="utf-8"?>
<!-- Generator: Adobe Illustrator 16.0.0, SVG Export Plug-In . SVG Version: 6.00 Build 0)  -->
<!DOCTYPE svg PUBLIC "-//W3C//DTD SVG 1.1//EN" "http://www.w3.org/Graphics/SVG/1.1/DTD/svg11.dtd">
<svg version="1.1" id="Layer_1" xmlns="http://www.w3.org/2000/svg" xmlns:xlink="http://www.w3.org/1999/xlink" x="0px" y="0px"
	 width="300px" height="198px" viewBox="0 0 300 198" enable-background="new 0 0 300 198" xml:space="preserve">
<path fill-rule="evenodd" clip-rule="evenodd" fill="#B9BBC4" d="M231.481,158.588H177.89c0.315,2.962-1.271,6.071-3.928,8.755
	l-32.619,26.938c-0.485,0.487-0.947,0.796-1.425,1.184c-0.4,0.417-0.809,0.788-1.286,1.082c-0.285,0.178-0.555,0.278-0.832,0.426
	c-0.501,0.247-0.955,0.502-1.479,0.649c-0.608,0.192-1.24,0.255-1.849,0.278c-0.2,0.016-0.4,0.1-0.586,0.1
	c-0.23,0-0.5-0.084-0.747-0.107c-0.208-0.038-0.408-0.054-0.624-0.101c-2.741-0.425-5.529-2.251-6.146-6.233
	c-0.062-0.34-0.2-0.635-0.216-0.998c0-0.146-0.069-0.225-0.069-0.371v-31.602H68.511C27.92,158.588,0,117.233,0,76.475
	C0,35.724,27.92,0,68.511,0h162.971C272.072,0,300,35.724,300,76.475C300,117.233,272.072,158.588,231.481,158.588L231.481,158.588z
	 M220.976,16.134H78.771c-34.845,0-61.787,28.369-61.787,63.358c0,34.995,26.942,63.356,61.787,63.356h63.281v29.606l31.093-29.606
	h47.831c34.853,0,62.226-28.361,62.226-63.356C283.201,44.502,255.828,16.134,220.976,16.134L220.976,16.134z"/>
</svg>
