<?xml version="1.0" encoding="utf-8"?>
<!-- Generator: Adobe Illustrator 16.0.0, SVG Export Plug-In . SVG Version: 6.00 Build 0)  -->
<!DOCTYPE svg PUBLIC "-//W3C//DTD SVG 1.1//EN" "http://www.w3.org/Graphics/SVG/1.1/DTD/svg11.dtd">
<svg version="1.1" id="Layer_1" xmlns="http://www.w3.org/2000/svg" xmlns:xlink="http://www.w3.org/1999/xlink" x="0px" y="0px"
	 width="300px" height="319.005px" viewBox="0 0 300 319.005" enable-background="new 0 0 300 319.005" xml:space="preserve">
<path fill="inherit" d="M280.84,319.005H19.151C8.582,319.005,0,310.45,0,299.881V57.417c0-10.569,8.582-19.151,19.151-19.151H75.24
	V18.95C75.24,8.499,75.094,0,85.544,0h15.323c10.45,0,11.632,8.499,11.632,18.95v19.315h74.261V18.95
	C186.76,8.499,187.932,0,198.409,0h15.296c10.441,0,10.917,8.499,10.917,18.95v19.315h56.218c10.569,0,19.16,8.582,19.16,19.151
	v242.464C300,310.45,291.409,319.005,280.84,319.005L280.84,319.005z M262.559,84.628c0-5.284-4.305-9.562-9.58-9.562H47.224
	c-5.285,0-9.562,4.277-9.562,9.562v188.729c0,5.275,4.276,9.58,9.562,9.58h205.755c5.275,0,9.58-4.305,9.58-9.58V84.628
	L262.559,84.628z M197.438,244.488h-38.852h-16.761h-39.411c-4.616,0-8.38-4.177-8.38-9.343v-18.537c0-5.166,3.764-9.36,8.38-9.36
	h28.108v-56.346h-28.108c-4.616,0-8.38-4.186-8.38-9.352v-18.602c0-5.166,3.764-9.36,8.38-9.36h39.411h18.519
	c4.653,0,8.408,4.194,8.408,9.36v22.787v61.512h28.686c4.616,0,8.371,4.194,8.371,9.36v18.537
	C205.81,240.312,202.055,244.488,197.438,244.488L197.438,244.488z"/>
</svg>
