<?xml version="1.0" encoding="utf-8"?>
<!-- Generator: Adobe Illustrator 16.0.0, SVG Export Plug-In . SVG Version: 6.00 Build 0)  -->
<!DOCTYPE svg PUBLIC "-//W3C//DTD SVG 1.1//EN" "http://www.w3.org/Graphics/SVG/1.1/DTD/svg11.dtd">
<svg version="1.1" id="Layer_1" xmlns="http://www.w3.org/2000/svg" xmlns:xlink="http://www.w3.org/1999/xlink" x="0px" y="0px"
	 width="300px" height="300px" viewBox="0 0 300 300" enable-background="new 0 0 300 300" xml:space="preserve">
<g>
	<path fill-rule="evenodd" clip-rule="evenodd" fill="#FFFFFF" d="M149.309,29.153c68.556,0,124.147,55.564,124.147,124.128
		c0,68.592-55.592,124.165-124.147,124.165c-68.573,0-124.164-55.573-124.164-124.165C25.145,84.717,80.735,29.153,149.309,29.153
		L149.309,29.153z"/>
	<path fill="#00AEEF" d="M149.996,300C67.162,300,0,232.838,0,149.996C0,67.162,67.162,0,149.996,0
		C232.839,0,300,67.162,300,149.996C300,232.838,232.839,300,149.996,300L149.996,300z M149.996,37.511
		c-62.028,0-112.485,50.457-112.485,112.485c0,62.036,50.457,112.503,112.485,112.503c62.036,0,112.503-50.467,112.503-112.503
		C262.499,87.968,212.032,37.511,149.996,37.511L149.996,37.511z M187.679,187.515h-37.683h-18.733h-0.199
		c-10.268,0-18.57-8.312-18.57-18.579v-56.613c0-10.258,8.302-18.569,18.57-18.569h0.362c10.267,0,18.57,8.312,18.57,18.569v28.293
		c0,5.198,4.2,9.38,9.38,9.38h28.303c10.267,0,18.561,8.311,18.561,18.579v0.361C206.239,179.203,197.945,187.515,187.679,187.515
		L187.679,187.515z"/>
</g>
</svg>
