<?xml version="1.0" encoding="iso-8859-1"?>
<!-- Generator: Adobe Illustrator 16.0.0, SVG Export Plug-In . SVG Version: 6.00 Build 0)  -->
<!DOCTYPE svg PUBLIC "-//W3C//DTD SVG 1.1//EN" "http://www.w3.org/Graphics/SVG/1.1/DTD/svg11.dtd">
<svg version="1.1" id="Layer_1" xmlns="http://www.w3.org/2000/svg" xmlns:xlink="http://www.w3.org/1999/xlink" x="0px" y="0px"
	 width="242.556px" height="242.56px" viewBox="29.722 13.721 242.556 242.56"
	 style="enable-background:new 29.722 13.721 242.556 242.56;" xml:space="preserve">
<path style="fill:#DBDCE0;" d="M121.509,17.337c-52.666,13.21-91.787,60.946-91.787,117.655c0,19.391,4.584,37.728,12.712,54.012
	l16.008,24.259c22.265,26.282,55.493,43.018,92.562,43.018c66.869,0,121.274-54.412,121.274-121.288
	c0-20.447-5.188-40.667-15.011-58.48C245.21,54.647,227.019,37.249,204.651,26.2c-16.335-8.073-33.879-12.257-52.156-12.476
	C134.41,13.616,132.832,15.741,121.509,17.337z M150.668,149.944l-26.009,8.077l8.084-25.999L150.668,149.944z M151.003,232.007
	c-53.495,0-97.015-43.527-97.015-97.015c0-53.5,43.52-97.023,97.015-97.023c9.11,0,17.987,1.23,26.552,3.667l-59.015,59.022
	c-1.441,1.44-2.438,3.154-3.001,4.977h-0.004l-0.033,0.102c-0.007,0.025-0.015,0.047-0.021,0.073l-20.839,67.055
	c-1.339,4.308-0.182,8.993,3.005,12.181c2.31,2.313,5.41,3.551,8.579,3.551c1.208,0,2.419-0.175,3.602-0.539l67.051-20.854
	c0.021,0,0.043-0.015,0.072-0.015l0.103-0.029v-0.015c1.818-0.553,3.536-1.557,4.977-2.998l60.721-60.724
	c3.464,10.11,5.261,20.799,5.261,31.569C248.011,188.479,204.491,232.007,151.003,232.007z"/>
</svg>
