<?xml version="1.0" encoding="iso-8859-1"?>
<!DOCTYPE svg PUBLIC "-//W3C//DTD SVG 1.1//EN" "http://www.w3.org/Graphics/SVG/1.1/DTD/svg11.dtd">
<svg version="1.1" xmlns="http://www.w3.org/2000/svg" xmlns:xlink="http://www.w3.org/1999/xlink" x="0px" y="0px" width="70px"
	 height="70px" viewBox="0 0 70 70" style="enable-background:new 0 0 70 70;" xml:space="preserve">

<g>
	<path fill="inherit" d="M17.132,29.65c1.685-0.443,2.459-3.064,1.731-5.853c-0.729-2.788-2.684-4.688-4.369-4.245
		c-1.685,0.444-2.46,3.065-1.732,5.853S15.446,30.094,17.132,29.65z M47.531,24.902c1.735-0.138,2.961-2.581,2.736-5.454
		c-0.224-2.874-1.812-5.091-3.549-4.953c-1.738,0.137-2.963,2.58-2.738,5.453C44.206,22.821,45.795,25.039,47.531,24.902z
			M58.953,44.438c-13.922-9.392-38.578-8.974-45.552,8.843c-0.744,1.901,2.933,1.337,3.51-0.136
		c6.124-15.646,27.886-14.085,39.567-6.205C57.801,47.832,60.699,45.614,58.953,44.438z"/>
</g>
</svg>
