<?xml version="1.0" encoding="utf-8"?>
<!-- Generator: Adobe Illustrator 16.0.0, SVG Export Plug-In . SVG Version: 6.00 Build 0)  -->
<!DOCTYPE svg PUBLIC "-//W3C//DTD SVG 1.1//EN" "http://www.w3.org/Graphics/SVG/1.1/DTD/svg11.dtd">
<svg version="1.1" id="Layer_1" xmlns="http://www.w3.org/2000/svg" xmlns:xlink="http://www.w3.org/1999/xlink" x="0px" y="0px"
	 width="300px" height="317.714px" viewBox="0 0 300 317.714" enable-background="new 0 0 300 317.714" xml:space="preserve">
<path fill-rule="evenodd" clip-rule="evenodd" fill="#AFB5BF" d="M265.158,317.714H42.356C1.298,317.019,0,276.656,0,276.656
	V106.228C31.406,19.13,110.999,0,110.999,0h132.99C298.171,0,300,47.904,300,47.904v226.741
	C299.945,310.584,265.158,317.714,265.158,317.714L265.158,317.714z M261.921,61.358c-0.658-23.966-21.845-23.966-21.845-23.966
	H110.889l0.11,44.668C111.456,115.605,79.1,111.84,79.1,111.84H37.786v145.877c-0.731,24.897,19.523,23.472,19.523,23.472h180.665
	c25.429,0.732,24.058-23.947,24.058-23.947S262.58,85.296,261.921,61.358L261.921,61.358z M75.078,205.984h149.771v18.719H75.078
	V205.984L75.078,205.984z M75.078,149.826h149.771v18.683H75.078V149.826L75.078,149.826z"/>
</svg>
