<?xml version="1.0" encoding="iso-8859-1"?>
<!-- Generator: Adobe Illustrator 16.0.0, SVG Export Plug-In . SVG Version: 6.00 Build 0)  -->
<!DOCTYPE svg PUBLIC "-//W3C//DTD SVG 1.1//EN" "http://www.w3.org/Graphics/SVG/1.1/DTD/svg11.dtd">
<svg version="1.1" id="Layer_1" xmlns="http://www.w3.org/2000/svg" xmlns:xlink="http://www.w3.org/1999/xlink" x="0px" y="0px"
	 width="19px" height="22px" viewBox="0 0 19 22" style="enable-background:new 0 0 19 22;" xml:space="preserve">
<path style="fill:inherit;" d="M18.08,0H0.919C0.412,0,0,0.448,0,1v4c0,0.282,0.109,0.551,0.301,0.74l6.441,6.369V21
	c0,0.347,0.165,0.668,0.436,0.851C7.326,21.949,7.493,22,7.661,22c0.141,0,0.282-0.035,0.411-0.105l3.678-2
	c0.312-0.17,0.508-0.516,0.508-0.895v-6.891l6.441-6.369C18.891,5.551,19,5.282,19,5V1C19,0.448,18.588,0,18.08,0z M10.721,10.927
	c-0.191,0.189-0.301,0.458-0.301,0.739v6.716l-1.839,1v-7.716c0-0.281-0.109-0.55-0.301-0.739L3.297,6h12.406L10.721,10.927z
	 M17.161,4H1.839V2h15.322V4z"/>
</svg>
