<?xml version="1.0" encoding="iso-8859-1"?>
<!-- Generator: Adobe Illustrator 16.0.0, SVG Export Plug-In . SVG Version: 6.00 Build 0)  -->
<!DOCTYPE svg PUBLIC "-//W3C//DTD SVG 1.1//EN" "http://www.w3.org/Graphics/SVG/1.1/DTD/svg11.dtd">
<svg version="1.1" id="Layer_1" xmlns="http://www.w3.org/2000/svg" xmlns:xlink="http://www.w3.org/1999/xlink" x="0px" y="0px"
	 width="39px" height="53px" viewBox="0 0 39 53" style="enable-background:new 0 0 39 53;" xml:space="preserve">
<g>
	<g>
		<path style="fill:#9db0c0;" d="M36,0H3C1.344,0,0,1.344,0,3v47c0,1.656,1.344,3,3,3h33c1.656,0,3-1.344,3-3V3C39,1.344,37.656,0,36,0z M29,46H6v-2h23V46
			z M6,42v-2h11v2H6z M32,36.98H6V30h26V36.98z M37,25H2V2h35V25z M28.484,35.015c0.412,0,0.776-0.164,1.094-0.392l0.946,0.979
			l0.522-0.539l-0.953-0.983c0.203-0.32,0.353-0.681,0.353-1.094c0-1.117-0.881-2.026-1.962-2.026s-1.96,0.909-1.96,2.026
			C26.524,34.104,27.403,35.015,28.484,35.015z M28.484,31.723c0.675,0,1.224,0.566,1.224,1.263c0,0.698-0.549,1.267-1.224,1.267
			s-1.222-0.568-1.222-1.267C27.263,32.289,27.81,31.723,28.484,31.723z M25,31H7v5h18V31z"/>
	</g>
</g>
</svg>
