<?xml version="1.0" encoding="iso-8859-1"?>
<!-- Generator: Adobe Illustrator 16.0.0, SVG Export Plug-In . SVG Version: 6.00 Build 0)  -->
<!DOCTYPE svg PUBLIC "-//W3C//DTD SVG 1.1//EN" "http://www.w3.org/Graphics/SVG/1.1/DTD/svg11.dtd">
<svg version="1.1" id="Layer_1" xmlns="http://www.w3.org/2000/svg" xmlns:xlink="http://www.w3.org/1999/xlink" x="0px" y="0px"
	 width="39px" height="53px" viewBox="0 0 39 53" style="enable-background:new 0 0 39 53;" xml:space="preserve">
<g>
	<g>
		<path fill="inherit" style="fill-rule:evenodd;clip-rule:evenodd;" d="M36,0H3C1.344,0,0,1.344,0,3v47c0,1.656,1.344,3,3,3h33
			c1.656,0,3-1.344,3-3V3C39,1.344,37.656,0,36,0z M30,35c0,0.553-0.447,1-1,1h-4c-0.553,0-1-0.447-1-1v-1h-5v9h4
			c0.553,0,1,0.224,1,0.5V42c0-0.553,0.447-1,1-1h4c0.553,0,1,0.447,1,1v3c0,0.553-0.447,1-1,1h-4c-0.553,0-1-0.447-1-1v-1.5
			c0,0.276-0.447,0.5-1,0.5h-5v-5h-5v2.143C13,41.616,12.616,42,12.143,42H6.857C6.384,42,6,41.616,6,41.143v-4.285
			C6,36.384,6.384,36,6.857,36h5.286C12.616,36,13,36.384,13,36.857V38h5v-5h6v-1c0-0.553,0.447-1,1-1h4c0.553,0,1,0.447,1,1V35z
			 M37,25H2V2h35V25z"/>
	</g>
</g>
</svg>
