<?xml version="1.0" encoding="utf-8"?>
<!-- Generator: Adobe Illustrator 16.0.0, SVG Export Plug-In . SVG Version: 6.00 Build 0)  -->
<!DOCTYPE svg PUBLIC "-//W3C//DTD SVG 1.1//EN" "http://www.w3.org/Graphics/SVG/1.1/DTD/svg11.dtd">
<svg version="1.1" id="Layer_1" xmlns="http://www.w3.org/2000/svg" xmlns:xlink="http://www.w3.org/1999/xlink" x="0px" y="0px"
	 width="300px" height="356.771px" viewBox="0 0 300 356.771" enable-background="new 0 0 300 356.771" xml:space="preserve">
<g>
	<path fill-rule="evenodd" clip-rule="evenodd" fill="#AFB5BF" d="M255.208,356.771H55.401C2.619,355.893,0,303.985,0,303.985
		V90.178C35.129,3.736,112.248,0,112.248,0h115.767C297.623,0,300,61.578,300,61.578v245.205
		C299.937,353,255.208,356.771,255.208,356.771L255.208,356.771z M275.77,74.108c-0.38-54.617-47.953-50.001-47.953-50.001H97.197
		l0.104,32.435c-1.208,28.83-40.402,32.642-40.402,32.642H24.146V282.26c0.088,56.178,46.618,50.076,46.618,50.076h156.941
		c51.233,0.206,48.198-48.754,48.198-48.754S276.008,108.988,275.77,74.108L275.77,74.108z"/>
	<path fill-rule="evenodd" clip-rule="evenodd" fill="#CADBB3" d="M194.839,221.549v29.27c0,0.048-0.023,0.088-0.023,0.15
		c0.008,2.037-0.729,4.073-2.29,5.635c-1.561,1.561-3.613,2.312-5.649,2.289c-0.056,0-0.087,0.023-0.15,0.023
		c-2.694,0-4.96-1.395-6.442-3.406l-28.492-28.271h-21.865c-31.369,0-56.796-25.435-56.796-56.804
		c0-31.361,25.427-56.792,56.796-56.792h40.58c31.369,0,56.796,25.431,56.796,56.792
		C227.302,193.049,213.975,212.414,194.839,221.549L194.839,221.549z M170.506,129.862h-40.58
		c-22.396,0-40.564,18.169-40.564,40.572c0,22.399,18.169,40.568,40.564,40.568h27.189l21.488,25.608v-4.936l0,0v-5.254l0,0v-16.234
		c18.525-3.764,32.463-20.135,32.463-39.753C211.066,148.031,192.897,129.862,170.506,129.862L170.506,129.862z"/>
</g>
</svg>
