<?xml version="1.0" encoding="utf-8"?>
<!-- Generator: Adobe Illustrator 16.0.0, SVG Export Plug-In . SVG Version: 6.00 Build 0)  -->
<!DOCTYPE svg PUBLIC "-//W3C//DTD SVG 1.1//EN" "http://www.w3.org/Graphics/SVG/1.1/DTD/svg11.dtd">
<svg version="1.1" id="Layer_1" xmlns="http://www.w3.org/2000/svg" xmlns:xlink="http://www.w3.org/1999/xlink" x="0px" y="0px"
	 width="300px" height="356.65px" viewBox="0 0 300 356.65" enable-background="new 0 0 300 356.65" xml:space="preserve">
<g>
	<path fill-rule="evenodd" clip-rule="evenodd" fill="#AFB5BF" d="M179.9,215.909l17.666,7.954c0,0-13.653,2.383-23.594,19.201
		c-8.327,14.089-13.028,24.441-13.028,24.441H73.288l-0.238-20c-0.063-16.273,12.221-20.152,12.221-20.152l34.62-11.468
		l11.722-6.332l-0.071-13.052c0,0-8.754-4.195-8.786-14.674c-0.38-0.023-0.776-0.063-1.25-0.127
		c-6.253-0.791-11.6-10.59-12.051-17.246c-0.467-6.641,4.959-7.211,4.959-7.211l4.725,1.567c0,0-2.058-6.174-2.058-23.388
		c0-7.907,2.113-11.785,6.309-14.31c0-0.023-0.016-0.063-0.016-0.103c0,0-6.292-14.927,27.338-15.236
		c32.411,0.309,32.332,28.09,32.332,28.09l-0.104,10.202l-0.965,13.368c0.34-0.127,4.574-0.19,5.002-0.19
		c3.783,0,3.482,7.52,3.482,7.52s-4.551,16.146-10.796,16.938c-0.554,0.079-1.005,0.111-1.44,0.143
		c-1.132,8.588-9.814,14.389-9.814,14.389v13.662L179.9,215.909L179.9,215.909z M275.614,254.596
		c0.024-50.987,0.04-154.592-0.15-180.577c-0.38-54.557-47.9-49.951-47.9-49.951H97.104l0.103,32.411
		c-1.219,28.786-40.361,32.602-40.361,32.602H24.133v192.869c0.075,56.115,46.566,50.006,46.566,50.006h127.303l3.482,9.601
		l29.926,14.809H55.337C2.612,355.502,0,303.653,0,303.653V90.071C35.099,3.728,112.13,0,112.13,0h115.632
		c69.547,0,71.922,61.506,71.922,61.506v201.772L275.614,254.596L275.614,254.596z"/>
	<path fill="#19C1E5" d="M227.049,356.65c-40.286,0-72.943-32.656-72.943-72.951c0-40.278,32.657-72.935,72.943-72.935
		c40.287,0,72.951,32.656,72.951,72.935C300,323.994,267.336,356.65,227.049,356.65L227.049,356.65z M227.049,226.76
		c-31.406,0-56.947,25.549-56.947,56.938c0,31.406,25.541,56.956,56.947,56.956c31.398,0,56.955-25.55,56.955-56.956
		C284.004,252.309,258.447,226.76,227.049,226.76L227.049,226.76z M254.49,291.424h-19.432v19.724c0,4.986-2.928,9.031-7.914,9.031
		h-0.19c-4.979,0-7.907-4.045-7.907-9.031v-19.724h-19.438c-4.986,0-9.022-2.636-9.022-7.622v-0.189
		c0-4.986,4.036-8.185,9.022-8.185h19.162v-19.161c0-4.986,3.205-9.031,8.184-9.031h0.19c4.986,0,7.914,4.045,7.914,9.031v19.161
		h19.432c4.986,0,9.03,3.198,9.03,8.185v0.189C263.521,288.789,259.477,291.424,254.49,291.424L254.49,291.424z"/>
</g>
</svg>
