<?xml version="1.0" encoding="utf-8"?>
<!-- Generator: Adobe Illustrator 16.0.0, SVG Export Plug-In . SVG Version: 6.00 Build 0)  -->
<!DOCTYPE svg PUBLIC "-//W3C//DTD SVG 1.1//EN" "http://www.w3.org/Graphics/SVG/1.1/DTD/svg11.dtd">
<svg version="1.1" id="Layer_1" xmlns="http://www.w3.org/2000/svg" xmlns:xlink="http://www.w3.org/1999/xlink" x="0px" y="0px"
	 width="300px" height="356.771px" viewBox="0 0 300 356.771" enable-background="new 0 0 300 356.771" xml:space="preserve">
<g>
	<path fill-rule="evenodd" clip-rule="evenodd" fill="#AFB5BF" d="M255.208,356.771H55.401C2.619,355.893,0,303.985,0,303.985
		V90.178C35.129,3.736,112.248,0,112.248,0h115.767C297.623,0,300,61.578,300,61.578v245.205
		C299.937,353,255.208,356.771,255.208,356.771L255.208,356.771z M275.77,74.108c-0.38-54.617-47.953-50.001-47.953-50.001H97.197
		l0.104,32.435c-1.208,28.83-40.402,32.642-40.402,32.642H24.146V282.26c0.088,56.178,46.618,50.076,46.618,50.076h156.941
		c51.233,0.206,48.198-48.754,48.198-48.754S276.008,108.988,275.77,74.108L275.77,74.108z"/>
	<path fill="#F3B93E" d="M205.908,238.3c-28.524,28.524-74.75,28.524-103.275,0c-28.508-28.517-28.508-74.755,0-103.268
		c28.525-28.524,74.751-28.524,103.275,0C234.425,163.545,234.425,209.783,205.908,238.3L205.908,238.3z M194.586,146.344
		c-22.233-22.218-58.393-22.218-80.626,0c-22.233,22.232-22.233,58.408,0,80.625c22.233,22.233,58.393,22.233,80.626,0
		C216.819,204.752,216.819,168.576,194.586,146.344L194.586,146.344z M182.962,169.444l-45.901,45.901
		c-3.173,3.169-8.304,3.169-11.477,0c-3.17-3.17-3.17-8.305,0-11.474l45.904-45.901c3.17-3.157,8.305-3.157,11.474,0
		C186.131,161.141,186.131,166.287,182.962,169.444L182.962,169.444z M182.962,215.346c-3.169,3.169-8.304,3.169-11.474,0
		l-45.904-45.901c-3.17-3.157-3.17-8.304,0-11.474c3.173-3.157,8.304-3.157,11.477,0l45.901,45.901
		C186.131,207.041,186.131,212.176,182.962,215.346L182.962,215.346z"/>
</g>
</svg>
