<?xml version="1.0" encoding="utf-8"?>
<!-- Generator: Adobe Illustrator 16.0.0, SVG Export Plug-In . SVG Version: 6.00 Build 0)  -->
<!DOCTYPE svg PUBLIC "-//W3C//DTD SVG 1.1//EN" "http://www.w3.org/Graphics/SVG/1.1/DTD/svg11.dtd">
<svg version="1.1" id="Layer_1" xmlns="http://www.w3.org/2000/svg" xmlns:xlink="http://www.w3.org/1999/xlink" x="0px" y="0px"
	 width="300.001px" height="300.009px" viewBox="0 0 300.001 300.009" enable-background="new 0 0 300.001 300.009"
	 xml:space="preserve">
<path fill-rule="evenodd" clip-rule="evenodd" fill="inherit" d="M43.941,256.067c-58.588-58.589-58.588-153.57,0-212.126
	c58.588-58.588,153.546-58.588,212.118,0c58.588,58.556,58.588,153.537,0,212.126C197.487,314.655,102.53,314.655,43.941,256.067
	L43.941,256.067z M232.677,232.668c45.659-45.659,45.659-119.668,0-165.335c-45.66-45.659-119.677-45.659-165.344,0
	c-45.659,45.667-45.659,119.676,0,165.335C113,278.344,187.017,278.344,232.677,232.668L232.677,232.668z M94.103,149.67
	l61.976-69.156c3.37-3.403,8.076-5.496,13.254-5.496c10.34,0,18.742,8.402,18.742,18.75c0,10.242-5.487,13.279-5.487,13.279
	l-35.954,42.98l35.367,42.387c3.404,3.436,5.488,8.109,5.488,13.254c0,10.373-8.402,18.776-18.742,18.776
	c-10.242,0-13.255-5.488-13.255-5.488L94.103,149.67L94.103,149.67z"/>
</svg>
