<?xml version="1.0" encoding="utf-8"?>
<!-- Generator: Adobe Illustrator 16.0.0, SVG Export Plug-In . SVG Version: 6.00 Build 0)  -->
<!DOCTYPE svg PUBLIC "-//W3C//DTD SVG 1.1//EN" "http://www.w3.org/Graphics/SVG/1.1/DTD/svg11.dtd">
<svg version="1.1" id="Layer_1" xmlns="http://www.w3.org/2000/svg" xmlns:xlink="http://www.w3.org/1999/xlink" x="0px" y="0px"
	 width="300px" height="342.89px" viewBox="0 0 300 342.89" enable-background="new 0 0 300 342.89" xml:space="preserve">
<path fill-rule="evenodd" clip-rule="evenodd" fill="inherit" d="M214.304,342.89H85.707C38.381,342.89,0,304.51,0,257.173v-85.718
	c0-23.689,19.201-42.869,42.869-42.869v-21.439C42.869,47.985,90.824,0,150.017,0c59.16,0,107.146,47.985,107.146,107.146v21.439
	c23.668,0,42.837,19.18,42.837,42.869v85.718C300,304.51,261.62,342.89,214.304,342.89L214.304,342.89z M128.587,251.208v27.373
	c0,11.865,9.595,21.429,21.43,21.429c11.845,0,21.429-9.563,21.429-21.429v-27.373c12.766-7.408,21.408-21.073,21.408-36.915
	c0-23.669-19.169-42.838-42.837-42.838c-23.658,0-42.869,19.169-42.869,42.838C107.147,230.135,115.832,243.8,128.587,251.208
	L128.587,251.208z M150.017,42.879c-35.524,0-64.31,28.775-64.31,64.268c0,7.575,1.549,14.69,3.966,21.439H210.37
	c2.386-6.749,3.934-13.864,3.934-21.439C214.304,71.654,185.509,42.879,150.017,42.879L150.017,42.879z"/>
</svg>
