<?xml version="1.0" encoding="iso-8859-1"?>
<!-- Generator: Adobe Illustrator 16.0.0, SVG Export Plug-In . SVG Version: 6.00 Build 0)  -->
<!DOCTYPE svg PUBLIC "-//W3C//DTD SVG 1.1//EN" "http://www.w3.org/Graphics/SVG/1.1/DTD/svg11.dtd">
<svg version="1.1" id="Layer_1" xmlns="http://www.w3.org/2000/svg" xmlns:xlink="http://www.w3.org/1999/xlink" x="0px" y="0px"
	 width="15.992px" height="17.006px" viewBox="0 0 15.992 17.006" style="enable-background:new 0 0 15.992 17.006;"
	 xml:space="preserve">
<g>
</g>
<g>
	<g>
		<path d="M14.973,2.04h-2.999V1.01c0-0.558-0.023-1.01-0.581-1.01h-0.816c-0.558,0-0.62,0.452-0.62,1.01v1.03H5.997V1.01
			C5.997,0.452,5.934,0,5.376,0H4.561c-0.558,0-0.55,0.452-0.55,1.01v1.03H1.02C0.457,2.04,0,2.497,0,3.06v12.927
			c0,0.563,0.457,1.02,1.02,1.02h13.953c0.562,0,1.02-0.456,1.02-1.02V3.06C15.992,2.497,15.535,2.04,14.973,2.04z M13.996,14.573
			c0,0.282-0.229,0.51-0.51,0.51H2.517c-0.282,0-0.51-0.229-0.51-0.51V4.512c0-0.282,0.228-0.51,0.51-0.51h10.969
			c0.281,0,0.51,0.229,0.51,0.51V14.573z M10.524,11.049H8.996V6.554c0-0.275-0.201-0.499-0.447-0.499H5.459
			c-0.247,0-0.447,0.223-0.447,0.499v0.992c0,0.275,0.2,0.499,0.447,0.499h1.498v3.004H5.459c-0.247,0-0.447,0.223-0.447,0.498
			v0.989c0,0.275,0.2,0.499,0.447,0.499h5.065c0.247,0,0.447-0.223,0.447-0.499v-0.989C10.972,11.272,10.771,11.049,10.524,11.049z"
			/>
	</g>
</g>
</svg>
