<?xml version="1.0" encoding="utf-8"?>
<!-- Generator: Adobe Illustrator 16.0.0, SVG Export Plug-In . SVG Version: 6.00 Build 0)  -->
<!DOCTYPE svg PUBLIC "-//W3C//DTD SVG 1.1//EN" "http://www.w3.org/Graphics/SVG/1.1/DTD/svg11.dtd">
<svg version="1.1" id="Layer_1" xmlns="http://www.w3.org/2000/svg" xmlns:xlink="http://www.w3.org/1999/xlink" x="0px" y="0px"
	 width="300px" height="321.443px" viewBox="0 0 300 321.443" enable-background="new 0 0 300 321.443" xml:space="preserve">
<path fill-rule="evenodd" clip-rule="evenodd" fill="#425182" d="M200.391,271.937c-5.18,25.456-23.373,49.507-50.355,49.507
	c-27.005,0-44.653-24.051-49.834-49.507L0,271.319l38.94-88.146v-66.975C38.94,54.538,88.926,0,150.569,0
	c61.637,0,111.629,54.538,111.629,116.198v66.975L300,271.888L200.391,271.937L200.391,271.937z M237.008,182.979l0.642-67.277
	c0-49.968-37.137-91.596-87.081-91.596c-49.949,0-87.577,41.059-87.577,91.026v69.578l-25.383,62.677h226.489L237.008,182.979
	L237.008,182.979z"/>
</svg>
