<?xml version="1.0" encoding="iso-8859-1"?>
<!-- Generator: Adobe Illustrator 16.0.0, SVG Export Plug-In . SVG Version: 6.00 Build 0)  -->
<!DOCTYPE svg PUBLIC "-//W3C//DTD SVG 1.1//EN" "http://www.w3.org/Graphics/SVG/1.1/DTD/svg11.dtd">
<svg version="1.1" id="Layer_1" xmlns="http://www.w3.org/2000/svg" xmlns:xlink="http://www.w3.org/1999/xlink" x="0px" y="0px"
	 width="39px" height="53px" viewBox="0 0 39 53" style="enable-background:new 0 0 39 53;" xml:space="preserve">
<g>
	<g>
		<path style="fill-rule:evenodd;clip-rule:evenodd;fill:#9db0c0;" d="M36,0H3C1.344,0,0,1.344,0,3v47c0,1.656,1.344,3,3,3h33
			c1.656,0,3-1.344,3-3V3C39,1.344,37.656,0,36,0z M16.984,43.975L6.016,44L6,42.698c-0.005-1.226,0.873-1.518,0.873-1.518
			l2.473-0.864l0.837-0.476l-0.005-0.982c0,0-0.387-0.216-0.548-0.698c-0.289-0.555-0.092-0.408-0.217-0.439
			c0.079,0.008-0.074,0.02-0.222-0.11c-0.321-0.24-0.565-0.77-0.591-1.165c-0.01-0.142,0.032-0.271,0.051-0.318
			c0.031-0.129,0.089-0.251,0.212-0.251c0.031,0,0.333,0.005,0.358,0.015c0,0-0.077-1.684-0.077-1.632
			c0-0.009,0.001-0.015,0.001-0.024l-0.001-0.118c0,0,0.014-0.66,0.425-1.243c0.038-0.263,0.26-0.622,1.119-0.773
			c0.003-0.001,0.008-0.001,0.012-0.002c0.109-0.019,0.229-0.035,0.358-0.046c0.131-0.019,0.246-0.05,0.395-0.052
			c1.689,0.018,1.968,0.578,1.984,0.908c0.219,0.316,0.333,0.65,0.378,0.893c0.008,0.043,0.04,0.559,0.034,0.778l-0.002,0.331
			l-0.07,1.006c0.355-0.14,0.65,0.085,0.623,0.503c-0.019,0.295-0.166,0.657-0.369,0.93c-0.12,0.204-0.26,0.373-0.418,0.396
			c-0.276,0.035,0.088-0.166-0.259,0.47c-0.175,0.433-0.532,0.617-0.532,0.617l-0.006,0.982l0.837,0.478l2.473,0.863
			c0,0,0.878,0.291,0.874,1.518L16.984,43.975z M31,44H19v-2h12V44z M19,39v-2h9v2H19z M37,25H2V2h35V25z"/>
	</g>
</g>
</svg>
