<?xml version="1.0" encoding="iso-8859-1"?>
<!-- Generator: Adobe Illustrator 16.0.0, SVG Export Plug-In . SVG Version: 6.00 Build 0)  -->
<!DOCTYPE svg PUBLIC "-//W3C//DTD SVG 1.1//EN" "http://www.w3.org/Graphics/SVG/1.1/DTD/svg11.dtd">
<svg version="1.1" id="Layer_1" xmlns="http://www.w3.org/2000/svg" xmlns:xlink="http://www.w3.org/1999/xlink" x="0px" y="0px"
	 width="119.623px" height="193.349px" viewBox="0 0 119.623 193.349" style="enable-background:new 0 0 119.623 193.349;"
	 xml:space="preserve">
<g>
	<path style="fill:#9099B5;" d="M69.397,50.187L59.688,7.189c-0.634-2.805-3.422-4.566-6.228-3.933L18.287,11.2
		c-2.806,0.633-4.567,3.421-3.933,6.227l9.71,42.998c0.633,2.805,3.422,4.566,6.227,3.932l35.175-7.942
		C68.271,55.78,70.031,52.992,69.397,50.187z M23.028,41.431l-5.47-24.226c-0.317-1.403,0.563-2.797,1.966-3.114l34.061-7.692
		c1.403-0.316,2.797,0.564,3.114,1.967l3.706,16.185l-12.822-6.659L37.341,34.305l-7.119-4.806L23.028,41.431z M37.56,50.169
		c-0.509,1.092-1.396,1.779-2.66,2.065c-1.283,0.29-2.385,0.054-3.301-0.709l-0.129,0.028c0.279,0.837,0.438,1.347,0.48,1.529
		l0.938,4.153l-2.154,0.486l-3.309-14.649l1.742-0.393c0.092,0.178,0.295,0.607,0.609,1.288l0.109-0.024
		c0.44-1.179,1.333-1.92,2.678-2.224c1.265-0.286,2.354-0.05,3.267,0.708c0.913,0.757,1.557,1.964,1.931,3.619
		C38.135,47.704,38.067,49.078,37.56,50.169z M47.423,49.214l-1.408-6.234c-0.176-0.781-0.465-1.33-0.867-1.644
		s-0.945-0.394-1.629-0.239c-0.911,0.205-1.516,0.625-1.816,1.258s-0.308,1.582-0.021,2.848l1.141,5.051l-2.154,0.486l-2.29-10.139
		l1.687-0.381l0.604,1.261l0.109-0.024c0.197-0.552,0.547-1.023,1.049-1.412c0.504-0.391,1.098-0.662,1.781-0.816
		c2.433-0.55,3.928,0.413,4.487,2.889l1.492,6.609L47.423,49.214z M61.021,49.9c-0.807,0.837-2.105,1.458-3.896,1.862
		c-1.382,0.312-2.491,0.306-3.328-0.02c-0.838-0.324-1.359-0.939-1.563-1.844c-0.141-0.623-0.062-1.191,0.236-1.705
		s0.783-0.934,1.454-1.258c-0.314-0.058-0.596-0.201-0.844-0.432c-0.248-0.229-0.404-0.494-0.473-0.794
		c-0.086-0.379-0.051-0.724,0.104-1.034c0.154-0.312,0.414-0.643,0.777-0.995c-0.576-0.107-1.086-0.38-1.528-0.815
		c-0.442-0.437-0.74-0.998-0.896-1.682c-0.248-1.1-0.094-2.031,0.463-2.793c0.558-0.762,1.479-1.287,2.762-1.577
		c0.287-0.065,0.592-0.112,0.916-0.144s0.569-0.044,0.738-0.037l3.511-0.793l0.268,1.183l-1.66,0.712
		c0.207,0.178,0.397,0.411,0.572,0.699c0.174,0.289,0.301,0.606,0.379,0.955c0.236,1.045,0.062,1.949-0.524,2.71
		c-0.586,0.763-1.512,1.286-2.777,1.571c-0.323,0.073-0.622,0.115-0.896,0.125c-0.398,0.393-0.555,0.781-0.469,1.166
		c0.053,0.232,0.201,0.383,0.443,0.449c0.243,0.067,0.655,0.035,1.236-0.096l1.769-0.4c1.119-0.252,2.022-0.205,2.71,0.141
		c0.688,0.346,1.134,0.967,1.337,1.865C62.102,48.069,61.828,49.063,61.021,49.9z"/>
	<path style="fill:#9099B5;" d="M34.364,44.084c-0.532-0.493-1.187-0.652-1.963-0.478c-0.855,0.193-1.424,0.586-1.705,1.176
		s-0.297,1.436-0.049,2.535l0.072,0.32c0.279,1.235,0.677,2.085,1.192,2.55c0.517,0.464,1.218,0.597,2.104,0.396
		c0.745-0.168,1.251-0.604,1.517-1.306s0.27-1.619,0.016-2.749C35.29,45.392,34.896,44.577,34.364,44.084z"/>
	<path style="fill:#9099B5;" d="M34.597,19.813c-0.68-3.008-3.68-4.894-6.701-4.211s-4.921,3.674-4.242,6.683
		c0.68,3.008,3.68,4.893,6.701,4.211C33.376,25.812,35.275,22.821,34.597,19.813z M26.786,21.64
		c-0.297-1.318,0.531-2.629,1.85-2.927s2.629,0.53,2.928,1.849c0.297,1.319-0.53,2.629-1.85,2.927
		C28.396,23.787,27.085,22.959,26.786,21.64z"/>
	<path style="fill:#9099B5;" d="M59.237,46.802c-0.356-0.116-0.963-0.077-1.818,0.116l-1.632,0.368
		c-0.617,0.14-1.075,0.396-1.373,0.768c-0.298,0.373-0.392,0.807-0.279,1.302c0.104,0.464,0.395,0.774,0.87,0.931
		c0.475,0.156,1.092,0.148,1.85-0.023c1.173-0.264,2.009-0.63,2.508-1.096c0.498-0.466,0.686-0.977,0.56-1.533
		C59.822,47.194,59.595,46.917,59.237,46.802z"/>
	<path style="fill:#9099B5;" d="M55.501,42.265c1.246-0.282,1.72-1.089,1.419-2.422c-0.149-0.66-0.419-1.133-0.808-1.422
		c-0.39-0.287-0.899-0.36-1.529-0.218c-0.623,0.141-1.055,0.425-1.295,0.852c-0.241,0.427-0.285,0.979-0.132,1.657
		c0.144,0.637,0.417,1.088,0.821,1.356S54.89,42.401,55.501,42.265z"/>
</g>
<g>
	<path style="fill:#637097;" d="M13.239,86.627c-2.758,1.41-3.857,4.778-2.454,7.524s4.777,3.829,7.536,2.42
		c2.758-1.41,3.857-4.778,2.454-7.524S15.998,85.218,13.239,86.627z M16.956,93.818c-1.204,0.615-2.679,0.138-3.294-1.066
		c-0.616-1.204-0.138-2.679,1.066-3.294s2.679-0.138,3.294,1.066C18.637,91.728,18.16,93.203,16.956,93.818z"/>
	<path style="fill:#637097;" d="M34.417,108.605c-0.638-0.346-1.311-0.338-2.019,0.024c-0.781,0.398-1.235,0.919-1.361,1.561
		s0.067,1.464,0.581,2.469l0.15,0.292c0.576,1.128,1.171,1.853,1.786,2.175c0.615,0.322,1.327,0.276,2.136-0.137
		c0.681-0.348,1.062-0.895,1.146-1.641c0.083-0.746-0.139-1.636-0.667-2.667C35.639,109.643,35.055,108.951,34.417,108.605z"/>
	<path style="fill:#637097;" d="M62.016,109.853L41.957,70.601c-1.309-2.561-4.446-3.576-7.007-2.267L2.839,84.743
		c-2.561,1.309-3.576,4.446-2.268,7.007l20.059,39.252c1.309,2.561,4.446,3.576,7.008,2.268l32.11-16.409
		C62.31,115.551,63.324,112.414,62.016,109.853z M18.936,99.515l-4.014,13.341L3.621,90.742c-0.654-1.28-0.146-2.85,1.134-3.504
		l31.094-15.89c1.281-0.654,2.849-0.146,3.503,1.134l7.601,14.762L32.88,83.969l-5.856,18.438L18.936,99.515z M22.483,109.786
		c-0.291-0.094-0.522-0.309-0.693-0.644c-0.18-0.351-0.222-0.671-0.126-0.959c0.096-0.288,0.322-0.523,0.679-0.705
		c0.346-0.178,0.664-0.22,0.953-0.129c0.289,0.092,0.524,0.312,0.704,0.664c0.171,0.335,0.209,0.647,0.115,0.938
		s-0.314,0.525-0.66,0.702C23.098,109.835,22.773,109.88,22.483,109.786z M30.835,123.549c-0.249,0.746-0.844,1.359-1.787,1.842
		c-0.591,0.302-1.118,0.483-1.58,0.543l-0.795-1.557c0.431-0.093,0.844-0.241,1.24-0.443c0.837-0.428,1.013-1.116,0.528-2.064
		l-5.282-10.335l1.967-1.005l5.35,10.469C30.964,121.953,31.084,122.803,30.835,123.549z M39.021,113.709
		c-0.222,1.183-0.911,2.069-2.065,2.659c-1.171,0.599-2.296,0.643-3.374,0.131l-0.117,0.06c0.478,0.741,0.759,1.195,0.844,1.363
		l1.938,3.791l-1.967,1.005l-6.834-13.373l1.59-0.812c0.133,0.15,0.436,0.516,0.909,1.098l0.101-0.052
		c0.135-1.251,0.815-2.19,2.043-2.817c1.155-0.59,2.269-0.631,3.34-0.124c1.072,0.508,1.995,1.518,2.767,3.029
		C38.968,111.179,39.243,112.526,39.021,113.709z M50.259,113.475c-0.574,1.011-1.678,1.935-3.312,2.77
		c-1.261,0.645-2.337,0.913-3.229,0.806c-0.892-0.106-1.549-0.573-1.971-1.398c-0.291-0.569-0.355-1.14-0.194-1.711
		c0.162-0.572,0.527-1.099,1.098-1.58c-0.319,0.022-0.627-0.047-0.924-0.208s-0.515-0.379-0.655-0.652
		c-0.177-0.346-0.229-0.688-0.156-1.028s0.241-0.725,0.507-1.156c-0.585,0.039-1.146-0.098-1.683-0.411s-0.964-0.783-1.284-1.407
		c-0.513-1.005-0.594-1.944-0.243-2.82c0.351-0.876,1.112-1.613,2.284-2.212c0.262-0.135,0.546-0.257,0.852-0.367
		c0.306-0.11,0.542-0.184,0.707-0.219l3.205-1.638l0.552,1.079l-1.432,1.102c0.245,0.121,0.487,0.3,0.728,0.536
		c0.24,0.235,0.442,0.513,0.604,0.831c0.487,0.954,0.542,1.872,0.163,2.756c-0.379,0.883-1.146,1.619-2.301,2.21
		c-0.295,0.151-0.575,0.266-0.837,0.344c-0.29,0.479-0.345,0.894-0.166,1.245c0.108,0.212,0.289,0.32,0.541,0.325
		c0.252,0.005,0.643-0.128,1.173-0.399l1.615-0.825c1.021-0.521,1.908-0.7,2.66-0.536s1.338,0.656,1.757,1.477
		C50.852,111.434,50.833,112.464,50.259,113.475z"/>
	<path style="fill:#637097;" d="M47.763,110.915c-0.375-0.023-0.952,0.164-1.733,0.563l-1.489,0.762
		c-0.564,0.288-0.944,0.648-1.14,1.084c-0.197,0.434-0.179,0.877,0.052,1.329c0.216,0.424,0.574,0.653,1.073,0.687
		s1.095-0.127,1.787-0.48c1.071-0.547,1.791-1.108,2.158-1.684c0.367-0.574,0.421-1.116,0.162-1.623
		C48.427,111.15,48.137,110.938,47.763,110.915z"/>
	<path style="fill:#637097;" d="M43.793,104.748c-0.308-0.603-0.686-0.995-1.134-1.178c-0.449-0.182-0.96-0.126-1.535,0.167
		c-0.569,0.291-0.917,0.673-1.045,1.146c-0.127,0.474-0.033,1.02,0.284,1.639c0.296,0.58,0.674,0.95,1.132,1.11
		s0.966,0.097,1.524-0.188C44.157,106.863,44.415,105.964,43.793,104.748z"/>
</g>
<g>
	<path style="fill:#9DA5BE;" d="M116.282,59.796L82.624,46.855c-2.685-1.032-5.697,0.308-6.729,2.992L60.075,90.99
		c-1.032,2.685,0.307,5.699,2.992,6.73l33.658,12.941c2.685,1.032,5.698-0.308,6.73-2.992l15.819-41.143
		C120.307,63.842,118.967,60.829,116.282,59.796z M79.991,91.117c-1.028,0.625-2.148,0.704-3.358,0.239
		c-1.229-0.472-2.012-1.28-2.351-2.424l-0.123-0.047c-0.233,0.85-0.383,1.363-0.45,1.538l-1.528,3.974l-2.062-0.792l5.39-14.018
		l1.667,0.641c-0.023,0.199-0.093,0.669-0.21,1.409l0.105,0.041c1.021-0.735,2.175-0.855,3.461-0.36
		c1.211,0.465,1.985,1.267,2.323,2.403c0.339,1.137,0.203,2.498-0.406,4.083C81.84,89.387,81.021,90.492,79.991,91.117z
		 M88.89,95.867l0.13-1.411l-0.097-0.037c-1.032,0.711-2.186,0.821-3.46,0.331c-1.211-0.465-1.986-1.267-2.327-2.405
		c-0.342-1.138-0.207-2.499,0.402-4.084c0.611-1.591,1.431-2.697,2.459-3.319c1.027-0.622,2.149-0.699,3.366-0.231
		c1.274,0.49,2.064,1.334,2.369,2.532l0.105,0.041c0.168-0.734,0.329-1.303,0.484-1.707l1.359-3.535l2.07,0.796l-5.248,13.649
		L88.89,95.867z M102.583,87.559c-0.446-0.359-0.9-0.628-1.362-0.806c-0.468-0.18-0.864-0.166-1.188,0.042
		c-0.325,0.207-0.599,0.601-0.821,1.18l-0.243,0.631l2.369,0.911l-0.601,1.562l-2.368-0.911l-3.13,8.141l-2.07-0.796l3.13-8.141
		l-1.597-0.614l0.371-0.965l1.839-0.018l0.243-0.632c0.44-1.146,1.036-1.892,1.787-2.238c0.75-0.346,1.678-0.306,2.783,0.119
		c0.726,0.279,1.393,0.673,2.002,1.183L102.583,87.559z M116.136,65.844l-5.912,15.516l-6.961-12.662l-17.635,7.955l-3.248-7.952
		l-12.61,5.923l8.912-23.181c0.517-1.342,2.023-2.012,3.365-1.496l32.593,12.532C115.982,62.995,116.651,64.502,116.136,65.844z"/>
	<path style="fill:#9DA5BE;" d="M89.216,86.588c-0.726-0.279-1.397-0.2-2.015,0.237c-0.618,0.437-1.136,1.2-1.554,2.287
		c-0.414,1.076-0.539,1.969-0.376,2.68c0.163,0.71,0.625,1.211,1.385,1.504c0.848,0.326,1.557,0.325,2.126-0.003
		c0.569-0.328,1.065-1.025,1.488-2.091l0.111-0.289c0.47-1.222,0.605-2.167,0.405-2.835S90.063,86.914,89.216,86.588z"/>
	<path style="fill:#9DA5BE;" d="M88.167,55.854c-2.892-1.112-6.133,0.32-7.239,3.199s0.34,6.113,3.231,7.225
		c2.892,1.111,6.133-0.321,7.239-3.199C92.505,60.2,91.059,56.965,88.167,55.854z M88.461,62.016
		c-0.485,1.262-1.902,1.892-3.164,1.406c-1.262-0.485-1.892-1.901-1.406-3.164c0.485-1.262,1.901-1.892,3.163-1.406
		C88.316,59.338,88.945,60.754,88.461,62.016z"/>
	<path style="fill:#9DA5BE;" d="M79.35,82.794c-0.818-0.314-1.509-0.305-2.07,0.03s-1.044,1.028-1.449,2.081l-0.118,0.307
		c-0.454,1.181-0.596,2.108-0.425,2.782s0.68,1.173,1.528,1.499c0.713,0.274,1.375,0.193,1.986-0.243
		c0.61-0.437,1.124-1.196,1.54-2.278c0.418-1.087,0.543-1.984,0.375-2.69C80.548,83.576,80.093,83.08,79.35,82.794z"/>
</g>
<g>
	<path style="fill:#9DA5BE;" d="M90.521,137.12c-0.244,0.073-0.566,0.329-0.968,0.767l-0.767,0.835
		c-0.29,0.316-0.446,0.636-0.468,0.958c-0.022,0.322,0.093,0.6,0.347,0.832c0.237,0.219,0.519,0.279,0.844,0.183
		c0.324-0.097,0.665-0.339,1.021-0.727c0.552-0.601,0.876-1.127,0.974-1.579c0.098-0.451,0.004-0.808-0.28-1.069
		C90.997,137.112,90.764,137.045,90.521,137.12z"/>
	<path style="fill:#9DA5BE;" d="M99.32,133.083l-22.006-20.194c-1.437-1.317-3.669-1.222-4.986,0.214l-16.52,18.003
		c-1.318,1.436-1.222,3.668,0.214,4.985l22.006,20.194c1.436,1.317,3.668,1.222,4.985-0.214l16.521-18.002
		C100.852,136.632,100.756,134.4,99.32,133.083z M57.721,134.73c-0.718-0.659-0.766-1.775-0.107-2.493l15.998-17.433
		c0.658-0.718,1.774-0.766,2.492-0.107l8.312,7.582l-9.711,1.242l0.633,13.093l-5.819,0.072l0.601,9.421L57.721,134.73z
		 M74.783,142.057c-0.184,0.2-0.379,0.305-0.586,0.313s-0.404-0.073-0.592-0.245c-0.197-0.181-0.299-0.374-0.307-0.579
		c-0.007-0.206,0.081-0.408,0.265-0.608c0.178-0.194,0.37-0.297,0.575-0.307c0.205-0.011,0.406,0.075,0.604,0.256
		c0.188,0.172,0.286,0.361,0.295,0.568S74.962,141.863,74.783,142.057z M82.052,150.732c-0.305,0.331-0.596,0.57-0.875,0.718
		l-0.873-0.801c0.252-0.161,0.479-0.353,0.683-0.574c0.431-0.47,0.38-0.948-0.151-1.437l-5.794-5.316l1.012-1.103l5.869,5.386
		c0.535,0.491,0.812,1.003,0.83,1.535C82.77,149.672,82.537,150.204,82.052,150.732z M84.742,147.799l-7.497-6.88l0.818-0.892
		c0.119,0.063,0.398,0.225,0.836,0.482l0.052-0.057c-0.21-0.826,0.001-1.583,0.633-2.271c0.594-0.647,1.292-0.937,2.092-0.867
		c0.801,0.069,1.625,0.493,2.473,1.271c0.848,0.778,1.341,1.569,1.479,2.373c0.139,0.804-0.09,1.529-0.684,2.177
		c-0.603,0.656-1.307,0.95-2.112,0.879l-0.06,0.066c0.478,0.357,0.764,0.58,0.857,0.666l2.125,1.95L84.742,147.799z M92.71,138.157
		c-0.126,0.777-0.609,1.624-1.45,2.541c-0.648,0.707-1.27,1.132-1.861,1.274s-1.119,0.001-1.582-0.424
		c-0.318-0.293-0.494-0.64-0.526-1.041s0.075-0.822,0.324-1.263c-0.197,0.09-0.409,0.119-0.637,0.087
		c-0.227-0.033-0.416-0.119-0.569-0.26c-0.194-0.178-0.309-0.384-0.342-0.616c-0.034-0.233-0.019-0.518,0.049-0.854
		c-0.363,0.163-0.752,0.208-1.166,0.136c-0.415-0.072-0.798-0.269-1.147-0.591c-0.563-0.517-0.837-1.094-0.82-1.733
		c0.016-0.639,0.325-1.287,0.928-1.944c0.135-0.146,0.287-0.291,0.455-0.434s0.3-0.244,0.396-0.306l1.649-1.797l0.605,0.556
		l-0.649,1.037c0.184,0.02,0.38,0.075,0.588,0.169c0.209,0.093,0.402,0.221,0.58,0.385c0.535,0.491,0.786,1.062,0.754,1.712
		s-0.345,1.299-0.939,1.946c-0.152,0.166-0.302,0.305-0.45,0.416c-0.071,0.373-0.009,0.649,0.188,0.83
		c0.119,0.109,0.259,0.136,0.42,0.079s0.379-0.233,0.651-0.53l0.831-0.905c0.525-0.572,1.046-0.896,1.562-0.969
		s1.005,0.101,1.465,0.523C92.604,136.72,92.836,137.379,92.71,138.157z"/>
	<path style="fill:#9DA5BE;" d="M62.857,129.846c-1.419,1.547-1.321,3.945,0.219,5.358c1.539,1.413,3.938,1.305,5.356-0.242
		c1.42-1.547,1.322-3.945-0.218-5.358C66.676,128.191,64.277,128.299,62.857,129.846z M66.916,133.536
		c-0.62,0.676-1.669,0.721-2.344,0.101c-0.675-0.619-0.721-1.668-0.101-2.344c0.619-0.675,1.669-0.72,2.344-0.101
		C67.49,131.812,67.535,132.861,66.916,133.536z"/>
	<path style="fill:#9DA5BE;" d="M84.154,141.245c-0.123-0.493-0.474-1.006-1.053-1.537c-0.582-0.533-1.116-0.835-1.603-0.904
		c-0.487-0.069-0.912,0.095-1.277,0.492c-0.401,0.438-0.566,0.875-0.495,1.312c0.071,0.437,0.389,0.914,0.951,1.431l0.164,0.15
		c0.632,0.58,1.182,0.899,1.648,0.959s0.908-0.138,1.324-0.591C84.165,142.175,84.278,141.738,84.154,141.245z"/>
	<path style="fill:#9DA5BE;" d="M86.543,134.14c-0.338-0.311-0.671-0.471-0.998-0.48c-0.328-0.01-0.64,0.146-0.936,0.469
		c-0.293,0.318-0.424,0.644-0.394,0.975c0.031,0.33,0.22,0.655,0.567,0.974c0.325,0.299,0.652,0.444,0.98,0.438
		c0.329-0.006,0.637-0.166,0.924-0.479C87.273,135.397,87.226,134.765,86.543,134.14z"/>
</g>
<g>
	<path style="fill:#9DA5BE;" d="M73.863,181.005c-0.318-0.192-0.643-0.211-0.97-0.056c-0.328,0.155-0.637,0.472-0.924,0.95
		c-0.285,0.474-0.419,0.885-0.4,1.233c0.018,0.349,0.194,0.624,0.528,0.825c0.373,0.225,0.708,0.283,1.004,0.175
		c0.296-0.107,0.588-0.395,0.876-0.862l0.077-0.128c0.323-0.537,0.465-0.972,0.427-1.304
		C74.442,181.507,74.236,181.23,73.863,181.005z"/>
	<path style="fill:#9DA5BE;" d="M69.523,178.394c-0.36-0.216-0.688-0.269-0.979-0.158c-0.293,0.111-0.579,0.398-0.857,0.861
		l-0.081,0.136c-0.313,0.52-0.457,0.945-0.433,1.277s0.224,0.61,0.597,0.834c0.313,0.189,0.633,0.206,0.958,0.051
		c0.324-0.155,0.63-0.471,0.916-0.946c0.288-0.479,0.422-0.892,0.4-1.239C70.023,178.863,69.85,178.591,69.523,178.394z"/>
	<path style="fill:#9DA5BE;" d="M88.866,170.613l-14.809-8.907c-1.181-0.711-2.714-0.329-3.425,0.852l-10.888,18.102
		c-0.71,1.182-0.329,2.715,0.852,3.426l14.809,8.907c1.181,0.71,2.715,0.329,3.425-0.853l10.889-18.102
		C90.429,172.857,90.048,171.323,88.866,170.613z M69.134,182.375c-0.538,0.209-1.073,0.153-1.605-0.167
		c-0.54-0.325-0.843-0.771-0.907-1.34l-0.055-0.032c-0.181,0.382-0.294,0.611-0.34,0.688l-1.052,1.748l-0.907-0.545l3.71-6.167
		l0.733,0.44c-0.028,0.093-0.1,0.309-0.217,0.648l0.047,0.027c0.543-0.262,1.097-0.223,1.663,0.118
		c0.532,0.32,0.831,0.763,0.896,1.327s-0.112,1.196-0.531,1.893C70.149,181.712,69.671,182.167,69.134,182.375z M72.938,185.358
		l0.178-0.655l-0.042-0.025c-0.547,0.25-1.1,0.206-1.661-0.132c-0.532-0.32-0.832-0.763-0.898-1.329
		c-0.066-0.565,0.11-1.196,0.53-1.894c0.421-0.7,0.899-1.153,1.437-1.361s1.072-0.151,1.607,0.171
		c0.562,0.337,0.864,0.801,0.908,1.392l0.046,0.028c0.141-0.333,0.265-0.588,0.371-0.766l0.936-1.555l0.911,0.548l-3.612,6.005
		L72.938,185.358z M80.091,182.576c-0.18-0.207-0.372-0.371-0.575-0.493c-0.206-0.124-0.394-0.15-0.564-0.08
		c-0.171,0.071-0.332,0.234-0.485,0.488l-0.167,0.278l1.042,0.627l-0.414,0.687l-1.042-0.627l-2.154,3.582l-0.91-0.548l2.154-3.582
		l-0.702-0.422l0.255-0.425l0.869,0.145l0.168-0.277c0.303-0.505,0.646-0.808,1.029-0.908s0.817-0.005,1.304,0.288
		c0.318,0.191,0.601,0.434,0.847,0.725L80.091,182.576z M88.294,173.455l-4.08,6.831l-2.232-6.555l-8.984,2.287l-0.872-4.023
		l-6.444,1.746l6.135-10.198c0.355-0.591,1.122-0.781,1.713-0.426l14.34,8.625C88.459,172.097,88.649,172.864,88.294,173.455z"/>
	<path style="fill:#9DA5BE;" d="M75.926,166.414c-1.272-0.766-2.922-0.359-3.683,0.907c-0.763,1.267-0.349,2.913,0.924,3.679
		c1.271,0.765,2.921,0.358,3.683-0.908C77.611,168.826,77.197,167.178,75.926,166.414z M75.552,169.346
		c-0.334,0.555-1.056,0.734-1.61,0.4c-0.556-0.334-0.735-1.055-0.401-1.61c0.334-0.555,1.056-0.734,1.61-0.4
		C75.706,168.07,75.885,168.791,75.552,169.346z"/>
</g>
<g>
	<g>
		<path style="fill:#7A84A7;" d="M88.604,34.255c-0.246-0.351-0.524-0.572-0.835-0.663c-0.31-0.091-0.605-0.038-0.888,0.16
			c-0.264,0.186-0.384,0.447-0.358,0.785c0.024,0.338,0.188,0.723,0.49,1.153c0.468,0.667,0.912,1.097,1.332,1.29
			c0.421,0.192,0.789,0.178,1.105-0.044c0.25-0.175,0.365-0.39,0.346-0.643s-0.2-0.624-0.541-1.11L88.604,34.255z M93.119,30.569
			c-0.329-0.041-0.688,0.074-1.072,0.344c-0.362,0.254-0.574,0.542-0.639,0.864c-0.064,0.322,0.025,0.657,0.27,1.005
			c0.497,0.709,1.125,0.798,1.883,0.266c0.375-0.263,0.603-0.554,0.683-0.872c0.08-0.318-0.005-0.656-0.257-1.014
			C93.738,30.808,93.449,30.61,93.119,30.569z M114.6,21.503L100.566,1.502c-1.12-1.595-3.32-1.981-4.916-0.862L71.201,17.795
			c-1.595,1.12-1.981,3.32-0.861,4.916l14.033,20.001c1.12,1.596,3.32,1.981,4.916,0.862l24.449-17.155
			C115.334,25.299,115.72,23.099,114.6,21.503z M80.124,22.437c-0.512-0.73-0.646-1.48-0.405-2.252l-0.051-0.073
			c-0.452,0.39-0.73,0.622-0.835,0.694l-2.361,1.657l-0.859-1.225l8.33-5.845l0.694,0.99c-0.088,0.104-0.305,0.341-0.65,0.713
			l0.044,0.062c0.852-0.027,1.546,0.341,2.083,1.106c0.504,0.719,0.637,1.462,0.397,2.229c-0.24,0.767-0.831,1.481-1.772,2.142
			s-1.82,0.972-2.635,0.935S80.629,23.156,80.124,22.437z M89.324,24.972c-0.363-0.518-0.782-0.79-1.256-0.814
			c-0.475-0.025-1.071,0.214-1.79,0.719l-2.872,2.015l-0.859-1.225l5.765-4.045l0.673,0.959l-0.635,0.702l0.044,0.063
			c0.396-0.019,0.781,0.079,1.155,0.294c0.373,0.215,0.697,0.517,0.97,0.906c0.971,1.383,0.752,2.568-0.655,3.556l-3.758,2.637
			l-0.863-1.23l3.544-2.487c0.445-0.312,0.715-0.635,0.808-0.967C89.688,25.722,89.598,25.361,89.324,24.972z M96.049,34.079
			l-0.873-0.857c-0.059,0.176-0.155,0.355-0.291,0.539c-0.136,0.184-0.303,0.345-0.501,0.484c-0.595,0.417-1.206,0.54-1.834,0.369
			c-0.628-0.171-1.194-0.616-1.699-1.335c-0.13-0.185-0.232-0.361-0.31-0.53c-0.349-0.149-0.633-0.147-0.852,0.006
			c-0.132,0.092-0.188,0.224-0.167,0.393c0.021,0.17,0.146,0.42,0.378,0.75l0.706,1.006c0.446,0.636,0.649,1.214,0.61,1.735
			c-0.04,0.52-0.314,0.959-0.825,1.318c-0.653,0.458-1.347,0.542-2.079,0.253c-0.732-0.29-1.456-0.944-2.17-1.962
			c-0.552-0.786-0.833-1.482-0.845-2.091c-0.013-0.609,0.238-1.093,0.753-1.455c0.354-0.249,0.731-0.346,1.13-0.291
			s0.786,0.251,1.163,0.588c-0.045-0.212-0.027-0.425,0.053-0.64s0.206-0.381,0.376-0.501c0.216-0.151,0.44-0.218,0.675-0.202
			c0.235,0.017,0.51,0.094,0.824,0.231c-0.081-0.389-0.042-0.779,0.117-1.168c0.16-0.39,0.435-0.721,0.824-0.994
			c0.625-0.439,1.248-0.582,1.869-0.429c0.621,0.153,1.188,0.594,1.699,1.324c0.114,0.163,0.224,0.342,0.326,0.537
			c0.104,0.195,0.174,0.346,0.213,0.454l1.401,1.996L96.049,34.079z M112.231,24.848l-9.189,6.49l0.872-9.751L90.99,19.393
			l1.18-5.699l-9.33-1.437l13.775-9.666c0.797-0.56,1.897-0.367,2.457,0.431l13.59,19.368
			C113.222,23.188,113.029,24.289,112.231,24.848z M95.001,7.72c-1.711,1.2-2.12,3.566-0.914,5.284
			c1.205,1.718,3.569,2.138,5.279,0.938c1.711-1.2,2.12-3.566,0.915-5.284C99.075,6.939,96.711,6.52,95.001,7.72z M98.116,12.233
			c-0.75,0.526-1.784,0.345-2.311-0.405s-0.345-1.785,0.405-2.311c0.75-0.526,1.784-0.345,2.311,0.405S98.866,11.708,98.116,12.233z
			 M84.889,18.65c-0.341-0.487-0.733-0.742-1.175-0.766c-0.442-0.024-0.977,0.183-1.603,0.622l-0.182,0.128
			c-0.702,0.493-1.133,0.96-1.291,1.403c-0.158,0.443-0.061,0.917,0.293,1.42c0.297,0.424,0.7,0.629,1.209,0.614
			c0.508-0.014,1.084-0.247,1.727-0.698c0.646-0.454,1.056-0.911,1.228-1.371C85.268,19.542,85.198,19.092,84.889,18.65z"/>
	</g>
</g>
</svg>
