<?xml version="1.0" encoding="utf-8"?>
<!-- Generator: Adobe Illustrator 16.0.0, SVG Export Plug-In . SVG Version: 6.00 Build 0)  -->
<!DOCTYPE svg PUBLIC "-//W3C//DTD SVG 1.1//EN" "http://www.w3.org/Graphics/SVG/1.1/DTD/svg11.dtd">
<svg version="1.1" id="Layer_1" xmlns="http://www.w3.org/2000/svg" xmlns:xlink="http://www.w3.org/1999/xlink" x="0px" y="0px"
	 width="300px" height="342.891px" viewBox="0 0 300 342.891" enable-background="new 0 0 300 342.891" xml:space="preserve">
<path fill-rule="evenodd" clip-rule="evenodd" fill="#52626E" d="M300,300.011c0,8.873-2.679,17.14-7.304,24.003
	c-3.076,4.542-7.01,8.476-11.572,11.552c-2.281,1.549-4.709,2.867-7.282,3.935c-5.128,2.177-10.777,3.391-16.679,3.391H42.869
	c-5.933,0-11.572-1.214-16.679-3.391c-2.563-1.067-5.022-2.386-7.282-3.935c-4.583-3.076-8.518-7.01-11.604-11.552
	C2.689,317.15,0,308.884,0,300.011V42.88C0,19.211,19.201,0,42.869,0h128.556c5.922,0,11.279,2.407,15.172,6.299l0,0
	l107.146,107.147l0,0c3.871,3.851,6.257,9.207,6.257,15.15V300.011L300,300.011z M150.016,42.88H64.277
	c-11.834,0-21.408,9.563-21.408,21.43v214.293c0,11.845,9.574,21.408,21.408,21.408h171.456c11.823,0,21.43-9.563,21.43-21.408
	V150.026h-85.738c-11.824,0-21.409-9.605-21.409-21.43V42.88L150.016,42.88z"/>
</svg>
