<?xml version="1.0" encoding="iso-8859-1"?>
<!-- Generator: Adobe Illustrator 16.0.0, SVG Export Plug-In . SVG Version: 6.00 Build 0)  -->
<!DOCTYPE svg PUBLIC "-//W3C//DTD SVG 1.1//EN" "http://www.w3.org/Graphics/SVG/1.1/DTD/svg11.dtd">
<svg version="1.1" id="Layer_1" xmlns="http://www.w3.org/2000/svg" xmlns:xlink="http://www.w3.org/1999/xlink" x="0px" y="0px"
	 width="239.404px" height="265.795px" viewBox="17 28.706 239.404 265.795"
	 style="enable-background:new 17 28.706 239.404 265.795;" xml:space="preserve">
<g>
	<path fill="inherit" d="M196.096,108.9c0-13.526-4.732-20.289-14.197-20.289c-2.604,0-4.548,0.184-5.848,0.548
		c-2.969,0.547-5.479,0.82-7.518,0.82c-2.412,0-4.455-0.865-6.125-2.603c-1.67-1.735-2.506-3.88-2.506-6.443
		c0-6.397,4.08-9.594,12.252-9.594c1.113,0,2.408,0.096,3.896,0.273l14.756,1.919c5.566,0.732,11.322,1.1,17.264,1.1
		c5.751,0,12.063-0.457,18.933-1.373l12.527-1.646c1.484-0.177,2.785-0.273,3.902-0.273c8.162,0,12.244,3.197,12.244,9.594
		c0,2.563-0.832,4.708-2.504,6.443c-1.67,1.738-3.715,2.603-6.125,2.603c-1.857,0-4.363-0.273-7.518-0.82
		c-1.301-0.365-3.248-0.548-5.848-0.548c-9.465,0-14.197,6.763-14.197,20.289v109.933c0,13.705,4.732,20.56,14.197,20.56
		c1.482,0,3.432-0.178,5.848-0.546c3.525-0.547,6.031-0.825,7.518-0.825c5.748,0,8.629,2.93,8.629,8.776
		c0,6.579-4.082,9.868-12.244,9.868c-0.377,0-1.025,0-1.955,0c-0.74-0.184-1.389-0.273-1.947-0.273l-14.477-2.198
		c-4.832-0.725-9.934-1.09-15.311-1.09c-7.8,0-14.76,0.455-20.886,1.367l-12.807,1.921c-0.371,0-1.021,0.09-1.949,0.273
		c-0.933,0-1.67,0-2.225,0c-7.986,0-11.975-3.289-11.975-9.868c0-5.847,2.875-8.776,8.631-8.776c0.928,0,3.432,0.187,7.518,0.551
		c2.04,0.547,3.992,0.82,5.848,0.82c9.465,0,14.197-6.854,14.197-20.56V108.9z"/>
</g>
<g>
	<path fill="inherit" d="M227.064,264.104c-3.668,2.908-8.171,4.729-12.863,4.729H67.16
		c-11.324,0-21.567-10.582-21.567-21.558V132.761c20.891,0,23.454,0,23.454,0c22.964,0,39.877-15.041,39.877-37.438
		c0,0,0.181-13.564,0-38.388h105.277c4.927,0,9.646,2.002,13.408,5.168h28.795c-5.587-15.746-19.396-33.184-36.789-33.184
		c0,0-128.033-0.214-129.363-0.214L17,115.425v139.899c0,22.196,18.986,39.177,41.815,39.177l15.279-0.102l23.168,0.002l119.588-0.1
		c17.177-0.002,32.32-14.864,38.759-30.198H227.064z"/>
	<path fill="inherit" d="M169.195,156.278H76.194c-6.142,0-11.11,4.969-11.11,11.104c0,6.124,4.969,11.094,11.11,11.094
		h93.001c6.141,0,11.11-4.97,11.11-11.094C180.306,161.247,175.336,156.278,169.195,156.278z"/>
	<path fill="inherit" d="M169.195,202.894H76.194c-6.142,0-11.11,4.97-11.11,11.088c0,6.142,4.969,11.109,11.11,11.109
		h93.001c6.141,0,11.11-4.969,11.11-11.109C180.306,207.863,175.336,202.894,169.195,202.894z"/>
</g>
</svg>
