<?xml version="1.0" encoding="iso-8859-1"?>
<!-- Generator: Adobe Illustrator 16.0.0, SVG Export Plug-In . SVG Version: 6.00 Build 0)  -->
<!DOCTYPE svg PUBLIC "-//W3C//DTD SVG 1.1//EN" "http://www.w3.org/Graphics/SVG/1.1/DTD/svg11.dtd">
<svg version="1.1" id="Layer_1" xmlns="http://www.w3.org/2000/svg" xmlns:xlink="http://www.w3.org/1999/xlink" x="0px" y="0px"
	 width="70px" height="70px" viewBox="0 0 70 70" style="enable-background:new 0 0 70 70;" xml:space="preserve">
<g>
	<g>
		<path d="M61.151,33.725c0.031-0.193,0.019-0.399-0.101-0.616c-2.883-5.27-5.804-10.515-8.746-15.752
			c-0.021-0.687-0.713-1.342-1.438-0.852c-3.679,2.486-7.908,4.301-11.892,6.223c-5.196,2.506-10.442,4.988-15.825,7.069
			c-0.67,0.171-1.074,1.031-0.594,1.549c0.097,0.182,0.243,0.315,0.43,0.387c0.012,0.024,0.01,0.046,0.025,0.07
			c3.476,5.771,7.343,11.497,10.281,17.565c0.03,0.062,0.074,0.095,0.111,0.145c0.015,0.02,0.027,0.04,0.044,0.059
			c0.189,0.222,0.432,0.311,0.683,0.285c0.004,0,0.006,0.002,0.01,0.002c0.007,0,0.015-0.002,0.021-0.002
			c0.024-0.003,0.048-0.001,0.072-0.006c1.76-0.055,3.663-1.183,5.231-1.857c2.853-1.228,5.662-2.574,8.406-4.031
			c2.692-1.427,5.222-3.168,7.713-4.919c1.796-1.263,4.185-2.632,5.466-4.477C61.261,34.264,61.264,33.969,61.151,33.725z
			 M38.749,25.015c3.698-1.759,7.6-3.452,11.156-5.575c-0.384,2.422-1.955,5.125-2.86,7.276c-0.891,2.12-1.722,4.384-2.844,6.41
			c-6.173,0.555-12.491-0.038-18.258-2.346C30.275,29.008,34.526,27.024,38.749,25.015z M54.035,37.73
			c-2.17,1.525-4.391,2.999-6.711,4.286c-2.315,1.286-4.726,2.41-7.133,3.509c-1.511,0.689-3.67,2.032-5.479,2.3
			c-2.542-5.14-5.719-10.04-8.735-14.938c5.987,2.224,12.48,2.816,18.837,2.167c0.036-0.004,0.062-0.023,0.096-0.03
			c0.285-0.012,0.564-0.138,0.753-0.459c1.388-2.365,2.344-5.089,3.397-7.613c0.849-2.031,2.105-4.352,2.645-6.625
			c2.51,4.478,5.009,8.958,7.475,13.46C57.938,35.39,55.634,36.606,54.035,37.73z M19.884,38.026L6.601,45.453
			c-1.108,0.618-0.117,2.324,0.991,1.704c4.428-2.476,8.856-4.95,13.284-7.427C21.982,39.111,20.992,37.407,19.884,38.026z
			 M23.035,42.668c-3.708,1.981-7.415,3.961-11.121,5.941c-1.119,0.598-0.126,2.301,0.991,1.704
			c3.707-1.98,7.414-3.961,11.121-5.941C25.146,43.774,24.153,42.07,23.035,42.668z M26,46.813c-2.348,1.466-4.696,2.93-7.043,4.395
			c-1.074,0.67-0.088,2.377,0.991,1.705c2.348-1.465,4.696-2.93,7.044-4.395C28.065,47.849,27.08,46.142,26,46.813z"/>
	</g>
</g>
</svg>
