<?xml version="1.0" encoding="utf-8"?>
<!-- Generator: Adobe Illustrator 16.0.0, SVG Export Plug-In . SVG Version: 6.00 Build 0)  -->
<!DOCTYPE svg PUBLIC "-//W3C//DTD SVG 1.1//EN" "http://www.w3.org/Graphics/SVG/1.1/DTD/svg11.dtd">
<svg version="1.1" id="Layer_1" xmlns="http://www.w3.org/2000/svg" xmlns:xlink="http://www.w3.org/1999/xlink" x="0px" y="0px"
	 width="300px" height="312.861px" viewBox="0 0 300 312.861" enable-background="new 0 0 300 312.861" xml:space="preserve">
<path opacity="0.8" fill-rule="evenodd" clip-rule="evenodd" fill="#425182" d="M256.438,312.861l-212.666-0.223
	C20.032,312.639,0,290.858,0,267.739L0.974,48.325c0,0-1.361-48.114,39.912-48.114c0,0,181.427-0.211,182.823-0.211L300,90.314
	v181.743C300,295.177,280.203,312.861,256.438,312.861L256.438,312.861z M276.459,108.363c-21.746,0-30.688,0-30.688,0
	c-23.904,0-41.52-15.667-41.52-38.984c0,0-0.188-19.328,0-45.205H45.192c-11.794,0-22.473,11.031-22.473,22.461v220.165
	c0,11.431,10.679,22.449,22.473,22.449H254.01c11.781,0,22.449-11.019,22.449-22.449V108.363L276.459,108.363z M228.603,228.544
	H71.538c-6.384,0-11.571-5.164-11.571-11.56c0-6.384,5.187-11.56,11.571-11.56h157.064c6.384,0,11.56,5.176,11.56,11.56
	C240.162,223.38,234.986,228.544,228.603,228.544L228.603,228.544z M228.603,180.007H71.538c-6.384,0-11.571-5.176-11.571-11.56
	s5.187-11.559,11.571-11.559h157.064c6.384,0,11.56,5.175,11.56,11.559S234.986,180.007,228.603,180.007L228.603,180.007z"/>
</svg>
