<?xml version="1.0" encoding="utf-8"?>
<!-- Generator: Adobe Illustrator 16.0.0, SVG Export Plug-In . SVG Version: 6.00 Build 0)  -->
<!DOCTYPE svg PUBLIC "-//W3C//DTD SVG 1.1//EN" "http://www.w3.org/Graphics/SVG/1.1/DTD/svg11.dtd">
<svg version="1.1" id="Layer_1" xmlns="http://www.w3.org/2000/svg" xmlns:xlink="http://www.w3.org/1999/xlink" x="0px" y="0px"
	 width="300.002px" height="300.022px" viewBox="0 0 300.002 300.022" enable-background="new 0 0 300.002 300.022"
	 xml:space="preserve">
<path fill-rule="evenodd" clip-rule="evenodd" fill="#6A6F82" d="M256.057,256.077c-58.576,58.594-153.544,58.594-212.139,0
	c-58.558-58.576-58.558-153.544,0-212.139c58.595-58.585,153.562-58.585,212.139,0C314.651,102.533,314.651,197.501,256.057,256.077
	L256.057,256.077z M229.543,70.452c-43.928-43.927-115.184-43.927-159.111,0c-43.927,43.937-43.927,115.184,0,159.111
	c43.928,43.927,115.184,43.927,159.111,0C273.47,185.636,273.47,114.389,229.543,70.452L229.543,70.452z M219.491,125.778
	l-75.001,75l0,0c-3.388,3.388-8.057,5.476-13.257,5.476c-5.163,0-9.869-2.088-13.257-5.476l0,0l-37.5-37.5l0,0
	C77.088,159.854,75,155.186,75,150.021c0-10.354,8.378-18.769,18.732-18.769c5.191,0,9.869,2.097,13.257,5.484l0,0l24.243,24.252
	l61.744-61.725l0,0c3.387-3.415,8.093-5.512,13.257-5.512c10.363,0,18.769,8.404,18.769,18.769
	C225.002,117.685,222.878,122.391,219.491,125.778L219.491,125.778L219.491,125.778z"/>
</svg>
