<?xml version="1.0" encoding="utf-8"?>
<!-- Generator: Adobe Illustrator 16.0.0, SVG Export Plug-In . SVG Version: 6.00 Build 0)  -->
<!DOCTYPE svg PUBLIC "-//W3C//DTD SVG 1.1//EN" "http://www.w3.org/Graphics/SVG/1.1/DTD/svg11.dtd">
<svg version="1.1" id="Layer_1" xmlns="http://www.w3.org/2000/svg" xmlns:xlink="http://www.w3.org/1999/xlink" x="0px" y="0px"
	 width="300px" height="300.691px" viewBox="0 0 300 300.691" enable-background="new 0 0 300 300.691" xml:space="preserve">
<path fill="inherit" d="M149.486,300.691C66.876,300.691,0,232.422,0,149.829C0,67.219,66.876,0,149.486,0
	C232.08,0,300,67.219,300,149.829C300,232.422,232.08,300.691,149.486,300.691L149.486,300.691z M149.486,33.112
	c-64.548,0-116.717,52.169-116.717,116.717c0,64.526,52.169,117.402,116.717,117.402c64.526,0,117.739-52.876,117.739-117.402
	C267.226,85.281,214.013,33.112,149.486,33.112L149.486,33.112z M226.195,122.472l-75.426,95.07
	c-2.551,3.242-6.401,5.189-10.513,5.363c-0.186,0.021-0.392,0.021-0.582,0.021c-3.905,0-7.652-1.609-10.339-4.492l-50.233-53.605
	c-5.363-5.699-5.069-14.652,0.631-20.014c5.716-5.341,14.69-5.069,20.031,0.642l39.023,41.628l65.195-82.218
	c4.862-6.146,13.781-7.152,19.917-2.29C230.024,107.438,231.058,116.342,226.195,122.472L226.195,122.472z"/>
</svg>
