<?xml version="1.0" encoding="iso-8859-1"?>
<!-- Generator: Adobe Illustrator 16.0.0, SVG Export Plug-In . SVG Version: 6.00 Build 0)  -->
<!DOCTYPE svg PUBLIC "-//W3C//DTD SVG 1.1//EN" "http://www.w3.org/Graphics/SVG/1.1/DTD/svg11.dtd">
<svg version="1.1" xmlns="http://www.w3.org/2000/svg" xmlns:xlink="http://www.w3.org/1999/xlink" x="0px" y="0px" width="70px"
	 height="70px" viewBox="0 0 70 70" style="enable-background:new 0 0 70 70;" xml:space="preserve">

<g>
	<path fill="inherit" d="M62.114,31.236c-1.966-0.534-2.999-2.442-4.337-3.839c-0.589-0.615-2.236,0.136-1.594,0.806
		c0.728,0.76,1.38,1.635,2.105,2.41v0C56.254,36.746,52.388,42.259,47.6,46.5c-10.917,9.671-25.883,6.779-37.707,0.553
		c-0.05-0.026-0.104-0.026-0.158-0.02c0.136-0.779,0.196-1.569,0.13-2.393c-0.022-0.281-1.783,0.032-1.748,0.477
		c0.12,1.504-0.167,2.895-0.625,4.317c-0.093,0.288,1.581,0.099,1.719-0.329c0.063-0.197,0.114-0.393,0.171-0.589
		c0.012,0.008,0.016,0.02,0.029,0.026c11.765,6.197,26.123,9.175,37.671,0.859C52.92,45.2,57.493,38.858,60.004,32.014
		c0.347,0.198,0.711,0.372,1.119,0.483c0.438,0.119,0.934,0.046,1.235-0.337C62.6,31.854,62.531,31.35,62.114,31.236z
			M20.098,29.642c1.104-0.32,1.396-2.733,0.65-5.39c-0.745-2.656-2.245-4.55-3.349-4.229c-1.104,0.32-1.396,2.733-0.65,5.39
		C17.494,28.069,18.994,29.962,20.098,29.642z M38.707,23.411c1.138-0.156,1.766-2.502,1.402-5.239
		c-0.364-2.738-1.582-4.83-2.721-4.674c-1.137,0.157-1.765,2.502-1.402,5.24C36.351,21.476,37.568,23.568,38.707,23.411z"/>
</g>
</svg>
