<?xml version="1.0" encoding="iso-8859-1"?>
<!-- Generator: Adobe Illustrator 16.0.0, SVG Export Plug-In . SVG Version: 6.00 Build 0)  -->
<!DOCTYPE svg PUBLIC "-//W3C//DTD SVG 1.1//EN" "http://www.w3.org/Graphics/SVG/1.1/DTD/svg11.dtd">
<svg version="1.1" xmlns="http://www.w3.org/2000/svg" xmlns:xlink="http://www.w3.org/1999/xlink" x="0px" y="0px" width="70px"
	 height="70px" viewBox="0 0 70 70" style="enable-background:new 0 0 70 70;" xml:space="preserve">
<g id="Layer_1" style="display:none;">
	<g style="display:inline;">
		<g>
			<path style="fill-rule:evenodd;clip-rule:evenodd;fill:inherit;" d="M50.654,16.979c-5.684-5.416-13.278-4.167-16.943,2.792
				c-0.398,0.758-0.736,1.548-1.131,2.382c-0.619-0.675-1.128-1.292-1.702-1.843c-2.373-2.277-5.095-3.778-8.516-3.529
				c-3.978,0.289-6.618,2.578-8.47,5.885c-1.966,3.512-2.537,7.335-2.154,11.289c0.52,5.375,2.377,10.174,6.585,13.783
				c3.122,2.678,6.692,3.676,10.665,2.066c2.885-1.168,4.693-3.464,5.998-6.198c0.168-0.353,0.498-1.06,0.498-1.06
				s1.916,1.824,5.802,4.095c6.192,1.646,10.43-0.093,13.263-5.382C58.515,33.859,56.736,22.773,50.654,16.979z M51.223,41.321
				c-3.197,3.689-8.084,4.114-11.886,1.044c-1.79-1.445-3.093-3.251-4.157-5.582c-0.152,0.547-0.256,0.871-0.333,1.202
				c-0.548,2.347-1.532,4.462-3.246,6.208c-2.84,2.893-7.079,3.553-10.655,1.641c-7.496-4.006-9.643-16.088-3.986-22.442
				c3.721-4.181,9.572-4.298,13.693-0.155c1.246,1.252,2.19,2.803,3.236,4.168c0.218-0.793,0.435-1.791,0.766-2.75
				c0.859-2.489,2.258-4.596,4.618-5.915c2.796-1.563,5.589-1.36,8.29,0.228C54.565,23.085,56.536,35.188,51.223,41.321z
				 M44.674,5.748c0.533,0.473,1.08,0.852,1.662,0.185c0.592-0.68,0.07-1.181-0.432-1.632c-3.129-2.811-7.556-2.611-10.459,0.501
				c-0.193,0.208-0.161,0.625-0.232,0.944C35.558,5.694,37.195,5.64,37.5,5.5C37.505,5.498,42.028,3.401,44.674,5.748z M12.5,12.5
				c1.797-2.874,4.783-4.151,8-3c0.245,0.088,0.527-0.419,0.818-0.459c-0.125-0.305-0.163-0.765-0.389-0.889
				c-1.574-0.865-3.277-1.208-4.963-1.027c-2.442,0.475-4.104,1.838-5.302,3.823c-0.347,0.575-0.485,1.187,0.192,1.595
				C11.569,12.971,12.146,13.064,12.5,12.5z M28,30.717c-1.227,0.39-1.955,3.926,0.982,4.373c1.041,0.158,2.059-0.387,2.533-1.359
				c0.454-0.93,0.24-2.109-0.514-2.824C30.148,30.095,29.158,30.032,28,30.717z M38.422,28.874c-1.326-0.381-3.093,6.3,2.186,4.269
				c1.357-0.522,1.938-2.04,1.303-3.412C41.326,28.464,39.852,28.103,38.422,28.874z"/>
		</g>
	</g>
	<path style="display:inline;fill:inherit;" d="M25.063,66.415c3.005-7.895,7.453-1.008,11.948-1.664
		c2.803-0.41,4.302-1.793,5.822-4.112c2.188-3.337,7.972,0.046,11.492-0.897c2.698-0.724,5.036-2.485,5.534-5.326
		c0.203-1.162-3.276-0.54-3.459,0.504c-0.98,5.601-8.794,1.061-12.326,2.007c-3.046,0.816-5.114,6.974-8.043,5.132
		c-4.994-3.139-12.355-0.582-14.428,4.861C21.238,67.883,24.666,67.458,25.063,66.415L25.063,66.415z"/>
</g>
<g id="Layer_2" style="display:none;">
	<g style="display:inline;">
		<g>
			<path style="fill:inherit;" d="M17.132,29.65c1.685-0.443,2.459-3.064,1.731-5.853c-0.729-2.788-2.684-4.688-4.369-4.245
				c-1.685,0.444-2.46,3.065-1.732,5.853S15.446,30.094,17.132,29.65z M47.531,24.902c1.735-0.138,2.961-2.581,2.736-5.454
				c-0.224-2.874-1.812-5.091-3.549-4.953c-1.738,0.137-2.963,2.58-2.738,5.453C44.206,22.821,45.795,25.039,47.531,24.902z
				 M58.953,44.438c-13.922-9.392-38.578-8.974-45.552,8.843c-0.744,1.901,2.933,1.337,3.51-0.136
				c6.124-15.646,27.886-14.085,39.567-6.205C57.801,47.832,60.699,45.614,58.953,44.438z"/>
		</g>
	</g>
</g>
<g id="Layer_3" style="display:none;">
	<g style="display:inline;">
		<g>
			<path style="fill-rule:evenodd;clip-rule:evenodd;fill:inherit;" d="M52.133,28.029c-5.684-5.416-13.278-4.167-16.943,2.792
				c-0.399,0.758-0.737,1.548-1.132,2.382c-0.619-0.675-1.127-1.292-1.702-1.843c-2.373-2.277-5.095-3.778-8.516-3.53
				c-3.977,0.289-6.618,2.579-8.47,5.886c-1.965,3.511-2.537,7.335-2.154,11.288c0.52,5.375,2.377,10.174,6.585,13.783
				c3.123,2.678,6.693,3.676,10.665,2.066c2.885-1.168,4.694-3.463,5.999-6.197c0.168-0.354,0.498-1.061,0.498-1.061
				s1.916,1.824,5.802,4.096c6.192,1.645,10.43-0.094,13.263-5.383C59.993,44.908,58.215,33.823,52.133,28.029z M52.701,52.371
				c-3.197,3.689-8.084,4.113-11.886,1.043c-1.79-1.445-3.093-3.25-4.157-5.582c-0.152,0.547-0.256,0.871-0.333,1.203
				c-0.547,2.346-1.532,4.461-3.246,6.207c-2.84,2.893-7.079,3.553-10.655,1.641c-7.496-4.006-9.642-16.088-3.986-22.442
				c3.721-4.181,9.572-4.298,13.693-0.155c1.246,1.251,2.19,2.802,3.236,4.167c0.218-0.793,0.435-1.791,0.766-2.75
				c0.859-2.489,2.258-4.595,4.618-5.915c2.796-1.563,5.589-1.361,8.29,0.227C56.044,34.134,58.015,46.236,52.701,52.371z
				 M46.152,10.797c0.533,0.473,1.08,0.852,1.662,0.185c0.592-0.68,0.07-1.181-0.432-1.632c-3.129-2.811-7.556-2.611-10.459,0.501
				c-0.193,0.208-0.161,0.625-0.232,0.944c0.345-0.051,1.982-0.105,2.287-0.246C38.983,10.547,43.507,8.45,46.152,10.797z
				 M13.979,23.549c1.796-2.874,4.783-4.151,8-3c0.245,0.088,0.527-0.419,0.819-0.459c-0.125-0.305-0.164-0.765-0.389-0.889
				c-1.575-0.865-3.277-1.208-4.963-1.027c-2.442,0.475-4.103,1.838-5.301,3.823c-0.347,0.575-0.485,1.187,0.192,1.595
				C13.048,24.02,13.625,24.114,13.979,23.549z M24.351,43.766c-1.227,0.391-1.955,3.926,0.982,4.373
				c1.042,0.158,2.059-0.387,2.533-1.359c0.455-0.93,0.241-2.109-0.513-2.824C26.499,43.145,25.509,43.082,24.351,43.766z
				 M45.557,40.451c-1.326-0.381-3.093,6.301,2.186,4.27c1.357-0.523,1.938-2.041,1.303-3.412
				C48.461,40.041,46.986,39.68,45.557,40.451z"/>
		</g>
	</g>
</g>
<g id="Layer_4">
	<g>
		<g>
			<path style="fill:inherit;" d="M62.114,31.236c-1.966-0.534-2.999-2.442-4.337-3.839c-0.589-0.615-2.236,0.136-1.594,0.806
				c0.728,0.76,1.38,1.635,2.105,2.41v0C56.254,36.746,52.388,42.259,47.6,46.5c-10.917,9.671-25.883,6.779-37.707,0.553
				c-0.05-0.026-0.104-0.026-0.158-0.02c0.136-0.779,0.196-1.569,0.13-2.393c-0.022-0.281-1.783,0.032-1.748,0.477
				c0.12,1.504-0.167,2.895-0.625,4.317c-0.093,0.288,1.581,0.099,1.719-0.329c0.063-0.197,0.114-0.393,0.171-0.589
				c0.012,0.008,0.016,0.02,0.029,0.026c11.765,6.197,26.123,9.175,37.671,0.859C52.92,45.2,57.493,38.858,60.004,32.014
				c0.347,0.198,0.711,0.372,1.119,0.483c0.438,0.119,0.934,0.046,1.235-0.337C62.6,31.854,62.531,31.35,62.114,31.236z
				 M20.098,29.642c1.104-0.32,1.396-2.733,0.65-5.39c-0.745-2.656-2.245-4.55-3.349-4.229c-1.104,0.32-1.396,2.733-0.65,5.39
				C17.494,28.069,18.994,29.962,20.098,29.642z M38.707,23.411c1.138-0.156,1.766-2.502,1.402-5.239
				c-0.364-2.738-1.582-4.83-2.721-4.674c-1.137,0.157-1.765,2.502-1.402,5.24C36.351,21.476,37.568,23.568,38.707,23.411z"/>
		</g>
	</g>
</g>
<g id="Layer_5" style="display:none;">
	<g style="display:inline;">
		<g>
			<path style="fill:inherit;" d="M56.379,34.713c0.747-0.857,1.207-1.728,1.156-2.943c-0.066-1.508-1.621-2.83-2.705-3.656
				c-2.316-1.764-5.45-0.41-8.107-0.862c0.989-1.839,2.198-3.383,2.662-5.495c0.52-2.366-0.032-4.471-1.107-6.572
				c-0.639-1.248-1.631-3.389-3.197-3.62c-1.648-0.243-3.35,0.236-4.764,1.096c-0.131,0.08-0.41,0.289-0.33,0.487
				c1.114,2.792,1.36,5.828-0.817,8.168c-1.461,1.569-3.458,2.507-4.888,4.116c-1.066,1.198-1.741,2.744-2.567,4.108
				c-1.105,1.823-2.296,3.104-4.518,2.252c-0.516-0.198-2.094,0.565-1.381,0.838c1.804,0.692,3.769,0.688,5.363-0.528
				c1.724-1.315,2.615-3.408,3.712-5.222c1.399-2.313,3.788-3.443,5.666-5.288c2.416-2.373,2.387-5.645,1.268-8.632
				c0.466-0.224,0.947-0.393,1.472-0.478c0.976-0.157,1.494,0.493,2.029,1.163c0.865,1.087,1.513,2.461,2.047,3.745
				c0.752,1.812,0.504,3.833,0.021,5.673c-0.438,1.662-1.721,3.031-2.485,4.542c-0.137,0.271,0.005,0.413,0.273,0.484
				c2.332,0.62,4.696-0.259,7.01,0.217c1.076,0.222,1.938,1.24,2.662,1.997c1.326,1.386,1.146,3.081-0.114,4.416
				c-0.14,0.147-0.245,0.288-0.111,0.478c1.054,1.506,3.312,3.548,1.538,5.47c-0.961,1.041-2.012,1.447-1.148,2.992
				c0.479,0.855,1.105,1.662,0.204,2.523c-0.68,0.648-1.71,0.825-2.417,1.448c-1.42,1.249,0.51,1.429,0.99,2.479
				c1.665,3.634-5.209,4.557-7.344,4.97c-2.945,0.569-5.853,0.584-8.756-0.211c-2.354-0.645-4.007-2.692-6.414-3.205
				c-0.542-0.116-2.045,0.729-1.064,0.938c1.258,0.27,2.297,1.033,3.351,1.737c1.15,0.769,2.282,1.255,3.609,1.618
				c2.943,0.807,6.064,0.607,9.033,0.076c2.775-0.497,7.858-1.084,9.229-4.051c0.279-0.604,0.429-1.307,0.208-1.947
				c-0.295-0.853-0.85-1.137-1.508-1.724c-0.297-0.265,2.199-1.647,2.468-1.852c0.687-0.521,0.96-1.296,0.757-2.118
				c-0.207-0.836-1.52-1.812-0.688-2.635c0.562-0.557,1.316-0.986,1.602-1.775C59.083,37.713,57.553,36.322,56.379,34.713z
				 M27.851,52.572c-0.594-0.729-0.974-1.764-1.356-2.617c-1.33-2.973-1.615-6.407-1.761-9.625
				c-0.082-1.805-0.127-3.621,0.104-5.415c0.198-1.53,0.498-3.024,0.374-4.573c-0.035-0.445-1.01-0.181-1.204-0.107
				c-3.681,1.394-7.596,2.943-11.449,1.18c0.083-0.095,0.128-0.196,0.08-0.295c-0.192-0.393-0.387-0.707-0.678-1.037
				c-0.387-0.439-1.473,0.002-1.671,0.452c-1.058,2.401-0.83,5.206-0.564,7.751c0.317,3.047,0.853,5.983,1.949,8.852
				c1.122,2.935,2.616,5.869,4.203,8.575c0.265,0.452,0.669,0.677,1.2,0.589c1.05-0.178,1.992-0.631,3.075-0.771
				c1.639-0.212,3.322-0.11,4.971-0.171c0.965-0.035,1.973,0.083,2.882-0.299c0.596-0.25,0.937-0.85,0.682-1.479
				C28.53,53.199,28.11,52.889,27.851,52.572z M26.622,54.363c-0.609-0.012-1.228,0.056-1.838,0.07
				c-1.465,0.032-2.923,0.027-4.384,0.168c-0.974,0.094-1.947,0.313-2.864,0.657c0.007-0.066-0.002-0.145-0.063-0.249
				c-0.312-0.532-0.57-1.104-0.857-1.65c-1.397-2.66-2.769-5.328-3.748-8.18c-0.816-2.378-1.127-4.873-1.409-7.361
				c-0.201-1.781-0.347-3.68-0.034-5.475c4.007,1.708,8.183,0.459,12.074-0.982c0.076,2.448-0.576,4.924-0.551,7.392
				c0.03,2.947,0.231,5.895,0.88,8.773c0.51,2.264,1.448,4.654,3.006,6.391C27.309,54.449,27.268,54.377,26.622,54.363z
				 M24.543,50.19c-0.033-0.043-0.072-0.075-0.106-0.115c-0.042-0.065-0.075-0.136-0.125-0.196
				c-0.028-0.034-0.078-0.052-0.128-0.069c-0.829-0.724-1.947-0.724-2.938-0.048c-0.792,0.542-1.044,1.694-0.738,2.573
				c0.465,1.332,2.166,1.316,3.204,0.744c0.964-0.53,1.315-1.845,0.844-2.817C24.551,50.238,24.561,50.213,24.543,50.19z
				 M22.8,52.537c-0.034-0.021-0.073-0.029-0.106-0.053c-0.268-0.188-0.416-0.476-0.506-0.783c-0.147-0.496-0.063-1.037,0.164-1.497
				c0.134,0.101,0.257,0.225,0.366,0.354C23.124,51.112,23.083,51.935,22.8,52.537z"/>
		</g>
	</g>
</g>
<g id="Layer_6" style="display:none;">
	<path style="display:inline;fill:inherit;" d="M24.483,10.028c-2.736,0.245-7.142-0.314-8.792,2.463
		c-2.352,3.957,6.211,8.943,8.618,10.439c5.361,3.332,11.679,4.948,17.893,5.615c3.738,0.401,7.975,0.219,10.742-2.635
		c8.671-8.945-23.381-16.154-28.459-15.876c-0.704,0.039-2.076,1.165-0.765,1.092c3.616-0.197,7.655,1.067,11.123,1.915
		c5.314,1.3,11.47,2.97,15.637,6.719c2.428,2.185,2.386,5.566-0.95,7.236c-3.855,1.928-10.503,0.032-14.41-1.026
		c-5.26-1.424-9.95-4.131-14.164-7.524c-1.458-1.173-6.589-6.19-1.082-7.061c1.428-0.226,2.896-0.165,4.337-0.294
		C25.162,11.007,25.84,9.906,24.483,10.028L24.483,10.028z"/>
	<path style="display:inline;fill:inherit;" d="M27.345,23.625c-3.575-0.442-7.459-0.674-10.18,2.015
		c-3.1,3.064,12.585,6.289,13.777,6.512c4.964,0.925,9.979,1.188,14.894-0.048c2.762-0.695,7.243-2.525,7.042-6.038
		c-0.023-0.398-1.717,0.327-1.769,0.877c-0.539,5.811-13.279,5.067-17.435,4.672c-3.155-0.3-6.236-1.216-9.288-2.053
		c-1.654-0.453-3.165-1.074-4.637-1.977c-2.99-1.698,2.193-3.958,4.532-3.366c0.643,0.049,2.263-0.165,2.901-0.077
		C27.615,24.196,28.281,23.741,27.345,23.625L27.345,23.625z"/>
	<path style="display:inline;fill:inherit;" d="M16.684,26.653c2.901,9.812,5.509,19.609,6.9,29.764
		c0.131,0.965,2.09,0.469,1.954-0.523c-1.391-10.154-3.998-19.95-6.9-29.763C18.355,25.173,16.402,25.702,16.684,26.653
		L16.684,26.653z"/>
	<path style="display:inline;fill:inherit;" d="M50.867,27.652c-1.326,9.651-3.491,19.171-2.784,28.968
		c0.044,0.599,2.009,0.194,1.956-0.522c-0.702-9.717,1.465-19.141,2.777-28.706C52.918,26.657,50.953,27.021,50.867,27.652
		L50.867,27.652z"/>
	<path style="display:inline;fill:inherit;" d="M23.584,56.417c0.312,4.23,9.719,4.751,12.66,5.061
		c4.864,0.512,11.392-0.501,13.724-5.301c0.479-0.985-1.499-0.948-1.862-0.198c-2.199,4.524-8.522,4.459-12.81,3.933
		c-2.22-0.271-9.53-0.933-9.758-4.018C25.475,55.035,23.516,55.498,23.584,56.417L23.584,56.417z"/>
	<path style="display:inline;fill:inherit;" d="M30.971,56.493c-0.124-5.952-1.694-11.605-3.915-17.097
		c-0.189-0.468-1.475-0.075-1.303,0.35c2.221,5.491,3.791,11.144,3.914,17.097C29.675,57.27,30.981,57.009,30.971,56.493
		L30.971,56.493z"/>
	<path style="display:inline;fill:inherit;" d="M36.84,57.522c-0.016-4.586-0.246-9.146-0.823-13.697
		c-0.038-0.296-1.351-0.023-1.304,0.351c0.579,4.552,0.808,9.109,0.824,13.696C35.538,58.128,36.842,57.925,36.84,57.522
		L36.84,57.522z"/>
	<path style="display:inline;fill:inherit;" d="M43.338,56.108c-0.415-6.837,1.449-12.88,2.162-19.57
		c0.072-0.683-1.257-0.509-1.321,0.093c-0.714,6.69-2.579,12.734-2.162,19.57C42.059,56.898,43.374,56.701,43.338,56.108
		L43.338,56.108z"/>
</g>
<g id="Layer_7" style="display:none;">
	<g style="display:inline;">
		<path style="fill:inherit;" d="M21.175,22.267c-1.648,5.127-4.27,9.815-6.858,14.512c-0.259,0.47,2.169,0.276,2.549-0.414
			c2.59-4.696,5.21-9.385,6.859-14.511C23.93,21.216,21.405,21.553,21.175,22.267L21.175,22.267z"/>
		<path style="fill:inherit;" d="M45.151,21.849c0.506,5.174,2.776,10.738,5.737,15c0.684,0.984,3.132-0.026,2.354-1.148
			c-2.866-4.125-5.024-9.52-5.516-14.541C47.607,19.948,45.026,20.583,45.151,21.849L45.151,21.849z"/>
		<path style="fill:inherit;" d="M14.352,36.62c-0.02,4.659-0.234,9.312,0.592,13.919c0.112,0.627,2.703,0.03,2.574-0.689
			c-0.826-4.607-0.612-9.261-0.592-13.919C16.928,35.415,14.354,35.812,14.352,36.62L14.352,36.62z"/>
		<path style="fill:inherit;" d="M50.777,36.62c0.542,4.533,0.371,9.119,1.185,13.623c0.159,0.872,2.744,0.246,2.576-0.689
			c-0.816-4.504-0.646-9.09-1.186-13.623C53.251,35.081,50.663,35.658,50.777,36.62L50.777,36.62z"/>
		<path style="fill:inherit;" d="M15.785,50.831c12.302,2.035,24.768-0.186,37.127-0.315c1.467-0.016,1.98-1.896,0.231-1.878
			c-12.138,0.127-24.388,2.328-36.466,0.328C15.414,48.757,14.059,50.545,15.785,50.831L15.785,50.831z"/>
		<path style="fill:inherit;" d="M15.799,37.853c4.004,0.407,11.352-1.588,13.7,2.495c1.278,2.221,2.466,3.629,5.286,3.45
			c1.728-0.11,3.653-0.901,4.491-2.519c2.553-4.93,8.686-2.658,13.337-3.768c1.618-0.386,1.102-2.264-0.504-1.881
			c-3.496,0.834-7.632-0.608-10.981,0.763c-1.111,0.455-2.042,0.718-2.81,1.671c-0.958,1.189-2.691,7.228-5.99,2.049
			c-3.884-6.094-9.188-3.576-15.665-4.231C15.337,35.748,14.061,37.678,15.799,37.853L15.799,37.853z"/>
		<path style="fill:inherit;" d="M26.352,26.561c4.646,0.523,9.292,0.324,13.954,0.305c1.48-0.007,1.97-1.918,0.222-1.91
			c-4.44,0.019-8.865,0.21-13.291-0.288C25.959,24.523,24.612,26.365,26.352,26.561L26.352,26.561z"/>
		<path style="fill:inherit;" d="M23.98,32.773c6.421,0.542,12.851,0.324,19.285,0.303c1.475-0.005,1.973-1.901,0.227-1.895
			c-6.214,0.021-12.422,0.234-18.623-0.289C23.605,30.786,22.238,32.626,23.98,32.773L23.98,32.773z"/>
		<path style="fill:inherit;" d="M28.419,21.579c3.167-0.004,6.334-0.056,9.502-0.061c1.468-0.002,1.979-1.879,0.23-1.876
			c-3.167,0.004-6.335,0.057-9.502,0.061C27.181,19.704,26.671,21.582,28.419,21.579L28.419,21.579z"/>
	</g>
</g>
</svg>
