<?xml version="1.0" encoding="utf-8"?>
<!-- Generator: Adobe Illustrator 16.0.0, SVG Export Plug-In . SVG Version: 6.00 Build 0)  -->
<!DOCTYPE svg PUBLIC "-//W3C//DTD SVG 1.1//EN" "http://www.w3.org/Graphics/SVG/1.1/DTD/svg11.dtd">
<svg version="1.1" id="Layer_1" xmlns="http://www.w3.org/2000/svg" xmlns:xlink="http://www.w3.org/1999/xlink" x="0px" y="0px"
	 width="300px" height="300px" viewBox="0 0 300 300" enable-background="new 0 0 300 300" xml:space="preserve">
<path fill-rule="evenodd" clip-rule="evenodd" fill="white" d="M185.125,150.53l106.001,106.003
	c9.773,9.772,9.773,25.603,0,35.374c-9.771,9.772-25.626,9.772-35.398,0L149.725,185.905L43.04,292.617
	c-9.846,9.845-25.798,9.845-35.655,0c-9.846-9.821-9.846-25.823,0-35.669l106.698-106.687L8.117,44.271
	c-9.772-9.771-9.772-25.614,0-35.386c9.736-9.772,25.566-9.772,35.338,0l106.014,106.002L256.949,7.394
	c9.87-9.858,25.822-9.858,35.668,0c9.845,9.845,9.845,25.798,0,35.655L185.125,150.53L185.125,150.53z"/>
</svg>
