<?xml version="1.0" encoding="iso-8859-1"?>
<!-- Generator: Adobe Illustrator 16.0.0, SVG Export Plug-In . SVG Version: 6.00 Build 0)  -->
<!DOCTYPE svg PUBLIC "-//W3C//DTD SVG 1.1//EN" "http://www.w3.org/Graphics/SVG/1.1/DTD/svg11.dtd">
<svg version="1.1" id="Layer_1" xmlns="http://www.w3.org/2000/svg" xmlns:xlink="http://www.w3.org/1999/xlink" x="0px" y="0px"
	 width="39px" height="53px" viewBox="0 0 39 53" style="enable-background:new 0 0 39 53;" xml:space="preserve">
<g>
	<g>
		<path fill="inherit" d="M36,0H3C1.344,0,0,1.344,0,3v47c0,1.656,1.344,3,3,3h33c1.656,0,3-1.344,3-3V3C39,1.344,37.656,0,36,0z M5.056,44.718
			c-0.135-0.134-0.089-0.158,0.068-0.158c0.09,0,0.219,0.009,0.372,0.009c0.566,0,1.461-0.115,1.981-1.196
			c0.425-0.882-0.336-1.941,0.341-2.999c0.396-0.621,0.989-0.971,1.664-0.971c0.625,0,1.321,0.301,1.999,0.971
			c1.012,0.999,0.913,2.531,0,3.619c-1.031,1.229-2.381,1.66-3.601,1.66C6.656,45.652,5.563,45.219,5.056,44.718z M12.212,47.002
			c-0.608,0-1.189-0.035-1.735-0.1c1.262-0.298,2.384-0.98,3.24-2c0.384-0.458,0.657-0.96,0.832-1.476
			c3.05,0.489,6.728,1.688,6.728,2.507C21.277,46.982,15.228,47.002,12.212,47.002z M22.561,31.688l-7.382,8.182
			c-0.214,0.229-0.514,0.361-0.83,0.367s-0.62-0.116-0.843-0.337l-1.579-1.562c-0.223-0.22-0.346-0.521-0.339-0.832
			c0.006-0.312,0.14-0.607,0.371-0.818l8.314-7.258c0.615-0.565,1.648-0.547,2.243,0.041C23.135,30.082,23.154,31.057,22.561,31.688
			z M37,25H2V2h35V25z"/>
	</g>
</g>
</svg>
