<?xml version="1.0" encoding="utf-8"?>
<!-- Generator: Adobe Illustrator 16.0.0, SVG Export Plug-In . SVG Version: 6.00 Build 0)  -->
<!DOCTYPE svg PUBLIC "-//W3C//DTD SVG 1.1//EN" "http://www.w3.org/Graphics/SVG/1.1/DTD/svg11.dtd">
<svg version="1.1" id="Layer_1" xmlns="http://www.w3.org/2000/svg" xmlns:xlink="http://www.w3.org/1999/xlink" x="0px" y="0px"
	 width="300.006px" height="300.008px" viewBox="0 0 300.006 300.008" enable-background="new 0 0 300.006 300.008"
	 xml:space="preserve">
<path fill-rule="evenodd" clip-rule="evenodd" fill="inherit" d="M256.07,43.936c-58.598-58.581-153.546-58.581-212.136,0
	c-58.58,58.58-58.58,153.537,0,212.137c58.589,58.58,153.538,58.58,212.136,0C314.651,197.473,314.651,102.516,256.07,43.936
	L256.07,43.936z M229.555,229.556c-43.93,43.949-115.183,43.949-159.113,0c-43.949-43.931-43.949-115.183,0-159.113
	c43.931-43.949,115.184-43.949,159.113,0C273.504,114.373,273.504,185.625,229.555,229.556L229.555,229.556z M149.687,94.11
	l-69.174,61.978c-3.388,3.388-5.503,8.057-5.503,13.239c0,10.364,8.405,18.752,18.761,18.752c10.236,0,13.249-5.493,13.249-5.493
	l43.006-35.975l42.411,35.369c3.406,3.425,8.094,5.513,13.258,5.513c10.347,0,18.751-8.405,18.751-18.752
	c0-10.255-5.512-13.258-5.512-13.258L149.687,94.11L149.687,94.11z"/>
</svg>
