<?xml version="1.0" encoding="utf-8"?>
<!-- Generator: Adobe Illustrator 16.0.0, SVG Export Plug-In . SVG Version: 6.00 Build 0)  -->
<!DOCTYPE svg PUBLIC "-//W3C//DTD SVG 1.1//EN" "http://www.w3.org/Graphics/SVG/1.1/DTD/svg11.dtd">
<svg version="1.1" id="Layer_1" xmlns="http://www.w3.org/2000/svg" xmlns:xlink="http://www.w3.org/1999/xlink" x="0px" y="0px"
	 width="299.998px" height="300.003px" viewBox="0 0 299.998 300.003" enable-background="new 0 0 299.998 300.003"
	 xml:space="preserve">
<path fill="#222F38" d="M256.069,256.063c-58.586,58.587-153.566,58.587-212.129,0c-58.587-58.588-58.587-153.567,0-212.122
	c58.563-58.587,153.543-58.587,212.129,0C314.641,102.495,314.641,197.475,256.069,256.063L256.069,256.063z M232.671,67.332
	c-45.658-45.658-119.673-45.658-165.34,0c-45.658,45.666-45.658,119.673,0,165.332c45.667,45.675,119.682,45.675,165.34,0
	C278.329,187.005,278.329,112.998,232.671,67.332L232.671,67.332z M199.974,166.619H99.922c-9.192,0-16.674-7.475-16.674-16.675
	c0-9.216,7.482-16.674,16.674-16.674h100.051c9.201,0,16.691,7.458,16.691,16.674C216.665,159.145,209.175,166.619,199.974,166.619
	L199.974,166.619z M166.911,199.868c0.051,9.201-7.382,16.732-16.582,16.784c-9.216,0.053-16.715-7.396-16.767-16.598l-0.56-100.05
	c-0.051-9.192,7.364-16.716,16.581-16.768c9.2-0.052,16.716,7.389,16.768,16.581L166.911,199.868L166.911,199.868z"/>
</svg>
