<?xml version="1.0" encoding="utf-8"?>
<!-- Generator: Adobe Illustrator 16.0.0, SVG Export Plug-In . SVG Version: 6.00 Build 0)  -->
<!DOCTYPE svg PUBLIC "-//W3C//DTD SVG 1.1//EN" "http://www.w3.org/Graphics/SVG/1.1/DTD/svg11.dtd">
<svg version="1.1" id="Layer_1" xmlns="http://www.w3.org/2000/svg" xmlns:xlink="http://www.w3.org/1999/xlink" x="0px" y="0px"
	 width="300px" height="300px" viewBox="0 0 300 300" enable-background="new 0 0 300 300" xml:space="preserve">
<path fill="#23B33E" d="M150,300C67.147,300,0,232.853,0,150C0,67.147,67.147,0,150,0c82.853,0,150,67.147,150,150
	C300,232.853,232.853,300,150,300L150,300z M150,29.83C83.747,29.83,29.83,83.747,29.83,150S83.747,270.17,150,270.17
	c66.253,0,120.17-53.917,120.17-120.17S216.253,29.83,150,29.83L150,29.83z M221.615,124.609l-96.42,93.401L101.9,194.774
	l-27.442-28.291c-7.121-7.385-8.176-17.934-0.806-25.084l0.264-0.248c7.37-7.121,17.464-5.349,24.614,2.021l27.413,28.291
	l72.758-70.501c7.355-7.121,17.919-8.176,25.055-0.835C223.755,100.142,234.142,112.449,221.615,124.609L221.615,124.609z"/>
</svg>
