<?xml version="1.0" encoding="utf-8"?>
<!-- Generator: Adobe Illustrator 16.0.0, SVG Export Plug-In . SVG Version: 6.00 Build 0)  -->
<!DOCTYPE svg PUBLIC "-//W3C//DTD SVG 1.1//EN" "http://www.w3.org/Graphics/SVG/1.1/DTD/svg11.dtd">
<svg version="1.1" id="Layer_1" xmlns="http://www.w3.org/2000/svg" xmlns:xlink="http://www.w3.org/1999/xlink" x="0px" y="0px"
	 width="300px" height="321.219px" viewBox="0 0 300 321.219" enable-background="new 0 0 300 321.219" xml:space="preserve">
<path fill-rule="evenodd" clip-rule="evenodd" fill="#6A6F82" d="M278.5,321.219H21.511c-24.042,0-21.428-27.712-21.428-21.375
	V42.823c0-11.827,9.601-21.427,21.428-21.427s20.443,9.6,20.443,21.427l0.816,192.75l214.459,0.669l-0.167-192.739
	c0-11.827,9.6-21.417,21.438-21.417c11.816,0,21.416,9.59,21.416,21.417v256.989C299.917,295.055,302.531,321.219,278.5,321.219
	L278.5,321.219z M107.208,128.479c5.898,0,11.263,2.395,15.132,6.285l6.254,6.264V21.396c0-11.827,9.6-21.396,21.427-21.396
	c11.817,0,21.417,9.569,21.417,21.396v119.632l6.253-6.264c3.911-3.891,9.245-6.285,15.185-6.285c11.816,0,21.417,9.6,21.417,21.427
	c0,5.94-2.427,11.273-6.296,15.121l-42.812,42.854c-3.89,3.869-9.223,6.254-15.163,6.254c-5.897,0-11.272-2.385-15.132-6.254
	l-42.812-42.854c-3.9-3.848-6.295-9.181-6.295-15.121C85.782,138.079,95.381,128.479,107.208,128.479L107.208,128.479z"/>
</svg>
