<?xml version="1.0" encoding="utf-8"?>
<!-- Generator: Adobe Illustrator 16.0.0, SVG Export Plug-In . SVG Version: 6.00 Build 0)  -->
<!DOCTYPE svg PUBLIC "-//W3C//DTD SVG 1.1//EN" "http://www.w3.org/Graphics/SVG/1.1/DTD/svg11.dtd">
<svg version="1.1" id="Layer_1" xmlns="http://www.w3.org/2000/svg" xmlns:xlink="http://www.w3.org/1999/xlink" x="0px" y="0px"
	 width="299.999px" height="257.385px" viewBox="0 0 299.999 257.385" enable-background="new 0 0 299.999 257.385"
	 xml:space="preserve">
<path fill-rule="evenodd" clip-rule="evenodd" fill="#D6DBE3" d="M74.4,139.407h182.906l-29.481,24.759
	c-4.188,4.188-4.188,10.985,0,15.175c4.189,4.189,10.976,4.189,15.165,0l53.957-42.521c2.23-2.241,3.184-5.205,3.037-8.127
	c0.146-2.922-0.807-5.891-3.037-8.117l-53.633-42.568c-4.188-4.189-10.986-4.189-15.175,0c-4.189,4.189-4.189,10.986,0,15.176
	l29.146,24.784H74.4c-5.922,0-10.724,4.802-10.724,10.725C63.676,134.61,68.478,139.407,74.4,139.407L74.4,139.407z M193.045,42.897
	c0-11.845-9.594-21.443-21.46-21.443H42.897c-11.84,0-21.438,9.598-21.438,21.443v171.59c0,11.846,9.599,21.459,21.438,21.459
	h128.688c11.866,0,21.46-9.613,21.46-21.459v-21.459h21.438v21.459c0,23.701-19.197,42.897-42.897,42.897H42.897
	C19.213,257.385,0,238.189,0,214.488V42.897C0,19.212,19.213,0,42.897,0h128.688c23.7,0,42.897,19.212,42.897,42.897v21.109h-21.438
	V42.897L193.045,42.897z"/>
</svg>
