<?xml version="1.0" encoding="utf-8"?>
<!-- Generator: Adobe Illustrator 16.0.0, SVG Export Plug-In . SVG Version: 6.00 Build 0)  -->
<!DOCTYPE svg PUBLIC "-//W3C//DTD SVG 1.1//EN" "http://www.w3.org/Graphics/SVG/1.1/DTD/svg11.dtd">
<svg version="1.1" id="Layer_1" xmlns="http://www.w3.org/2000/svg" xmlns:xlink="http://www.w3.org/1999/xlink" x="0px" y="0px"
	 width="300px" height="328.806px" viewBox="0 0 300 328.806" enable-background="new 0 0 300 328.806" xml:space="preserve">
<path fill="#00AEEF" d="M285.416,328.806H14.564C6.51,328.806,0,322.26,0,314.221V43.733c0-8.047,6.51-14.585,14.564-14.585h42.755
	V14.43C57.319,6.469,57.207,0,65.169,0h25.945c7.99,0,8.861,6.469,8.861,14.43v14.718h99.482V14.43c0-7.961,0.879-14.43,8.861-14.43
	h25.945c7.969,0,8.29,6.469,8.29,14.43v14.718h42.86c8.053,0,14.584,6.538,14.584,14.585v270.488
	C300,322.26,293.468,328.806,285.416,328.806L285.416,328.806z M271.487,64.485c0-4.033-3.266-7.306-7.3-7.306H35.972
	c-4.033,0-7.306,3.272-7.306,7.306v229.527c0,4.033,3.272,7.313,7.306,7.313h228.215c4.034,0,7.3-3.28,7.3-7.313V64.485
	L271.487,64.485z M193.289,257.74h-72.385c-3.531,0-6.385-3.21-6.385-7.132v-14.123c0-3.936,2.854-7.133,6.385-7.133l21.41-0.083
	v-85.728h-21.41c-3.531,0-6.385-3.182-6.385-7.111v-14.186c0-3.93,2.854-7.111,6.385-7.111h30.027h14.11
	c3.53,0,6.405,3.182,6.405,7.111v17.368v89.739h21.842c3.531,0,6.393,3.197,6.393,7.133v14.123
	C199.681,254.53,196.82,257.74,193.289,257.74L193.289,257.74z"/>
</svg>
