<?xml version="1.0" encoding="UTF-8"?><!DOCTYPE svg PUBLIC "-//W3C//DTD SVG 1.1//EN" "http://www.w3.org/Graphics/SVG/1.1/DTD/svg11.dtd"><svg xmlns="http://www.w3.org/2000/svg"><symbol id="logo" viewBox="0 0 374.266 81.078"><g fill="#304075"><path d="M87.894 69.223c-9.874.01-17.602-3.015-23.181-9.065-5.582-6.054-8.397-13.854-8.448-23.399l-.013-2.449c-.053-9.914 2.597-18.037 7.948-24.365C69.553 3.615 76.941.466 86.365.5c8.894-.01 15.732 2.707 20.516 8.148 4.78 5.443 7.197 12.775 7.246 21.996l.049 9.24-39.473.039-.183.365c.309 4.529 1.706 8.202 4.19 11.012 2.482 2.814 6.15 4.217 11.008 4.213 3.998-.004 7.392-.414 10.182-1.234 2.79-.816 5.67-2.062 8.641-3.74l4.894 11.012c-2.642 2.166-6.221 3.982-10.743 5.457-4.52 1.471-9.454 2.208-14.798 2.215zm-1.455-54.955c-3.592.002-6.349 1.238-8.273 3.711-1.926 2.469-3.081 5.744-3.467 9.824l.124.307 21.788-.021-.008-1.346c-.021-3.877-.832-6.926-2.436-9.146-1.602-2.222-4.179-3.333-7.728-3.329zM221.153 49.451c-.012-1.957-.969-3.64-2.874-5.046-1.903-1.405-5.43-2.635-10.575-3.691-7.761-1.545-13.658-3.885-17.692-7.023-4.037-3.137-6.068-7.398-6.097-12.783-.029-5.67 2.351-10.508 7.145-14.512C195.852 2.392 202.248.388 210.246.38c8.362-.008 15.074 1.986 20.137 5.979 5.058 3.994 7.502 8.969 7.33 14.926l-.119.367-17.26.018c-.014-2.652-.883-4.813-2.604-6.486-1.723-1.67-4.195-2.504-7.419-2.5-2.854.002-5.116.717-6.782 2.148-1.667 1.43-2.492 3.184-2.48 5.264.012 2.043.887 3.701 2.629 4.984 1.74 1.285 5.264 2.436 10.574 3.447 8.127 1.627 14.188 4.018 18.185 7.176 3.994 3.158 6.006 7.511 6.035 13.061.032 5.957-2.492 10.834-7.571 14.633-5.081 3.799-11.802 5.701-20.165 5.711-8.812.009-15.792-2.221-20.937-6.683-5.145-4.463-7.607-9.549-7.396-15.262l.121-.369 16.341-.014c.141 3.549 1.317 6.117 3.528 7.707 2.212 1.59 5.093 2.383 8.644 2.379 3.305-.004 5.818-.668 7.549-1.994 1.722-1.33 2.579-3.135 2.567-5.421zM273.771 69.044c-9.874.011-17.603-3.012-23.181-9.063-5.582-6.056-8.397-13.854-8.449-23.402l-.012-2.447c-.053-9.912 2.596-18.035 7.949-24.365C255.43 3.439 262.817.29 272.242.322c8.895-.008 15.732 2.709 20.516 8.15 4.779 5.441 7.197 12.775 7.246 21.994l.049 9.24-39.473.037-.184.367c.309 4.529 1.707 8.201 4.189 11.015 2.482 2.812 6.151 4.217 11.009 4.211 3.997-.002 7.392-.412 10.183-1.234 2.789-.816 5.67-2.064 8.641-3.74l4.893 11.014c-2.641 2.162-6.221 3.982-10.741 5.455-4.521 1.469-9.454 2.211-14.799 2.213zm-1.455-54.954c-3.591.004-6.349 1.24-8.272 3.711-1.926 2.471-3.08 5.746-3.467 9.826l.125.305 21.786-.02-.008-1.348c-.021-3.875-.832-6.924-2.437-9.146-1.601-2.22-4.177-3.33-7.727-3.328zM349.6 1.417c-18.219-5.38-37.35 5.028-42.729 23.248-5.379 18.219 5.027 37.352 23.248 42.731l.002.001-4.043 13.679 29.721-16.197c.342-.178.682-.362 1.018-.553l.248-.137-.01-.003c7.373-4.255 13.193-11.229 15.795-20.039 5.379-18.219-5.029-37.35-23.25-42.73zm-2.545 45.782l1.377 10.691-17.262-11.598.01-.002a15.132 15.132 0 0 1-6.264-9.812c-1.453-8.251 4.059-16.119 12.311-17.573 8.254-1.452 16.119 4.059 17.572 12.311 1.164 6.609-2.144 12.962-7.744 15.983z"/><path d="M58.288 1.73H37.675L21.914 26.694l-3.976.002.037-24.966H0v66.287l18.156-.012-.146-27.721 4.527-.006 18.508 27.707 20.563-.023L36.936 31.94zM137.207 67.882c.011-15.232.026-42.789-.008-44.855-.056-3.411 2.777-6.187 4.791-7.19 2.014-1.002 4.348-1.502 7-1.506 3.305-.004 5.789.984 7.451 2.961 1.664 1.977 2.508 5.332 2.533 10.064l-.074 40.526h17.976l.029-40.604c-.05-9.301-1.963-16.104-5.739-20.402-3.777-4.303-9.012-6.449-15.702-6.443-3.998.004-7.604.947-10.816 2.824-3.214 1.881-5.913 4.516-8.099 7.904l-.007-9.486-17.505.01v66.197h18.17z"/></g></symbol><symbol id="hamburger" viewBox="0 0 300 238"><path fill="currentColor" d="M0 47.609V0h300v47.609H0zm0 95.204V95.188h300v47.625H0zM0 238v-47.624h300V238H0z"/></symbol><symbol id="avatar" viewBox="0 0 300 319.902"><path fill-rule="evenodd" clip-rule="evenodd" fill="#7DBE89" d="M300 319.902l-300-.201 19.766-60.882 61.752-29.506 26.29-13.214-.175-27.179s-20.113-8.742-20.141-30.551c-.807-.055-1.668-.109-2.639-.257-12.994-1.667-24.137-22.065-25.09-35.92-.943-13.846 13.653-15.028 13.653-15.028s6.351.725 9.219.807c-1.2-5.195-6.982-19.133-6.982-46.229 0-16.467 4.398-24.539 13.131-29.799 0-.056-.027-.11-.027-.192 0 0-13.104-31.119 56.923-31.751 4.829.055 9.246.458 13.424 1.035 55.53 3.271 47.833 28.553 46.917 31.109.146.321.312.633.477.953 8.283 5.26 12.535 13.277 12.535 29.305 0 25.227 1.21 38.907-.055 44.882 5.425-.146 6.579-.375 8.32.752.019-.01 12.114-1.934 10.923 14.854-.935 13.818-15.395 34.234-28.406 35.884-.99.146-1.852.202-2.621.257-.055 21.809-20.141 30.569-20.141 30.569l-.165 27.16 26.262 13.213 66.142 29.488L300 319.902z"/></symbol><symbol id="search" viewBox="0 0 300 315.451"><path fill-rule="evenodd" clip-rule="evenodd" fill="#454C62" d="M294.746 284.602c7.006 7.047 7.006 18.488 0 25.548-3.53 3.517-8.109 5.301-12.701 5.301a17.89 17.89 0 0 1-12.703-5.301l-59.544-60.018c-4.12 2.939-11.48 5.064-20.247 6.652-16.848 7.61-35.506 11.94-55.188 11.94C60.162 268.725 0 208.564 0 134.363S60.162 0 134.363 0s134.362 60.162 134.362 134.363c0 32.659-11.678 62.575-31.031 85.854-.827 1.482-1.615 3.109-2.494 4.369l59.546 60.016zM134.363 25.849c-59.834 0-108.514 48.68-108.514 108.514 0 59.833 48.68 108.514 108.514 108.514 59.833 0 108.5-48.681 108.5-108.514 0-59.834-48.667-108.514-108.5-108.514z"/></symbol><symbol id="add" viewBox="0 0 300 300"><path fill-rule="evenodd" clip-rule="evenodd" fill="inherit" d="M149.996 300C67.165 300 0 232.835 0 149.996 0 67.165 67.165 0 149.996 0 232.835 0 300 67.165 300 149.996 300 232.835 232.835 300 149.996 300zm0-271.142c-66.798 0-121.138 54.34-121.138 121.138 0 66.799 54.34 121.146 121.138 121.146 66.799 0 121.146-54.347 121.146-121.146 0-66.798-54.347-121.138-121.146-121.138zm56.442 135.656h-41.441v41.91c0 10.254-4.57 18.574-14.81 18.574h-.374c-10.247 0-14.817-8.32-14.817-18.574v-41.91H93.562c-10.247 0-18.567-4.088-18.567-14.327v-.374c0-10.246 8.321-14.816 18.567-14.816h41.434V93.562c0-10.247 4.57-18.567 14.817-18.567h.374c10.239 0 14.327 8.321 14.327 18.567v41.435h41.924c10.24 0 18.561 4.57 18.561 14.816v.374c-.001 10.239-8.321 14.327-18.561 14.327z"/></symbol></svg>