<?xml version="1.0" encoding="UTF-8"?><!DOCTYPE svg PUBLIC "-//W3C//DTD SVG 1.1//EN" "http://www.w3.org/Graphics/SVG/1.1/DTD/svg11.dtd"><svg xmlns="http://www.w3.org/2000/svg"><symbol id="logo" viewBox="0 0 374.266 81.078"><g fill="#304075"><path d="M87.894 69.223c-9.874.01-17.602-3.015-23.181-9.065-5.582-6.054-8.397-13.854-8.448-23.399l-.013-2.449c-.053-9.914 2.597-18.037 7.948-24.365C69.553 3.615 76.941.466 86.365.5c8.894-.01 15.732 2.707 20.516 8.148 4.78 5.443 7.197 12.775 7.246 21.996l.049 9.24-39.473.039-.183.365c.309 4.529 1.706 8.202 4.19 11.012 2.482 2.814 6.15 4.217 11.008 4.213 3.998-.004 7.392-.414 10.182-1.234 2.79-.816 5.67-2.062 8.641-3.74l4.894 11.012c-2.642 2.166-6.221 3.982-10.743 5.457-4.52 1.471-9.454 2.208-14.798 2.215zm-1.455-54.955c-3.592.002-6.349 1.238-8.273 3.711-1.926 2.469-3.081 5.744-3.467 9.824l.124.307 21.788-.021-.008-1.346c-.021-3.877-.832-6.926-2.436-9.146-1.602-2.222-4.179-3.333-7.728-3.329zM221.153 49.451c-.012-1.957-.969-3.64-2.874-5.046-1.903-1.405-5.43-2.635-10.575-3.691-7.761-1.545-13.658-3.885-17.692-7.023-4.037-3.137-6.068-7.398-6.097-12.783-.029-5.67 2.351-10.508 7.145-14.512C195.852 2.392 202.248.388 210.246.38c8.362-.008 15.074 1.986 20.137 5.979 5.058 3.994 7.502 8.969 7.33 14.926l-.119.367-17.26.018c-.014-2.652-.883-4.813-2.604-6.486-1.723-1.67-4.195-2.504-7.419-2.5-2.854.002-5.116.717-6.782 2.148-1.667 1.43-2.492 3.184-2.48 5.264.012 2.043.887 3.701 2.629 4.984 1.74 1.285 5.264 2.436 10.574 3.447 8.127 1.627 14.188 4.018 18.185 7.176 3.994 3.158 6.006 7.511 6.035 13.061.032 5.957-2.492 10.834-7.571 14.633-5.081 3.799-11.802 5.701-20.165 5.711-8.812.009-15.792-2.221-20.937-6.683-5.145-4.463-7.607-9.549-7.396-15.262l.121-.369 16.341-.014c.141 3.549 1.317 6.117 3.528 7.707 2.212 1.59 5.093 2.383 8.644 2.379 3.305-.004 5.818-.668 7.549-1.994 1.722-1.33 2.579-3.135 2.567-5.421zM273.771 69.044c-9.874.011-17.603-3.012-23.181-9.063-5.582-6.056-8.397-13.854-8.449-23.402l-.012-2.447c-.053-9.912 2.596-18.035 7.949-24.365C255.43 3.439 262.817.29 272.242.322c8.895-.008 15.732 2.709 20.516 8.15 4.779 5.441 7.197 12.775 7.246 21.994l.049 9.24-39.473.037-.184.367c.309 4.529 1.707 8.201 4.189 11.015 2.482 2.812 6.151 4.217 11.009 4.211 3.997-.002 7.392-.412 10.183-1.234 2.789-.816 5.67-2.064 8.641-3.74l4.893 11.014c-2.641 2.162-6.221 3.982-10.741 5.455-4.521 1.469-9.454 2.211-14.799 2.213zm-1.455-54.954c-3.591.004-6.349 1.24-8.272 3.711-1.926 2.471-3.08 5.746-3.467 9.826l.125.305 21.786-.02-.008-1.348c-.021-3.875-.832-6.924-2.437-9.146-1.601-2.22-4.177-3.33-7.727-3.328zM349.6 1.417c-18.219-5.38-37.35 5.028-42.729 23.248-5.379 18.219 5.027 37.352 23.248 42.731l.002.001-4.043 13.679 29.721-16.197c.342-.178.682-.362 1.018-.553l.248-.137-.01-.003c7.373-4.255 13.193-11.229 15.795-20.039 5.379-18.219-5.029-37.35-23.25-42.73zm-2.545 45.782l1.377 10.691-17.262-11.598.01-.002a15.132 15.132 0 0 1-6.264-9.812c-1.453-8.251 4.059-16.119 12.311-17.573 8.254-1.452 16.119 4.059 17.572 12.311 1.164 6.609-2.144 12.962-7.744 15.983z"/><path d="M58.288 1.73H37.675L21.914 26.694l-3.976.002.037-24.966H0v66.287l18.156-.012-.146-27.721 4.527-.006 18.508 27.707 20.563-.023L36.936 31.94zM137.207 67.882c.011-15.232.026-42.789-.008-44.855-.056-3.411 2.777-6.187 4.791-7.19 2.014-1.002 4.348-1.502 7-1.506 3.305-.004 5.789.984 7.451 2.961 1.664 1.977 2.508 5.332 2.533 10.064l-.074 40.526h17.976l.029-40.604c-.05-9.301-1.963-16.104-5.739-20.402-3.777-4.303-9.012-6.449-15.702-6.443-3.998.004-7.604.947-10.816 2.824-3.214 1.881-5.913 4.516-8.099 7.904l-.007-9.486-17.505.01v66.197h18.17z"/></g></symbol><symbol id="hamburger" viewBox="0 0 300 238"><path fill="currentColor" d="M0 47.609V0h300v47.609H0zm0 95.204V95.188h300v47.625H0zM0 238v-47.624h300V238H0z"/></symbol><symbol id="avatar" viewBox="0 0 300 319.902"><path fill-rule="evenodd" clip-rule="evenodd" fill="#7DBE89" d="M300 319.902l-300-.201 19.766-60.882 61.752-29.506 26.29-13.214-.175-27.179s-20.113-8.742-20.141-30.551c-.807-.055-1.668-.109-2.639-.257-12.994-1.667-24.137-22.065-25.09-35.92-.943-13.846 13.653-15.028 13.653-15.028s6.351.725 9.219.807c-1.2-5.195-6.982-19.133-6.982-46.229 0-16.467 4.398-24.539 13.131-29.799 0-.056-.027-.11-.027-.192 0 0-13.104-31.119 56.923-31.751 4.829.055 9.246.458 13.424 1.035 55.53 3.271 47.833 28.553 46.917 31.109.146.321.312.633.477.953 8.283 5.26 12.535 13.277 12.535 29.305 0 25.227 1.21 38.907-.055 44.882 5.425-.146 6.579-.375 8.32.752.019-.01 12.114-1.934 10.923 14.854-.935 13.818-15.395 34.234-28.406 35.884-.99.146-1.852.202-2.621.257-.055 21.809-20.141 30.569-20.141 30.569l-.165 27.16 26.262 13.213 66.142 29.488L300 319.902z"/></symbol><symbol id="search" viewBox="0 0 300 315.451"><path fill-rule="evenodd" clip-rule="evenodd" fill="#454C62" d="M294.746 284.602c7.006 7.047 7.006 18.488 0 25.548-3.53 3.517-8.109 5.301-12.701 5.301a17.89 17.89 0 0 1-12.703-5.301l-59.544-60.018c-4.12 2.939-11.48 5.064-20.247 6.652-16.848 7.61-35.506 11.94-55.188 11.94C60.162 268.725 0 208.564 0 134.363S60.162 0 134.363 0s134.362 60.162 134.362 134.363c0 32.659-11.678 62.575-31.031 85.854-.827 1.482-1.615 3.109-2.494 4.369l59.546 60.016zM134.363 25.849c-59.834 0-108.514 48.68-108.514 108.514 0 59.833 48.68 108.514 108.514 108.514 59.833 0 108.5-48.681 108.5-108.514 0-59.834-48.667-108.514-108.5-108.514z"/></symbol><symbol id="add" viewBox="0 0 300 300"><path fill-rule="evenodd" clip-rule="evenodd" fill="inherit" d="M149.996 300C67.165 300 0 232.835 0 149.996 0 67.165 67.165 0 149.996 0 232.835 0 300 67.165 300 149.996 300 232.835 232.835 300 149.996 300zm0-271.142c-66.798 0-121.138 54.34-121.138 121.138 0 66.799 54.34 121.146 121.138 121.146 66.799 0 121.146-54.347 121.146-121.146 0-66.798-54.347-121.138-121.146-121.138zm56.442 135.656h-41.441v41.91c0 10.254-4.57 18.574-14.81 18.574h-.374c-10.247 0-14.817-8.32-14.817-18.574v-41.91H93.562c-10.247 0-18.567-4.088-18.567-14.327v-.374c0-10.246 8.321-14.816 18.567-14.816h41.434V93.562c0-10.247 4.57-18.567 14.817-18.567h.374c10.239 0 14.327 8.321 14.327 18.567v41.435h41.924c10.24 0 18.561 4.57 18.561 14.816v.374c-.001 10.239-8.321 14.327-18.561 14.327z"/></symbol><symbol id="error" viewBox="0 0 70 70"><path d="M50.654 16.979c-5.684-5.416-13.278-4.167-16.943 2.792-.398.758-.736 1.548-1.131 2.382-.619-.675-1.128-1.292-1.702-1.843-2.373-2.277-5.095-3.778-8.516-3.529-3.978.289-6.618 2.578-8.47 5.885-1.966 3.512-2.537 7.335-2.154 11.289.52 5.375 2.377 10.174 6.585 13.783 3.122 2.678 6.692 3.676 10.665 2.066 2.885-1.168 4.693-3.464 5.998-6.198.168-.353.498-1.06.498-1.06s1.916 1.824 5.802 4.095c6.192 1.646 10.43-.093 13.263-5.382 3.966-7.4 2.187-18.486-3.895-24.28zm.569 24.342c-3.197 3.689-8.084 4.114-11.886 1.044-1.79-1.445-3.093-3.251-4.157-5.582-.152.547-.256.871-.333 1.202-.548 2.347-1.532 4.462-3.246 6.208-2.84 2.893-7.079 3.553-10.655 1.641-7.496-4.006-9.643-16.088-3.986-22.442 3.721-4.181 9.572-4.298 13.693-.155 1.246 1.252 2.19 2.803 3.236 4.168.218-.793.435-1.791.766-2.75.859-2.489 2.258-4.596 4.618-5.915 2.796-1.563 5.589-1.36 8.29.228 7.002 4.117 8.973 16.22 3.66 22.353zM44.674 5.748c.533.473 1.08.852 1.662.185.592-.68.07-1.181-.432-1.632-3.129-2.811-7.556-2.611-10.459.501-.193.208-.161.625-.232.944.345-.052 1.982-.106 2.287-.246.005-.002 4.528-2.099 7.174.248zM12.5 12.5c1.797-2.874 4.783-4.151 8-3 .245.088.527-.419.818-.459-.125-.305-.163-.765-.389-.889-1.574-.865-3.277-1.208-4.963-1.027-2.442.475-4.104 1.838-5.302 3.823-.347.575-.485 1.187.192 1.595.713.428 1.29.521 1.644-.043zM28 30.717c-1.227.39-1.955 3.926.982 4.373 1.041.158 2.059-.387 2.533-1.359.454-.93.24-2.109-.514-2.824-.853-.812-1.843-.875-3.001-.19zm10.422-1.843c-1.326-.381-3.093 6.3 2.186 4.269 1.357-.522 1.938-2.04 1.303-3.412-.585-1.267-2.059-1.628-3.489-.857z" fill-rule="evenodd" clip-rule="evenodd" fill="inherit"/><path d="M25.063 66.415c3.005-7.895 7.453-1.008 11.948-1.664 2.803-.41 4.302-1.793 5.822-4.112 2.188-3.337 7.972.046 11.492-.897 2.698-.724 5.036-2.485 5.534-5.326.203-1.162-3.276-.54-3.459.504-.98 5.601-8.794 1.061-12.326 2.007-3.046.816-5.114 6.974-8.043 5.132-4.994-3.139-12.355-.582-14.428 4.861-.365.963 3.063.538 3.46-.505z" fill="inherit"/></symbol><symbol id="message-archieve" viewBox="0 0 70 70"><g fill="inherit"><path d="M21.175 22.267c-1.648 5.127-4.27 9.815-6.858 14.512-.259.47 2.169.276 2.549-.414 2.59-4.696 5.21-9.385 6.859-14.511.205-.638-2.32-.301-2.55.413zM45.151 21.849c.506 5.174 2.776 10.738 5.737 15 .684.984 3.132-.026 2.354-1.148-2.866-4.125-5.024-9.52-5.516-14.541-.119-1.212-2.7-.577-2.575.689z"/><path d="M14.352 36.62c-.02 4.659-.234 9.312.592 13.919.112.627 2.703.03 2.574-.689-.826-4.607-.612-9.261-.592-13.919.002-.516-2.572-.119-2.574.689zM50.777 36.62c.542 4.533.371 9.119 1.185 13.623.159.872 2.744.246 2.576-.689-.816-4.504-.646-9.09-1.186-13.623-.101-.85-2.689-.273-2.575.689z"/><path d="M15.785 50.831c12.302 2.035 24.768-.186 37.127-.315 1.467-.016 1.98-1.896.231-1.878-12.138.127-24.388 2.328-36.466.328-1.263-.209-2.618 1.579-.892 1.865zM15.799 37.853c4.004.407 11.352-1.588 13.7 2.495 1.278 2.221 2.466 3.629 5.286 3.45 1.728-.11 3.653-.901 4.491-2.519 2.553-4.93 8.686-2.658 13.337-3.768 1.618-.386 1.102-2.264-.504-1.881-3.496.834-7.632-.608-10.981.763-1.111.455-2.042.718-2.81 1.671-.958 1.189-2.691 7.228-5.99 2.049-3.884-6.094-9.188-3.576-15.665-4.231-1.326-.134-2.602 1.796-.864 1.971zM26.352 26.561c4.646.523 9.292.324 13.954.305 1.48-.007 1.97-1.918.222-1.91-4.44.019-8.865.21-13.291-.288-1.278-.145-2.625 1.697-.885 1.893zM23.98 32.773c6.421.542 12.851.324 19.285.303 1.475-.005 1.973-1.901.227-1.895-6.214.021-12.422.234-18.623-.289-1.264-.106-2.631 1.734-.889 1.881zM28.419 21.579c3.167-.004 6.334-.056 9.502-.061 1.468-.002 1.979-1.879.23-1.876-3.167.004-6.335.057-9.502.061-1.468.001-1.978 1.879-.23 1.876z"/></g></symbol><symbol id="message-delete" viewBox="0 0 70 70"><g fill="inherit"><path d="M24.483 10.028c-2.736.245-7.142-.314-8.792 2.463-2.352 3.957 6.211 8.943 8.618 10.439 5.361 3.332 11.679 4.948 17.893 5.615 3.738.401 7.975.219 10.742-2.635 8.671-8.945-23.381-16.154-28.459-15.876-.704.039-2.076 1.165-.765 1.092 3.616-.197 7.655 1.067 11.123 1.915 5.314 1.3 11.47 2.97 15.637 6.719 2.428 2.185 2.386 5.566-.95 7.236-3.855 1.928-10.503.032-14.41-1.026-5.26-1.424-9.95-4.131-14.164-7.524-1.458-1.173-6.589-6.19-1.082-7.061 1.428-.226 2.896-.165 4.337-.294.951-.084 1.629-1.185.272-1.063z"/><path d="M27.345 23.625c-3.575-.442-7.459-.674-10.18 2.015-3.1 3.064 12.585 6.289 13.777 6.512 4.964.925 9.979 1.188 14.894-.048 2.762-.695 7.243-2.525 7.042-6.038-.023-.398-1.717.327-1.769.877-.539 5.811-13.279 5.067-17.435 4.672-3.155-.3-6.236-1.216-9.288-2.053-1.654-.453-3.165-1.074-4.637-1.977-2.99-1.698 2.193-3.958 4.532-3.366.643.049 2.263-.165 2.901-.077.433.054 1.099-.401.163-.517z"/><path d="M16.684 26.653c2.901 9.812 5.509 19.609 6.9 29.764.131.965 2.09.469 1.954-.523-1.391-10.154-3.998-19.95-6.9-29.763-.283-.958-2.236-.429-1.954.522zM50.867 27.652c-1.326 9.651-3.491 19.171-2.784 28.968.044.599 2.009.194 1.956-.522-.702-9.717 1.465-19.141 2.777-28.706.102-.735-1.863-.371-1.949.26z"/><path d="M23.584 56.417c.312 4.23 9.719 4.751 12.66 5.061 4.864.512 11.392-.501 13.724-5.301.479-.985-1.499-.948-1.862-.198-2.199 4.524-8.522 4.459-12.81 3.933-2.22-.271-9.53-.933-9.758-4.018-.063-.859-2.022-.396-1.954.523z"/><path d="M30.971 56.493c-.124-5.952-1.694-11.605-3.915-17.097-.189-.468-1.475-.075-1.303.35 2.221 5.491 3.791 11.144 3.914 17.097.008.427 1.314.166 1.304-.35zM36.84 57.522c-.016-4.586-.246-9.146-.823-13.697-.038-.296-1.351-.023-1.304.351.579 4.552.808 9.109.824 13.696.001.256 1.305.053 1.303-.35zM43.338 56.108c-.415-6.837 1.449-12.88 2.162-19.57.072-.683-1.257-.509-1.321.093-.714 6.69-2.579 12.734-2.162 19.57.042.697 1.357.5 1.321-.093z"/></g></symbol><symbol id="done" viewBox="0 0 70 70"><path d="M56.379 34.713c.747-.857 1.207-1.728 1.156-2.943-.066-1.508-1.621-2.83-2.705-3.656-2.316-1.764-5.45-.41-8.107-.862.989-1.839 2.198-3.383 2.662-5.495.52-2.366-.032-4.471-1.107-6.572-.639-1.248-1.631-3.389-3.197-3.62-1.648-.243-3.35.236-4.764 1.096-.131.08-.41.289-.33.487 1.114 2.792 1.36 5.828-.817 8.168-1.461 1.569-3.458 2.507-4.888 4.116-1.066 1.198-1.741 2.744-2.567 4.108-1.105 1.823-2.296 3.104-4.518 2.252-.516-.198-2.094.565-1.381.838 1.804.692 3.769.688 5.363-.528 1.724-1.315 2.615-3.408 3.712-5.222 1.399-2.313 3.788-3.443 5.666-5.288 2.416-2.373 2.387-5.645 1.268-8.632a5.336 5.336 0 0 1 1.472-.478c.976-.157 1.494.493 2.029 1.163.865 1.087 1.513 2.461 2.047 3.745.752 1.812.504 3.833.021 5.673-.438 1.662-1.721 3.031-2.485 4.542-.137.271.005.413.273.484 2.332.62 4.696-.259 7.01.217 1.076.222 1.938 1.24 2.662 1.997 1.326 1.386 1.146 3.081-.114 4.416-.14.147-.245.288-.111.478 1.054 1.506 3.312 3.548 1.538 5.47-.961 1.041-2.012 1.447-1.148 2.992.479.855 1.105 1.662.204 2.523-.68.648-1.71.825-2.417 1.448-1.42 1.249.51 1.429.99 2.479 1.665 3.634-5.209 4.557-7.344 4.97-2.945.569-5.853.584-8.756-.211-2.354-.645-4.007-2.692-6.414-3.205-.542-.116-2.045.729-1.064.938 1.258.27 2.297 1.033 3.351 1.737 1.15.769 2.282 1.255 3.609 1.618 2.943.807 6.064.607 9.033.076 2.775-.497 7.858-1.084 9.229-4.051.279-.604.429-1.307.208-1.947-.295-.853-.85-1.137-1.508-1.724-.297-.265 2.199-1.647 2.468-1.852.687-.521.96-1.296.757-2.118-.207-.836-1.52-1.812-.688-2.635.562-.557 1.316-.986 1.602-1.775.804-2.217-.726-3.608-1.9-5.217zM27.851 52.572c-.594-.729-.974-1.764-1.356-2.617-1.33-2.973-1.615-6.407-1.761-9.625-.082-1.805-.127-3.621.104-5.415.198-1.53.498-3.024.374-4.573-.035-.445-1.01-.181-1.204-.107-3.681 1.394-7.596 2.943-11.449 1.18.083-.095.128-.196.08-.295a4.383 4.383 0 0 0-.678-1.037c-.387-.439-1.473.002-1.671.452-1.058 2.401-.83 5.206-.564 7.751.317 3.047.853 5.983 1.949 8.852 1.122 2.935 2.616 5.869 4.203 8.575.265.452.669.677 1.2.589 1.05-.178 1.992-.631 3.075-.771 1.639-.212 3.322-.11 4.971-.171.965-.035 1.973.083 2.882-.299.596-.25.937-.85.682-1.479-.158-.383-.578-.693-.837-1.01zm-1.229 1.791c-.609-.012-1.228.056-1.838.07-1.465.032-2.923.027-4.384.168-.974.094-1.947.313-2.864.657a.39.39 0 0 0-.063-.249c-.312-.532-.57-1.104-.857-1.65-1.397-2.66-2.769-5.328-3.748-8.18-.816-2.378-1.127-4.873-1.409-7.361-.201-1.781-.347-3.68-.034-5.475 4.007 1.708 8.183.459 12.074-.982.076 2.448-.576 4.924-.551 7.392.03 2.947.231 5.895.88 8.773.51 2.264 1.448 4.654 3.006 6.391.475.532.434.46-.212.446zm-2.079-4.173c-.033-.043-.072-.075-.106-.115-.042-.065-.075-.136-.125-.196-.028-.034-.078-.052-.128-.069-.829-.724-1.947-.724-2.938-.048-.792.542-1.044 1.694-.738 2.573.465 1.332 2.166 1.316 3.204.744.964-.53 1.315-1.845.844-2.817-.005-.024.005-.049-.013-.072zM22.8 52.537c-.034-.021-.073-.029-.106-.053-.268-.188-.416-.476-.506-.783-.147-.496-.063-1.037.164-1.497.134.101.257.225.366.354.406.554.365 1.377.082 1.979z" fill="inherit"/></symbol><symbol id="success" viewBox="0 0 70 70"><path d="M62.114 31.236c-1.966-.534-2.999-2.442-4.337-3.839-.589-.615-2.236.136-1.594.806.728.76 1.38 1.635 2.105 2.41-2.034 6.133-5.9 11.646-10.688 15.887-10.917 9.671-25.883 6.779-37.707.553a.268.268 0 0 0-.158-.02 9.415 9.415 0 0 0 .13-2.393c-.022-.281-1.783.032-1.748.477.12 1.504-.167 2.895-.625 4.317-.093.288 1.581.099 1.719-.329.063-.197.114-.393.171-.589.012.008.016.02.029.026 11.765 6.197 26.123 9.175 37.671.859C52.92 45.2 57.493 38.858 60.004 32.014c.347.198.711.372 1.119.483.438.119.934.046 1.235-.337.242-.306.173-.81-.244-.924zm-42.016-1.594c1.104-.32 1.396-2.733.65-5.39-.745-2.656-2.245-4.55-3.349-4.229-1.104.32-1.396 2.733-.65 5.39.745 2.656 2.245 4.549 3.349 4.229zm18.609-6.231c1.138-.156 1.766-2.502 1.402-5.239-.364-2.738-1.582-4.83-2.721-4.674-1.137.157-1.765 2.502-1.402 5.24.365 2.738 1.582 4.83 2.721 4.673z" fill="inherit"/></symbol><symbol id="message-people" viewBox="0 0 70 70"><path d="M50.346 48.296c-.96-5.413-4.005-13.682-10.049-15.188 4.896-4.76 7.248-12.914.633-15.222a.84.84 0 0 0-.19-.038c-.034-.008-.06-.019-.099-.027-5.234-1.013-13.688-.241-17.195 4.276-2.899 3.733-.346 8.744 3.246 11.798-.207.009-.419.05-.63.13-5.647 2.139-8.526 8.623-9.087 14.25a.968.968 0 0 0 .123.607c-.371.333-.463.72.058 1.026 3.417 2.008 7.15 3.18 11.164 3.03 5.601-.208 13.03-4.531 18.319-2.736.492.168 1.303-.06 1.884-.418.934-.113 1.96-.707 1.823-1.488zM38.371 19.309c5.076 1.838 3.372 10.053-.345 13.827-.44.215-.82.544-.993.866-.812.592-1.688.965-2.591 1.032-4.633.342-8.34-5.899-8.807-9.743-.746-6.152 8.385-6.743 12.736-5.982zm.473 29.625c-6.518 2.168-12.517 3.034-18.73-.43.075-.133.13-.276.146-.435.459-4.612 2.585-10.233 7.271-12.009.606-.229.871-.556.908-.887 1.066.661 2.16 1.131 3.184 1.334 2.118.42 4.332-.244 6.337-1.533 5.083.524 7.859 8.19 8.905 12.949-2.73-.496-5.194.071-8.021 1.011z"/></symbol></svg>