<?xml version="1.0" encoding="UTF-8"?><!DOCTYPE svg PUBLIC "-//W3C//DTD SVG 1.1//EN" "http://www.w3.org/Graphics/SVG/1.1/DTD/svg11.dtd"><svg xmlns="http://www.w3.org/2000/svg"><symbol id="reviewrequest" viewBox="0 0 300 300"><path fill-rule="evenodd" clip-rule="evenodd" fill="#425182" d="M256.123 246.844V300l-55.544-31.982c-7.288 1.194-14.774 1.886-22.462 1.886-36.097 0-69.921-11.938-92.231-33.762 2.063.126 24.243.355 31.055-.188 17.625 12.126 36.903 13.048 61.177 13.048 8.378 0 16.473-.942 24.264-2.575l32.746 20.965 1.12-31.354c21.091-18.912 42.003-40.359 42.003-71.607 0-19.755-7.54-33.097-20.168-47.873-.493-8.99-.629-30.923-.545-29.766C282.375 99.85 300 132.847 300 163.257c0 34.118-15.383 64.046-43.877 83.587zm-134.24-33.195c-7.681 0-15.169-.691-22.458-1.864L42.38 244.122v-53.177C13.886 171.446 0 141.125 0 107.007 0 48.118 54.569 0 121.883 0c67.303 0 124.49 48.118 124.49 107.007.001 58.91-57.187 106.642-124.49 106.642zm0-192.658c-56.957 0-100.887 38.013-100.887 87.189 0 31.264 14.556 58.7 42.757 74.597v25.74l32.75-16.462c7.787 1.612 17.001 1.822 25.379 1.822C178.83 193.877 225 157.372 225 108.18c0-49.176-46.17-87.189-103.117-87.189zm38.725 139.983H85.541c-5.922 0-10.718-4.817-10.718-10.723 0-5.922 4.796-10.724 10.718-10.724h75.067c5.917 0 10.713 4.802 10.713 10.724 0 5.906-4.796 10.723-10.713 10.723zm0-42.903H85.541c-5.922 0-10.718-4.797-10.718-10.718 0-5.917 4.796-10.719 10.718-10.719h75.067c5.917 0 10.713 4.802 10.713 10.719 0 5.921-4.796 10.718-10.713 10.718zm0-42.888H85.541c-5.922 0-10.718-4.801-10.718-10.723 0-5.917 4.796-10.718 10.718-10.718h75.067c5.917 0 10.713 4.801 10.713 10.718 0 5.922-4.796 10.723-10.713 10.723z"/></symbol><symbol id="projects" viewBox="0 0 299.645 323.207"><path fill="#425182" d="M257.829 265.795l-15.279-.101v2.896c0 27.01-16.587 54.616-47.157 54.616H43.123C20.299 323.207 0 302.44 0 269.74V86.471c0-22.198 16.006-39.765 38.807-39.765l18.598-.304.141-2.586C57.546 21.612 74.211.214 97.029.214c0 0 128.033-.214 129.363-.214l73.253 86.719v139.899c0 22.197-18.987 39.177-41.816 39.177zM57.743 222.471V68.854l-14.338.333c-11.319 0-20.53 10.243-20.53 21.223v185.54c0 10.986 10.237 24.474 21.562 24.474H195.9c21.849 0 24.226-17.589 23.482-34.728l3.054-.034-122.642-.067c-22.816-.002-42.051-20.927-42.051-43.124zm219.31-118.416h-29.455c-22.964 0-39.877-15.042-39.877-37.438 0 0-.181-18.564 0-43.388H102.443c-11.325 0-21.562 10.575-21.562 21.562v176.778c0 10.975 10.237 21.557 21.562 21.557h153.042c11.324 0 21.567-10.582 21.567-21.557V104.055h.001zm-57.603 45.714h-93.001c-6.141 0-11.11-4.969-11.11-11.093 0-6.135 4.969-11.104 11.11-11.104h93.001c6.142 0 11.11 4.969 11.11 11.104.001 6.124-4.968 11.093-11.11 11.093zm0 46.616h-93.001a11.103 11.103 0 0 1-11.11-11.11c0-6.118 4.969-11.088 11.11-11.088h93.001c6.142 0 11.11 4.97 11.11 11.088a11.102 11.102 0 0 1-11.11 11.11z"/></symbol><symbol id="notify" viewBox="0 0 300 321.443"><path fill-rule="evenodd" clip-rule="evenodd" fill="#425182" d="M200.391 271.937c-5.18 25.456-23.373 49.507-50.355 49.507-27.005 0-44.653-24.051-49.834-49.507L0 271.319l38.94-88.146v-66.975C38.94 54.538 88.926 0 150.569 0c61.637 0 111.629 54.538 111.629 116.198v66.975L300 271.888l-99.609.049zm36.617-88.958l.642-67.277c0-49.968-37.137-91.596-87.081-91.596-49.949 0-87.577 41.059-87.577 91.026v69.578l-25.383 62.677h226.489l-27.09-64.408z"/></symbol><symbol id="baloon" viewBox="0 0 300 198"><path fill-rule="evenodd" clip-rule="evenodd" fill="#B9BBC4" d="M231.481 158.588H177.89c.315 2.962-1.271 6.071-3.928 8.755l-32.619 26.938c-.485.487-.947.796-1.425 1.184-.4.417-.809.788-1.286 1.082-.285.178-.555.278-.832.426-.501.247-.955.502-1.479.649-.608.192-1.24.255-1.849.278-.2.016-.4.1-.586.1-.23 0-.5-.084-.747-.107-.208-.038-.408-.054-.624-.101-2.741-.425-5.529-2.251-6.146-6.233-.062-.34-.2-.635-.216-.998 0-.146-.069-.225-.069-.371v-31.602H68.511C27.92 158.588 0 117.233 0 76.475 0 35.724 27.92 0 68.511 0h162.971C272.072 0 300 35.724 300 76.475c0 40.758-27.928 82.113-68.519 82.113zM220.976 16.134H78.771c-34.845 0-61.787 28.369-61.787 63.358 0 34.995 26.942 63.356 61.787 63.356h63.281v29.606l31.093-29.606h47.831c34.853 0 62.226-28.361 62.226-63.356-.001-34.99-27.374-63.358-62.226-63.358z"/></symbol><symbol id="dropdown" viewBox="0 0 300.005 300"><path fill-rule="evenodd" clip-rule="evenodd" fill="inherit" d="M256.071 256.052c-58.598 58.597-153.544 58.597-212.123 0-58.597-58.579-58.597-153.543 0-212.104 58.579-58.598 153.525-58.598 212.123 0 58.579 58.561 58.579 153.525 0 212.104zM229.555 70.445c-43.93-43.966-115.181-43.966-159.11 0-43.947 43.93-43.947 115.18 0 159.11 43.93 43.947 115.181 43.947 159.11 0 43.948-43.93 43.948-115.18 0-159.11zM149.68 205.878l-69.164-61.967c-3.388-3.388-5.512-8.057-5.512-13.239 0-10.365 8.424-18.751 18.77-18.751 10.236 0 13.258 5.494 13.258 5.494l42.996 35.964L192.437 118a18.686 18.686 0 0 1 13.258-5.494c10.347 0 18.751 8.387 18.751 18.751 0 10.254-5.512 13.258-5.512 13.258l-69.254 61.363z"/></symbol><symbol id="file" viewBox="0 0 300 317.714"><g fill-rule="evenodd" clip-rule="evenodd"><path fill="#FAE696" d="M20.931 272.927L16.873 161.27l23.143-59.905 21.79-29.961 50.418-36.762 51.715-20.419h78.99s21.809 12.248 27.237 20.419c5.466 8.153 19.085 66.724 19.085 66.724s1.353 66.705 2.724 81.695c1.335 14.99-6.819 70.818-8.19 77.619-1.334 6.836 0 42.264-14.953 42.264-15.008 0-50.417 1.316-64.036 1.316h-96.667c-9.542 0-61.294-5.411-61.294-5.411l-25.904-25.922z"/><path fill="#9A9EA5" d="M265.158 317.714H42.356C1.298 317.019 0 276.656 0 276.656V106.228C31.406 19.121 110.999 0 110.999 0h132.99C298.171 0 300 47.895 300 47.895v226.75c-.055 35.939-34.842 43.069-34.842 43.069zm-3.237-256.365c-.658-23.947-21.845-23.947-21.845-23.947H110.889l.11 44.659c.457 33.545-31.899 29.779-31.899 29.779H37.786v145.878c-.731 24.897 19.523 23.472 19.523 23.472h180.665c25.429.731 24.058-23.947 24.058-23.947s.548-171.947-.111-195.894z"/></g></symbol><symbol id="calendar" viewBox="0 0 300 319.005"><path fill="inherit" d="M280.84 319.005H19.151C8.582 319.005 0 310.45 0 299.881V57.417c0-10.569 8.582-19.151 19.151-19.151H75.24V18.95C75.24 8.499 75.094 0 85.544 0h15.323c10.45 0 11.632 8.499 11.632 18.95v19.315h74.261V18.95C186.76 8.499 187.932 0 198.409 0h15.296c10.441 0 10.917 8.499 10.917 18.95v19.315h56.218c10.569 0 19.16 8.582 19.16 19.151V299.88c0 10.57-8.591 19.125-19.16 19.125zM262.559 84.628c0-5.284-4.305-9.562-9.58-9.562H47.224a9.557 9.557 0 0 0-9.562 9.562v188.729c0 5.275 4.276 9.58 9.562 9.58h205.755c5.275 0 9.58-4.305 9.58-9.58V84.628zm-65.121 159.86h-95.024c-4.616 0-8.38-4.177-8.38-9.343v-18.537c0-5.166 3.764-9.36 8.38-9.36h28.108v-56.346h-28.108c-4.616 0-8.38-4.186-8.38-9.352v-18.602c0-5.166 3.764-9.36 8.38-9.36h57.93c4.653 0 8.408 4.194 8.408 9.36v84.299h28.686c4.616 0 8.371 4.194 8.371 9.36v18.537c.001 5.168-3.754 9.344-8.371 9.344z"/></symbol><symbol id="clock" viewBox="0 0 300 300"><path fill-rule="evenodd" clip-rule="evenodd" fill="#FFF" d="M149.309 29.153c68.556 0 124.147 55.564 124.147 124.128 0 68.592-55.592 124.165-124.147 124.165-68.573 0-124.164-55.573-124.164-124.165 0-68.564 55.59-124.128 124.164-124.128z"/><path fill="#00AEEF" d="M149.996 300C67.162 300 0 232.838 0 149.996 0 67.162 67.162 0 149.996 0 232.839 0 300 67.162 300 149.996 300 232.838 232.839 300 149.996 300zm0-262.489c-62.028 0-112.485 50.457-112.485 112.485 0 62.036 50.457 112.503 112.485 112.503 62.036 0 112.503-50.467 112.503-112.503 0-62.028-50.467-112.485-112.503-112.485zm37.683 150.004H131.064c-10.268 0-18.57-8.312-18.57-18.579v-56.613c0-10.258 8.302-18.569 18.57-18.569h.362c10.267 0 18.57 8.312 18.57 18.569v28.293c0 5.198 4.2 9.38 9.38 9.38h28.303c10.267 0 18.561 8.311 18.561 18.579v.361c-.001 10.267-8.295 18.579-18.561 18.579z"/></symbol><symbol id="artifacts" viewBox="0 0 300 278.505"><g fill-rule="evenodd" clip-rule="evenodd"><path fill="#11131E" d="M212.986 120.292c49.5 0 71.413 29.808 71.413 76.455 0 46.668-38.569 70.724-75.708 70.034-34.536-.627-68.733-26.041-68.733-72.709 0-46.648 23.528-73.78 73.028-73.78z"/><path fill="#D6DBE3" d="M214.135 278.505c-27.64 0-51.956-12.749-67.609-32.708H24.207C.742 245.421 0 222.328 0 222.328V60.708C17.953 10.925 63.456 0 63.456 0h118.829c30.963 0 32.008 27.368 32.008 27.368v79.402c47.723.083 85.707 38.105 85.707 85.86 0 47.817-38.068 85.875-85.865 85.875zm-21.61-243.452c-.376-13.679-12.487-13.679-12.487-13.679H63.388l.068 25.523c.266 19.191-18.235 17.018-18.235 17.018H21.61v147.607c-.429 14.232 11.155 13.396 11.155 13.396h101.717a86.244 86.244 0 0 1-6.238-32.29c0-40.378 27.206-73.717 64.458-83.127.022-35.779-.009-68.606-.177-74.448zm21.767 92.961v.428h-4.473c-33.606 2.273-60.332 30.038-60.332 64.188 0 35.634 29.003 64.286 64.647 64.286 35.623 0 64.276-28.652 64.276-64.286.002-35.572-28.547-64.517-64.118-64.616zm32.405 75.149h-21.725v22.049c0 5.894-4.818 10.7-10.743 10.7h-.209c-5.915 0-10.731-4.807-10.731-10.7v-22.069h-21.725c-5.926 0-10.711-4.473-10.711-10.408v-.209c0-5.914 4.785-10.722 10.711-10.722h21.777v-21.735c0-5.914 4.764-10.7 10.679-10.7h.209c5.925 0 10.397 4.786 10.397 10.7v21.401h22.07c5.904 0 10.711 5.142 10.711 11.056v.209c.001 5.934-4.806 10.428-10.71 10.428z"/></g></symbol><symbol id="adduser" viewBox="0 0 299.995 299.541"><g fill-rule="evenodd" clip-rule="evenodd"><path fill="#11131E" d="M218.681 139.468c43.879 0 79.457 34.713 79.457 77.518 0 42.826-35.578 77.519-79.457 77.519-43.922 0-79.5-34.692-79.5-77.519 0-42.804 35.578-77.518 79.5-77.518z"/><path fill="#D6DBE3" d="M299.995 213.827c0 47.705-37.978 85.714-85.693 85.714-40.626 0-74.119-27.612-83.191-65.245-4.546.543-9.093 1.043-13.775 1.043C52.534 235.339 0 182.138 0 117.341 0 52.534 52.534 0 117.335 0c64.786 0 118.342 52.534 118.342 117.341 0 4.505-.479 8.905-1 13.285 37.685 9.04 65.318 42.544 65.318 83.201zM118.097 21.449C65 21.449 21.96 64.494 21.96 117.581c0 22.169 7.571 42.533 20.183 58.79 2.148-11.605 11.476-14.577 11.476-14.577l31.533-11.564 11.46-5.86-.078-12.764s-6.225-4.108-6.241-14.338c-.38-.031-.771-.063-1.23-.135-6.111-.771-11.351-10.354-11.794-16.861-.443-6.497 4.844-7.039 4.844-7.039l4.63 1.522s-2.018-6.048-2.018-22.878c0-7.737 2.07-11.512 6.173-13.994 0-.021-.016-.041-.016-.094 0 0-6.157-14.608 26.736-14.911 31.7.303 31.617 27.497 31.617 27.497l-.105 9.959-.959 13.076c.355-.135 4.484-.177 4.901-.177 3.712 0 3.42 7.352 3.42 7.352s-4.463 15.777-10.573 16.548c-.542.073-.98.125-1.397.135-1.105 8.415-4.932 13.421-4.932 13.421v13.347l10.25 5.882 5.089 1.949c15.119-14.483 35.578-23.409 58.352-23.681.396-3.504.96-6.976.96-10.604-.002-53.088-43.047-96.133-96.144-96.133zm98.373 128.103c-21.064 1.387-59.771 9.166-65.943 57.268 3.691-33.535-20.834 71.168 63.774 71.168 35.558 0 64.149-28.592 64.149-64.16.001-34.808-27.464-63.088-61.98-64.276zm30.344 74.786h-21.689v22.013c0 5.892-4.797 10.667-10.719 10.667h-.209c-5.902 0-10.699-4.775-10.699-10.667v-22.023H181.81c-5.902 0-10.698-4.483-10.698-10.386v-.208c0-5.913 4.796-10.709 10.698-10.709h21.731v-21.689c0-5.902 4.754-10.699 10.656-10.699h.209c5.922 0 10.385 4.797 10.385 10.699V202.7h22.023c5.881 0 10.678 5.12 10.678 11.033v.208c0 5.903-4.797 10.397-10.678 10.397z"/></g></symbol><symbol id="archive" viewBox="0 0 299.999 257.385"><path fill-rule="evenodd" clip-rule="evenodd" fill="#D6DBE3" d="M74.4 139.407h182.906l-29.481 24.759c-4.188 4.188-4.188 10.985 0 15.175 4.189 4.189 10.976 4.189 15.165 0l53.957-42.521c2.23-2.241 3.184-5.205 3.037-8.127.146-2.922-.807-5.891-3.037-8.117l-53.633-42.568c-4.188-4.189-10.986-4.189-15.175 0s-4.189 10.986 0 15.176l29.146 24.784H74.4c-5.922 0-10.724 4.802-10.724 10.725 0 5.917 4.802 10.714 10.724 10.714zm118.645-96.51c0-11.845-9.594-21.443-21.46-21.443H42.897c-11.84 0-21.438 9.598-21.438 21.443v171.59c0 11.846 9.599 21.459 21.438 21.459h128.688c11.866 0 21.46-9.613 21.46-21.459v-21.459h21.438v21.459c0 23.701-19.197 42.897-42.897 42.897H42.897C19.213 257.385 0 238.189 0 214.488V42.897C0 19.212 19.213 0 42.897 0h128.688c23.7 0 42.897 19.212 42.897 42.897v21.109h-21.438V42.897h.001z"/></symbol><symbol id="archive1" viewBox="0 0 299.997 256.979"><path fill-rule="evenodd" clip-rule="evenodd" fill="#DBDCE0" d="M278.478 256.979H21.52c-24.051 0-21.437-27.751-21.437-21.436V42.83c0-11.816 9.62-21.415 21.437-21.415 11.836 0 20.432 9.599 20.432 21.415l.815 128.469 214.442.69-.146-128.49c0-11.837 9.578-21.415 21.415-21.415 11.816 0 21.436 9.578 21.436 21.415v192.735c0-5.417 2.614 20.745-21.436 20.745zM107.179 64.245c5.919 0 11.293 2.384 15.142 6.274l6.273 6.253V21.415C128.594 9.578 138.172 0 150.031 0c11.795 0 21.394 9.578 21.394 21.415v55.357l6.273-6.253c3.891-3.89 9.223-6.274 15.142-6.274 11.837 0 21.436 9.578 21.436 21.415 0 5.897-2.384 11.251-6.295 15.162l-42.809 42.809c-3.89 3.869-9.223 6.273-15.141 6.273a21.398 21.398 0 0 1-15.162-6.273l-42.81-42.809c-3.89-3.911-6.273-9.265-6.273-15.162 0-11.837 9.578-21.415 21.393-21.415z"/></symbol><symbol id="replace" viewBox="0 0 300 318.557"><path fill-rule="evenodd" clip-rule="evenodd" fill="#DBDCE0" d="M283.148 243.432H168.584v58.255c0 9.315-7.555 16.87-16.852 16.87H16.869C7.536 318.557 0 311.002 0 301.687v-135.12c0-9.297 7.536-16.852 16.869-16.852h114.565V91.461c0-9.296 7.555-16.851 16.851-16.851h134.863c9.315 0 16.852 7.555 16.852 16.851v135.102c0 9.334-7.536 16.869-16.852 16.869zm-151.713-16.869v-38.818H37.553v93.883h93.882v-55.065zm131.434-113.941h-93.882v93.863h93.882v-93.863zM73.528 74.775h17.053c32.382-.825 6.638 19.565 6.638 19.565l-32.363 33.574c-2.476 2.438-5.831 3.96-9.59 3.96-7.371 0-9.571-3.96-9.571-3.96L13.349 94.945c-22.92-22.92 6.253-20.17 5.446-20.17h18.813C38.47 27.541 80.02 0 130.426 0v17.035c-35.664 0-59.025 23.819-56.898 57.74z"/></symbol><symbol id="addversion" viewBox="0 0 300 346.131"><path fill="#DBDCE0" d="M184.615 346.131H46.153C20.643 346.131 0 325.466 0 299.978V115.385c0-25.511 20.643-46.154 46.153-46.154v207.692c0 12.71 10.322 23.054 23.055 23.054h161.584c0 25.489-20.666 46.154-46.177 46.154zm69.231-69.207H115.363c-25.488 0-46.154-20.666-46.154-46.177V46.154C69.208 20.666 89.874 0 115.362 0H161.516c6.4 0 12.147 2.569 16.339 6.738L293.24 122.1c4.146 4.214 6.761 10.006 6.761 16.339V230.747c-.001 25.511-20.667 46.177-46.155 46.177zm0-92.33V161.54h-92.33c-12.732 0-23.055-10.322-23.055-23.077V57.692c0-6.4-5.183-11.539-11.538-11.539-6.378 0-11.561 5.138-11.561 11.539V207.647c0 12.778 10.344 23.1 23.099 23.1h92.332c12.71 0 23.054-10.321 23.054-23.1v-23.053h-.001z"/></symbol><symbol id="share" viewBox="0 0 299.995 258.272"><path fill-rule="evenodd" clip-rule="evenodd" fill="#DBDCE0" d="M294.367 80.471l-49.779 46.395c-3.868 3.91-1.829 2.964-7.778 2.964-11.898 0-21.547-9.67-21.547-21.526V86.757c-81.271-.567-86.589 85.453-86.589 85.453h-20.622c.252-85.6 48.035-128.779 107.211-128.484v-22.2C215.263 9.628 224.911 0 236.81 0c2.943 0 10.448 3.574 8.388 1.703 14.716 13.223 47.173 47.656 47.173 47.656 8.85 8.871 10.615 20.538 1.996 31.112zM43.053 215.935h172.21v-64.578h42.59v87.598c0 10.679-8.661 19.318-19.34 19.318H19.319C8.661 258.272 0 249.633 0 238.954V19.466C0 8.808 8.661.168 19.319.168h109.124v43.557h-85.39v172.21z"/></symbol><symbol id="delete" viewBox="0 0 300 300"><path fill-rule="evenodd" clip-rule="evenodd" fill="inherit" d="M281.232 93.744h-18.749v187.488c0 10.363-8.367 18.768-18.73 18.768H56.265c-10.354 0-18.749-8.404-18.749-18.768V93.744H18.758C8.403 93.744 0 85.376 0 75.022 0 64.64 8.403 56.264 18.758 56.264h56.265V18.758C75.022 8.403 83.399 0 93.744 0h112.512c10.345 0 18.748 8.403 18.748 18.758v37.507h56.229c10.363 0 18.768 8.376 18.768 18.758-.001 10.353-8.405 18.721-18.769 18.721zm-93.744-56.228h-74.986v18.749h74.986V37.516zm37.516 206.237V112.502c0-10.354-8.403-18.758-18.748-18.758H93.744c-10.345 0-18.722 8.403-18.722 18.758v131.251a18.75 18.75 0 0 0 5.475 13.256 18.688 18.688 0 0 0 13.247 5.475h112.512c5.181 0 9.85-2.087 13.237-5.475a18.59 18.59 0 0 0 5.511-13.256zm-37.516-18.749h-74.986c-10.354 0-18.758-8.404-18.758-18.749 0-10.362 8.404-18.767 18.758-18.767h74.986c10.363 0 18.768 8.404 18.768 18.767 0 10.345-8.404 18.749-18.768 18.749zm0-56.246h-74.986c-10.354 0-18.758-8.386-18.758-18.749s8.404-18.749 18.758-18.749h74.986c10.363 0 18.768 8.386 18.768 18.749s-8.404 18.749-18.768 18.749z"/></symbol></svg>