<?xml version="1.0" encoding="utf-8"?>
<!-- Generator: Adobe Illustrator 16.0.0, SVG Export Plug-In . SVG Version: 6.00 Build 0)  -->
<!DOCTYPE svg PUBLIC "-//W3C//DTD SVG 1.1//EN" "http://www.w3.org/Graphics/SVG/1.1/DTD/svg11.dtd">
<svg version="1.1" id="Layer_1" xmlns="http://www.w3.org/2000/svg" xmlns:xlink="http://www.w3.org/1999/xlink" x="0px" y="0px"
	 width="300px" height="300px" viewBox="0 0 300 300" enable-background="new 0 0 300 300" xml:space="preserve">
<path fill-rule="evenodd" clip-rule="evenodd" fill="#DBDCE0" d="M281.232,93.744h-18.749v187.488
	c0,10.363-8.367,18.768-18.73,18.768H56.265c-10.354,0-18.749-8.404-18.749-18.768V93.744H18.758C8.403,93.744,0,85.376,0,75.022
	c0-10.382,8.403-18.758,18.758-18.758h56.265V18.758C75.022,8.403,83.399,0,93.744,0h112.512c10.345,0,18.748,8.403,18.748,18.758
	v37.507h56.229c10.363,0,18.768,8.376,18.768,18.758C300,85.376,291.596,93.744,281.232,93.744L281.232,93.744z M187.488,37.516
	h-74.986v18.749h74.986V37.516L187.488,37.516z M225.004,243.753V112.502c0-10.354-8.403-18.758-18.748-18.758H93.744
	c-10.345,0-18.722,8.403-18.722,18.758v131.251l0,0c0,5.163,2.097,9.869,5.475,13.256c3.388,3.388,8.084,5.475,13.247,5.475h112.512
	c5.181,0,9.85-2.087,13.237-5.475C222.917,253.622,225.004,248.916,225.004,243.753L225.004,243.753L225.004,243.753z
	 M187.488,225.004h-74.986c-10.354,0-18.758-8.404-18.758-18.749c0-10.362,8.404-18.767,18.758-18.767h74.986
	c10.363,0,18.768,8.404,18.768,18.767C206.256,216.6,197.852,225.004,187.488,225.004L187.488,225.004z M187.488,168.758h-74.986
	c-10.354,0-18.758-8.386-18.758-18.749s8.404-18.749,18.758-18.749h74.986c10.363,0,18.768,8.386,18.768,18.749
	S197.852,168.758,187.488,168.758L187.488,168.758z"/>
</svg>
