<?xml version="1.0" encoding="UTF-8"?><!DOCTYPE svg PUBLIC "-//W3C//DTD SVG 1.1//EN" "http://www.w3.org/Graphics/SVG/1.1/DTD/svg11.dtd"><svg xmlns="http://www.w3.org/2000/svg"><symbol id="right-slider" viewBox="0 0 300.001 300.009"><path fill-rule="evenodd" clip-rule="evenodd" fill="inherit" d="M256.06 256.067c-58.588 58.588-153.546 58.588-212.118 0-58.588-58.589-58.588-153.57 0-212.126 58.572-58.588 153.53-58.588 212.118 0 58.587 58.556 58.587 153.538 0 212.126zM67.324 232.668c45.66 45.676 119.677 45.676 165.344 0 45.659-45.659 45.659-119.668 0-165.335-45.667-45.659-119.684-45.659-165.344 0-45.659 45.667-45.659 119.676 0 165.335zm138.573-82.998l-61.389 69.287s-3.013 5.488-13.255 5.488c-10.34 0-18.742-8.403-18.742-18.776 0-5.145 2.084-9.818 5.488-13.254l35.367-42.387-35.954-42.98s-5.487-3.037-5.487-13.279c0-10.348 8.402-18.75 18.742-18.75 5.178 0 9.884 2.092 13.254 5.496l61.976 69.155z"/></symbol><symbol id="left-slider" viewBox="0 0 300.001 300.009"><path fill-rule="evenodd" clip-rule="evenodd" fill="inherit" d="M43.941 256.067c-58.588-58.589-58.588-153.57 0-212.126 58.588-58.588 153.546-58.588 212.118 0 58.588 58.556 58.588 153.537 0 212.126-58.572 58.588-153.529 58.588-212.118 0zm188.736-23.399c45.659-45.659 45.659-119.668 0-165.335-45.66-45.659-119.677-45.659-165.344 0-45.659 45.667-45.659 119.676 0 165.335 45.667 45.676 119.684 45.676 165.344 0zM94.103 149.67l61.976-69.156c3.37-3.403 8.076-5.496 13.254-5.496 10.34 0 18.742 8.402 18.742 18.75 0 10.242-5.487 13.279-5.487 13.279l-35.954 42.98 35.367 42.387c3.404 3.436 5.488 8.109 5.488 13.254 0 10.373-8.402 18.776-18.742 18.776-10.242 0-13.255-5.488-13.255-5.488L94.103 149.67z"/></symbol><symbol id="file-tab" viewBox="0 0 300 329.646"><path fill-rule="evenodd" clip-rule="evenodd" fill="inherit" d="M248.155 329.646l-196.018-.266C23.861 329.381 0 303.431 0 275.901L1.181 57.56S-.44.258 48.707.258c0 0 158.783-.258 160.46-.258L300 107.546V281.03c0 27.53-23.547 48.616-51.845 48.616zm23.84-200.586h-36.557c-28.465 0-49.441-18.663-49.441-46.43 0 0-.209-23.03 0-53.829H53.822c-14.023 0-26.733 13.129-26.733 26.74v219.243c0 13.625 12.709 26.733 26.733 26.733h191.427c14.029 0 26.746-13.108 26.746-26.733V129.06zm-57.015 128.8H85.194c-7.595 0-13.765-6.177-13.765-13.765 0-7.603 6.17-13.765 13.765-13.765H214.98c7.616 0 13.792 6.162 13.792 13.765 0 7.589-6.175 13.765-13.792 13.765zm0-57.811H85.194c-7.595 0-13.765-6.163-13.765-13.765 0-7.588 6.17-13.765 13.765-13.765H214.98c7.616 0 13.792 6.177 13.792 13.765 0 7.602-6.175 13.765-13.792 13.765z"/></symbol><symbol id="filter" viewBox="0 0 19 22"><path d="M18.08 0H.919C.412 0 0 .448 0 1v4c0 .282.109.551.301.74l6.441 6.369V21c0 .347.165.668.436.851a.86.86 0 0 0 .894.044l3.678-2c.312-.17.508-.516.508-.895v-6.891l6.441-6.369c.192-.189.301-.458.301-.74V1c0-.552-.412-1-.92-1zm-7.359 10.927a1.043 1.043 0 0 0-.301.739v6.716l-1.839 1v-7.716c0-.281-.109-.55-.301-.739L3.297 6h12.406l-4.982 4.927zM17.161 4H1.839V2h15.322v2z" fill="inherit"/></symbol><symbol id="img-tab" viewBox="0 0 300 299.994"><path fill-rule="evenodd" clip-rule="evenodd" fill="inherit" d="M262.517 299.994H37.489C16.79 299.994 0 283.209 0 262.51V37.483C0 16.784 16.79 0 37.489 0h225.027C283.216 0 300 16.784 300 37.483V262.51c0 20.699-16.784 37.484-37.483 37.484zm11.363-255.72c0-10.337-8.405-18.735-18.761-18.735H44.88c-10.356 0-18.754 8.398-18.754 18.735v164.53l64.094-64.47 44.479 48.159 87.006-86.873 52.138 50.869.037-112.215zm-182.5 87.051c-21.7 0-39.269-17.511-39.269-39.109 0-21.579 17.568-39.084 39.269-39.084 21.675 0 39.25 17.505 39.25 39.084 0 21.598-17.575 39.109-39.25 39.109zm-.121-52.749c-7.773 0-13.659 5.465-13.659 13.238s5.886 13.245 13.659 13.245 13.245-5.472 13.245-13.245-5.472-13.238-13.245-13.238z"/></symbol><symbol id="linkIcon" viewBox="0 0 300 300"><path fill-rule="evenodd" clip-rule="evenodd" fill="#52626E" d="M211.748 144.497c-3.405-3.368-5.492-8.074-5.492-13.237 0-10.354 8.386-18.758 18.748-18.758 5.164 0 9.869 2.097 13.257 5.475l37.497 37.507-26.53 26.53-37.48-37.517zm-5.492 42.991c0 10.363-8.404 18.767-18.768 18.767a18.586 18.586 0 0 1-13.237-5.511l-74.996-74.995a18.549 18.549 0 0 1-5.511-13.247c0-10.354 8.404-18.758 18.758-18.758 5.19 0 9.869 2.096 13.247 5.511l75.014 74.995a18.658 18.658 0 0 1 5.493 13.238zM93.744 37.516v.942c-3.012-.631-6.161-.942-9.375-.942-25.871 0-46.854 20.982-46.854 46.854 0 12.963 5.246 24.663 13.732 33.149l-26.53 26.521C9.466 128.761 0 107.687 0 84.369 0 37.8 37.8 0 84.369 0c2.151 0 4.185.348 6.253.631C91.685.457 92.654 0 93.744 0c10.354 0 18.758 8.403 18.758 18.758 0 10.353-8.404 18.758-18.758 18.758zM88.27 155.483a18.723 18.723 0 0 1 5.475 13.274c0 10.363-8.367 18.73-18.722 18.73-5.19 0-9.869-2.088-13.283-5.475l-37.48-37.515 26.503-26.521 37.507 37.507zm117.986 107v-.952c3.039.641 6.151.952 9.374.952 25.89 0 46.854-21.001 46.854-46.854 0-12.945-5.255-24.663-13.714-33.158l26.513-26.53C290.552 171.229 300 192.304 300 215.63c0 46.598-37.772 84.37-84.37 84.37-2.16 0-4.193-.349-6.262-.642-1.062.184-1.996.642-3.112.642-10.363 0-18.768-8.404-18.768-18.768 0-10.344 8.405-18.749 18.768-18.749z"/></symbol><symbol id="share-artefact" viewBox="0 0 300 300.51"><path fill-rule="evenodd" clip-rule="evenodd" fill="inherit" d="M300 256.074c0 24.535-19.891 44.436-44.437 44.436H69.893c0-108.751 85.904-117.942 85.904-117.942 5.133-.542 9.344 1.118 9.344 3.689v23.852c0 5.176 3.516 7.063 7.834 4.231l59.172-47.528c4.319-2.843 4.319-7.487 0-10.309l-4.872-3.906c-7.563-3.18-13.977-8.438-18.74-14.997l-35.538-28.457c-4.329-2.832-7.855-.923-7.855 4.237v23.64c0 2.577-4.243 4.596-9.397 4.476 0 0-118.643-2.854-155.195 87.863v-9.376V83.848C.325 82.003 0 80.191 0 78.281V44.94C0 20.396 19.901.494 44.447.494h11.101V0h166.691v.494h33.324C280.109.494 300 20.396 300 44.94v211.134z"/></symbol><symbol id="renameartifact" viewBox="17 28.706 239.404 265.795"><path fill="inherit" d="M196.096 108.9c0-13.526-4.732-20.289-14.197-20.289-2.604 0-4.548.184-5.848.548-2.969.547-5.479.82-7.518.82-2.412 0-4.455-.865-6.125-2.603-1.67-1.735-2.506-3.88-2.506-6.443 0-6.397 4.08-9.594 12.252-9.594 1.113 0 2.408.096 3.896.273l14.756 1.919c5.566.732 11.322 1.1 17.264 1.1 5.751 0 12.063-.457 18.933-1.373l12.527-1.646c1.484-.177 2.785-.273 3.902-.273 8.162 0 12.244 3.197 12.244 9.594 0 2.563-.832 4.708-2.504 6.443-1.67 1.738-3.715 2.603-6.125 2.603-1.857 0-4.363-.273-7.518-.82-1.301-.365-3.248-.548-5.848-.548-9.465 0-14.197 6.763-14.197 20.289v109.933c0 13.705 4.732 20.56 14.197 20.56 1.482 0 3.432-.178 5.848-.546 3.525-.547 6.031-.825 7.518-.825 5.748 0 8.629 2.93 8.629 8.776 0 6.579-4.082 9.868-12.244 9.868h-1.955c-.74-.184-1.389-.273-1.947-.273l-14.477-2.198c-4.832-.725-9.934-1.09-15.311-1.09-7.8 0-14.76.455-20.886 1.367l-12.807 1.921c-.371 0-1.021.09-1.949.273h-2.225c-7.986 0-11.975-3.289-11.975-9.868 0-5.847 2.875-8.776 8.631-8.776.928 0 3.432.187 7.518.551 2.04.547 3.992.82 5.848.82 9.465 0 14.197-6.854 14.197-20.56V108.9z"/><g fill="inherit"><path d="M227.064 264.104c-3.668 2.908-8.171 4.729-12.863 4.729H67.16c-11.324 0-21.567-10.582-21.567-21.558V132.761h23.454c22.964 0 39.877-15.041 39.877-37.438 0 0 .181-13.564 0-38.388h105.277c4.927 0 9.646 2.002 13.408 5.168h28.795c-5.587-15.746-19.396-33.184-36.789-33.184 0 0-128.033-.214-129.363-.214L17 115.425v139.899c0 22.196 18.986 39.177 41.815 39.177l15.279-.102 23.168.002 119.588-.1c17.177-.002 32.32-14.864 38.759-30.198h-28.545z"/><path d="M169.195 156.278H76.194c-6.142 0-11.11 4.969-11.11 11.104 0 6.124 4.969 11.094 11.11 11.094h93.001c6.141 0 11.11-4.97 11.11-11.094.001-6.135-4.969-11.104-11.11-11.104zM169.195 202.894H76.194c-6.142 0-11.11 4.97-11.11 11.088a11.102 11.102 0 0 0 11.11 11.109h93.001c6.141 0 11.11-4.969 11.11-11.109.001-6.119-4.969-11.088-11.11-11.088z"/></g></symbol><symbol id="tab-close" viewBox="0 0 300 300"><path fill-rule="evenodd" clip-rule="evenodd" fill="#fff" d="M185.125 150.53l106.001 106.003c9.773 9.772 9.773 25.603 0 35.374-9.771 9.772-25.626 9.772-35.398 0L149.725 185.905 43.04 292.617c-9.846 9.845-25.798 9.845-35.655 0-9.846-9.821-9.846-25.823 0-35.669l106.698-106.687L8.117 44.271c-9.772-9.771-9.772-25.614 0-35.386 9.736-9.772 25.566-9.772 35.338 0l106.014 106.002L256.949 7.394c9.87-9.858 25.822-9.858 35.668 0 9.845 9.845 9.845 25.798 0 35.655L185.125 150.53z"/></symbol><symbol id="close" viewBox="0 0 300 300"><path fill-rule="evenodd" clip-rule="evenodd" fill="inherit" d="M185.125 150.53l106.001 106.003c9.773 9.772 9.773 25.603 0 35.374-9.771 9.772-25.626 9.772-35.398 0L149.725 185.905 43.04 292.617c-9.846 9.845-25.798 9.845-35.655 0-9.846-9.821-9.846-25.823 0-35.669l106.698-106.687L8.117 44.271c-9.772-9.771-9.772-25.614 0-35.386 9.736-9.772 25.566-9.772 35.338 0l106.014 106.002L256.949 7.394c9.87-9.858 25.822-9.858 35.668 0 9.845 9.845 9.845 25.798 0 35.655L185.125 150.53z"/></symbol><symbol id="previous-page-icon" viewBox="0 0 300 324.12"><path fill="#222F38" d="M288.091 69.434l-87.649 93.263 86.388 91.99c7.317 7.367 11.909 17.56 11.909 28.712 0 22.505-10.798 40.722-33.202 40.722-22.254 0-28.813-11.909-28.813-11.909l-133.14-150.271L237.983 11.908A40.616 40.616 0 0 1 266.797 0C289.252 0 300 18.216 300 40.658c0 22.24-11.909 28.776-11.909 28.776zM38.766 317.358C17.358 317.358 0 300 0 278.604V46.096C0 24.688 17.358 7.342 38.766 7.342S77.52 24.688 77.52 46.096v232.509c0 21.395-17.346 38.753-38.754 38.753z"/></symbol><symbol id="next-page-icon" viewBox="0 0 300 324.12"><path fill="#222F38" d="M11.909 69.434S0 62.899 0 40.659C0 18.216 10.748 0 33.203 0a40.612 40.612 0 0 1 28.813 11.908l134.4 150.031L63.277 312.211s-6.56 11.909-28.813 11.909c-22.404 0-33.202-18.217-33.202-40.722 0-11.152 4.592-21.345 11.909-28.712l86.388-91.99-87.65-93.262zm249.324 247.924c-21.407 0-38.754-17.358-38.754-38.754V46.096c0-21.408 17.347-38.754 38.754-38.754C282.642 7.342 300 24.688 300 46.096v232.509c0 21.395-17.358 38.753-38.767 38.753z"/></symbol><symbol id="document-info" viewBox="0 0 300 300.005"><path fill-rule="evenodd" clip-rule="evenodd" fill="inherit" d="M150.003 300.005C67.286 300.005 0 232.72 0 150.003 0 67.292 67.286 0 150.003 0 232.714 0 300 67.292 300 150.003c0 82.717-67.286 150.002-149.997 150.002zM115.86 128.862c-3.695 3.695-16.213 15.631-16.213 20.772 0 1.695 1.711 3.694 3.694 3.694 5.113 0 18.761-24.754 29.302-24.754 2.271 0 4.836 2.564 2.836 7.677l-19.907 50.068c-1.983 4.824-11.666 28.166-11.666 41.814 0 10.801 7.112 15.626 17.36 15.626 28.736 0 62.005-35.272 62.005-43.51 0-2.564-1.989-4.26-3.401-4.26-3.988 0-19.637 24.167-28.178 24.167-2.271 0-3.401-1.978-3.401-3.977 0-4.543 3.129-11.671 4.825-15.931l20.483-55.463c10.247-27.59-2.847-34.979-15.083-34.979-16.484.001-31.279 8.249-42.656 19.056zm58.305-71.394c-12.519 0-23.331 10.231-23.331 22.749 0 11.666 7.683 19.348 19.354 19.348 12.812 0 23.613-9.666 23.613-22.75 0-11.664-8.259-19.347-19.636-19.347z"/></symbol><symbol id="add-comment" viewBox="0 0 300 367.098"><path fill="inherit" d="M260.362 248.667c-.294.418-.543.848-.859 1.231L163.626 361.01c-3.399 3.93-10.774 6.087-15.8 6.087a17.49 17.49 0 0 1-6.075-1.084c-6.895-2.507-8.035-7.317-8.035-14.613 0 0-.322-30.57-.124-51.847 0 0-133.591-16.284-133.591-148.678C0 123.614 15.946 0 147.95 0 230.491 0 300 66.584 300 148.419c0 38.656-15.111 73.811-39.638 100.248zM149.249 32.948c-64.567 0-117.075 52.377-117.075 116.753s52.507 116.731 117.075 116.731c64.552 0 117.075-52.354 117.075-116.731 0-64.376-52.524-116.753-117.075-116.753zm47.126 105.471h-92.518c-6.38 0-11.564-5.184-11.564-11.558V115.28c0-6.381 5.184-11.564 11.564-11.564h92.518c6.381 0 11.564 5.184 11.564 11.564v11.581c0 6.374-5.184 11.558-11.564 11.558zm0 57.814h-92.518c-6.38 0-11.564-5.184-11.564-11.563v-11.559c0-6.397 5.184-11.564 11.564-11.564h92.518c6.381 0 11.564 5.167 11.564 11.564v11.559c0 6.38-5.184 11.563-11.564 11.563z"/></symbol><symbol id="toggle-annotations" viewBox="0 0 300 300.173"><path fill="inherit" d="M270.686 183.916c-.218.293-.392.619-.652.902l-70.885 82.174c-2.51 2.912-6.139 4.498-9.865 4.498-1.5 0-3.032-.25-4.499-.783-5.096-1.868-8.485-6.682-8.485-12.07v-39.05c-.392.685-.837 1.358-1.369 1.966l-63.937 74.102a12.982 12.982 0 0 1-14.348 3.716c-5.117-1.868-8.485-6.683-8.485-12.071v-34.921C38.512 246.033 0 203.941 0 153.026 0 99.911 41.902 56.44 94.642 53.104 114.069 21.345 149.164 0 189.284 0 250.334 0 300 49.241 300 109.777c0 28.597-11.18 54.57-29.314 74.139zM189.284 25.74c-46.737 0-84.755 37.691-84.755 84.037 0 46.334 38.018 84.026 84.755 84.026 46.742 0 84.77-37.692 84.77-84.026-.001-46.346-38.028-84.037-84.77-84.037zm22.132 74.41h-44.504c-6.139 0-11.126-4.993-11.126-11.132 0-6.139 4.987-11.137 11.126-11.137h44.504c6.139 0 11.126 4.998 11.126 11.137 0 6.14-4.988 11.132-11.126 11.132zm0 44.499h-44.504c-6.139 0-11.126-4.977-11.126-11.132 0-6.139 4.987-11.115 11.126-11.115h44.504c6.139 0 11.126 4.976 11.126 11.115 0 6.155-4.988 11.132-11.126 11.132z"/></symbol><symbol id="more-menu" viewBox="0 0 300 236.769"><path fill-rule="evenodd" clip-rule="evenodd" fill="inherit" d="M264.029 154.706l.018-63.85L300 122.795l-35.971 31.911zm-145.645 82.063C53.003 236.769 0 183.77 0 118.389 0 53.003 53.003 0 118.384 0c65.38 0 118.371 53.003 118.371 118.389 0 65.381-52.99 118.38-118.371 118.38zM54.423 99.09c-10.917 0-19.757 8.853-19.757 19.761 0 10.904 8.839 19.743 19.757 19.743 10.904 0 19.744-8.839 19.744-19.743 0-10.908-8.84-19.761-19.744-19.761zm63.276 0c-10.904 0-19.743 8.853-19.743 19.761 0 10.904 8.839 19.743 19.743 19.743 10.917 0 19.757-8.839 19.757-19.743 0-10.908-8.84-19.761-19.757-19.761zm63.288 0c-10.903 0-19.742 8.853-19.742 19.761 0 10.904 8.839 19.743 19.742 19.743 10.904 0 19.753-8.839 19.753-19.743 0-10.908-8.848-19.761-19.753-19.761z"/></symbol><symbol id="up-drpdwn" viewBox="0 0 300.006 300.008"><path fill-rule="evenodd" clip-rule="evenodd" fill="inherit" d="M256.07 43.936c-58.598-58.581-153.546-58.581-212.136 0-58.58 58.58-58.58 153.537 0 212.137 58.589 58.58 153.538 58.58 212.136 0 58.581-58.6 58.581-153.557 0-212.137zm-26.515 185.62c-43.93 43.949-115.183 43.949-159.113 0-43.949-43.931-43.949-115.183 0-159.113 43.931-43.949 115.184-43.949 159.113 0 43.949 43.93 43.949 115.182 0 159.113zM149.687 94.11l-69.174 61.978c-3.388 3.388-5.503 8.057-5.503 13.239 0 10.364 8.405 18.752 18.761 18.752 10.236 0 13.249-5.493 13.249-5.493l43.006-35.975 42.411 35.369a18.624 18.624 0 0 0 13.258 5.513c10.347 0 18.751-8.405 18.751-18.752 0-10.255-5.512-13.258-5.512-13.258L149.687 94.11z"/></symbol><symbol id="v_open" viewBox="0 0 300 300"><path fill="#BDC3C7" d="M271.875 150c-15.527 0-28.125-12.607-28.125-28.116V96.03l-55.115 55.087-2.709-2.692c-2.527.742-5.055 1.575-7.801 1.575C162.588 150 150 137.393 150 121.884c0-2.783.833-5.273 1.574-7.8l-2.719-2.719 55.124-55.124h-25.854C162.588 56.241 150 43.652 150 28.116S162.588 0 178.125 0h93.75C287.402 0 300 12.58 300 28.116v93.769C300 137.393 287.402 150 271.875 150zM93.76 37.491H18.74C8.396 37.491 0 29.123 0 18.75 0 8.396 8.396 0 18.74 0h75.02c10.345 0 18.75 8.396 18.75 18.75 0 10.373-8.406 18.741-18.75 18.741zM18.74 300C8.396 300 0 291.613 0 281.25V18.75C0 8.396 8.396 0 18.74 0c10.346 0 18.75 8.396 18.75 18.75v262.5c0 10.363-8.404 18.75-18.75 18.75zm262.51 0H18.74C8.396 300 0 291.613 0 281.25c0-10.346 8.396-18.731 18.74-18.731h262.51c10.363 0 18.75 8.386 18.75 18.731 0 10.363-8.387 18.75-18.75 18.75zm0 0c-10.327 0-18.75-8.387-18.75-18.75v-75c0-10.363 8.423-18.75 18.75-18.75 10.363 0 18.75 8.387 18.75 18.75v75c0 10.363-8.387 18.75-18.75 18.75z"/></symbol><symbol id="v_compare" viewBox="0 0 300 300"><path fill="#BDC3C7" d="M18.74 300C8.396 300 0 291.613 0 281.269V18.75C0 8.405 8.396 0 18.74 0c10.355 0 18.75 8.405 18.75 18.75v262.519c0 10.344-8.394 18.731-18.75 18.731zm262.51 0H18.74C8.396 300 0 291.613 0 281.269c0-10.364 8.396-18.75 18.74-18.75h262.51c10.363 0 18.75 8.386 18.75 18.75 0 10.344-8.387 18.731-18.75 18.731zm0 0c-10.327 0-18.75-8.387-18.75-18.731V18.75C262.5 8.405 270.923 0 281.25 0 291.613 0 300 8.405 300 18.75v262.519c0 10.344-8.387 18.731-18.75 18.731zm0-262.5H18.74C8.396 37.5 0 29.096 0 18.75 0 8.405 8.396 0 18.74 0h262.51C291.613 0 300 8.405 300 18.75c0 10.346-8.387 18.75-18.75 18.75zM150 300c-10.346 0-18.75-8.387-18.75-18.731V18.75C131.25 8.405 139.654 0 150 0c10.354 0 18.74 8.405 18.74 18.75v262.519c0 10.344-8.386 18.731-18.74 18.731z"/></symbol><symbol id="severity-drpdwn-icn" viewBox="0 0 19 19"><g fill-rule="evenodd" clip-rule="evenodd"><path fill="#525663" d="M9.503 1.974c4.145 0 7.542 3.359 7.542 7.504 0 4.144-3.397 7.572-7.542 7.572s-7.542-3.429-7.542-7.572c0-4.145 3.397-7.504 7.542-7.504z"/><path fill="#E8E8E9" d="M9.5 19C4.253 19 0 14.747 0 9.5S4.253 0 9.5 0 19 4.253 19 9.5 14.747 19 9.5 19zm0-17a7.5 7.5 0 1 0 0 15 7.5 7.5 0 0 0 0-15zM5.949 6.959h7.011l-3.494 7.022-3.517-7.022z"/></g></symbol><symbol id="zoom-in" viewBox="0 0 299.998 300.003"><path fill="#222F38" d="M256.069 256.063c-58.586 58.587-153.566 58.587-212.129 0-58.587-58.588-58.587-153.567 0-212.122 58.563-58.587 153.543-58.587 212.129 0 58.572 58.554 58.572 153.534 0 212.122zM232.671 67.332c-45.658-45.658-119.673-45.658-165.34 0-45.658 45.666-45.658 119.673 0 165.332 45.667 45.675 119.682 45.675 165.34 0 45.658-45.659 45.658-119.666 0-165.332zm-32.697 99.287H99.922c-9.192 0-16.674-7.475-16.674-16.675 0-9.216 7.482-16.674 16.674-16.674h100.051c9.201 0 16.691 7.458 16.691 16.674.001 9.201-7.489 16.675-16.69 16.675zm-33.063 33.249c.051 9.201-7.382 16.732-16.582 16.784-9.216.053-16.715-7.396-16.767-16.598l-.56-100.05c-.051-9.192 7.364-16.716 16.581-16.768 9.2-.052 16.716 7.389 16.768 16.581l.56 100.051z"/></symbol><symbol id="zoom-out" viewBox="0 0 299.998 300.003"><path fill="#222F38" d="M256.069 256.063c-58.586 58.587-153.566 58.587-212.129 0-58.587-58.588-58.587-153.567 0-212.122 58.563-58.587 153.543-58.587 212.129 0 58.572 58.554 58.572 153.534 0 212.122zM232.671 67.332c-45.658-45.658-119.673-45.658-165.34 0-45.658 45.666-45.658 119.673 0 165.332 45.667 45.675 119.682 45.675 165.34 0 45.658-45.659 45.658-119.666 0-165.332zm-32.697 99.287H99.922c-9.192 0-16.674-7.475-16.674-16.675 0-9.216 7.482-16.674 16.674-16.674h100.051c9.201 0 16.691 7.458 16.691 16.674.001 9.201-7.489 16.675-16.69 16.675z"/></symbol><symbol id="comment-summary" viewBox="0 0 300 289.311"><path fill="inherit" d="M283.29 0H16.716C7.485 0 0 7.534 0 16.83v255.651c0 9.279 7.485 16.83 16.716 16.83H283.29c9.236 0 16.71-7.551 16.71-16.83V16.83C300 7.534 292.526 0 283.29 0zM33.427 255.651V32.975h133.575v89.645h-33.916c-4.216 0-21.611-.941-21.611 21.883 0 21.079 17.059 22.221 21.611 22.221h33.916v88.927H33.427z"/></symbol><symbol id="edit" viewBox="0 0 469.331 469.331"><path fill="inherit" d="M438.931 30.403c-40.4-40.5-106.1-40.5-146.5 0l-268.6 268.5c-2.1 2.1-3.4 4.8-3.8 7.7l-19.9 147.4c-.6 4.2.9 8.4 3.8 11.3 2.5 2.5 6 4 9.5 4 .6 0 1.2 0 1.8-.1l88.8-12c7.4-1 12.6-7.8 11.6-15.2-1-7.4-7.8-12.6-15.2-11.6l-71.2 9.6 13.9-102.8 108.2 108.2c2.5 2.5 6 4 9.5 4s7-1.4 9.5-4l268.6-268.5c19.6-19.6 30.4-45.6 30.4-73.3s-10.8-53.7-30.4-73.2zm-141.3 33l45.1 45.1-245.1 245.1-45.1-45.1 245.1-245.1zm-136.7 353.4l-44.1-44.1 245.1-245.1 44.1 44.1-245.1 245.1zm263.9-264.4l-107.9-107.9c13.7-11.3 30.8-17.5 48.8-17.5 20.5 0 39.7 8 54.2 22.4s22.4 33.7 22.4 54.2c0 18.1-6.2 35.1-17.5 48.8z"/></symbol><symbol id="delete" viewBox="0 0 300 300"><path fill-rule="evenodd" clip-rule="evenodd" fill="inherit" d="M281.232 93.744h-18.749v187.488c0 10.363-8.367 18.768-18.73 18.768H56.265c-10.354 0-18.749-8.404-18.749-18.768V93.744H18.758C8.403 93.744 0 85.376 0 75.022 0 64.64 8.403 56.264 18.758 56.264h56.265V18.758C75.022 8.403 83.399 0 93.744 0h112.512c10.345 0 18.748 8.403 18.748 18.758v37.507h56.229c10.363 0 18.768 8.376 18.768 18.758-.001 10.353-8.405 18.721-18.769 18.721zm-93.744-56.228h-74.986v18.749h74.986V37.516zm37.516 206.237V112.502c0-10.354-8.403-18.758-18.748-18.758H93.744c-10.345 0-18.722 8.403-18.722 18.758v131.251a18.75 18.75 0 0 0 5.475 13.256 18.688 18.688 0 0 0 13.247 5.475h112.512c5.181 0 9.85-2.087 13.237-5.475a18.59 18.59 0 0 0 5.511-13.256zm-37.516-18.749h-74.986c-10.354 0-18.758-8.404-18.758-18.749 0-10.362 8.404-18.767 18.758-18.767h74.986c10.363 0 18.768 8.404 18.768 18.767 0 10.345-8.404 18.749-18.768 18.749zm0-56.246h-74.986c-10.354 0-18.758-8.386-18.758-18.749s8.404-18.749 18.758-18.749h74.986c10.363 0 18.768 8.386 18.768 18.749s-8.404 18.749-18.768 18.749z"/></symbol><symbol id="refFile" viewBox="0 0 300 342.891"><path fill-rule="evenodd" clip-rule="evenodd" fill="#52626E" d="M300 300.011c0 8.873-2.679 17.14-7.304 24.003a43.086 43.086 0 0 1-11.572 11.552 40.742 40.742 0 0 1-7.282 3.935 42.632 42.632 0 0 1-16.679 3.391H42.869a42.441 42.441 0 0 1-16.679-3.391 40.306 40.306 0 0 1-7.282-3.935 43.048 43.048 0 0 1-11.604-11.552A42.892 42.892 0 0 1 0 300.011V42.88C0 19.211 19.201 0 42.869 0h128.556c5.922 0 11.279 2.407 15.172 6.299l107.146 107.147c3.871 3.851 6.257 9.207 6.257 15.15v171.415zM150.016 42.88H64.277c-11.834 0-21.408 9.563-21.408 21.43v214.293c0 11.845 9.574 21.408 21.408 21.408h171.456c11.823 0 21.43-9.563 21.43-21.408V150.026h-85.738c-11.824 0-21.409-9.605-21.409-21.43V42.88z"/></symbol></svg>