<?xml version="1.0" encoding="utf-8"?>
<!-- Generator: Adobe Illustrator 16.0.0, SVG Export Plug-In . SVG Version: 6.00 Build 0)  -->
<!DOCTYPE svg PUBLIC "-//W3C//DTD SVG 1.1//EN" "http://www.w3.org/Graphics/SVG/1.1/DTD/svg11.dtd">
<svg version="1.1" id="Layer_1" xmlns="http://www.w3.org/2000/svg" xmlns:xlink="http://www.w3.org/1999/xlink" x="0px" y="0px"
	 width="300px" height="356.741px" viewBox="0 0 300 356.741" enable-background="new 0 0 300 356.741" xml:space="preserve">
<g>
	<path fill-rule="evenodd" clip-rule="evenodd" fill="#AFB5BF" d="M255.194,356.741H55.396C2.615,355.878,0,303.974,0,303.974
		V90.166C35.136,3.735,112.244,0,112.244,0h115.758C297.623,0,300,61.571,300,61.571v245.2
		C299.929,352.97,255.194,356.741,255.194,356.741L255.194,356.741z M275.755,74.098c-0.38-54.619-47.951-50.003-47.951-50.003
		H97.206l0.103,32.445c-1.22,28.813-40.404,32.636-40.404,32.636H24.158v193.073c0.075,56.175,46.616,50.059,46.616,50.059h156.919
		c51.247,0.214,48.196-48.743,48.196-48.743S275.993,108.979,275.755,74.098L275.755,74.098z"/>
	<path fill-rule="evenodd" clip-rule="evenodd" fill="#B7BCC5" d="M194.836,237.759v29.261c0,0.048-0.024,0.095-0.024,0.15
		c0.024,2.044-0.744,4.08-2.297,5.642c-1.562,1.553-3.598,2.321-5.642,2.297c-0.048,0-0.104,0.024-0.15,0.024
		c-2.702,0-4.976-1.41-6.45-3.438l-28.491-28.262h-21.845c-31.368,0-56.801-25.426-56.801-56.786
		c0-31.368,25.433-56.797,56.801-56.797h40.567c31.359,0,56.785,25.429,56.785,56.797
		C227.289,209.259,213.97,228.624,194.836,237.759L194.836,237.759z M170.504,146.08h-40.567c-22.415,0-40.574,18.168-40.574,40.567
		c0,22.407,18.16,40.566,40.574,40.566h27.383l21.084,21.084v-0.618l0.205,0.206v-5.269c-0.055,0.016-0.118,0-0.182,0.016
		l0.087-16.234c18.572-3.717,32.557-20.102,32.557-39.751C211.07,164.248,192.902,146.08,170.504,146.08L170.504,146.08z"/>
</g>
</svg>
