<?xml version="1.0" encoding="utf-8"?>
<!-- Generator: Adobe Illustrator 16.0.0, SVG Export Plug-In . SVG Version: 6.00 Build 0)  -->
<!DOCTYPE svg PUBLIC "-//W3C//DTD SVG 1.1//EN" "http://www.w3.org/Graphics/SVG/1.1/DTD/svg11.dtd">
<svg version="1.1" id="Layer_1" xmlns="http://www.w3.org/2000/svg" xmlns:xlink="http://www.w3.org/1999/xlink" x="0px" y="0px"
	 width="300px" height="356.742px" viewBox="0 0 300 356.742" enable-background="new 0 0 300 356.742" xml:space="preserve">
<g>
	<path fill-rule="evenodd" clip-rule="evenodd" fill="#AFB5BF" d="M255.194,356.742h-199.8C2.614,355.878,0,303.973,0,303.973
		V90.166C35.135,3.736,112.248,0,112.248,0h115.754C297.623,0,300,61.571,300,61.571v245.2
		C299.929,352.97,255.194,356.742,255.194,356.742L255.194,356.742z M275.755,74.098c-0.38-54.619-47.951-50.003-47.951-50.003
		H97.206l0.103,32.446c-1.22,28.813-40.404,32.635-40.404,32.635H24.158v193.072c0.075,56.176,46.616,50.06,46.616,50.06h156.919
		c51.247,0.214,48.197-48.744,48.197-48.744S275.992,108.98,275.755,74.098L275.755,74.098z"/>
	<path fill="#23B33E" d="M154.269,259.667c-40.329,0-73.017-32.691-73.017-73.021c0-40.325,32.688-73.017,73.017-73.017
		s73.021,32.691,73.021,73.017C227.289,226.976,194.598,259.667,154.269,259.667L154.269,259.667z M154.269,129.635
		c-31.432,0-57.012,25.58-57.012,57.012c0,31.438,25.58,57.015,57.012,57.015c31.431,0,57.015-25.576,57.015-57.015
		C211.283,155.215,185.7,129.635,154.269,129.635L154.269,129.635z M189.123,174.275l-46.914,45.475l-11.357-11.314l-13.343-13.77
		c-3.479-3.582-3.993-8.716-0.4-12.202l0.123-0.127c3.581-3.462,8.506-2.599,11.976,0.982l13.354,13.786l35.413-34.327
		c3.581-3.478,8.724-3.981,12.186-0.4C190.16,162.378,195.224,168.368,189.123,174.275L189.123,174.275z"/>
</g>
</svg>
