<?xml version="1.0" encoding="utf-8"?>
<!-- Generator: Adobe Illustrator 16.0.0, SVG Export Plug-In . SVG Version: 6.00 Build 0)  -->
<!DOCTYPE svg PUBLIC "-//W3C//DTD SVG 1.1//EN" "http://www.w3.org/Graphics/SVG/1.1/DTD/svg11.dtd">
<svg version="1.1" id="Layer_1" xmlns="http://www.w3.org/2000/svg" xmlns:xlink="http://www.w3.org/1999/xlink" x="0px" y="0px"
	 width="300px" height="341.02px" viewBox="0 0 300 341.02" enable-background="new 0 0 300 341.02" xml:space="preserve">
<path fill-rule="evenodd" clip-rule="evenodd" fill="#9A9EA5" d="M262.579,341.02H45.472C1.406,340.272,0,296.947,0,296.947v-182.94
	C33.728,20.53,119.172,0,119.172,0h120.719C298,0,300,51.425,300,51.425v243.402C299.933,333.394,262.579,341.02,262.579,341.02
	L262.579,341.02z M272.751,52.197c-0.693-25.688-23.449-25.688-23.449-25.688H109.587l-0.926,47.918
	c0.506,36.033-38.42,45.619-38.42,45.619H25.882v168.143c-0.793,26.716,20.977,25.209,20.977,25.209h200.204
	c27.288,0.773,25.822-25.742,25.822-25.742S273.472,77.913,272.751,52.197L272.751,52.197z M82.466,218.495h150.173v27.274H82.466
	V218.495L82.466,218.495z M81.966,163.878h150.139v27.301H81.966V163.878L81.966,163.878z M136.742,109.261h95.362v27.309h-95.362
	V109.261L136.742,109.261z"/>
</svg>
