<?xml version="1.0" encoding="utf-8"?>
<!-- Generator: Adobe Illustrator 16.0.0, SVG Export Plug-In . SVG Version: 6.00 Build 0)  -->
<!DOCTYPE svg PUBLIC "-//W3C//DTD SVG 1.1//EN" "http://www.w3.org/Graphics/SVG/1.1/DTD/svg11.dtd">
<svg version="1.1" id="Layer_1" xmlns="http://www.w3.org/2000/svg" xmlns:xlink="http://www.w3.org/1999/xlink" x="0px" y="0px"
	 width="300.001px" height="300.009px" viewBox="0 0 300.001 300.009" enable-background="new 0 0 300.001 300.009"
	 xml:space="preserve">
<path fill-rule="evenodd" clip-rule="evenodd" fill="#222F38" d="M256.06,256.067c-58.588,58.588-153.546,58.588-212.118,0
	c-58.588-58.589-58.588-153.57,0-212.126c58.572-58.588,153.53-58.588,212.118,0C314.647,102.497,314.647,197.479,256.06,256.067
	L256.06,256.067z M67.324,232.668c45.66,45.676,119.677,45.676,165.344,0c45.659-45.659,45.659-119.668,0-165.335
	c-45.667-45.659-119.684-45.659-165.344,0C21.665,113,21.665,187.009,67.324,232.668L67.324,232.668z M205.897,149.67
	l-61.389,69.287c0,0-3.013,5.488-13.255,5.488c-10.34,0-18.742-8.403-18.742-18.776c0-5.145,2.084-9.818,5.488-13.254l35.367-42.387
	l-35.954-42.98c0,0-5.487-3.037-5.487-13.279c0-10.348,8.402-18.75,18.742-18.75c5.178,0,9.884,2.092,13.254,5.496L205.897,149.67
	L205.897,149.67z"/>
</svg>
