<?xml version="1.0" encoding="utf-8"?>
<!-- Generator: Adobe Illustrator 16.0.0, SVG Export Plug-In . SVG Version: 6.00 Build 0)  -->
<!DOCTYPE svg PUBLIC "-//W3C//DTD SVG 1.1//EN" "http://www.w3.org/Graphics/SVG/1.1/DTD/svg11.dtd">
<svg version="1.1" id="Layer_1" xmlns="http://www.w3.org/2000/svg" xmlns:xlink="http://www.w3.org/1999/xlink" x="0px" y="0px"
	 width="300px" height="356.659px" viewBox="0 0 300 356.659" enable-background="new 0 0 300 356.659" xml:space="preserve">
<g>
	<path fill-rule="evenodd" clip-rule="evenodd" fill="#AFB5BF" d="M179.896,215.913l17.666,7.955c0,0-13.653,2.39-23.587,19.201
		c-8.326,14.089-13.02,24.434-13.02,24.434H73.285l-0.237-19.993c-0.062-16.273,12.236-20.144,12.236-20.144l34.617-11.469
		l11.722-6.348l-0.087-13.045c0,0-8.754-4.194-8.766-14.674c-0.393-0.023-0.792-0.063-1.271-0.127
		c-6.237-0.791-11.596-10.586-12.047-17.238c-0.455-6.652,4.967-7.219,4.967-7.219l4.729,1.571c0,0-2.062-6.174-2.062-23.389
		c0-7.911,2.109-11.782,6.297-14.311c0-0.036-0.012-0.063-0.012-0.099c0,0-6.285-14.939,27.342-15.24
		c32.404,0.301,32.341,28.09,32.341,28.09l-0.11,10.198l-0.975,13.368c0.356-0.126,4.583-0.189,5.011-0.189
		c3.783,0,3.482,7.531,3.482,7.531s-4.551,16.135-10.804,16.926c-0.538,0.08-0.997,0.111-1.433,0.143
		c-1.132,8.588-9.807,14.382-9.807,14.382v13.669L179.896,215.913L179.896,215.913z M275.62,254.602
		c0.024-50.988,0.032-154.596-0.143-180.577c-0.371-54.562-47.909-49.947-47.909-49.947H97.105l0.099,32.396
		c-1.219,28.795-40.366,32.605-40.366,32.605H24.129v192.877c0.091,56.117,46.567,50.007,46.567,50.007h127.324l3.467,9.593
		l29.927,14.832H55.342C2.616,355.502,0,303.659,0,303.659V90.072C35.095,3.732,112.131,0,112.131,0h115.635
		c69.541,0,71.915,61.503,71.915,61.503v201.773L275.62,254.602L275.62,254.602z"/>
	<path fill="#F3B93E" d="M278.635,335.295c-28.494,28.485-74.67,28.485-103.164,0c-28.481-28.494-28.481-74.67,0-103.164
		c28.494-28.479,74.67-28.479,103.164,0C307.122,260.625,307.122,306.801,278.635,335.295L278.635,335.295z M267.333,243.449
		c-22.209-22.21-58.349-22.21-80.543-0.016c-22.209,22.21-22.209,58.349,0,80.543c22.194,22.21,58.334,22.21,80.543,0
		C289.527,301.782,289.527,265.644,267.333,243.449L267.333,243.449z M255.713,266.521l-45.852,45.852
		c-3.166,3.158-8.295,3.158-11.469,0c-3.158-3.166-3.158-8.303,0-11.469l45.852-45.852c3.166-3.166,8.295-3.166,11.469,0
		C258.879,258.227,258.879,263.355,255.713,266.521L255.713,266.521z M255.713,312.373c-3.174,3.158-8.303,3.158-11.469,0
		l-45.852-45.852c-3.158-3.166-3.158-8.295,0-11.469c3.174-3.166,8.303-3.166,11.469,0l45.852,45.852
		C258.879,304.07,258.879,309.207,255.713,312.373L255.713,312.373z"/>
</g>
</svg>
