<?xml version="1.0" encoding="utf-8"?>
<!-- Generator: Adobe Illustrator 16.0.0, SVG Export Plug-In . SVG Version: 6.00 Build 0)  -->
<!DOCTYPE svg PUBLIC "-//W3C//DTD SVG 1.1//EN" "http://www.w3.org/Graphics/SVG/1.1/DTD/svg11.dtd">
<svg version="1.1" id="Layer_1" xmlns="http://www.w3.org/2000/svg" xmlns:xlink="http://www.w3.org/1999/xlink" x="0px" y="0px"
	 width="300px" height="356.75px" viewBox="0 0 300 356.75" enable-background="new 0 0 300 356.75" xml:space="preserve">
<g>
	<path fill-rule="evenodd" clip-rule="evenodd" fill="#AFB5BF" d="M255.187,356.75H55.391C2.614,355.878,0,303.981,0,303.981V90.166
		C35.131,3.74,112.24,0,112.24,0h115.77C297.623,0,300,61.579,300,61.579v245.191C299.921,352.979,255.187,356.75,255.187,356.75
		L255.187,356.75z M275.755,74.098c-0.38-54.614-47.951-49.995-47.951-49.995H97.202l0.103,32.438
		c-1.22,28.816-40.4,32.644-40.4,32.644H24.149v193.072c0.08,56.176,46.62,50.06,46.62,50.06h156.923
		c51.247,0.205,48.189-48.744,48.189-48.744S275.992,108.983,275.755,74.098L275.755,74.098z"/>
	<path fill="#00AEEF" d="M210.832,251.276H97.629c-4.572,0-8.272-3.708-8.272-8.271V138.117c0-4.563,3.7-8.271,8.272-8.271h24.277
		v-8.359c0-4.524-0.079-8.192,4.453-8.192h6.624c4.524,0,5.023,3.668,5.023,8.192v8.359h32.129v-8.359
		c0-4.524,0.515-8.192,5.039-8.192h6.611c4.533,0,4.723,3.668,4.723,8.192v8.359h24.324c4.564,0,8.271,3.708,8.271,8.271v104.888
		C219.104,247.568,215.396,251.276,210.832,251.276L210.832,251.276z M202.925,149.891c0-2.274-1.854-4.136-4.151-4.136h-88.99
		c-2.29,0-4.136,1.862-4.136,4.136v81.641c0,2.281,1.847,4.151,4.136,4.151h88.99c2.297,0,4.151-1.87,4.151-4.151V149.891
		L202.925,149.891z M174.746,219.045h-16.789h-7.258h-17.051c-1.997,0-3.613-1.807-3.613-4.041v-8.019
		c0-2.234,1.616-4.057,3.613-4.057h12.154v-24.371h-12.154c-1.997,0-3.613-1.807-3.613-4.041v-8.05c0-2.227,1.616-4.041,3.613-4.041
		h17.051h8.018c2.005,0,3.629,1.814,3.629,4.041v9.856v26.605h12.4c2.004,0,3.633,1.822,3.633,4.057v8.019
		C178.379,217.238,176.75,219.045,174.746,219.045L174.746,219.045z"/>
</g>
</svg>
