<?xml version="1.0" encoding="UTF-8"?><!DOCTYPE svg PUBLIC "-//W3C//DTD SVG 1.1//EN" "http://www.w3.org/Graphics/SVG/1.1/DTD/svg11.dtd"><svg xmlns="http://www.w3.org/2000/svg" xmlns:xlink="http://www.w3.org/1999/xlink"><defs><path id="pdfnpng-a" d="M172.708 140.507l-88.216 19.921c-7.036 1.588-14.026-2.83-15.614-9.862L44.524 42.734c-1.588-7.037 2.827-14.031 9.863-15.62l88.217-19.921c7.035-1.588 14.027 2.826 15.614 9.862l24.352 107.833c1.59 7.038-2.826 14.032-9.862 15.619zm-21.983-120.5a6.535 6.535 0 0 0-7.808-4.931L57.493 34.368c-3.518.791-5.722 4.288-4.931 7.808l13.719 60.754 18.042-29.924 17.853 12.054 25.687-41.163L160.021 60.6l-9.296-40.593zm-66.07 45.466c-7.579 1.713-15.103-3.014-16.804-10.56-1.705-7.544 3.055-15.047 10.634-16.761 7.578-1.709 15.103 3.018 16.807 10.562 1.705 7.546-3.06 15.049-10.637 16.759zm-4.311-19.517a6.138 6.138 0 0 0-4.635 7.345 6.138 6.138 0 0 0 7.34 4.635 6.14 6.14 0 0 0-2.705-11.98z"/><path id="pdfnpng-b" d="M206.772 220.199c-1.531 3.973-3.585 6.745-6.164 8.313-2.582 1.567-5.386 1.769-8.425.601-3.081-1.188-5.042-3.214-5.895-6.081l-.309-.118c-.583 2.131-.958 3.419-1.129 3.855l-3.831 9.968-5.167-1.989 13.512-35.152 4.183 1.604c-.059.502-.235 1.68-.527 3.537l.262.103c2.564-1.847 5.457-2.146 8.685-.904 3.035 1.168 4.977 3.176 5.827 6.027.847 2.85.504 6.259-1.022 10.236zm-4.347-8.826c-.421-1.773-1.563-3.015-3.426-3.732-2.052-.789-3.781-.764-5.189.076-1.408.838-2.623 2.574-3.635 5.219l-.296.767c-1.144 2.964-1.496 5.288-1.068 6.978.429 1.689 1.705 2.943 3.831 3.76 1.788.688 3.453.482 4.981-.612 1.533-1.093 2.821-2.995 3.865-5.709 1.05-2.731 1.361-4.982.937-6.747zm24.548 30.606l-4.048-1.555.326-3.537-.242-.093c-2.589 1.783-5.481 2.06-8.677.828-3.035-1.166-4.981-3.175-5.836-6.03-.854-2.855-.521-6.27 1.009-10.242 1.533-3.989 3.588-6.765 6.165-8.324 2.581-1.56 5.395-1.751 8.444-.581 3.199 1.229 5.178 3.349 5.941 6.354l.262.101c.426-1.842.83-3.268 1.217-4.279l3.409-8.868 5.189 1.996-13.159 34.23zm.708-21.087c-.5-1.678-1.813-2.922-3.938-3.739-1.817-.701-3.502-.5-5.053.598-1.55 1.095-2.846 3.007-3.896 5.735-1.039 2.699-1.352 4.938-.943 6.718.409 1.786 1.567 3.04 3.473 3.774 2.126.815 3.906.815 5.332-.01 1.425-.82 2.672-2.566 3.735-5.244l.279-.725c1.175-3.063 1.515-5.434 1.011-7.107zm29.585-1.301c-1.119-.905-2.256-1.577-3.414-2.022-1.176-.45-2.167-.416-2.985.105-.813.517-1.501 1.506-2.055 2.956l-.612 1.582 5.939 2.285-1.504 3.918-5.941-2.284-7.85 20.413-5.189-1.996 7.849-20.413-4.004-1.538.928-2.423 4.614-.044.61-1.587c1.104-2.87 2.601-4.741 4.479-5.608 1.886-.867 4.21-.769 6.982.294a17.64 17.64 0 0 1 5.021 2.969l-2.868 3.393zm-55.984 148.614l-.152.161c1.2.896 1.915 1.455 2.15 1.673l5.332 4.889-2.54 2.768-18.8-17.257 2.05-2.233c.301.156 1.001.563 2.099 1.207l.127-.142c-.524-2.069.005-3.968 1.589-5.692 1.487-1.626 3.238-2.351 5.249-2.177 2.003.172 4.07 1.234 6.196 3.184 2.128 1.952 3.365 3.936 3.71 5.954.348 2.013-.225 3.835-1.717 5.457-1.507 1.649-3.275 2.381-5.293 2.208zm3.318-6.949c-.309-1.239-1.19-2.522-2.643-3.857-1.457-1.337-2.797-2.092-4.017-2.269-1.222-.168-2.29.238-3.203 1.234-1.009 1.103-1.42 2.197-1.247 3.295.181 1.095.977 2.292 2.39 3.588l.412.374c1.584 1.455 2.961 2.256 4.131 2.408 1.171.149 2.28-.343 3.321-1.482.883-.957 1.165-2.054.856-3.291zm16.75-11.827l-2.15-1.082-.117.127c.48 2.077-.066 3.97-1.634 5.677-1.491 1.624-3.243 2.352-5.253 2.183-2.013-.172-4.08-1.229-6.206-3.182-2.133-1.959-3.373-3.943-3.713-5.956-.343-2.011.233-3.835 1.729-5.467 1.572-1.707 3.397-2.435 5.481-2.167l.13-.14c-1.056-.723-1.856-1.335-2.398-1.832l-4.739-4.353 2.547-2.774 18.307 16.804-1.984 2.162zm-4.139-1.432c-.162-1.104-.956-2.321-2.376-3.656l-.389-.355c-1.641-1.504-3.049-2.31-4.23-2.41-1.18-.098-2.292.422-3.335 1.556-.892.977-1.188 2.084-.879 3.336.304 1.251 1.188 2.542 2.647 3.879 1.443 1.327 2.777 2.082 4.002 2.266 1.225.186 2.305-.23 3.243-1.252 1.043-1.141 1.483-2.26 1.317-3.364zm11.952-7.083l-2.547 2.775-10.923-10.018-1.962 2.141-1.298-1.188 1.122-2.92-.85-.773c-1.538-1.413-2.346-2.819-2.422-4.225-.079-1.401.559-2.841 1.922-4.325.892-.973 1.93-1.78 3.113-2.427l1.426 2.652c-.845.478-1.551 1.028-2.121 1.65-.576.629-.801 1.262-.676 1.903.125.644.58 1.322 1.354 2.035l.848.776 2.917-3.177 2.094 1.92-2.915 3.177 10.918 10.024zM176.977 453.97c-1.051 1.746-2.25 2.885-3.598 3.409-1.35.526-2.691.384-4.026-.417-1.354-.817-2.114-1.939-2.275-3.359l-.137-.084c-.451.958-.739 1.533-.854 1.727l-2.635 4.385-2.275-1.367 9.304-15.469 1.837 1.107c-.066.23-.25.771-.542 1.626l.118.066c1.362-.654 2.75-.559 4.171.296 1.335.806 2.084 1.915 2.249 3.331.159 1.418-.282 2.998-1.337 4.749zm-2.621-6.574c-.906-.546-1.722-.676-2.457-.396-.737.274-1.45.997-2.15 2.16l-.206.338c-.784 1.303-1.146 2.371-1.083 3.204.062.83.563 1.53 1.497 2.094.789.47 1.587.512 2.4.125.818-.387 1.58-1.181 2.302-2.373.72-1.2 1.053-2.239 1.004-3.108-.053-.868-.486-1.551-1.307-2.044zm10.345 18.533l-1.781-1.073.446-1.641-.107-.063c-1.367.627-2.755.517-4.164-.328-1.335-.806-2.084-1.918-2.251-3.336-.167-1.416.274-3 1.33-4.746 1.053-1.756 2.253-2.897 3.6-3.419 1.347-.522 2.689-.38 4.031.429 1.408.847 2.167 2.011 2.275 3.494l.117.066c.355-.835.662-1.472.928-1.918l2.349-3.901 2.282 1.377-9.055 15.059zm.536-11.983c-.796-.485-1.609-.532-2.429-.143-.826.387-1.597 1.183-2.317 2.383-.713 1.188-1.051 2.22-1.004 3.094.044.877.487 1.563 1.325 2.067.933.563 1.775.712 2.518.442.742-.271 1.474-.991 2.197-2.165l.191-.32c.813-1.35 1.168-2.437 1.072-3.272-.098-.827-.615-1.526-1.553-2.086zm15.621 3.932a6.15 6.15 0 0 0-1.442-1.236c-.517-.309-.987-.375-1.418-.196-.424.174-.833.583-1.217 1.225l-.417.695 2.613 1.572-1.036 1.722-2.616-1.572-5.402 8.983-2.283-1.374 5.403-8.982-1.764-1.061.642-1.063 2.18.365.421-.698c.759-1.266 1.622-2.025 2.579-2.275.965-.255 2.052-.012 3.274.721a8.464 8.464 0 0 1 2.121 1.816l-1.638 1.358z"/><path id="pdfnpng-c" opacity=".62" d="M206.772 220.199c-1.531 3.973-3.585 6.745-6.164 8.313-2.582 1.567-5.386 1.769-8.425.601-3.081-1.188-5.042-3.214-5.895-6.081l-.309-.118c-.583 2.131-.958 3.419-1.129 3.855l-3.831 9.968-5.167-1.989 13.512-35.152 4.183 1.604c-.059.502-.235 1.68-.527 3.537l.262.103c2.564-1.847 5.457-2.146 8.685-.904 3.035 1.168 4.977 3.176 5.827 6.027.847 2.85.504 6.259-1.022 10.236zm-4.347-8.826c-.421-1.773-1.563-3.015-3.426-3.732-2.052-.789-3.781-.764-5.189.076-1.408.838-2.623 2.574-3.635 5.219l-.296.767c-1.144 2.964-1.496 5.288-1.068 6.978.429 1.689 1.705 2.943 3.831 3.76 1.788.688 3.453.482 4.981-.612 1.533-1.093 2.821-2.995 3.865-5.709 1.05-2.731 1.361-4.982.937-6.747zm24.548 30.606l-4.048-1.555.326-3.537-.242-.093c-2.589 1.783-5.481 2.06-8.677.828-3.035-1.166-4.981-3.175-5.836-6.03-.854-2.855-.521-6.27 1.009-10.242 1.533-3.989 3.588-6.765 6.165-8.324 2.581-1.56 5.395-1.751 8.444-.581 3.199 1.229 5.178 3.349 5.941 6.354l.262.101c.426-1.842.83-3.268 1.217-4.279l3.409-8.868 5.189 1.996-13.159 34.23zm.708-21.087c-.5-1.678-1.813-2.922-3.938-3.739-1.817-.701-3.502-.5-5.053.598-1.55 1.095-2.846 3.007-3.896 5.735-1.039 2.699-1.352 4.938-.943 6.718.409 1.786 1.567 3.04 3.473 3.774 2.126.815 3.906.815 5.332-.01 1.425-.82 2.672-2.566 3.735-5.244l.279-.725c1.175-3.063 1.515-5.434 1.011-7.107zm29.585-1.301c-1.119-.905-2.256-1.577-3.414-2.022-1.176-.45-2.167-.416-2.985.105-.813.517-1.501 1.506-2.055 2.956l-.612 1.582 5.939 2.285-1.504 3.918-5.941-2.284-7.85 20.413-5.189-1.996 7.849-20.413-4.004-1.538.928-2.423 4.614-.044.61-1.587c1.104-2.87 2.601-4.741 4.479-5.608 1.886-.867 4.21-.769 6.982.294a17.64 17.64 0 0 1 5.021 2.969l-2.868 3.393zm-55.984 148.614l-.152.161c1.2.896 1.915 1.455 2.15 1.673l5.332 4.889-2.54 2.768-18.8-17.257 2.05-2.233c.301.156 1.001.563 2.099 1.207l.127-.142c-.524-2.069.005-3.968 1.589-5.692 1.487-1.626 3.238-2.351 5.249-2.177 2.003.172 4.07 1.234 6.196 3.184 2.128 1.952 3.365 3.936 3.71 5.954.348 2.013-.225 3.835-1.717 5.457-1.507 1.649-3.275 2.381-5.293 2.208zm3.318-6.949c-.309-1.239-1.19-2.522-2.643-3.857-1.457-1.337-2.797-2.092-4.017-2.269-1.222-.168-2.29.238-3.203 1.234-1.009 1.103-1.42 2.197-1.247 3.295.181 1.095.977 2.292 2.39 3.588l.412.374c1.584 1.455 2.961 2.256 4.131 2.408 1.171.149 2.28-.343 3.321-1.482.883-.957 1.165-2.054.856-3.291zm16.75-11.827l-2.15-1.082-.117.127c.48 2.077-.066 3.97-1.634 5.677-1.491 1.624-3.243 2.352-5.253 2.183-2.013-.172-4.08-1.229-6.206-3.182-2.133-1.959-3.373-3.943-3.713-5.956-.343-2.011.233-3.835 1.729-5.467 1.572-1.707 3.397-2.435 5.481-2.167l.13-.14c-1.056-.723-1.856-1.335-2.398-1.832l-4.739-4.353 2.547-2.774 18.307 16.804-1.984 2.162zm-4.139-1.432c-.162-1.104-.956-2.321-2.376-3.656l-.389-.355c-1.641-1.504-3.049-2.31-4.23-2.41-1.18-.098-2.292.422-3.335 1.556-.892.977-1.188 2.084-.879 3.336.304 1.251 1.188 2.542 2.647 3.879 1.443 1.327 2.777 2.082 4.002 2.266 1.225.186 2.305-.23 3.243-1.252 1.043-1.141 1.483-2.26 1.317-3.364zm11.952-7.083l-2.547 2.775-10.923-10.018-1.962 2.141-1.298-1.188 1.122-2.92-.85-.773c-1.538-1.413-2.346-2.819-2.422-4.225-.079-1.401.559-2.841 1.922-4.325.892-.973 1.93-1.78 3.113-2.427l1.426 2.652c-.845.478-1.551 1.028-2.121 1.65-.576.629-.801 1.262-.676 1.903.125.644.58 1.322 1.354 2.035l.848.776 2.917-3.177 2.094 1.92-2.915 3.177 10.918 10.024zM176.977 453.97c-1.051 1.746-2.25 2.885-3.598 3.409-1.35.526-2.691.384-4.026-.417-1.354-.817-2.114-1.939-2.275-3.359l-.137-.084c-.451.958-.739 1.533-.854 1.727l-2.635 4.385-2.275-1.367 9.304-15.469 1.837 1.107c-.066.23-.25.771-.542 1.626l.118.066c1.362-.654 2.75-.559 4.171.296 1.335.806 2.084 1.915 2.249 3.331.159 1.418-.282 2.998-1.337 4.749zm-2.621-6.574c-.906-.546-1.722-.676-2.457-.396-.737.274-1.45.997-2.15 2.16l-.206.338c-.784 1.303-1.146 2.371-1.083 3.204.062.83.563 1.53 1.497 2.094.789.47 1.587.512 2.4.125.818-.387 1.58-1.181 2.302-2.373.72-1.2 1.053-2.239 1.004-3.108-.053-.868-.486-1.551-1.307-2.044zm10.345 18.533l-1.781-1.073.446-1.641-.107-.063c-1.367.627-2.755.517-4.164-.328-1.335-.806-2.084-1.918-2.251-3.336-.167-1.416.274-3 1.33-4.746 1.053-1.756 2.253-2.897 3.6-3.419 1.347-.522 2.689-.38 4.031.429 1.408.847 2.167 2.011 2.275 3.494l.117.066c.355-.835.662-1.472.928-1.918l2.349-3.901 2.282 1.377-9.055 15.059zm.536-11.983c-.796-.485-1.609-.532-2.429-.143-.826.387-1.597 1.183-2.317 2.383-.713 1.188-1.051 2.22-1.004 3.094.044.877.487 1.563 1.325 2.067.933.563 1.775.712 2.518.442.742-.271 1.474-.991 2.197-2.165l.191-.32c.813-1.35 1.168-2.437 1.072-3.272-.098-.827-.615-1.526-1.553-2.086zm15.621 3.932a6.15 6.15 0 0 0-1.442-1.236c-.517-.309-.987-.375-1.418-.196-.424.174-.833.583-1.217 1.225l-.417.695 2.613 1.572-1.036 1.722-2.616-1.572-5.402 8.983-2.283-1.374 5.403-8.982-1.764-1.061.642-1.063 2.18.365.421-.698c.759-1.266 1.622-2.025 2.579-2.275.965-.255 2.052-.012 3.274.721a8.464 8.464 0 0 1 2.121 1.816l-1.638 1.358z"/><path id="pdfnpng-d" d="M220.554 44.763c-.521.367-1.043.509-1.55.417-.514-.088-.96-.404-1.339-.946-.392-.555-.542-1.092-.448-1.601.085-.513.394-.95.916-1.321.551-.383 1.075-.529 1.584-.438.507.096.958.42 1.349.975.38.541.527 1.066.438 1.576-.083.509-.399.954-.95 1.338zm-24.528 15.173c-1.318-.241-2.488-1.096-3.522-2.571-.649-.921-1.08-1.769-1.288-2.53l2.43-1.706a8.393 8.393 0 0 0 1.043 1.98c.916 1.309 2.114 1.443 3.598.404l16.145-11.33 2.155 3.072-16.353 11.476c-1.495 1.047-2.896 1.448-4.208 1.205zm29.541 3.735c-.6 1.926-2.084 3.714-4.442 5.373-2.364 1.659-4.565 2.438-6.608 2.343-2.045-.092-3.696-1.042-4.964-2.847-1.283-1.83-1.624-3.714-1.016-5.648l-.13-.184c-1.134.98-1.83 1.559-2.092 1.743l-5.924 4.155-2.155-3.071 20.894-14.656 1.741 2.484c-.22.258-.767.854-1.633 1.788l.112.159c2.133-.071 3.877.854 5.224 2.771 1.26 1.805 1.595 3.669.993 5.59zm-4.068-4.626c-.854-1.222-1.837-1.86-2.946-1.923-1.109-.058-2.447.459-4.014 1.56l-.458.321c-1.763 1.237-2.838 2.409-3.24 3.522-.395 1.108-.149 2.297.734 3.56.745 1.063 1.759 1.58 3.035 1.542 1.276-.037 2.718-.621 4.33-1.75 1.621-1.138 2.647-2.285 3.076-3.439.433-1.155.264-2.289-.517-3.393zm15.466 20.846l-2.189-2.15c-.145.442-.392.891-.73 1.351-.34.458-.762.862-1.259 1.212-1.487 1.046-3.022 1.354-4.597.926-1.575-.43-2.998-1.547-4.264-3.352a8.984 8.984 0 0 1-.776-1.326c-.875-.375-1.584-.37-2.133.013-.331.233-.47.562-.421.988.054.425.37 1.049.951 1.88l1.771 2.521c1.119 1.597 1.631 3.047 1.531 4.353-.101 1.304-.789 2.405-2.072 3.305-1.638 1.151-3.377 1.359-5.209.634-1.839-.726-3.652-2.368-5.444-4.924-1.384-1.967-2.089-3.713-2.119-5.244-.032-1.525.595-2.738 1.888-3.646.889-.621 1.834-.867 2.836-.73.999.137 1.971.629 2.912 1.476a2.834 2.834 0 0 1 .135-1.605c.199-.538.517-.954.94-1.254.544-.379 1.104-.55 1.697-.508.588.045 1.276.238 2.065.583-.206-.979-.105-1.954.293-2.93.402-.975 1.09-1.809 2.065-2.492 1.572-1.101 3.135-1.459 4.69-1.076 1.558.384 2.976 1.493 4.259 3.322.287.409.563.859.821 1.347.259.488.438.867.534 1.138l3.515 5.006-1.69 1.182zm-17.041 2.767l-1.631-2.33c-.619-.879-1.315-1.433-2.091-1.658-.779-.23-1.521-.097-2.226.399-.664.463-.963 1.122-.904 1.968.061.846.47 1.813 1.229 2.894 1.175 1.671 2.288 2.75 3.343 3.234 1.056.483 1.979.445 2.772-.113.629-.437.916-.975.867-1.613-.051-.634-.501-1.564-1.359-2.781zm11.871-10.083c-.625-.891-1.35-1.387-2.175-1.488-.831-.104-1.727.184-2.694.862-.904.638-1.438 1.359-1.599 2.167-.164.81.066 1.647.673 2.519 1.247 1.779 2.824 2 4.725.671.94-.664 1.513-1.392 1.712-2.188.201-.801-.012-1.647-.642-2.543zM77.331 309.849c-.625 1.869-2.117 3.412-4.48 4.619-1.484.759-2.806 1.21-3.965 1.364l-1.992-3.906a12.696 12.696 0 0 0 3.11-1.112c2.1-1.072 2.539-2.797 1.325-5.178l-13.247-25.919 4.931-2.518 13.419 26.252c1.223 2.394 1.519 4.527.899 6.398zm-18.512-34.85c-.893.458-1.706.57-2.435.333-.729-.238-1.309-.774-1.739-1.614-.449-.879-.553-1.683-.316-2.405.238-.72.808-1.313 1.7-1.771.872-.44 1.668-.551 2.393-.321.727.23 1.314.784 1.764 1.668.43.838.525 1.622.292 2.352-.239.728-.792 1.316-1.659 1.758zm39.041 10.17c-.559 2.969-2.285 5.194-5.181 6.674-2.939 1.499-5.762 1.609-8.463.326l-.295.148c1.2 1.859 1.904 2.998 2.118 3.417l4.86 9.51-4.931 2.521-17.14-33.538 3.988-2.038c.334.375 1.092 1.291 2.28 2.75l.251-.129c.337-3.136 2.046-5.489 5.123-7.066 2.897-1.479 5.69-1.579 8.378-.309 2.689 1.273 5.002 3.807 6.94 7.598s2.627 7.173 2.072 10.136zm-7.153-7.594c-1.329-2.601-2.792-4.335-4.393-5.202-1.601-.872-3.289-.853-5.065.059-1.959 1-3.097 2.305-3.41 3.914-.316 1.609.167 3.671 1.455 6.188l.376.735c1.446 2.828 2.938 4.646 4.481 5.451 1.542.813 3.326.696 5.356-.343 1.705-.869 2.664-2.24 2.873-4.114.207-1.871-.347-4.099-1.673-6.688zm35.335 7.011c-1.438 2.532-4.21 4.847-8.308 6.943-3.163 1.619-5.861 2.29-8.099 2.022-2.239-.271-3.884-1.439-4.944-3.509-.729-1.428-.891-2.856-.483-4.291.404-1.433 1.321-2.756 2.751-3.963-.801.057-1.572-.117-2.318-.521s-1.292-.95-1.642-1.634c-.442-.867-.576-1.731-.392-2.581s.605-1.817 1.271-2.902c-1.467.101-2.876-.245-4.222-1.028-1.342-.789-2.417-1.965-3.218-3.532-1.288-2.518-1.493-4.876-.608-7.073.879-2.196 2.788-4.043 5.727-5.547a18.7 18.7 0 0 1 2.134-.918c.767-.279 1.359-.463 1.772-.549l8.041-4.107 1.384 2.706-3.593 2.763c.612.304 1.221.752 1.826 1.342a8.061 8.061 0 0 1 1.514 2.085c1.225 2.393 1.358 4.697.408 6.911-.95 2.219-2.872 4.065-5.769 5.545-.742.38-1.443.666-2.102.862-.725 1.2-.862 2.243-.413 3.122.272.534.721.804 1.355.818.633.012 1.613-.321 2.943-1.002l4.052-2.072c2.56-1.308 4.781-1.753 6.669-1.347 1.888.414 3.355 1.648 4.406 3.708 1.347 2.631 1.297 5.209-.142 7.749zm-18.157-15.128c2.855-1.46 3.502-3.711 1.943-6.762-.771-1.514-1.722-2.496-2.844-2.954-1.125-.456-2.409-.318-3.851.419-1.425.729-2.301 1.689-2.618 2.873-.321 1.188-.083 2.559.709 4.109.742 1.459 1.688 2.385 2.838 2.784 1.15.406 2.423.249 3.823-.469zm14.077 10.303c-.513-1.009-1.243-1.54-2.18-1.599-.938-.059-2.385.411-4.343 1.413l-3.74 1.908c-1.413.722-2.364 1.631-2.856 2.718-.496 1.093-.449 2.202.13 3.336.542 1.063 1.438 1.639 2.693 1.722 1.25.083 2.743-.318 4.477-1.205 2.688-1.371 4.489-2.782 5.415-4.22.921-1.442 1.054-2.801.404-4.073z"/></defs><symbol id="add-comment" viewBox="0 0 300 367.098"><path fill="inherit" d="M260.362 248.667c-.294.418-.543.848-.859 1.231L163.626 361.01c-3.399 3.93-10.774 6.087-15.8 6.087a17.49 17.49 0 0 1-6.075-1.084c-6.895-2.507-8.035-7.317-8.035-14.613 0 0-.322-30.57-.124-51.847 0 0-133.591-16.284-133.591-148.678C0 123.614 15.946 0 147.95 0 230.491 0 300 66.584 300 148.419c0 38.656-15.111 73.811-39.638 100.248zM149.249 32.948c-64.567 0-117.075 52.377-117.075 116.753s52.507 116.731 117.075 116.731c64.552 0 117.075-52.354 117.075-116.731 0-64.376-52.524-116.753-117.075-116.753zm47.126 105.471h-92.518c-6.38 0-11.564-5.184-11.564-11.558V115.28c0-6.381 5.184-11.564 11.564-11.564h92.518c6.381 0 11.564 5.184 11.564 11.564v11.581c0 6.374-5.184 11.558-11.564 11.558zm0 57.814h-92.518c-6.38 0-11.564-5.184-11.564-11.563v-11.559c0-6.397 5.184-11.564 11.564-11.564h92.518c6.381 0 11.564 5.167 11.564 11.564v11.559c0 6.38-5.184 11.563-11.564 11.563z"/></symbol><symbol id="add" viewBox="0 0 300 300"><path fill-rule="evenodd" clip-rule="evenodd" fill="inherit" d="M149.996 300C67.165 300 0 232.835 0 149.996 0 67.165 67.165 0 149.996 0 232.835 0 300 67.165 300 149.996 300 232.835 232.835 300 149.996 300zm0-271.142c-66.798 0-121.138 54.34-121.138 121.138 0 66.799 54.34 121.146 121.138 121.146 66.799 0 121.146-54.347 121.146-121.146 0-66.798-54.347-121.138-121.146-121.138zm56.442 135.656h-41.441v41.91c0 10.254-4.57 18.574-14.81 18.574h-.374c-10.247 0-14.817-8.32-14.817-18.574v-41.91H93.562c-10.247 0-18.567-4.088-18.567-14.327v-.374c0-10.246 8.321-14.816 18.567-14.816h41.434V93.562c0-10.247 4.57-18.567 14.817-18.567h.374c10.239 0 14.327 8.321 14.327 18.567v41.435h41.924c10.24 0 18.561 4.57 18.561 14.816v.374c-.001 10.239-8.321 14.327-18.561 14.327z"/></symbol><symbol id="add1" viewBox="0 0 300 300"><path fill-rule="evenodd" clip-rule="evenodd" fill="#ECECEC" d="M149.996 300C67.165 300 0 232.835 0 149.996 0 67.165 67.165 0 149.996 0 232.835 0 300 67.165 300 149.996 300 232.835 232.835 300 149.996 300zm0-271.142c-66.798 0-121.138 54.34-121.138 121.138 0 66.799 54.34 121.146 121.138 121.146 66.799 0 121.146-54.347 121.146-121.146 0-66.798-54.347-121.138-121.146-121.138zm56.442 135.656h-41.441v41.91c0 10.254-4.57 18.574-14.81 18.574h-.374c-10.247 0-14.817-8.32-14.817-18.574v-41.91H93.562c-10.247 0-18.567-4.088-18.567-14.327v-.374c0-10.246 8.321-14.816 18.567-14.816h41.434V93.562c0-10.247 4.57-18.567 14.817-18.567h.374c10.239 0 14.327 8.321 14.327 18.567v41.435h41.924c10.24 0 18.561 4.57 18.561 14.816v.374c-.001 10.239-8.321 14.327-18.561 14.327z"/></symbol><symbol id="addfile" viewBox="0 0 300 356.742"><path fill-rule="evenodd" clip-rule="evenodd" fill="#AFB5BF" d="M255.194 356.742H55.396C2.615 355.878 0 303.973 0 303.973V90.166C35.136 3.735 112.248 0 112.248 0h115.754C297.623 0 300 61.571 300 61.571V306.77c-.071 46.201-44.806 49.972-44.806 49.972zm20.561-282.644c-.38-54.619-47.951-50.004-47.951-50.004H97.206l.103 32.446c-1.22 28.813-40.405 32.636-40.405 32.636H24.158v193.073c.075 56.175 46.616 50.059 46.616 50.059h156.919c51.247.214 48.196-48.744 48.196-48.744s.104-174.585-.134-209.466z"/><path fill="#19C1E5" d="M154.269 259.666c-40.329 0-73.016-32.69-73.016-73.02 0-40.325 32.687-73.017 73.016-73.017s73.021 32.691 73.021 73.017c-.001 40.33-32.692 73.02-73.021 73.02zm0-130.031c-31.431 0-57.011 25.58-57.011 57.012 0 31.439 25.58 57.016 57.011 57.016 31.432 0 57.016-25.576 57.016-57.016-.001-31.432-25.585-57.012-57.016-57.012zm27.478 64.744h-19.476v19.745c0 4.991-2.924 9.032-7.916 9.032h-.174c-5 0-7.927-4.041-7.927-9.032v-19.745h-19.46c-4.987 0-9.036-2.654-9.036-7.646v-.174c0-5 4.049-8.201 9.036-8.201h19.183v-19.186c0-4.988 3.205-9.032 8.204-9.032h.174c4.992 0 7.916 4.044 7.916 9.032v19.186h19.476c4.983 0 9.032 3.201 9.032 8.201v.174c0 4.992-4.049 7.646-9.032 7.646z"/></symbol><symbol id="adduser" viewBox="0 0 299.995 299.541"><g fill-rule="evenodd" clip-rule="evenodd"><path fill="#11131E" d="M218.681 139.468c43.879 0 79.457 34.713 79.457 77.518 0 42.826-35.578 77.519-79.457 77.519-43.922 0-79.5-34.692-79.5-77.519 0-42.804 35.578-77.518 79.5-77.518z"/><path fill="#D6DBE3" d="M299.995 213.827c0 47.705-37.978 85.714-85.693 85.714-40.626 0-74.119-27.612-83.191-65.245-4.546.543-9.093 1.043-13.775 1.043C52.534 235.339 0 182.138 0 117.341 0 52.534 52.534 0 117.335 0c64.786 0 118.342 52.534 118.342 117.341 0 4.505-.479 8.905-1 13.285 37.685 9.04 65.318 42.544 65.318 83.201zM118.097 21.449C65 21.449 21.96 64.494 21.96 117.581c0 22.169 7.571 42.533 20.183 58.79 2.148-11.605 11.476-14.577 11.476-14.577l31.533-11.564 11.46-5.86-.078-12.764s-6.225-4.108-6.241-14.338c-.38-.031-.771-.063-1.23-.135-6.111-.771-11.351-10.354-11.794-16.861-.443-6.497 4.844-7.039 4.844-7.039l4.63 1.522s-2.018-6.048-2.018-22.878c0-7.737 2.07-11.512 6.173-13.994 0-.021-.016-.041-.016-.094 0 0-6.157-14.608 26.736-14.911 31.7.303 31.617 27.497 31.617 27.497l-.105 9.959-.959 13.076c.355-.135 4.484-.177 4.901-.177 3.712 0 3.42 7.352 3.42 7.352s-4.463 15.777-10.573 16.548c-.542.073-.98.125-1.397.135-1.105 8.415-4.932 13.421-4.932 13.421v13.347l10.25 5.882 5.089 1.949c15.119-14.483 35.578-23.409 58.352-23.681.396-3.504.96-6.976.96-10.604-.002-53.088-43.047-96.133-96.144-96.133zm98.373 128.103c-21.064 1.387-59.771 9.166-65.943 57.268 3.691-33.535-20.834 71.168 63.774 71.168 35.558 0 64.149-28.592 64.149-64.16.001-34.808-27.464-63.088-61.98-64.276zm30.344 74.786h-21.689v22.013c0 5.892-4.797 10.667-10.719 10.667h-.209c-5.902 0-10.699-4.775-10.699-10.667v-22.023H181.81c-5.902 0-10.698-4.483-10.698-10.386v-.208c0-5.913 4.796-10.709 10.698-10.709h21.731v-21.689c0-5.902 4.754-10.699 10.656-10.699h.209c5.922 0 10.385 4.797 10.385 10.699V202.7h22.023c5.881 0 10.678 5.12 10.678 11.033v.208c0 5.903-4.797 10.397-10.678 10.397z"/></g></symbol><symbol id="addversion" viewBox="0 0 300 346.131"><path fill="#DBDCE0" d="M184.615 346.131H46.153C20.643 346.131 0 325.466 0 299.978V115.385c0-25.511 20.643-46.154 46.153-46.154v207.692c0 12.71 10.322 23.054 23.055 23.054h161.584c0 25.489-20.666 46.154-46.177 46.154zm69.231-69.207H115.363c-25.488 0-46.154-20.666-46.154-46.177V46.154C69.208 20.666 89.874 0 115.362 0H161.516c6.4 0 12.147 2.569 16.339 6.738L293.24 122.1c4.146 4.214 6.761 10.006 6.761 16.339V230.747c-.001 25.511-20.667 46.177-46.155 46.177zm0-92.33V161.54h-92.33c-12.732 0-23.055-10.322-23.055-23.077V57.692c0-6.4-5.183-11.539-11.538-11.539-6.378 0-11.561 5.138-11.561 11.539V207.647c0 12.778 10.344 23.1 23.099 23.1h92.332c12.71 0 23.054-10.321 23.054-23.1v-23.053h-.001z"/></symbol><symbol id="analytics" viewBox="0 0 300 300"><path fill-rule="evenodd" clip-rule="evenodd" fill="#BEC0CF" d="M258.557 249.691h-91.645v16.986h49.892c9.195 0 16.62 7.452 16.62 16.661 0 9.177-7.425 16.661-16.62 16.661H83.708c-9.171 0-16.628-7.484-16.628-16.661 0-9.209 7.457-16.661 16.628-16.661h49.924v-16.986H41.931C17.489 249.691.455 232.769.455 208.2L0 41.531C0 16.93 17.026 0 41.444 0h216.625c24.451 0 41.477 16.93 41.477 41.531L300 208.2c0 24.57-17.025 41.491-41.443 41.491zm7.228-195.664c0-12.749-8.22-20.754-20.729-20.754H71.101c-12.501 0-37.374 8.005-37.374 20.754l.487 141.645c0 12.757 8.221 20.762 20.722 20.762h173.955c12.51 0 37.383-8.005 37.383-20.762l-.489-141.645zm-65.601 96.022c0-9.201 7.426-16.669 16.62-16.669 9.195 0 16.62 7.469 16.62 16.669v49.984h-33.24v-49.984zm-66.552-66.645c0-9.209 7.433-16.677 16.62-16.677 9.188 0 16.66 7.468 16.66 16.677v116.629h-33.28V83.404zM67.08 133.379c0-9.209 7.457-16.653 16.628-16.653 9.187 0 16.644 7.444 16.644 16.653v66.654H67.08v-66.654z"/></symbol><symbol id="approved" viewBox="0 0 300 300"><path fill="#23B33E" d="M150 300C67.147 300 0 232.853 0 150S67.147 0 150 0s150 67.147 150 150-67.147 150-150 150zm0-270.17C83.747 29.83 29.83 83.747 29.83 150S83.747 270.17 150 270.17 270.17 216.253 270.17 150 216.253 29.83 150 29.83zm71.615 94.779l-96.42 93.401-23.295-23.236-27.442-28.291c-7.121-7.385-8.176-17.934-.806-25.084l.264-.248c7.37-7.121 17.464-5.349 24.614 2.021l27.413 28.291 72.758-70.501c7.355-7.121 17.919-8.176 25.055-.835-.001.015 10.386 12.322-2.141 24.482z"/></symbol><symbol id="archive-icn" viewBox="0 0 300 299.507"><path fill-rule="evenodd" clip-rule="evenodd" fill="inherit" d="M278.54 299.507H21.462c-24.001 0-21.378-27.664-21.378-21.377V26.063C.084 14.263-.224 0 16.24 0c17.023 0 17.884 14.263 17.884 26.063l.309 189.754 232.103-.031V26.722c0-11.793-.845-26.575 17.202-26.575 17.527 0 16.18 14.782 16.18 26.575v252.107c-.001-5.426 2.614 20.678-21.378 20.678zM100.375 98.812c4.613 0 8.764 1.854 11.769 4.865l20.873 22.061V30.905c0-9.203 8.154-15.084 17.357-15.084 9.193 0 16.634 5.881 16.634 15.084v95.855l21.556-23.084a16.558 16.558 0 0 1 11.776-4.865c9.194 0 16.634 7.441 16.634 16.635 0 4.613-1.868 8.764-4.873 11.77l-49.967 50.477a16.61 16.61 0 0 1-11.76 4.873 16.576 16.576 0 0 1-11.777-4.873L88.63 127.216a16.468 16.468 0 0 1-4.897-11.77c0-9.193 7.473-16.634 16.642-16.634z"/></symbol><symbol id="archive" viewBox="0 0 299.999 257.385"><path fill-rule="evenodd" clip-rule="evenodd" fill="#D6DBE3" d="M74.4 139.407h182.906l-29.481 24.759c-4.188 4.188-4.188 10.985 0 15.175 4.189 4.189 10.976 4.189 15.165 0l53.957-42.521c2.23-2.241 3.184-5.205 3.037-8.127.146-2.922-.807-5.891-3.037-8.117l-53.633-42.568c-4.188-4.189-10.986-4.189-15.175 0s-4.189 10.986 0 15.176l29.146 24.784H74.4c-5.922 0-10.724 4.802-10.724 10.725 0 5.917 4.802 10.714 10.724 10.714zm118.645-96.51c0-11.845-9.594-21.443-21.46-21.443H42.897c-11.84 0-21.438 9.598-21.438 21.443v171.59c0 11.846 9.599 21.459 21.438 21.459h128.688c11.866 0 21.46-9.613 21.46-21.459v-21.459h21.438v21.459c0 23.701-19.197 42.897-42.897 42.897H42.897C19.213 257.385 0 238.189 0 214.488V42.897C0 19.212 19.213 0 42.897 0h128.688c23.7 0 42.897 19.212 42.897 42.897v21.109h-21.438V42.897h.001z"/></symbol><symbol id="archive1" viewBox="0 0 299.997 256.979"><path fill-rule="evenodd" clip-rule="evenodd" fill="#DBDCE0" d="M278.478 256.979H21.52c-24.051 0-21.437-27.751-21.437-21.436V42.83c0-11.816 9.62-21.415 21.437-21.415 11.836 0 20.432 9.599 20.432 21.415l.815 128.469 214.442.69-.146-128.49c0-11.837 9.578-21.415 21.415-21.415 11.816 0 21.436 9.578 21.436 21.415v192.735c0-5.417 2.614 20.745-21.436 20.745zM107.179 64.245c5.919 0 11.293 2.384 15.142 6.274l6.273 6.253V21.415C128.594 9.578 138.172 0 150.031 0c11.795 0 21.394 9.578 21.394 21.415v55.357l6.273-6.253c3.891-3.89 9.223-6.274 15.142-6.274 11.837 0 21.436 9.578 21.436 21.415 0 5.897-2.384 11.251-6.295 15.162l-42.809 42.809c-3.89 3.869-9.223 6.273-15.141 6.273a21.398 21.398 0 0 1-15.162-6.273l-42.81-42.809c-3.89-3.911-6.273-9.265-6.273-15.162 0-11.837 9.578-21.415 21.393-21.415z"/></symbol><symbol id="archive2" viewBox="0 0 300 321.219"><path fill-rule="evenodd" clip-rule="evenodd" fill="#6A6F82" d="M278.5 321.219H21.511c-24.042 0-21.428-27.712-21.428-21.375V42.823c0-11.827 9.601-21.427 21.428-21.427s20.443 9.6 20.443 21.427l.816 192.75 214.459.669-.167-192.739c0-11.827 9.6-21.417 21.438-21.417 11.816 0 21.416 9.59 21.416 21.417v256.989c.001-5.437 2.615 20.727-21.416 20.727zm-171.292-192.74a21.29 21.29 0 0 1 15.132 6.285l6.254 6.264V21.396c0-11.827 9.6-21.396 21.427-21.396 11.817 0 21.417 9.569 21.417 21.396v119.632l6.253-6.264c3.911-3.891 9.245-6.285 15.185-6.285 11.816 0 21.417 9.6 21.417 21.427 0 5.94-2.427 11.273-6.296 15.121l-42.812 42.854a21.386 21.386 0 0 1-15.163 6.254 21.336 21.336 0 0 1-15.132-6.254l-42.812-42.854c-3.9-3.848-6.295-9.181-6.295-15.121-.001-11.827 9.598-21.427 21.425-21.427z"/></symbol><symbol id="artifacts" viewBox="0 0 300 278.505"><g fill-rule="evenodd" clip-rule="evenodd"><path fill="#11131E" d="M212.986 120.292c49.5 0 71.413 29.808 71.413 76.455 0 46.668-38.569 70.724-75.708 70.034-34.536-.627-68.733-26.041-68.733-72.709 0-46.648 23.528-73.78 73.028-73.78z"/><path fill="#D6DBE3" d="M214.135 278.505c-27.64 0-51.956-12.749-67.609-32.708H24.207C.742 245.421 0 222.328 0 222.328V60.708C17.953 10.925 63.456 0 63.456 0h118.829c30.963 0 32.008 27.368 32.008 27.368v79.402c47.723.083 85.707 38.105 85.707 85.86 0 47.817-38.068 85.875-85.865 85.875zm-21.61-243.452c-.376-13.679-12.487-13.679-12.487-13.679H63.388l.068 25.523c.266 19.191-18.235 17.018-18.235 17.018H21.61v147.607c-.429 14.232 11.155 13.396 11.155 13.396h101.717a86.244 86.244 0 0 1-6.238-32.29c0-40.378 27.206-73.717 64.458-83.127.022-35.779-.009-68.606-.177-74.448zm21.767 92.961v.428h-4.473c-33.606 2.273-60.332 30.038-60.332 64.188 0 35.634 29.003 64.286 64.647 64.286 35.623 0 64.276-28.652 64.276-64.286.002-35.572-28.547-64.517-64.118-64.616zm32.405 75.149h-21.725v22.049c0 5.894-4.818 10.7-10.743 10.7h-.209c-5.915 0-10.731-4.807-10.731-10.7v-22.069h-21.725c-5.926 0-10.711-4.473-10.711-10.408v-.209c0-5.914 4.785-10.722 10.711-10.722h21.777v-21.735c0-5.914 4.764-10.7 10.679-10.7h.209c5.925 0 10.397 4.786 10.397 10.7v21.401h22.07c5.904 0 10.711 5.142 10.711 11.056v.209c.001 5.934-4.806 10.428-10.71 10.428z"/></g></symbol><symbol id="avatar" viewBox="0 0 300 319.902"><path fill-rule="evenodd" clip-rule="evenodd" fill="#7DBE89" d="M300 319.902l-300-.201 19.766-60.882 61.752-29.506 26.29-13.214-.175-27.179s-20.113-8.742-20.141-30.551c-.807-.055-1.668-.109-2.639-.257-12.994-1.667-24.137-22.065-25.09-35.92-.943-13.846 13.653-15.028 13.653-15.028s6.351.725 9.219.807c-1.2-5.195-6.982-19.133-6.982-46.229 0-16.467 4.398-24.539 13.131-29.799 0-.056-.027-.11-.027-.192 0 0-13.104-31.119 56.923-31.751 4.829.055 9.246.458 13.424 1.035 55.53 3.271 47.833 28.553 46.917 31.109.146.321.312.633.477.953 8.283 5.26 12.535 13.277 12.535 29.305 0 25.227 1.21 38.907-.055 44.882 5.425-.146 6.579-.375 8.32.752.019-.01 12.114-1.934 10.923 14.854-.935 13.818-15.395 34.234-28.406 35.884-.99.146-1.852.202-2.621.257-.055 21.809-20.141 30.569-20.141 30.569l-.165 27.16 26.262 13.213 66.142 29.488L300 319.902z"/></symbol><symbol id="baloon" viewBox="0 0 300 198"><path fill-rule="evenodd" clip-rule="evenodd" fill="#B9BBC4" d="M231.481 158.588H177.89c.315 2.962-1.271 6.071-3.928 8.755l-32.619 26.938c-.485.487-.947.796-1.425 1.184-.4.417-.809.788-1.286 1.082-.285.178-.555.278-.832.426-.501.247-.955.502-1.479.649-.608.192-1.24.255-1.849.278-.2.016-.4.1-.586.1-.23 0-.5-.084-.747-.107-.208-.038-.408-.054-.624-.101-2.741-.425-5.529-2.251-6.146-6.233-.062-.34-.2-.635-.216-.998 0-.146-.069-.225-.069-.371v-31.602H68.511C27.92 158.588 0 117.233 0 76.475 0 35.724 27.92 0 68.511 0h162.971C272.072 0 300 35.724 300 76.475c0 40.758-27.928 82.113-68.519 82.113zM220.976 16.134H78.771c-34.845 0-61.787 28.369-61.787 63.358 0 34.995 26.942 63.356 61.787 63.356h63.281v29.606l31.093-29.606h47.831c34.853 0 62.226-28.361 62.226-63.356-.001-34.99-27.374-63.358-62.226-63.358z"/></symbol><symbol id="baloon1" viewBox="0 0 300 300"><g fill-rule="evenodd" clip-rule="evenodd"><path fill="#D0FB99" d="M83.041 224.771l-42.416-32.656s-24.007-31.251-25.423-36.944c-1.4-5.694 15.527-89.496 15.527-89.496L90.104 30.17l67.806-11.371 56.527 8.524 43.814 34.097 28.271 49.706-8.496 51.145-21.175 36.944-22.624 26.963-5.647 31.267 5.647 26.996-26.839-19.879s-21.208-18.472-31.104-22.741c-9.88-4.255-25.423-14.203-25.423-14.203h-33.936l-33.884-2.847z"/><path fill="#93B36A" d="M250 213.334v69.913c0 .129-.064.245-.064.359a16.12 16.12 0 0 1-4.704 11.599c-3.19 3.225-7.39 4.795-11.604 4.746-.098 0-.195.049-.293.049-5.566 0-10.254-2.896-13.266-7.102l-58.479-58.327h-44.922C52.246 234.571 0 182.052 0 117.277 0 52.503 52.246 0 116.667 0h66.667C247.754 0 300 52.503 300 117.277c0 39.807-19.84 74.886-50 96.057zM183.334 33.508h-66.667c-46.013 0-83.333 37.5-83.333 83.77s37.321 83.785 83.333 83.785H172.9l47.934 48.136-3.549-55.547c29.069-13.105 49.382-42.277 49.382-76.374 0-46.27-37.321-83.77-83.333-83.77z"/></g></symbol><symbol id="calendar" viewBox="0 0 300 319.005"><path fill="inherit" d="M280.84 319.005H19.151C8.582 319.005 0 310.45 0 299.881V57.417c0-10.569 8.582-19.151 19.151-19.151H75.24V18.95C75.24 8.499 75.094 0 85.544 0h15.323c10.45 0 11.632 8.499 11.632 18.95v19.315h74.261V18.95C186.76 8.499 187.932 0 198.409 0h15.296c10.441 0 10.917 8.499 10.917 18.95v19.315h56.218c10.569 0 19.16 8.582 19.16 19.151V299.88c0 10.57-8.591 19.125-19.16 19.125zM262.559 84.628c0-5.284-4.305-9.562-9.58-9.562H47.224a9.557 9.557 0 0 0-9.562 9.562v188.729c0 5.275 4.276 9.58 9.562 9.58h205.755c5.275 0 9.58-4.305 9.58-9.58V84.628zm-65.121 159.86h-95.024c-4.616 0-8.38-4.177-8.38-9.343v-18.537c0-5.166 3.764-9.36 8.38-9.36h28.108v-56.346h-28.108c-4.616 0-8.38-4.186-8.38-9.352v-18.602c0-5.166 3.764-9.36 8.38-9.36h57.93c4.653 0 8.408 4.194 8.408 9.36v84.299h28.686c4.616 0 8.371 4.194 8.371 9.36v18.537c.001 5.168-3.754 9.344-8.371 9.344z"/></symbol><symbol id="calendar1" viewBox="0 0 300 328.806"><path fill="#00AEEF" d="M285.416 328.806H14.564C6.51 328.806 0 322.26 0 314.221V43.733c0-8.047 6.51-14.585 14.564-14.585h42.755V14.43c0-7.961-.112-14.43 7.85-14.43h25.945c7.99 0 8.861 6.469 8.861 14.43v14.718h99.482V14.43c0-7.961.879-14.43 8.861-14.43h25.945c7.969 0 8.29 6.469 8.29 14.43v14.718h42.86c8.053 0 14.584 6.538 14.584 14.585v270.488c.003 8.039-6.529 14.585-14.581 14.585zM271.487 64.485a7.303 7.303 0 0 0-7.3-7.306H35.972a7.308 7.308 0 0 0-7.306 7.306v229.527c0 4.033 3.272 7.313 7.306 7.313h228.215c4.034 0 7.3-3.28 7.3-7.313V64.485zM193.289 257.74h-72.385c-3.531 0-6.385-3.21-6.385-7.132v-14.123c0-3.936 2.854-7.133 6.385-7.133l21.41-.083v-85.728h-21.41c-3.531 0-6.385-3.182-6.385-7.111v-14.186c0-3.93 2.854-7.111 6.385-7.111h44.137c3.53 0 6.405 3.182 6.405 7.111v107.107h21.842c3.531 0 6.393 3.197 6.393 7.133v14.123c0 3.923-2.861 7.133-6.392 7.133z"/></symbol><symbol id="chat" viewBox="0 0 30.039 25"><path d="M21.35 20.024h-2.003c-.538.398-.952.768-1.29 1.105l-4.136 3.402c-.061.061-.12.098-.18.148a.908.908 0 0 1-.167.138c-.032.021-.063.032-.094.05-.067.032-.131.066-.201.086a.87.87 0 0 1-.225.034c-.026.004-.054.013-.079.013-.031 0-.065-.012-.097-.015-.025-.004-.05-.005-.076-.011-.349-.055-.706-.286-.782-.792-.006-.042-.025-.077-.025-.122 0-.02-.01-.029-.01-.048v-3.99H8.688C3.542 20.024 0 14.803 0 9.656 0 4.51 3.542 0 8.688 0H21.35c5.146 0 8.688 4.51 8.688 9.656.001 5.147-3.542 10.368-8.688 10.368zM20.019 2.037H9.988c-4.418 0-7.834 3.582-7.834 8s3.416 8 7.834 8h4.024v3.737l3.94-3.737h2.066c4.418 0 7.891-3.582 7.891-8 .001-4.418-3.472-8-7.89-8z" fill="#999da5"/></symbol><symbol id="clock" viewBox="0 0 300 300"><path fill-rule="evenodd" clip-rule="evenodd" fill="#FFF" d="M149.309 29.153c68.556 0 124.147 55.564 124.147 124.128 0 68.592-55.592 124.165-124.147 124.165-68.573 0-124.164-55.573-124.164-124.165 0-68.564 55.59-124.128 124.164-124.128z"/><path fill="#00AEEF" d="M149.996 300C67.162 300 0 232.838 0 149.996 0 67.162 67.162 0 149.996 0 232.839 0 300 67.162 300 149.996 300 232.838 232.839 300 149.996 300zm0-262.489c-62.028 0-112.485 50.457-112.485 112.485 0 62.036 50.457 112.503 112.485 112.503 62.036 0 112.503-50.467 112.503-112.503 0-62.028-50.467-112.485-112.503-112.485zm37.683 150.004H131.064c-10.268 0-18.57-8.312-18.57-18.579v-56.613c0-10.258 8.302-18.569 18.57-18.569h.362c10.267 0 18.57 8.312 18.57 18.569v28.293c0 5.198 4.2 9.38 9.38 9.38h28.303c10.267 0 18.561 8.311 18.561 18.579v.361c-.001 10.267-8.295 18.579-18.561 18.579z"/></symbol><symbol id="close" viewBox="0 0 300 300"><path fill-rule="evenodd" clip-rule="evenodd" fill="inherit" d="M185.125 150.53l106.001 106.003c9.773 9.772 9.773 25.603 0 35.374-9.771 9.772-25.626 9.772-35.398 0L149.725 185.905 43.04 292.617c-9.846 9.845-25.798 9.845-35.655 0-9.846-9.821-9.846-25.823 0-35.669l106.698-106.687L8.117 44.271c-9.772-9.771-9.772-25.614 0-35.386 9.736-9.772 25.566-9.772 35.338 0l106.014 106.002L256.949 7.394c9.87-9.858 25.822-9.858 35.668 0 9.845 9.845 9.845 25.798 0 35.655L185.125 150.53z"/></symbol><symbol id="comment-summary" viewBox="0 0 300 289.311"><path fill="inherit" d="M283.29 0H16.716C7.485 0 0 7.534 0 16.83v255.651c0 9.279 7.485 16.83 16.716 16.83H283.29c9.236 0 16.71-7.551 16.71-16.83V16.83C300 7.534 292.526 0 283.29 0zM33.427 255.651V32.975h133.575v89.645h-33.916c-4.216 0-21.611-.941-21.611 21.883 0 21.079 17.059 22.221 21.611 22.221h33.916v88.927H33.427z"/></symbol><symbol id="currentdate" viewBox="0 0 300 300"><path fill-rule="evenodd" clip-rule="evenodd" fill="#52626E" d="M150.011 300C67.148 300 0 232.859 0 150.011 0 67.148 67.148 0 150.011 0 232.859 0 300 67.148 300 150.011 300 232.859 232.859 300 150.011 300zM60.381 88.429v124.194l77.134-62.237-77.134-61.957zm135.646 17.135c0-8.335-6.746-15.08-15.052-15.08-8.351 0-15.095 6.745-15.095 15.08v90.463c0 8.35 6.744 15.095 15.095 15.095 8.306 0 15.052-6.745 15.052-15.095v-90.463zm45.256 0c0-8.335-6.745-15.08-15.08-15.08-8.321 0-15.081 6.745-15.081 15.08v90.463c0 8.35 6.76 15.095 15.081 15.095 8.335 0 15.08-6.745 15.08-15.095v-90.463z"/></symbol><symbol id="dashboard" viewBox="0 0 300 300"><path fill-rule="evenodd" clip-rule="evenodd" fill="#BEC0CF" d="M291.192 300H173.618c-4.873 0-8.822-3.966-8.822-8.84V173.695a8.817 8.817 0 0 1 8.822-8.84h117.574c4.857 0 8.808 3.937 8.808 8.84V291.16c0 4.874-3.95 8.84-8.808 8.84zm-22.195-104.967h-73.9v75.242h73.9v-75.242zm22.195-59.888H173.618c-4.873 0-8.822-3.98-8.822-8.839V8.839c0-4.874 3.949-8.839 8.822-8.839h117.574C296.05 0 300 3.966 300 8.839v117.466c0 4.859-3.95 8.84-8.808 8.84zM268.997 30.178h-73.9v75.227h73.9V30.178zM126.375 300H8.8c-4.857 0-8.8-3.966-8.8-8.84V173.695c0-4.903 3.943-8.84 8.8-8.84h117.574a8.818 8.818 0 0 1 8.822 8.84V291.16c.001 4.874-3.949 8.84-8.821 8.84zm-22.181-104.967H30.293v75.242h73.901v-75.242zm22.181-59.888H8.8c-4.857 0-8.8-3.98-8.8-8.839V8.839C0 3.966 3.943 0 8.8 0h117.574c4.872 0 8.822 3.966 8.822 8.839v117.466c.001 4.859-3.949 8.84-8.821 8.84zM104.194 30.178H30.293v75.227h73.901V30.178z"/></symbol><symbol id="delete" viewBox="0 0 300 300"><path fill-rule="evenodd" clip-rule="evenodd" fill="inherit" d="M281.232 93.744h-18.749v187.488c0 10.363-8.367 18.768-18.73 18.768H56.265c-10.354 0-18.749-8.404-18.749-18.768V93.744H18.758C8.403 93.744 0 85.376 0 75.022 0 64.64 8.403 56.264 18.758 56.264h56.265V18.758C75.022 8.403 83.399 0 93.744 0h112.512c10.345 0 18.748 8.403 18.748 18.758v37.507h56.229c10.363 0 18.768 8.376 18.768 18.758-.001 10.353-8.405 18.721-18.769 18.721zm-93.744-56.228h-74.986v18.749h74.986V37.516zm37.516 206.237V112.502c0-10.354-8.403-18.758-18.748-18.758H93.744c-10.345 0-18.722 8.403-18.722 18.758v131.251a18.75 18.75 0 0 0 5.475 13.256 18.688 18.688 0 0 0 13.247 5.475h112.512c5.181 0 9.85-2.087 13.237-5.475a18.59 18.59 0 0 0 5.511-13.256zm-37.516-18.749h-74.986c-10.354 0-18.758-8.404-18.758-18.749 0-10.362 8.404-18.767 18.758-18.767h74.986c10.363 0 18.768 8.404 18.768 18.767 0 10.345-8.404 18.749-18.768 18.749zm0-56.246h-74.986c-10.354 0-18.758-8.386-18.758-18.749s8.404-18.749 18.758-18.749h74.986c10.363 0 18.768 8.386 18.768 18.749s-8.404 18.749-18.768 18.749z"/></symbol><symbol id="document-info" viewBox="0 0 300 300.005"><path fill-rule="evenodd" clip-rule="evenodd" fill="inherit" d="M150.003 300.005C67.286 300.005 0 232.72 0 150.003 0 67.292 67.286 0 150.003 0 232.714 0 300 67.292 300 150.003c0 82.717-67.286 150.002-149.997 150.002zM115.86 128.862c-3.695 3.695-16.213 15.631-16.213 20.772 0 1.695 1.711 3.694 3.694 3.694 5.113 0 18.761-24.754 29.302-24.754 2.271 0 4.836 2.564 2.836 7.677l-19.907 50.068c-1.983 4.824-11.666 28.166-11.666 41.814 0 10.801 7.112 15.626 17.36 15.626 28.736 0 62.005-35.272 62.005-43.51 0-2.564-1.989-4.26-3.401-4.26-3.988 0-19.637 24.167-28.178 24.167-2.271 0-3.401-1.978-3.401-3.977 0-4.543 3.129-11.671 4.825-15.931l20.483-55.463c10.247-27.59-2.847-34.979-15.083-34.979-16.484.001-31.279 8.249-42.656 19.056zm58.305-71.394c-12.519 0-23.331 10.231-23.331 22.749 0 11.666 7.683 19.348 19.354 19.348 12.812 0 23.613-9.666 23.613-22.75 0-11.664-8.259-19.347-19.636-19.347z"/></symbol><symbol id="dropdown-icn" viewBox="0 0 15.999 15.999"><path fill-rule="evenodd" clip-rule="evenodd" fill="#68749B" d="M13.656 13.656A8 8 0 1 1 2.343 2.343a7.998 7.998 0 0 1 11.313 0 8 8 0 0 1 0 11.313zm-1.414-9.899a5.998 5.998 0 0 0-8.485 0 5.998 5.998 0 0 0 0 8.485 6 6 0 0 0 8.485-8.485zm-4.26 7.222L4.293 7.675A.998.998 0 0 1 5 5.969c.546 0 .707.292.707.292L8 8.18l2.262-1.886A1 1 0 0 1 11.969 7c0 .546-.294.707-.294.707l-3.693 3.272z"/></symbol><symbol id="dropdown" viewBox="0 0 300.005 300"><path fill-rule="evenodd" clip-rule="evenodd" fill="inherit" d="M256.071 256.052c-58.598 58.597-153.544 58.597-212.123 0-58.597-58.579-58.597-153.543 0-212.104 58.579-58.598 153.525-58.598 212.123 0 58.579 58.561 58.579 153.525 0 212.104zM229.555 70.445c-43.93-43.966-115.181-43.966-159.11 0-43.947 43.93-43.947 115.18 0 159.11 43.93 43.947 115.181 43.947 159.11 0 43.948-43.93 43.948-115.18 0-159.11zM149.68 205.878l-69.164-61.967c-3.388-3.388-5.512-8.057-5.512-13.239 0-10.365 8.424-18.751 18.77-18.751 10.236 0 13.258 5.494 13.258 5.494l42.996 35.964L192.437 118a18.686 18.686 0 0 1 13.258-5.494c10.347 0 18.751 8.387 18.751 18.751 0 10.254-5.512 13.258-5.512 13.258l-69.254 61.363z"/></symbol><symbol id="file-tab" viewBox="0 0 300 329.646"><path fill-rule="evenodd" clip-rule="evenodd" fill="inherit" d="M248.155 329.646l-196.018-.266C23.861 329.381 0 303.431 0 275.901L1.181 57.56S-.44.258 48.707.258c0 0 158.783-.258 160.46-.258L300 107.546V281.03c0 27.53-23.547 48.616-51.845 48.616zm23.84-200.586h-36.557c-28.465 0-49.441-18.663-49.441-46.43 0 0-.209-23.03 0-53.829H53.822c-14.023 0-26.733 13.129-26.733 26.74v219.243c0 13.625 12.709 26.733 26.733 26.733h191.427c14.029 0 26.746-13.108 26.746-26.733V129.06zm-57.015 128.8H85.194c-7.595 0-13.765-6.177-13.765-13.765 0-7.603 6.17-13.765 13.765-13.765H214.98c7.616 0 13.792 6.162 13.792 13.765 0 7.589-6.175 13.765-13.792 13.765zm0-57.811H85.194c-7.595 0-13.765-6.163-13.765-13.765 0-7.588 6.17-13.765 13.765-13.765H214.98c7.616 0 13.792 6.177 13.792 13.765 0 7.602-6.175 13.765-13.792 13.765z"/></symbol><symbol id="file" viewBox="0 0 300 317.714"><g fill-rule="evenodd" clip-rule="evenodd"><path fill="#FAE696" d="M20.931 272.927L16.873 161.27l23.143-59.905 21.79-29.961 50.418-36.762 51.715-20.419h78.99s21.809 12.248 27.237 20.419c5.466 8.153 19.085 66.724 19.085 66.724s1.353 66.705 2.724 81.695c1.335 14.99-6.819 70.818-8.19 77.619-1.334 6.836 0 42.264-14.953 42.264-15.008 0-50.417 1.316-64.036 1.316h-96.667c-9.542 0-61.294-5.411-61.294-5.411l-25.904-25.922z"/><path fill="#9A9EA5" d="M265.158 317.714H42.356C1.298 317.019 0 276.656 0 276.656V106.228C31.406 19.121 110.999 0 110.999 0h132.99C298.171 0 300 47.895 300 47.895v226.75c-.055 35.939-34.842 43.069-34.842 43.069zm-3.237-256.365c-.658-23.947-21.845-23.947-21.845-23.947H110.889l.11 44.659c.457 33.545-31.899 29.779-31.899 29.779H37.786v145.878c-.731 24.897 19.523 23.472 19.523 23.472h180.665c25.429.731 24.058-23.947 24.058-23.947s.548-171.947-.111-195.894z"/></g></symbol><symbol id="file11" viewBox="0 0 300 356.741"><g fill-rule="evenodd" clip-rule="evenodd"><path fill="#AFB5BF" d="M255.194 356.741H55.396C2.615 355.878 0 303.974 0 303.974V90.166C35.136 3.735 112.244 0 112.244 0h115.758C297.623 0 300 61.571 300 61.571v245.2c-.071 46.199-44.806 49.97-44.806 49.97zm20.561-282.643c-.38-54.619-47.951-50.003-47.951-50.003H97.206l.103 32.445c-1.22 28.813-40.404 32.636-40.404 32.636H24.158v193.073c.075 56.175 46.616 50.059 46.616 50.059h156.919c51.247.214 48.196-48.743 48.196-48.743s.104-174.586-.134-209.467z"/><path fill="#B7BCC5" d="M194.836 237.759v29.261c0 .048-.024.095-.024.15a7.837 7.837 0 0 1-2.297 5.642 7.837 7.837 0 0 1-5.642 2.297c-.048 0-.104.024-.15.024-2.702 0-4.976-1.41-6.45-3.438l-28.491-28.262h-21.845c-31.368 0-56.801-25.426-56.801-56.786 0-31.368 25.433-56.797 56.801-56.797h40.567c31.359 0 56.785 25.429 56.785 56.797 0 22.612-13.319 41.977-32.453 51.112zm-24.332-91.679h-40.567c-22.415 0-40.574 18.168-40.574 40.567 0 22.407 18.16 40.566 40.574 40.566h27.383l21.084 21.084v-.618l.205.206v-5.269c-.055.016-.118 0-.182.016l.087-16.234c18.572-3.717 32.557-20.102 32.557-39.751-.001-22.399-18.169-40.567-40.567-40.567z"/></g></symbol><symbol id="file12" viewBox="0 0 300 356.742"><path fill-rule="evenodd" clip-rule="evenodd" fill="#AFB5BF" d="M255.194 356.742h-199.8C2.614 355.878 0 303.973 0 303.973V90.166C35.135 3.736 112.248 0 112.248 0h115.754C297.623 0 300 61.571 300 61.571v245.2c-.071 46.199-44.806 49.971-44.806 49.971zm20.561-282.644c-.38-54.619-47.951-50.003-47.951-50.003H97.206l.103 32.446c-1.22 28.813-40.404 32.635-40.404 32.635H24.158v193.072c.075 56.176 46.616 50.06 46.616 50.06h156.919c51.247.214 48.197-48.744 48.197-48.744s.102-174.584-.135-209.466z"/><path fill="#23B33E" d="M154.269 259.667c-40.329 0-73.017-32.691-73.017-73.021 0-40.325 32.688-73.017 73.017-73.017s73.021 32.691 73.021 73.017c-.001 40.33-32.692 73.021-73.021 73.021zm0-130.032c-31.432 0-57.012 25.58-57.012 57.012 0 31.438 25.58 57.015 57.012 57.015 31.431 0 57.015-25.576 57.015-57.015-.001-31.432-25.584-57.012-57.015-57.012zm34.854 44.64l-46.914 45.475-11.357-11.314-13.343-13.77c-3.479-3.582-3.993-8.716-.4-12.202l.123-.127c3.581-3.462 8.506-2.599 11.976.982l13.354 13.786 35.413-34.327c3.581-3.478 8.724-3.981 12.186-.4-.001 0 5.063 5.99-1.038 11.897z"/></symbol><symbol id="file13" viewBox="0 0 300 317.714"><path fill-rule="evenodd" clip-rule="evenodd" fill="#AFB5BF" d="M265.158 317.714H42.356C1.298 317.019 0 276.656 0 276.656V106.228C31.406 19.13 110.999 0 110.999 0h132.99C298.171 0 300 47.904 300 47.904v226.741c-.055 35.939-34.842 43.069-34.842 43.069zm-3.237-256.356c-.658-23.966-21.845-23.966-21.845-23.966H110.889l.11 44.668c.457 33.545-31.899 29.78-31.899 29.78H37.786v145.877c-.731 24.897 19.523 23.472 19.523 23.472h180.665c25.429.732 24.058-23.947 24.058-23.947s.548-171.946-.111-195.884zM75.078 205.984h149.771v18.719H75.078v-18.719zm0-56.158h149.771v18.683H75.078v-18.683z"/></symbol><symbol id="file14" viewBox="0 0 300 356.742"><path fill="#AFB5BF" d="M255.193 356.742H55.396C2.615 355.878 0 303.974 0 303.974V90.166C35.136 3.735 112.244 0 112.244 0h115.758C297.623 0 300 61.571 300 61.571v245.2c-.07 46.199-44.807 49.971-44.807 49.971zm20.562-282.644c-.38-54.619-47.95-50.003-47.95-50.003H97.206l.103 32.445c-1.22 28.813-40.404 32.636-40.404 32.636H24.158V282.25c.075 56.174 46.616 50.059 46.616 50.059h156.919c51.246.214 48.195-48.743 48.195-48.743s.105-174.587-.133-209.468z"/><path fill="#93B36A" d="M194.836 237.759v29.261c0 .048-.023.095-.023.149a7.844 7.844 0 0 1-7.94 7.94c-.048 0-.104.023-.15.023-2.701 0-4.976-1.409-6.449-3.438l-28.491-28.262h-21.845c-31.368 0-56.801-25.426-56.801-56.786 0-31.368 25.433-56.797 56.801-56.797h40.567c31.359 0 56.785 25.429 56.785 56.797-.001 22.613-13.319 41.979-32.454 51.113zm-24.332-91.679h-40.567c-22.415 0-40.574 18.168-40.574 40.567 0 22.407 18.16 40.565 40.574 40.565h27.383l21.084 21.084v-.617l.205.205v-5.268c-.055.016-.118 0-.183.016l.087-16.234c18.572-3.717 32.557-20.102 32.557-39.751 0-22.399-18.168-40.567-40.566-40.567z"/></symbol><symbol id="file_1" viewBox="0 0 300 341.02"><path fill-rule="evenodd" clip-rule="evenodd" fill="#9A9EA5" d="M262.579 341.02H45.472C1.406 340.272 0 296.947 0 296.947v-182.94C33.728 20.53 119.172 0 119.172 0h120.719C298 0 300 51.425 300 51.425v243.402c-.067 38.567-37.421 46.193-37.421 46.193zm10.172-288.823c-.693-25.688-23.449-25.688-23.449-25.688H109.587l-.926 47.918c.506 36.033-38.42 45.619-38.42 45.619H25.882v168.143c-.793 26.716 20.977 25.209 20.977 25.209h200.204c27.288.773 25.822-25.742 25.822-25.742s.587-209.743-.134-235.459zM82.466 218.495h150.173v27.274H82.466v-27.274zm-.5-54.617h150.139v27.301H81.966v-27.301zm54.776-54.617h95.362v27.309h-95.362v-27.309z"/></symbol><symbol id="hamburger" viewBox="0 0 300 238"><path fill="currentColor" d="M0 47.609V0h300v47.609H0zm0 95.204V95.188h300v47.625H0zM0 238v-47.624h300V238H0z"/></symbol><symbol id="icon1" viewBox="0 0 300 356.65"><path fill-rule="evenodd" clip-rule="evenodd" fill="#AFB5BF" d="M179.9 215.909l17.666 7.954s-13.653 2.383-23.594 19.201c-8.327 14.089-13.028 24.441-13.028 24.441H73.288l-.238-20c-.063-16.273 12.221-20.152 12.221-20.152l34.62-11.468 11.722-6.332-.071-13.052s-8.754-4.195-8.786-14.674c-.38-.023-.776-.063-1.25-.127-6.253-.791-11.6-10.59-12.051-17.246-.467-6.641 4.959-7.211 4.959-7.211l4.725 1.567s-2.058-6.174-2.058-23.388c0-7.907 2.113-11.785 6.309-14.31 0-.023-.016-.063-.016-.103 0 0-6.292-14.927 27.338-15.236 32.411.309 32.332 28.09 32.332 28.09l-.104 10.202-.965 13.368c.34-.127 4.574-.19 5.002-.19 3.783 0 3.482 7.52 3.482 7.52s-4.551 16.146-10.796 16.938c-.554.079-1.005.111-1.44.143-1.132 8.588-9.814 14.389-9.814 14.389v13.662l11.491 6.014zm95.714 38.687c.024-50.987.04-154.592-.15-180.577-.38-54.557-47.9-49.951-47.9-49.951H97.104l.103 32.411c-1.219 28.786-40.361 32.602-40.361 32.602H24.133V281.95c.075 56.115 46.566 50.006 46.566 50.006h127.303l3.482 9.601 29.926 14.809H55.337C2.612 355.502 0 303.653 0 303.653V90.071C35.099 3.728 112.13 0 112.13 0h115.632c69.547 0 71.922 61.506 71.922 61.506v201.772l-24.07-8.682z"/><path fill="#19C1E5" d="M227.049 356.65c-40.286 0-72.943-32.656-72.943-72.951 0-40.278 32.657-72.935 72.943-72.935 40.287 0 72.951 32.656 72.951 72.935 0 40.295-32.664 72.951-72.951 72.951zm0-129.89c-31.406 0-56.947 25.549-56.947 56.938 0 31.406 25.541 56.956 56.947 56.956 31.398 0 56.955-25.55 56.955-56.956 0-31.389-25.557-56.938-56.955-56.938zm27.441 64.664h-19.432v19.724c0 4.986-2.928 9.031-7.914 9.031h-.19c-4.979 0-7.907-4.045-7.907-9.031v-19.724h-19.438c-4.986 0-9.022-2.636-9.022-7.622v-.189c0-4.986 4.036-8.185 9.022-8.185h19.162v-19.161c0-4.986 3.205-9.031 8.184-9.031h.19c4.986 0 7.914 4.045 7.914 9.031v19.161h19.432c4.986 0 9.03 3.198 9.03 8.185v.189c0 4.987-4.044 7.622-9.031 7.622z"/></symbol><symbol id="icon11" viewBox="0 0 300 340.644"><path fill="#AFB5BF" d="M243.409 224.847c.021-45.029.028-136.528-.125-159.473-.329-48.186-42.311-44.11-42.311-44.11H85.756l.088 28.61c-1.076 25.429-35.649 28.795-35.649 28.795H21.309v170.336c.08 49.559 41.125 44.162 41.125 44.162h112.445l3.062 8.473 26.429 13.099H48.874C2.31 313.955 0 268.171 0 268.171V79.546C30.994 3.296 99.028 0 99.028 0h102.119c61.414 0 63.512 54.315 63.512 54.315v178.207l-21.25-7.675zm-84.746-64.377c-.476.069-.881.098-1.266.125-.999 7.584-8.66 12.701-8.66 12.701v12.071l10.135 5.312 15.602 7.025s-12.057 2.11-20.83 16.958c-7.354 12.441-11.498 21.578-11.498 21.578H64.72l-.21-17.657c-.056-14.371 10.807-17.79 10.807-17.79l30.571-10.128 10.352-5.606-.076-11.52s-7.731-3.704-7.741-12.959a16.123 16.123 0 0 1-1.123-.111c-5.508-.699-10.229-9.35-10.639-15.225-.401-5.875 4.387-6.375 4.387-6.375l4.177 1.388s-1.821-5.452-1.821-20.655c0-6.986 1.863-10.405 5.561-12.639 0-.031-.01-.056-.01-.087 0 0-5.551-13.193 24.146-13.459 28.617.266 28.561 24.808 28.561 24.808l-.098 9.006-.859 11.807c.314-.112 4.047-.168 4.425-.168 3.341 0 3.075 6.65 3.075 6.65s-4.021 14.251-9.542 14.95z"/><path fill="#19C1E5" d="M235.581 340.644c-35.579 0-64.42-28.841-64.42-64.42s28.841-64.42 64.42-64.42S300 240.645 300 276.224s-28.84 64.42-64.419 64.42zm0-114.713c-27.729 0-50.301 22.563-50.301 50.293 0 27.729 22.571 50.3 50.301 50.3 27.729 0 50.293-22.571 50.293-50.3 0-27.73-22.565-50.293-50.293-50.293zm24.241 57.115H242.64v17.412c0 4.41-2.572 7.976-6.983 7.976h-.153c-4.411 0-6.99-3.565-6.99-7.976v-17.412h-17.167c-4.404 0-7.969-2.335-7.969-6.746v-.153c0-4.411 3.564-7.241 7.969-7.241h16.93v-16.923c0-4.397 2.816-7.962 7.228-7.962h.153c4.411 0 6.983 3.564 6.983 7.962v16.923h17.182c4.396 0 7.962 2.83 7.962 7.241v.153c-.001 4.411-3.567 6.746-7.963 6.746z"/></symbol><symbol id="icon12" viewBox="0 0 300 356.659"><path fill-rule="evenodd" clip-rule="evenodd" fill="#AFB5BF" d="M179.896 215.913l17.666 7.955s-13.653 2.39-23.587 19.201c-8.326 14.089-13.02 24.434-13.02 24.434h-87.67l-.237-19.993c-.062-16.273 12.236-20.144 12.236-20.144l34.617-11.469 11.722-6.348-.087-13.045s-8.754-4.194-8.766-14.674a16.825 16.825 0 0 1-1.271-.127c-6.237-.791-11.596-10.586-12.047-17.238-.455-6.652 4.967-7.219 4.967-7.219l4.729 1.571s-2.062-6.174-2.062-23.389c0-7.911 2.109-11.782 6.297-14.311 0-.036-.012-.063-.012-.099 0 0-6.285-14.939 27.342-15.24 32.404.301 32.341 28.09 32.341 28.09l-.11 10.198-.975 13.368c.356-.126 4.583-.189 5.011-.189 3.783 0 3.482 7.531 3.482 7.531s-4.551 16.135-10.804 16.926c-.538.08-.997.111-1.433.143-1.132 8.588-9.807 14.382-9.807 14.382v13.669l11.478 6.017zm95.724 38.689c.024-50.988.032-154.596-.143-180.577-.371-54.562-47.909-49.947-47.909-49.947H97.105l.099 32.396c-1.219 28.795-40.366 32.605-40.366 32.605H24.129v192.877c.091 56.117 46.567 50.007 46.567 50.007H198.02l3.467 9.593 29.927 14.832H55.342C2.616 355.502 0 303.659 0 303.659V90.072C35.095 3.732 112.131 0 112.131 0h115.635c69.541 0 71.915 61.503 71.915 61.503v201.773l-24.061-8.674z"/><path fill="#F3B93E" d="M278.635 335.295c-28.494 28.485-74.67 28.485-103.164 0-28.481-28.494-28.481-74.67 0-103.164 28.494-28.479 74.67-28.479 103.164 0 28.487 28.494 28.487 74.67 0 103.164zm-11.302-91.846c-22.209-22.21-58.349-22.21-80.543-.016-22.209 22.21-22.209 58.349 0 80.543 22.194 22.21 58.334 22.21 80.543 0 22.194-22.194 22.194-58.332 0-80.527zm-11.62 23.072l-45.852 45.852c-3.166 3.158-8.295 3.158-11.469 0-3.158-3.166-3.158-8.303 0-11.469l45.852-45.852c3.166-3.166 8.295-3.166 11.469 0 3.166 3.175 3.166 8.303 0 11.469zm0 45.852c-3.174 3.158-8.303 3.158-11.469 0l-45.852-45.852c-3.158-3.166-3.158-8.295 0-11.469 3.174-3.166 8.303-3.166 11.469 0l45.852 45.852a8.112 8.112 0 0 1 0 11.469z"/></symbol><symbol id="icon13" viewBox="0 0 300 356.771"><path fill-rule="evenodd" clip-rule="evenodd" fill="#AFB5BF" d="M255.208 356.771H55.401C2.619 355.893 0 303.985 0 303.985V90.178C35.129 3.736 112.248 0 112.248 0h115.767C297.623 0 300 61.578 300 61.578v245.205c-.063 46.217-44.792 49.988-44.792 49.988zM275.77 74.108c-.38-54.617-47.953-50.001-47.953-50.001H97.197l.104 32.435c-1.208 28.83-40.402 32.642-40.402 32.642H24.146V282.26c.088 56.178 46.618 50.076 46.618 50.076h156.941c51.233.206 48.198-48.754 48.198-48.754s.105-174.594-.133-209.474z"/><path fill="#F3B93E" d="M205.908 238.3c-28.524 28.524-74.75 28.524-103.275 0-28.508-28.517-28.508-74.755 0-103.268 28.525-28.524 74.751-28.524 103.275 0 28.517 28.513 28.517 74.751 0 103.268zm-11.322-91.956c-22.233-22.218-58.393-22.218-80.626 0-22.233 22.232-22.233 58.408 0 80.625 22.233 22.233 58.393 22.233 80.626 0 22.233-22.217 22.233-58.393 0-80.625zm-11.624 23.1l-45.901 45.901a8.116 8.116 0 0 1-11.477 0 8.11 8.11 0 0 1 0-11.474l45.904-45.901c3.17-3.157 8.305-3.157 11.474 0 3.169 3.171 3.169 8.317 0 11.474zm0 45.902a8.112 8.112 0 0 1-11.474 0l-45.904-45.901c-3.17-3.157-3.17-8.304 0-11.474a8.138 8.138 0 0 1 11.477 0l45.901 45.901a8.112 8.112 0 0 1 0 11.474z"/></symbol><symbol id="icon15" viewBox="0 0 300 356.771"><g fill-rule="evenodd" clip-rule="evenodd"><path fill="#AFB5BF" d="M255.208 356.771H55.401C2.619 355.893 0 303.985 0 303.985V90.178C35.129 3.736 112.248 0 112.248 0h115.767C297.623 0 300 61.578 300 61.578v245.205c-.063 46.217-44.792 49.988-44.792 49.988zM275.77 74.108c-.38-54.617-47.953-50.001-47.953-50.001H97.197l.104 32.435c-1.208 28.83-40.402 32.642-40.402 32.642H24.146V282.26c.088 56.178 46.618 50.076 46.618 50.076h156.941c51.233.206 48.198-48.754 48.198-48.754s.105-174.594-.133-209.474z"/><path fill="#CADBB3" d="M194.839 221.549v29.27c0 .048-.023.088-.023.15.008 2.037-.729 4.073-2.29 5.635a7.828 7.828 0 0 1-5.649 2.289c-.056 0-.087.023-.15.023-2.694 0-4.96-1.395-6.442-3.406l-28.492-28.271h-21.865c-31.369 0-56.796-25.435-56.796-56.804 0-31.361 25.427-56.792 56.796-56.792h40.58c31.369 0 56.796 25.431 56.796 56.792-.002 22.614-13.329 41.979-32.465 51.114zm-24.333-91.687h-40.58c-22.396 0-40.564 18.169-40.564 40.572 0 22.399 18.169 40.568 40.564 40.568h27.189l21.488 25.608v-26.424c18.525-3.764 32.463-20.135 32.463-39.753 0-22.402-18.169-40.571-40.56-40.571z"/></g></symbol><symbol id="icon2" viewBox="0 0 300.008 356.655"><path fill-rule="evenodd" clip-rule="evenodd" fill="#AFB5BF" d="M179.909 215.923l17.667 7.946s-13.654 2.391-23.596 19.202c-8.326 14.088-13.027 24.441-13.027 24.441h-87.66l-.237-19.993c-.063-16.273 12.221-20.152 12.221-20.152l34.621-11.477 11.722-6.332-.071-13.044s-8.754-4.195-8.786-14.675c-.38-.031-.776-.063-1.251-.126-6.253-.792-11.604-10.591-12.046-17.255-.475-6.641 4.955-7.203 4.955-7.203l4.726 1.567s-2.058-6.182-2.058-23.397c0-7.899 2.113-11.778 6.308-14.31 0-.016-.016-.063-.016-.095 0 0-6.292-14.936 27.339-15.245 32.412.309 32.333 28.099 32.333 28.099l-.104 10.194-.966 13.369c.341-.119 4.575-.182 5.003-.182 3.783 0 3.482 7.52 3.482 7.52s-4.551 16.146-10.796 16.938c-.555.079-1.006.11-1.44.143-1.132 8.58-9.815 14.389-9.815 14.389v13.662l11.492 6.016zm95.721 38.688c.016-50.989.031-154.597-.158-180.59-.38-54.559-47.898-49.944-47.898-49.944H97.11l.103 32.404c-1.219 28.787-40.367 32.61-40.367 32.61H24.141v192.874c.071 56.117 46.564 50.007 46.564 50.007h127.306l3.482 9.593 29.927 14.817H55.342C2.612 355.513 0 303.669 0 303.669V90.073C35.104 3.736 112.141 0 112.141 0h115.631c69.545 0 71.92 61.516 71.92 61.516v201.771l-24.062-8.676z"/><path fill="#F3B93E" d="M278.638 335.297c-28.479 28.479-74.675 28.479-103.161 0-28.478-28.478-28.478-74.671 0-103.148 28.486-28.494 74.683-28.494 103.161 0 28.494 28.477 28.494 74.67 0 103.148zm-11.303-91.846c-22.21-22.21-58.346-22.21-80.54 0-22.209 22.193-22.209 58.333 0 80.527 22.194 22.21 58.33 22.21 80.54 0 22.21-22.194 22.21-58.333 0-80.527zm-11.619 23.08l-45.849 45.844c-3.166 3.166-8.303 3.166-11.469 0s-3.166-8.295 0-11.461l45.856-45.859c3.166-3.166 8.295-3.166 11.461 0s3.167 8.31.001 11.476zm0 45.844a8.102 8.102 0 0 1-11.461 0l-45.856-45.844c-3.166-3.166-3.166-8.311 0-11.477s8.303-3.166 11.469 0l45.849 45.859a8.104 8.104 0 0 1-.001 11.462z"/></symbol><symbol id="icon4" viewBox="0 0 300 356.75"><path fill-rule="evenodd" clip-rule="evenodd" fill="#AFB5BF" d="M255.187 356.75H55.391C2.614 355.878 0 303.981 0 303.981V90.166C35.131 3.74 112.24 0 112.24 0h115.77C297.623 0 300 61.579 300 61.579V306.77c-.079 46.209-44.813 49.98-44.813 49.98zm20.568-282.652c-.38-54.614-47.951-49.995-47.951-49.995H97.202l.103 32.438c-1.22 28.816-40.4 32.644-40.4 32.644H24.149v193.072c.08 56.176 46.62 50.06 46.62 50.06h156.923c51.247.205 48.189-48.744 48.189-48.744s.111-174.59-.126-209.475z"/><path fill="#00AEEF" d="M210.832 251.276H97.629a8.272 8.272 0 0 1-8.272-8.271V138.117c0-4.563 3.7-8.271 8.272-8.271h24.277v-8.359c0-4.524-.079-8.192 4.453-8.192h6.624c4.524 0 5.023 3.668 5.023 8.192v8.359h32.129v-8.359c0-4.524.515-8.192 5.039-8.192h6.611c4.533 0 4.723 3.668 4.723 8.192v8.359h24.324c4.564 0 8.271 3.708 8.271 8.271v104.888c.001 4.563-3.707 8.271-8.271 8.271zm-7.907-101.385a4.147 4.147 0 0 0-4.151-4.136h-88.99a4.139 4.139 0 0 0-4.136 4.136v81.641c0 2.281 1.847 4.151 4.136 4.151h88.99a4.156 4.156 0 0 0 4.151-4.151v-81.641zm-28.179 69.154h-41.098c-1.997 0-3.613-1.807-3.613-4.041v-8.019c0-2.234 1.616-4.057 3.613-4.057h12.154v-24.371h-12.154c-1.997 0-3.613-1.807-3.613-4.041v-8.05c0-2.227 1.616-4.041 3.613-4.041h25.069c2.005 0 3.629 1.814 3.629 4.041v36.461h12.4c2.004 0 3.633 1.822 3.633 4.057v8.019c0 2.235-1.629 4.042-3.633 4.042z"/></symbol><symbol id="icon5" viewBox="0 0 300.004 356.742"><g fill-rule="evenodd" clip-rule="evenodd"><path fill="#AFB5BF" d="M255.198 356.742H55.399C2.615 355.878 0 303.973 0 303.973V90.166C35.14 3.74 112.256 0 112.256 0h115.75c69.621 0 71.998 61.571 71.998 61.571V306.77c-.071 46.201-44.806 49.972-44.806 49.972zM275.76 74.098c-.381-54.623-47.951-50.004-47.951-50.004H97.218l.095 32.446c-1.22 28.809-40.409 32.635-40.409 32.635H24.166v193.073c.071 56.175 46.612 50.059 46.612 50.059h156.919c51.247.214 48.196-48.744 48.196-48.744s.104-174.587-.133-209.465z"/><path fill="#CADBB3" d="M194.84 221.541v29.261c0 .047-.023.087-.023.15a7.877 7.877 0 0 1-2.299 5.641 7.81 7.81 0 0 1-5.641 2.282c-.048 0-.104.024-.15.024-2.687 0-4.96-1.395-6.434-3.415l-28.492-28.271h-21.86c-31.376 0-56.801-25.426-56.801-56.801 0-31.353 25.425-56.778 56.801-56.778h40.567c31.359 0 56.785 25.426 56.785 56.778 0 22.621-13.318 41.993-32.453 51.129zm-24.332-91.696H129.94c-22.415 0-40.566 18.176-40.566 40.567 0 22.414 18.152 40.574 40.566 40.574h27.169l21.504 25.6V210.17c18.516-3.755 32.461-20.133 32.461-39.758 0-22.391-18.168-40.567-40.566-40.567z"/></g></symbol><symbol id="icon_15" viewBox="0 0 300.001 300.009"><path fill-rule="evenodd" clip-rule="evenodd" fill="#222F38" d="M43.941 256.067c-58.588-58.589-58.588-153.57 0-212.126 58.588-58.588 153.546-58.588 212.118 0 58.588 58.556 58.588 153.537 0 212.126-58.572 58.588-153.529 58.588-212.118 0zm188.736-23.399c45.659-45.659 45.659-119.668 0-165.335-45.66-45.659-119.677-45.659-165.344 0-45.659 45.667-45.659 119.676 0 165.335 45.667 45.676 119.684 45.676 165.344 0zM94.103 149.67l61.976-69.156c3.37-3.403 8.076-5.496 13.254-5.496 10.34 0 18.742 8.402 18.742 18.75 0 10.242-5.487 13.279-5.487 13.279l-35.954 42.98 35.367 42.387c3.404 3.436 5.488 8.109 5.488 13.254 0 10.373-8.402 18.776-18.742 18.776-10.242 0-13.255-5.488-13.255-5.488L94.103 149.67z"/></symbol><symbol id="icon_16" viewBox="0 0 300.001 300.009"><path fill-rule="evenodd" clip-rule="evenodd" fill="#222F38" d="M256.06 256.067c-58.588 58.588-153.546 58.588-212.118 0-58.588-58.589-58.588-153.57 0-212.126 58.572-58.588 153.53-58.588 212.118 0 58.587 58.556 58.587 153.538 0 212.126zM67.324 232.668c45.66 45.676 119.677 45.676 165.344 0 45.659-45.659 45.659-119.668 0-165.335-45.667-45.659-119.684-45.659-165.344 0-45.659 45.667-45.659 119.676 0 165.335zm138.573-82.998l-61.389 69.287s-3.013 5.488-13.255 5.488c-10.34 0-18.742-8.403-18.742-18.776 0-5.145 2.084-9.818 5.488-13.254l35.367-42.387-35.954-42.98s-5.487-3.037-5.487-13.279c0-10.348 8.402-18.75 18.742-18.75 5.178 0 9.884 2.092 13.254 5.496l61.976 69.155z"/></symbol><symbol id="img-tab" viewBox="0 0 300 299.994"><path fill-rule="evenodd" clip-rule="evenodd" fill="inherit" d="M262.517 299.994H37.489C16.79 299.994 0 283.209 0 262.51V37.483C0 16.784 16.79 0 37.489 0h225.027C283.216 0 300 16.784 300 37.483V262.51c0 20.699-16.784 37.484-37.483 37.484zm11.363-255.72c0-10.337-8.405-18.735-18.761-18.735H44.88c-10.356 0-18.754 8.398-18.754 18.735v164.53l64.094-64.47 44.479 48.159 87.006-86.873 52.138 50.869.037-112.215zm-182.5 87.051c-21.7 0-39.269-17.511-39.269-39.109 0-21.579 17.568-39.084 39.269-39.084 21.675 0 39.25 17.505 39.25 39.084 0 21.598-17.575 39.109-39.25 39.109zm-.121-52.749c-7.773 0-13.659 5.465-13.659 13.238s5.886 13.245 13.659 13.245 13.245-5.472 13.245-13.245-5.472-13.238-13.245-13.238z"/></symbol><symbol id="left-slider" viewBox="0 0 300.001 300.009"><path fill-rule="evenodd" clip-rule="evenodd" fill="inherit" d="M43.941 256.067c-58.588-58.589-58.588-153.57 0-212.126 58.588-58.588 153.546-58.588 212.118 0 58.588 58.556 58.588 153.537 0 212.126-58.572 58.588-153.529 58.588-212.118 0zm188.736-23.399c45.659-45.659 45.659-119.668 0-165.335-45.66-45.659-119.677-45.659-165.344 0-45.659 45.667-45.659 119.676 0 165.335 45.667 45.676 119.684 45.676 165.344 0zM94.103 149.67l61.976-69.156c3.37-3.403 8.076-5.496 13.254-5.496 10.34 0 18.742 8.402 18.742 18.75 0 10.242-5.487 13.279-5.487 13.279l-35.954 42.98 35.367 42.387c3.404 3.436 5.488 8.109 5.488 13.254 0 10.373-8.402 18.776-18.742 18.776-10.242 0-13.255-5.488-13.255-5.488L94.103 149.67z"/></symbol><symbol id="link" viewBox="0 0 200 524.396"><path fill="#52626E" d="M74.898 324.286V200.72h49.973v123.566H74.898zm75.496-74.228V75.228c0-16.43-8.702-25.547-25.182-25.547H73.289c-16.479 0-23.548 8.239-23.548 24.669v175.708C6.643 250.058 0 218.076 0 196.039V58.261C0 25.304 29.412 0 62.369 0h76.616C171.918 0 200 25.304 200 58.261v137.778c0 22.037-6.972 54.019-49.606 54.019zm-12.067 274.338H61.709c-32.932 0-61.014-25.303-61.014-58.261V328.332c0-22.012 6.971-53.995 49.607-53.995v175.709c0 16.43 8.727 24.67 25.181 24.67h51.899c16.502 0 23.621-8.191 23.621-24.646V274.337c48.314 0 48.802 31.983 48.802 53.995v137.803c0 32.958-28.521 58.261-61.478 58.261z"/></symbol><symbol id="linkIcon" viewBox="0 0 300 300"><path fill-rule="evenodd" clip-rule="evenodd" fill="#52626E" d="M211.748 144.497c-3.405-3.368-5.492-8.074-5.492-13.237 0-10.354 8.386-18.758 18.748-18.758 5.164 0 9.869 2.097 13.257 5.475l37.497 37.507-26.53 26.53-37.48-37.517zm-5.492 42.991c0 10.363-8.404 18.767-18.768 18.767a18.586 18.586 0 0 1-13.237-5.511l-74.996-74.995a18.549 18.549 0 0 1-5.511-13.247c0-10.354 8.404-18.758 18.758-18.758 5.19 0 9.869 2.096 13.247 5.511l75.014 74.995a18.658 18.658 0 0 1 5.493 13.238zM93.744 37.516v.942c-3.012-.631-6.161-.942-9.375-.942-25.871 0-46.854 20.982-46.854 46.854 0 12.963 5.246 24.663 13.732 33.149l-26.53 26.521C9.466 128.761 0 107.687 0 84.369 0 37.8 37.8 0 84.369 0c2.151 0 4.185.348 6.253.631C91.685.457 92.654 0 93.744 0c10.354 0 18.758 8.403 18.758 18.758 0 10.353-8.404 18.758-18.758 18.758zM88.27 155.483a18.723 18.723 0 0 1 5.475 13.274c0 10.363-8.367 18.73-18.722 18.73-5.19 0-9.869-2.088-13.283-5.475l-37.48-37.515 26.503-26.521 37.507 37.507zm117.986 107v-.952c3.039.641 6.151.952 9.374.952 25.89 0 46.854-21.001 46.854-46.854 0-12.945-5.255-24.663-13.714-33.158l26.513-26.53C290.552 171.229 300 192.304 300 215.63c0 46.598-37.772 84.37-84.37 84.37-2.16 0-4.193-.349-6.262-.642-1.062.184-1.996.642-3.112.642-10.363 0-18.768-8.404-18.768-18.768 0-10.344 8.405-18.749 18.768-18.749z"/></symbol><symbol id="lock1" viewBox="0 0 300 342.89"><path fill-rule="evenodd" clip-rule="evenodd" fill="inherit" d="M214.304 342.89H85.707C38.381 342.89 0 304.51 0 257.173v-85.718c0-23.689 19.201-42.869 42.869-42.869v-21.439C42.869 47.985 90.824 0 150.017 0c59.16 0 107.146 47.985 107.146 107.146v21.439c23.668 0 42.837 19.18 42.837 42.869v85.718c0 47.338-38.38 85.718-85.696 85.718zm-85.717-91.682v27.373c0 11.865 9.595 21.429 21.43 21.429 11.845 0 21.429-9.563 21.429-21.429v-27.373c12.766-7.408 21.408-21.073 21.408-36.915 0-23.669-19.169-42.838-42.837-42.838-23.658 0-42.869 19.169-42.869 42.838-.001 15.842 8.684 29.507 21.439 36.915zm21.43-208.329c-35.524 0-64.31 28.775-64.31 64.268 0 7.575 1.549 14.69 3.966 21.439H210.37c2.386-6.749 3.934-13.864 3.934-21.439 0-35.493-28.795-64.268-64.287-64.268z"/></symbol><symbol id="logo" viewBox="0 0 374.266 81.078"><g fill="#304075"><path d="M87.894 69.223c-9.874.01-17.602-3.015-23.181-9.065-5.582-6.054-8.397-13.854-8.448-23.399l-.013-2.449c-.053-9.914 2.597-18.037 7.948-24.365C69.553 3.615 76.941.466 86.365.5c8.894-.01 15.732 2.707 20.516 8.148 4.78 5.443 7.197 12.775 7.246 21.996l.049 9.24-39.473.039-.183.365c.309 4.529 1.706 8.202 4.19 11.012 2.482 2.814 6.15 4.217 11.008 4.213 3.998-.004 7.392-.414 10.182-1.234 2.79-.816 5.67-2.062 8.641-3.74l4.894 11.012c-2.642 2.166-6.221 3.982-10.743 5.457-4.52 1.471-9.454 2.208-14.798 2.215zm-1.455-54.955c-3.592.002-6.349 1.238-8.273 3.711-1.926 2.469-3.081 5.744-3.467 9.824l.124.307 21.788-.021-.008-1.346c-.021-3.877-.832-6.926-2.436-9.146-1.602-2.222-4.179-3.333-7.728-3.329zM221.153 49.451c-.012-1.957-.969-3.64-2.874-5.046-1.903-1.405-5.43-2.635-10.575-3.691-7.761-1.545-13.658-3.885-17.692-7.023-4.037-3.137-6.068-7.398-6.097-12.783-.029-5.67 2.351-10.508 7.145-14.512C195.852 2.392 202.248.388 210.246.38c8.362-.008 15.074 1.986 20.137 5.979 5.058 3.994 7.502 8.969 7.33 14.926l-.119.367-17.26.018c-.014-2.652-.883-4.813-2.604-6.486-1.723-1.67-4.195-2.504-7.419-2.5-2.854.002-5.116.717-6.782 2.148-1.667 1.43-2.492 3.184-2.48 5.264.012 2.043.887 3.701 2.629 4.984 1.74 1.285 5.264 2.436 10.574 3.447 8.127 1.627 14.188 4.018 18.185 7.176 3.994 3.158 6.006 7.511 6.035 13.061.032 5.957-2.492 10.834-7.571 14.633-5.081 3.799-11.802 5.701-20.165 5.711-8.812.009-15.792-2.221-20.937-6.683-5.145-4.463-7.607-9.549-7.396-15.262l.121-.369 16.341-.014c.141 3.549 1.317 6.117 3.528 7.707 2.212 1.59 5.093 2.383 8.644 2.379 3.305-.004 5.818-.668 7.549-1.994 1.722-1.33 2.579-3.135 2.567-5.421zM273.771 69.044c-9.874.011-17.603-3.012-23.181-9.063-5.582-6.056-8.397-13.854-8.449-23.402l-.012-2.447c-.053-9.912 2.596-18.035 7.949-24.365C255.43 3.439 262.817.29 272.242.322c8.895-.008 15.732 2.709 20.516 8.15 4.779 5.441 7.197 12.775 7.246 21.994l.049 9.24-39.473.037-.184.367c.309 4.529 1.707 8.201 4.189 11.015 2.482 2.812 6.151 4.217 11.009 4.211 3.997-.002 7.392-.412 10.183-1.234 2.789-.816 5.67-2.064 8.641-3.74l4.893 11.014c-2.641 2.162-6.221 3.982-10.741 5.455-4.521 1.469-9.454 2.211-14.799 2.213zm-1.455-54.954c-3.591.004-6.349 1.24-8.272 3.711-1.926 2.471-3.08 5.746-3.467 9.826l.125.305 21.786-.02-.008-1.348c-.021-3.875-.832-6.924-2.437-9.146-1.601-2.22-4.177-3.33-7.727-3.328zM349.6 1.417c-18.219-5.38-37.35 5.028-42.729 23.248-5.379 18.219 5.027 37.352 23.248 42.731l.002.001-4.043 13.679 29.721-16.197c.342-.178.682-.362 1.018-.553l.248-.137-.01-.003c7.373-4.255 13.193-11.229 15.795-20.039 5.379-18.219-5.029-37.35-23.25-42.73zm-2.545 45.782l1.377 10.691-17.262-11.598.01-.002a15.132 15.132 0 0 1-6.264-9.812c-1.453-8.251 4.059-16.119 12.311-17.573 8.254-1.452 16.119 4.059 17.572 12.311 1.164 6.609-2.144 12.962-7.744 15.983z"/><path d="M58.288 1.73H37.675L21.914 26.694l-3.976.002.037-24.966H0v66.287l18.156-.012-.146-27.721 4.527-.006 18.508 27.707 20.563-.023L36.936 31.94zM137.207 67.882c.011-15.232.026-42.789-.008-44.855-.056-3.411 2.777-6.187 4.791-7.19 2.014-1.002 4.348-1.502 7-1.506 3.305-.004 5.789.984 7.451 2.961 1.664 1.977 2.508 5.332 2.533 10.064l-.074 40.526h17.976l.029-40.604c-.05-9.301-1.963-16.104-5.739-20.402-3.777-4.303-9.012-6.449-15.702-6.443-3.998.004-7.604.947-10.816 2.824-3.214 1.881-5.913 4.516-8.099 7.904l-.007-9.486-17.505.01v66.197h18.17z"/></g></symbol><symbol id="more-menu" viewBox="0 0 300 236.769"><path fill-rule="evenodd" clip-rule="evenodd" fill="inherit" d="M264.029 154.706l.018-63.85L300 122.795l-35.971 31.911zm-145.645 82.063C53.003 236.769 0 183.77 0 118.389 0 53.003 53.003 0 118.384 0c65.38 0 118.371 53.003 118.371 118.389 0 65.381-52.99 118.38-118.371 118.38zM54.423 99.09c-10.917 0-19.757 8.853-19.757 19.761 0 10.904 8.839 19.743 19.757 19.743 10.904 0 19.744-8.839 19.744-19.743 0-10.908-8.84-19.761-19.744-19.761zm63.276 0c-10.904 0-19.743 8.853-19.743 19.761 0 10.904 8.839 19.743 19.743 19.743 10.917 0 19.757-8.839 19.757-19.743 0-10.908-8.84-19.761-19.757-19.761zm63.288 0c-10.903 0-19.742 8.853-19.742 19.761 0 10.904 8.839 19.743 19.742 19.743 10.904 0 19.753-8.839 19.753-19.743 0-10.908-8.848-19.761-19.753-19.761z"/></symbol><symbol id="more" viewBox="0 0 300 300.014"><path fill="inherit" d="M150.003 300.014C67.161 300.014 0 232.853 0 150.003 0 67.161 67.161 0 150.003 0 232.853 0 300 67.161 300 150.003c0 82.85-67.147 150.011-149.997 150.011zm0-271.15c-66.788 0-121.14 54.352-121.14 121.14 0 66.796 54.352 121.14 121.14 121.14 66.796 0 121.14-54.344 121.14-121.14 0-66.789-54.344-121.14-121.14-121.14zM75.005 165.002v-29.991h30.014v29.991H75.005zm60.006 0v-29.991h29.991v29.991h-29.991zm60.006 0v-29.991h29.984v29.991h-29.984z"/></symbol><symbol id="next-page-icon" viewBox="0 0 300 324.12"><path fill="#222F38" d="M11.909 69.434S0 62.899 0 40.659C0 18.216 10.748 0 33.203 0a40.612 40.612 0 0 1 28.813 11.908l134.4 150.031L63.277 312.211s-6.56 11.909-28.813 11.909c-22.404 0-33.202-18.217-33.202-40.722 0-11.152 4.592-21.345 11.909-28.712l86.388-91.99-87.65-93.262zm249.324 247.924c-21.407 0-38.754-17.358-38.754-38.754V46.096c0-21.408 17.347-38.754 38.754-38.754C282.642 7.342 300 24.688 300 46.096v232.509c0 21.395-17.358 38.753-38.767 38.753z"/></symbol><symbol id="notify" viewBox="0 0 300 321.443"><path fill-rule="evenodd" clip-rule="evenodd" fill="#425182" d="M200.391 271.937c-5.18 25.456-23.373 49.507-50.355 49.507-27.005 0-44.653-24.051-49.834-49.507L0 271.319l38.94-88.146v-66.975C38.94 54.538 88.926 0 150.569 0c61.637 0 111.629 54.538 111.629 116.198v66.975L300 271.888l-99.609.049zm36.617-88.958l.642-67.277c0-49.968-37.137-91.596-87.081-91.596-49.949 0-87.577 41.059-87.577 91.026v69.578l-25.383 62.677h226.489l-27.09-64.408z"/></symbol><symbol id="paused" viewBox="0 0 300 300"><path fill="#FC830D" d="M149.993 300C67.157 300 0 232.829 0 149.993S67.157 0 149.993 0 300 67.157 300 149.993 232.829 300 149.993 300zm0-270.4C83.612 29.6 29.6 83.612 29.6 149.993c0 66.38 54.012 120.393 120.393 120.393 66.38 0 120.393-54.013 120.393-120.393C270.385 83.612 216.373 29.6 149.993 29.6zm-30.011 180.413c-8.279 0-14.991-6.711-14.991-15.02v-90.002c0-8.309 6.711-15.02 14.991-15.02 8.294 0 15.005 6.711 15.005 15.02v90.002c.001 8.309-6.71 15.02-15.005 15.02zm60.035 0a15.003 15.003 0 0 1-15.02-15.02v-90.002c0-8.309 6.711-15.02 15.02-15.02 8.266 0 14.977 6.711 14.977 15.02v90.002c0 8.309-6.711 15.02-14.977 15.02z"/></symbol><symbol id="pdfnpng" viewBox="0 0 300 484.9"><path opacity=".62" fill="#636F97" d="M299.126 166.843l-39.673 103.181c-2.589 6.735-10.146 10.093-16.879 7.507l-84.411-32.456c-6.733-2.591-10.089-10.149-7.504-16.882l39.673-103.184c2.589-6.731 10.147-10.088 16.879-7.503l84.411 32.457c6.733 2.59 10.093 10.148 7.504 16.88zm-11.623-10.152l-81.739-31.431a6.533 6.533 0 0 0-8.438 3.753l-22.355 58.137 31.625-14.856 8.146 19.946 44.229-19.956 17.457 31.758 14.827-38.914a6.53 6.53 0 0 0-3.752-8.437zm-76.442 9.525c-7.25-2.785-10.879-10.897-8.104-18.116 2.777-7.22 10.906-10.811 18.155-8.024 7.252 2.79 10.881 10.902 8.104 18.122-2.775 7.215-10.903 10.81-18.155 8.018zm7.259-18.621a6.139 6.139 0 0 0-7.933 3.528 6.136 6.136 0 0 0 3.524 7.933 6.143 6.143 0 0 0 7.938-3.524 6.143 6.143 0 0 0-3.529-7.937zm31.297 198.665l-41.427 45.15c-3.309 3.598-8.905 3.84-12.507.536L140.495 341.3c-3.599-3.301-3.841-8.902-.534-12.502l41.429-45.149c3.302-3.599 8.905-3.841 12.503-.537l55.188 50.646c3.603 3.301 3.845 8.905.536 12.502zm-58.761-58.612a4.427 4.427 0 0 0-6.25.267l-40.119 43.725a4.423 4.423 0 0 0 .271 6.25l31.093 28.532-1.506-23.627 14.594-.179-1.589-32.838 24.354-3.115-20.848-19.015zm-32.669 51.432c-3.862-3.542-4.107-9.56-.546-13.438 3.559-3.88 9.571-4.151 13.434-.604 3.862 3.541 4.104 9.559.546 13.438-3.557 3.873-9.577 4.148-13.434.604zm9.375-10.062a4.156 4.156 0 0 0-5.875.25 4.161 4.161 0 0 0 6.13 5.628 4.159 4.159 0 0 0-.255-5.878zm57.442 107.453l-27.308 45.395a6.262 6.262 0 0 1-8.592 2.138l-37.136-22.338c-2.961-1.786-3.921-5.631-2.136-8.592l27.305-45.395a6.258 6.258 0 0 1 8.589-2.141l37.141 22.341a6.262 6.262 0 0 1 2.137 8.592zm-4.644-5.761l-35.96-21.63a3.134 3.134 0 0 0-4.296 1.068l-15.385 25.576 16.162-4.379 2.185 10.088L205.6 435.7l5.599 16.436 10.23-17.129a3.13 3.13 0 0 0-1.069-4.297zm-36.869-1.861c-3.187-1.917-4.225-6.052-2.314-9.226 1.91-3.177 6.042-4.195 9.233-2.275 3.191 1.918 4.229 6.047 2.319 9.226-1.91 3.172-6.046 4.195-9.238 2.275zm4.977-8.187a2.943 2.943 0 1 0-3.032 5.045 2.943 2.943 0 0 0 3.032-5.045z"/><path opacity=".7" fill-rule="evenodd" clip-rule="evenodd" fill="#636F97" d="M172.708 140.507l-88.216 19.921c-7.036 1.588-14.026-2.83-15.614-9.862L44.524 42.734c-1.588-7.037 2.827-14.031 9.863-15.62l88.217-19.921c7.035-1.588 14.027 2.826 15.614 9.862l24.352 107.833c1.59 7.038-2.826 14.032-9.862 15.619zm-21.983-120.5a6.535 6.535 0 0 0-7.808-4.931L57.493 34.368c-3.518.791-5.722 4.288-4.931 7.808l13.719 60.754 18.042-29.924 17.853 12.054 25.687-41.163L160.021 60.6l-9.296-40.593zm-66.07 45.466c-7.579 1.713-15.103-3.014-16.804-10.56-1.705-7.544 3.055-15.047 10.634-16.761 7.578-1.709 15.103 3.018 16.807 10.562 1.705 7.546-3.06 15.049-10.637 16.759zm-4.311-19.517a6.138 6.138 0 0 0-4.635 7.345 6.138 6.138 0 0 0 7.34 4.635 6.14 6.14 0 0 0-2.705-11.98z"/><g opacity=".62"><use xlink:href="#pdfnpng-c" overflow="visible" fill="#FFF"/></g><path fill="#636F97" d="M285.242 66.255l-61.313 43.024a8.857 8.857 0 0 1-12.332-2.16L176.403 56.96c-2.812-4.004-1.839-9.521 2.16-12.332l61.316-43.02c4.002-2.812 9.52-1.839 12.326 2.16l35.196 50.159c2.808 4.003 1.841 9.521-2.159 12.328zm-2.696-10.101L248.461 7.579a4.43 4.43 0 0 0-6.165-1.08L207.752 30.74l23.399 3.604-2.957 14.291 32.409 5.5-2.189 24.458 23.051-16.276a4.43 4.43 0 0 0 1.081-6.163zm-33.347-21.189c-4.291 3.011-10.215 1.956-13.24-2.352-3.022-4.307-1.996-10.242 2.29-13.252 4.291-3.011 10.22-1.956 13.245 2.351 3.022 4.308 1.998 10.242-2.295 13.253zm-2.119-10.079a4.162 4.162 0 0 0-5.794-1.018 4.16 4.16 0 0 0-1.014 5.797 4.159 4.159 0 1 0 6.808-4.779zm-97.24 268.187l-80.528 41.152c-6.421 3.282-14.292.737-17.574-5.685L1.434 230.103c-3.282-6.426-.738-14.293 5.683-17.574l80.532-41.155c6.423-3.282 14.292-.735 17.574 5.687l50.305 98.44c3.281 6.42.739 14.29-5.688 17.572zM98.692 181.777a6.53 6.53 0 0 0-8.788-2.843l-77.979 39.85a6.527 6.527 0 0 0-2.845 8.787l28.341 55.461 10.067-33.458 20.284 7.252 14.684-46.239 35.293 8.212-19.057-37.022zm-52.746 60.415c-6.919 3.537-15.379.818-18.9-6.068-3.519-6.887-.763-15.337 6.156-18.868 6.914-3.536 15.376-.823 18.895 6.066 3.52 6.885.768 15.334-6.151 18.87zm-.75-15.167a6.14 6.14 0 0 0-8.261-2.672 6.139 6.139 0 1 0 5.588 10.933 6.14 6.14 0 0 0 2.673-8.261z"/><use xlink:href="#pdfnpng-d" overflow="visible" fill="#FFF"/><path opacity=".7" fill="#FFF" d="M102.724 124.848c-1.275 2.733-3.501 4.46-6.674 5.176-3.218.73-5.977.133-8.278-1.776l-.321.071c.7 2.096 1.101 3.376 1.205 3.835l2.352 10.416-5.403 1.217-8.295-36.736 4.368-.988c.23.446.738 1.526 1.526 3.23l.275-.063c1.104-2.955 3.343-4.815 6.715-5.573 3.172-.718 5.902-.125 8.191 1.772 2.292 1.9 3.905 4.926 4.843 9.079.939 4.157.767 7.6-.504 10.34zm-5.047-9.129c-.642-2.852-1.634-4.898-2.969-6.133-1.333-1.238-2.972-1.637-4.917-1.196-2.148.484-3.573 1.468-4.277 2.947-.704 1.48-.746 3.598-.125 6.357l.184.805c.701 3.097 1.696 5.228 2.988 6.395 1.297 1.163 3.057 1.496 5.278.992 1.867-.421 3.135-1.512 3.801-3.272.666-1.764.678-4.062.037-6.895zm29.783 6.731l-3.531-15.635c-.442-1.959-1.168-3.336-2.176-4.123-1.009-.788-2.368-.988-4.085-.6-2.285.517-3.802 1.567-4.557 3.156-.751 1.588-.771 3.967-.054 7.14l2.859 12.668-5.403 1.221-5.739-25.427 4.231-.955 1.508 3.159.276-.063c.496-1.384 1.372-2.563 2.634-3.539 1.259-.979 2.748-1.663 4.465-2.051 6.098-1.375 9.851 1.038 11.255 7.246l3.744 16.577-5.427 1.226zm34.102 1.722c-2.021 2.101-5.278 3.655-9.767 4.673-3.463.779-6.248.763-8.349-.05-2.102-.813-3.406-2.355-3.918-4.623-.354-1.563-.154-2.989.592-4.276.75-1.293 1.963-2.344 3.647-3.161-.788-.141-1.492-.5-2.114-1.079-.625-.576-1.016-1.238-1.188-1.989-.217-.95-.129-1.817.258-2.597.388-.779 1.038-1.613 1.951-2.492-1.446-.272-2.726-.955-3.834-2.047-1.11-1.096-1.855-2.5-2.244-4.219-.625-2.759-.237-5.093 1.16-7.002 1.396-1.909 3.706-3.231 6.924-3.957a18.598 18.598 0 0 1 2.301-.362c.808-.08 1.425-.108 1.851-.092l8.804-1.989.671 2.968-4.166 1.784c.521.446 1.001 1.03 1.435 1.755.438.721.754 1.522.955 2.393.59 2.622.149 4.89-1.317 6.799-1.472 1.909-3.789 3.222-6.965 3.939-.81.184-1.56.288-2.247.316-1 .984-1.393 1.956-1.176 2.923.129.583.5.959 1.113 1.125.608.167 1.642.087 3.097-.243l4.439-1c2.802-.633 5.07-.517 6.794.35 1.727.867 2.844 2.426 3.353 4.681.649 2.882-.035 5.37-2.06 7.472zm-13.844-19.15c3.126-.709 4.314-2.73 3.56-6.074-.375-1.654-1.05-2.842-2.025-3.563-.976-.721-2.255-.905-3.835-.55-1.563.354-2.646 1.066-3.251 2.138-.6 1.066-.713 2.455-.329 4.156.362 1.595 1.05 2.726 2.063 3.4 1.012.672 2.284.838 3.817.493zm11.089 13.464c-.25-1.101-.82-1.796-1.717-2.088-.892-.288-2.415-.192-4.561.295l-4.094.922c-1.546.351-2.692.992-3.443 1.925-.746.934-.979 2.021-.7 3.265.263 1.162.992 1.942 2.185 2.334 1.191.392 2.738.371 4.635-.059 2.944-.663 5.041-1.58 6.29-2.747 1.25-1.166 1.721-2.451 1.405-3.847z"/></symbol><symbol id="previous-page-icon" viewBox="0 0 300 324.12"><path fill="#222F38" d="M288.091 69.434l-87.649 93.263 86.388 91.99c7.317 7.367 11.909 17.56 11.909 28.712 0 22.505-10.798 40.722-33.202 40.722-22.254 0-28.813-11.909-28.813-11.909l-133.14-150.271L237.983 11.908A40.616 40.616 0 0 1 266.797 0C289.252 0 300 18.216 300 40.658c0 22.24-11.909 28.776-11.909 28.776zM38.766 317.358C17.358 317.358 0 300 0 278.604V46.096C0 24.688 17.358 7.342 38.766 7.342S77.52 24.688 77.52 46.096v232.509c0 21.395-17.346 38.753-38.754 38.753z"/></symbol><symbol id="processing" viewBox="0 0 300 300"><path fill="#4D97FA" d="M150 300C67.15 300 0 232.851 0 150.004 0 67.156 67.15 0 150 0s150 67.156 150 150.004C300 232.851 232.85 300 150 300zm0-271.127c-66.797 0-121.133 54.32-121.133 121.131 0 66.78 54.335 121.13 121.133 121.13 66.783 0 121.133-54.35 121.133-121.13 0-66.811-54.35-121.131-121.133-121.131zm70.682 132.121c-5.871 5.886-15.404 5.886-21.29 0l-42.624-42.608c-5.885-5.885-5.885-15.434 0-21.319 5.886-5.885 15.404-5.885 21.29 0l42.624 42.623c5.884 5.885 5.884 15.419 0 21.304zm0 0l-42.624 42.623c-5.886 5.884-15.404 5.884-21.29 0-5.885-5.886-5.885-15.449 0-21.334l42.624-42.593c5.886-5.885 15.419-5.885 21.29 0 5.884 5.885 5.884 15.419 0 21.304zm-75.317 0c-5.885 5.886-15.434 5.886-21.319 0l-42.609-42.608c-5.885-5.885-5.885-15.434 0-21.319s15.419-5.885 21.305 0l42.624 42.623c5.884 5.885 5.884 15.419-.001 21.304zm0 0l-42.624 42.623c-5.885 5.884-15.419 5.884-21.305 0-5.885-5.886-5.885-15.449 0-21.334l42.609-42.593c5.885-5.885 15.434-5.885 21.319 0 5.886 5.885 5.886 15.419.001 21.304z"/></symbol><symbol id="projects" viewBox="0 0 299.645 323.207"><path fill="#425182" d="M257.829 265.795l-15.279-.101v2.896c0 27.01-16.587 54.616-47.157 54.616H43.123C20.299 323.207 0 302.44 0 269.74V86.471c0-22.198 16.006-39.765 38.807-39.765l18.598-.304.141-2.586C57.546 21.612 74.211.214 97.029.214c0 0 128.033-.214 129.363-.214l73.253 86.719v139.899c0 22.197-18.987 39.177-41.816 39.177zM57.743 222.471V68.854l-14.338.333c-11.319 0-20.53 10.243-20.53 21.223v185.54c0 10.986 10.237 24.474 21.562 24.474H195.9c21.849 0 24.226-17.589 23.482-34.728l3.054-.034-122.642-.067c-22.816-.002-42.051-20.927-42.051-43.124zm219.31-118.416h-29.455c-22.964 0-39.877-15.042-39.877-37.438 0 0-.181-18.564 0-43.388H102.443c-11.325 0-21.562 10.575-21.562 21.562v176.778c0 10.975 10.237 21.557 21.562 21.557h153.042c11.324 0 21.567-10.582 21.567-21.557V104.055h.001zm-57.603 45.714h-93.001c-6.141 0-11.11-4.969-11.11-11.093 0-6.135 4.969-11.104 11.11-11.104h93.001c6.142 0 11.11 4.969 11.11 11.104.001 6.124-4.968 11.093-11.11 11.093zm0 46.616h-93.001a11.103 11.103 0 0 1-11.11-11.11c0-6.118 4.969-11.088 11.11-11.088h93.001c6.142 0 11.11 4.97 11.11 11.088a11.102 11.102 0 0 1-11.11 11.11z"/></symbol><symbol id="replace" viewBox="0 0 300 318.557"><path fill-rule="evenodd" clip-rule="evenodd" fill="#DBDCE0" d="M283.148 243.432H168.584v58.255c0 9.315-7.555 16.87-16.852 16.87H16.869C7.536 318.557 0 311.002 0 301.687v-135.12c0-9.297 7.536-16.852 16.869-16.852h114.565V91.461c0-9.296 7.555-16.851 16.851-16.851h134.863c9.315 0 16.852 7.555 16.852 16.851v135.102c0 9.334-7.536 16.869-16.852 16.869zm-151.713-16.869v-38.818H37.553v93.883h93.882v-55.065zm131.434-113.941h-93.882v93.863h93.882v-93.863zM73.528 74.775h17.053c32.382-.825 6.638 19.565 6.638 19.565l-32.363 33.574c-2.476 2.438-5.831 3.96-9.59 3.96-7.371 0-9.571-3.96-9.571-3.96L13.349 94.945c-22.92-22.92 6.253-20.17 5.446-20.17h18.813C38.47 27.541 80.02 0 130.426 0v17.035c-35.664 0-59.025 23.819-56.898 57.74z"/></symbol><symbol id="reviewrequest" viewBox="0 0 300 300"><path fill-rule="evenodd" clip-rule="evenodd" fill="#425182" d="M256.123 246.844V300l-55.544-31.982c-7.288 1.194-14.774 1.886-22.462 1.886-36.097 0-69.921-11.938-92.231-33.762 2.063.126 24.243.355 31.055-.188 17.625 12.126 36.903 13.048 61.177 13.048 8.378 0 16.473-.942 24.264-2.575l32.746 20.965 1.12-31.354c21.091-18.912 42.003-40.359 42.003-71.607 0-19.755-7.54-33.097-20.168-47.873-.493-8.99-.629-30.923-.545-29.766C282.375 99.85 300 132.847 300 163.257c0 34.118-15.383 64.046-43.877 83.587zm-134.24-33.195c-7.681 0-15.169-.691-22.458-1.864L42.38 244.122v-53.177C13.886 171.446 0 141.125 0 107.007 0 48.118 54.569 0 121.883 0c67.303 0 124.49 48.118 124.49 107.007.001 58.91-57.187 106.642-124.49 106.642zm0-192.658c-56.957 0-100.887 38.013-100.887 87.189 0 31.264 14.556 58.7 42.757 74.597v25.74l32.75-16.462c7.787 1.612 17.001 1.822 25.379 1.822C178.83 193.877 225 157.372 225 108.18c0-49.176-46.17-87.189-103.117-87.189zm38.725 139.983H85.541c-5.922 0-10.718-4.817-10.718-10.723 0-5.922 4.796-10.724 10.718-10.724h75.067c5.917 0 10.713 4.802 10.713 10.724 0 5.906-4.796 10.723-10.713 10.723zm0-42.903H85.541c-5.922 0-10.718-4.797-10.718-10.718 0-5.917 4.796-10.719 10.718-10.719h75.067c5.917 0 10.713 4.802 10.713 10.719 0 5.921-4.796 10.718-10.713 10.718zm0-42.888H85.541c-5.922 0-10.718-4.801-10.718-10.723 0-5.917 4.796-10.718 10.718-10.718h75.067c5.917 0 10.713 4.801 10.713 10.718 0 5.922-4.796 10.723-10.713 10.723z"/></symbol><symbol id="right-slider" viewBox="0 0 300.001 300.009"><path fill-rule="evenodd" clip-rule="evenodd" fill="inherit" d="M256.06 256.067c-58.588 58.588-153.546 58.588-212.118 0-58.588-58.589-58.588-153.57 0-212.126 58.572-58.588 153.53-58.588 212.118 0 58.587 58.556 58.587 153.538 0 212.126zM67.324 232.668c45.66 45.676 119.677 45.676 165.344 0 45.659-45.659 45.659-119.668 0-165.335-45.667-45.659-119.684-45.659-165.344 0-45.659 45.667-45.659 119.676 0 165.335zm138.573-82.998l-61.389 69.287s-3.013 5.488-13.255 5.488c-10.34 0-18.742-8.403-18.742-18.776 0-5.145 2.084-9.818 5.488-13.254l35.367-42.387-35.954-42.98s-5.487-3.037-5.487-13.279c0-10.348 8.402-18.75 18.742-18.75 5.178 0 9.884 2.092 13.254 5.496l61.976 69.155z"/></symbol><symbol id="search-file" viewBox="0 0 300 312.861"><path opacity=".8" fill-rule="evenodd" clip-rule="evenodd" fill="#425182" d="M256.438 312.861l-212.666-.223C20.032 312.639 0 290.858 0 267.739L.974 48.325S-.387.211 40.886.211c0 0 181.427-.211 182.823-.211L300 90.314v181.743c0 23.12-19.797 40.804-43.562 40.804zm20.021-204.498h-30.688c-23.904 0-41.52-15.667-41.52-38.984 0 0-.188-19.328 0-45.205H45.192c-11.794 0-22.473 11.031-22.473 22.461V266.8c0 11.431 10.679 22.449 22.473 22.449H254.01c11.781 0 22.449-11.019 22.449-22.449V108.363zm-47.856 120.181H71.538c-6.384 0-11.571-5.164-11.571-11.56 0-6.384 5.187-11.56 11.571-11.56h157.064c6.384 0 11.56 5.176 11.56 11.56 0 6.396-5.176 11.56-11.559 11.56zm0-48.537H71.538c-6.384 0-11.571-5.176-11.571-11.56s5.187-11.559 11.571-11.559h157.064c6.384 0 11.56 5.175 11.56 11.559s-5.176 11.56-11.559 11.56z"/></symbol><symbol id="search-folder" viewBox="0 0 300 288.439"><path fill-rule="evenodd" clip-rule="evenodd" fill="#68749B" d="M253.838 288.439H46.157C20.67 288.439 0 267.775 0 242.277V46.146C0 20.665 20.67 0 46.157 0h69.227c25.487 0 46.151 20.665 46.151 46.146h92.303C279.324 46.146 300 66.81 300 92.297v149.98c0 25.498-20.676 46.162-46.162 46.162zm23.075-149.979V92.297c0-12.743-10.332-23.075-23.075-23.075H138.459V46.146c0-12.749-10.343-23.07-23.075-23.07H46.157c-12.744 0-23.076 10.321-23.076 23.07v196.132c0 12.743 10.332 23.087 23.076 23.087h207.681c12.743 0 23.075-10.344 23.075-23.087V138.46zm-57.688 92.302h-80.766c-6.365 0-11.537-5.183-11.537-11.538v-23.086H80.771c-6.377 0-11.538-5.172-11.538-11.538v-80.765c0-6.377 5.16-11.538 11.538-11.538h80.765c6.366 0 11.538 5.161 11.538 11.538v23.075h46.151c6.377 0 11.537 5.161 11.537 11.538v80.775c0 6.356-5.16 11.539-11.537 11.539zm-69.227-115.389H92.32v57.689h34.602v-34.613c0-6.377 5.172-11.538 11.537-11.538h11.539v-11.538zm57.678 34.602h-57.678v57.7h57.678v-57.7z"/></symbol><symbol id="search-pic" viewBox="0 0 300 300"><path fill-rule="evenodd" clip-rule="evenodd" fill="#636F97" d="M262.488 300h-225C16.782 300 0 283.218 0 262.488v-225C0 16.782 16.782 0 37.489 0h225C283.219 0 300 16.782 300 37.489v225C300 283.218 283.219 300 262.488 300zM277.15 41.03c0-10.376-8.391-18.767-18.756-18.767H41.605c-10.365 0-18.756 8.391-18.756 18.767v178.805L92.3 147.451l42.384 45.045L225 103.128l52.5 57.451-.35-119.549zM98.008 126.564c-22.309 0-40.398-18-40.398-40.207 0-22.196 18.09-40.207 40.398-40.207 22.308 0 40.387 18.011 40.387 40.207 0 22.207-18.079 40.207-40.387 40.207zm.27-57.383c-9.744 0-17.639 7.895-17.639 17.639 0 9.722 7.895 17.617 17.639 17.617 9.722 0 17.617-7.895 17.617-17.617 0-9.745-7.895-17.639-17.617-17.639z"/></symbol><symbol id="search" viewBox="0 0 300 315.451"><path fill-rule="evenodd" clip-rule="evenodd" fill="#454C62" d="M294.746 284.602c7.006 7.047 7.006 18.488 0 25.548-3.53 3.517-8.109 5.301-12.701 5.301a17.89 17.89 0 0 1-12.703-5.301l-59.544-60.018c-4.12 2.939-11.48 5.064-20.247 6.652-16.848 7.61-35.506 11.94-55.188 11.94C60.162 268.725 0 208.564 0 134.363S60.162 0 134.363 0s134.362 60.162 134.362 134.363c0 32.659-11.678 62.575-31.031 85.854-.827 1.482-1.615 3.109-2.494 4.369l59.546 60.016zM134.363 25.849c-59.834 0-108.514 48.68-108.514 108.514 0 59.833 48.68 108.514 108.514 108.514 59.833 0 108.5-48.681 108.5-108.514 0-59.834-48.667-108.514-108.5-108.514z"/></symbol><symbol id="settings" viewBox="0 0 300 300.013"><path fill-rule="evenodd" clip-rule="evenodd" fill="#BEC0CF" d="M298.907 132.084c.693 5.874 1.093 11.854 1.093 17.929 0 6.061-.399 12.016-1.093 17.916l-49.897 8.02a101.69 101.69 0 0 1-10.696 25.694l29.638 40.974a150.634 150.634 0 0 1-25.349 25.348l-40.973-29.637a102.15 102.15 0 0 1-25.695 10.695l-8.02 49.898c-5.873.692-11.854 1.092-17.915 1.092-6.062 0-12.055-.399-17.929-1.092l-8.006-49.898a102.424 102.424 0 0 1-25.708-10.695l-40.973 29.637a151.154 151.154 0 0 1-25.349-25.348l29.638-40.974a101.674 101.674 0 0 1-10.683-25.694l-49.898-8.02C.399 162.029 0 156.074 0 150.013c0-6.074.399-12.055 1.092-17.929l49.898-8.019A101.863 101.863 0 0 1 61.673 98.37L32.035 57.397a150.64 150.64 0 0 1 25.349-25.349l40.973 29.625a102.913 102.913 0 0 1 25.708-10.683l8.006-49.898C137.945.4 143.938 0 150 0c6.061 0 12.042.4 17.915 1.092l8.02 49.898a102.622 102.622 0 0 1 25.695 10.683l40.973-29.625a150.16 150.16 0 0 1 25.349 25.349L238.314 98.37a101.859 101.859 0 0 1 10.696 25.695l49.897 8.019zM150 81.387c-37.896 0-68.626 30.717-68.626 68.626 0 37.896 30.73 68.613 68.626 68.613s68.612-30.717 68.612-68.613c0-37.909-30.716-68.626-68.612-68.626zm0 109.654c-22.685 0-41.04-18.355-41.04-41.027 0-22.671 18.355-41.04 41.04-41.04 22.671 0 41.026 18.369 41.026 41.04S172.671 191.041 150 191.041z"/></symbol><symbol id="severity-drpdwn-icn" viewBox="0 0 19 19"><g fill-rule="evenodd" clip-rule="evenodd"><path fill="#525663" d="M9.503 1.974c4.145 0 7.542 3.359 7.542 7.504 0 4.144-3.397 7.572-7.542 7.572s-7.542-3.429-7.542-7.572c0-4.145 3.397-7.504 7.542-7.504z"/><path fill="#E8E8E9" d="M9.5 19C4.253 19 0 14.747 0 9.5S4.253 0 9.5 0 19 4.253 19 9.5 14.747 19 9.5 19zm0-17a7.5 7.5 0 1 0 0 15 7.5 7.5 0 0 0 0-15zM5.949 6.959h7.011l-3.494 7.022-3.517-7.022z"/></g></symbol><symbol id="share-artefact" viewBox="0 0 300 300.51"><path fill-rule="evenodd" clip-rule="evenodd" fill="inherit" d="M300 256.074c0 24.535-19.891 44.436-44.437 44.436H69.893c0-108.751 85.904-117.942 85.904-117.942 5.133-.542 9.344 1.118 9.344 3.689v23.852c0 5.176 3.516 7.063 7.834 4.231l59.172-47.528c4.319-2.843 4.319-7.487 0-10.309l-4.872-3.906c-7.563-3.18-13.977-8.438-18.74-14.997l-35.538-28.457c-4.329-2.832-7.855-.923-7.855 4.237v23.64c0 2.577-4.243 4.596-9.397 4.476 0 0-118.643-2.854-155.195 87.863v-9.376V83.848C.325 82.003 0 80.191 0 78.281V44.94C0 20.396 19.901.494 44.447.494h11.101V0h166.691v.494h33.324C280.109.494 300 20.396 300 44.94v211.134z"/></symbol><symbol id="share" viewBox="0 0 299.995 258.272"><path fill-rule="evenodd" clip-rule="evenodd" fill="#DBDCE0" d="M294.367 80.471l-49.779 46.395c-3.868 3.91-1.829 2.964-7.778 2.964-11.898 0-21.547-9.67-21.547-21.526V86.757c-81.271-.567-86.589 85.453-86.589 85.453h-20.622c.252-85.6 48.035-128.779 107.211-128.484v-22.2C215.263 9.628 224.911 0 236.81 0c2.943 0 10.448 3.574 8.388 1.703 14.716 13.223 47.173 47.656 47.173 47.656 8.85 8.871 10.615 20.538 1.996 31.112zM43.053 215.935h172.21v-64.578h42.59v87.598c0 10.679-8.661 19.318-19.34 19.318H19.319C8.661 258.272 0 249.633 0 238.954V19.466C0 8.808 8.661.168 19.319.168h109.124v43.557h-85.39v172.21z"/></symbol><symbol id="submit-review" viewBox="0 0 300 300.691"><path fill="inherit" d="M149.486 300.691C66.876 300.691 0 232.422 0 149.829 0 67.219 66.876 0 149.486 0 232.08 0 300 67.219 300 149.829c0 82.593-67.92 150.862-150.514 150.862zm0-267.579c-64.548 0-116.717 52.169-116.717 116.717 0 64.526 52.169 117.402 116.717 117.402 64.526 0 117.739-52.876 117.739-117.402.001-64.548-53.212-116.717-117.739-116.717zm76.709 89.36l-75.426 95.07a14.133 14.133 0 0 1-10.513 5.363c-.186.021-.392.021-.582.021a14.121 14.121 0 0 1-10.339-4.492l-50.233-53.605c-5.363-5.699-5.069-14.652.631-20.014 5.716-5.341 14.69-5.069 20.031.642l39.023 41.628 65.195-82.218c4.862-6.146 13.781-7.152 19.917-2.29 6.125 4.861 7.159 13.765 2.296 19.895z"/></symbol><symbol id="submit" viewBox="0 0 300.002 300.022"><path fill-rule="evenodd" clip-rule="evenodd" fill="#6A6F82" d="M256.057 256.077c-58.576 58.594-153.544 58.594-212.139 0-58.558-58.576-58.558-153.544 0-212.139 58.595-58.585 153.562-58.585 212.139 0 58.594 58.595 58.594 153.563 0 212.139zM229.543 70.452c-43.928-43.927-115.184-43.927-159.111 0-43.927 43.937-43.927 115.184 0 159.111 43.928 43.927 115.184 43.927 159.111 0 43.927-43.927 43.927-115.174 0-159.111zm-10.052 55.326l-75.001 75a18.648 18.648 0 0 1-13.257 5.476 18.713 18.713 0 0 1-13.257-5.476l-37.5-37.5C77.088 159.854 75 155.186 75 150.021c0-10.354 8.378-18.769 18.732-18.769 5.191 0 9.869 2.097 13.257 5.484l24.243 24.252 61.744-61.725a18.628 18.628 0 0 1 13.257-5.512c10.363 0 18.769 8.404 18.769 18.769 0 5.165-2.124 9.871-5.511 13.258z"/></symbol><symbol id="toggle-annotations" viewBox="0 0 300 300.173"><path fill="inherit" d="M270.686 183.916c-.218.293-.392.619-.652.902l-70.885 82.174c-2.51 2.912-6.139 4.498-9.865 4.498-1.5 0-3.032-.25-4.499-.783-5.096-1.868-8.485-6.682-8.485-12.07v-39.05c-.392.685-.837 1.358-1.369 1.966l-63.937 74.102a12.982 12.982 0 0 1-14.348 3.716c-5.117-1.868-8.485-6.683-8.485-12.071v-34.921C38.512 246.033 0 203.941 0 153.026 0 99.911 41.902 56.44 94.642 53.104 114.069 21.345 149.164 0 189.284 0 250.334 0 300 49.241 300 109.777c0 28.597-11.18 54.57-29.314 74.139zM189.284 25.74c-46.737 0-84.755 37.691-84.755 84.037 0 46.334 38.018 84.026 84.755 84.026 46.742 0 84.77-37.692 84.77-84.026-.001-46.346-38.028-84.037-84.77-84.037zm22.132 74.41h-44.504c-6.139 0-11.126-4.993-11.126-11.132 0-6.139 4.987-11.137 11.126-11.137h44.504c6.139 0 11.126 4.998 11.126 11.137 0 6.14-4.988 11.132-11.126 11.132zm0 44.499h-44.504c-6.139 0-11.126-4.977-11.126-11.132 0-6.139 4.987-11.115 11.126-11.115h44.504c6.139 0 11.126 4.976 11.126 11.115 0 6.155-4.988 11.132-11.126 11.132z"/></symbol><symbol id="up-drpdwn" viewBox="0 0 300.006 300.008"><path fill-rule="evenodd" clip-rule="evenodd" fill="inherit" d="M256.07 43.936c-58.598-58.581-153.546-58.581-212.136 0-58.58 58.58-58.58 153.537 0 212.137 58.589 58.58 153.538 58.58 212.136 0 58.581-58.6 58.581-153.557 0-212.137zm-26.515 185.62c-43.93 43.949-115.183 43.949-159.113 0-43.949-43.931-43.949-115.183 0-159.113 43.931-43.949 115.184-43.949 159.113 0 43.949 43.93 43.949 115.182 0 159.113zM149.687 94.11l-69.174 61.978c-3.388 3.388-5.503 8.057-5.503 13.239 0 10.364 8.405 18.752 18.761 18.752 10.236 0 13.249-5.493 13.249-5.493l43.006-35.975 42.411 35.369a18.624 18.624 0 0 0 13.258 5.513c10.347 0 18.751-8.405 18.751-18.752 0-10.255-5.512-13.258-5.512-13.258L149.687 94.11z"/></symbol><symbol id="user" viewBox="0 0 21.975 24.98"><path d="M19.235 24.98H3.331C.102 24.927 0 21.753 0 21.753V8.351C2.471 1.503 8.729 0 8.729 0h8.843c4.259 0 4.403 3.767 4.403 3.767v17.831c-.004 2.826-2.74 3.382-2.74 3.382zm.745-21.156c-.051-1.884-1.718-1.884-1.718-1.884H8.028L7.96 5.671c.036 2.641-2.815 3.342-2.815 3.342H2.021v12.16c-.058 1.958 1.536 1.847 1.536 1.847h14.542c1.999.058 1.892-1.886 1.892-1.886s.041-15.427-.011-17.31z" fill="#999ea5"/><path d="M8.925 15.4a3.986 3.986 0 0 1-1.909-3.396 4 4 0 0 1 8 0c0 1.44-.768 2.691-1.909 3.396 2.278.851 3.909 3.029 3.909 5.604h-12c0-2.575 1.63-4.753 3.909-5.604z" fill="#999ea5"/></symbol><symbol id="v_compare" viewBox="0 0 300 300"><path fill="#BDC3C7" d="M18.74 300C8.396 300 0 291.613 0 281.269V18.75C0 8.405 8.396 0 18.74 0c10.355 0 18.75 8.405 18.75 18.75v262.519c0 10.344-8.394 18.731-18.75 18.731zm262.51 0H18.74C8.396 300 0 291.613 0 281.269c0-10.364 8.396-18.75 18.74-18.75h262.51c10.363 0 18.75 8.386 18.75 18.75 0 10.344-8.387 18.731-18.75 18.731zm0 0c-10.327 0-18.75-8.387-18.75-18.731V18.75C262.5 8.405 270.923 0 281.25 0 291.613 0 300 8.405 300 18.75v262.519c0 10.344-8.387 18.731-18.75 18.731zm0-262.5H18.74C8.396 37.5 0 29.096 0 18.75 0 8.405 8.396 0 18.74 0h262.51C291.613 0 300 8.405 300 18.75c0 10.346-8.387 18.75-18.75 18.75zM150 300c-10.346 0-18.75-8.387-18.75-18.731V18.75C131.25 8.405 139.654 0 150 0c10.354 0 18.74 8.405 18.74 18.75v262.519c0 10.344-8.386 18.731-18.74 18.731z"/></symbol><symbol id="v_open" viewBox="0 0 300 300"><path fill="#BDC3C7" d="M271.875 150c-15.527 0-28.125-12.607-28.125-28.116V96.03l-55.115 55.087-2.709-2.692c-2.527.742-5.055 1.575-7.801 1.575C162.588 150 150 137.393 150 121.884c0-2.783.833-5.273 1.574-7.8l-2.719-2.719 55.124-55.124h-25.854C162.588 56.241 150 43.652 150 28.116S162.588 0 178.125 0h93.75C287.402 0 300 12.58 300 28.116v93.769C300 137.393 287.402 150 271.875 150zM93.76 37.491H18.74C8.396 37.491 0 29.123 0 18.75 0 8.396 8.396 0 18.74 0h75.02c10.345 0 18.75 8.396 18.75 18.75 0 10.373-8.406 18.741-18.75 18.741zM18.74 300C8.396 300 0 291.613 0 281.25V18.75C0 8.396 8.396 0 18.74 0c10.346 0 18.75 8.396 18.75 18.75v262.5c0 10.363-8.404 18.75-18.75 18.75zm262.51 0H18.74C8.396 300 0 291.613 0 281.25c0-10.346 8.396-18.731 18.74-18.731h262.51c10.363 0 18.75 8.386 18.75 18.731 0 10.363-8.387 18.75-18.75 18.75zm0 0c-10.327 0-18.75-8.387-18.75-18.75v-75c0-10.363 8.423-18.75 18.75-18.75 10.363 0 18.75 8.387 18.75 18.75v75c0 10.363-8.387 18.75-18.75 18.75z"/></symbol><symbol id="zoom-in" viewBox="0 0 299.998 300.003"><path fill="#222F38" d="M256.069 256.063c-58.586 58.587-153.566 58.587-212.129 0-58.587-58.588-58.587-153.567 0-212.122 58.563-58.587 153.543-58.587 212.129 0 58.572 58.554 58.572 153.534 0 212.122zM232.671 67.332c-45.658-45.658-119.673-45.658-165.34 0-45.658 45.666-45.658 119.673 0 165.332 45.667 45.675 119.682 45.675 165.34 0 45.658-45.659 45.658-119.666 0-165.332zm-32.697 99.287H99.922c-9.192 0-16.674-7.475-16.674-16.675 0-9.216 7.482-16.674 16.674-16.674h100.051c9.201 0 16.691 7.458 16.691 16.674.001 9.201-7.489 16.675-16.69 16.675zm-33.063 33.249c.051 9.201-7.382 16.732-16.582 16.784-9.216.053-16.715-7.396-16.767-16.598l-.56-100.05c-.051-9.192 7.364-16.716 16.581-16.768 9.2-.052 16.716 7.389 16.768 16.581l.56 100.051z"/></symbol><symbol id="zoom-out" viewBox="0 0 299.998 300.003"><path fill="#222F38" d="M256.069 256.063c-58.586 58.587-153.566 58.587-212.129 0-58.587-58.588-58.587-153.567 0-212.122 58.563-58.587 153.543-58.587 212.129 0 58.572 58.554 58.572 153.534 0 212.122zM232.671 67.332c-45.658-45.658-119.673-45.658-165.34 0-45.658 45.666-45.658 119.673 0 165.332 45.667 45.675 119.682 45.675 165.34 0 45.658-45.659 45.658-119.666 0-165.332zm-32.697 99.287H99.922c-9.192 0-16.674-7.475-16.674-16.675 0-9.216 7.482-16.674 16.674-16.674h100.051c9.201 0 16.691 7.458 16.691 16.674.001 9.201-7.489 16.675-16.69 16.675z"/></symbol></svg>