<?xml version="1.0" encoding="UTF-8"?><!DOCTYPE svg PUBLIC "-//W3C//DTD SVG 1.1//EN" "http://www.w3.org/Graphics/SVG/1.1/DTD/svg11.dtd"><svg xmlns="http://www.w3.org/2000/svg" xmlns:xlink="http://www.w3.org/1999/xlink"><defs><path id="pdfnpng-a" d="M172.708 140.507l-88.216 19.92c-7.036 1.59-14.026-2.83-15.614-9.86L44.524 42.733c-1.588-7.037 2.827-14.03 9.863-15.62l88.217-19.92c7.035-1.59 14.027 2.825 15.614 9.86L182.57 124.89c1.59 7.038-2.826 14.032-9.862 15.62zm-21.983-120.5c-.796-3.514-4.29-5.723-7.808-4.93l-85.424 19.29c-3.518.792-5.722 4.29-4.93 7.81L66.28 102.93l18.043-29.924 17.853 12.054 25.687-41.163L160.02 60.6l-9.295-40.593zm-66.07 45.466c-7.58 1.713-15.103-3.014-16.804-10.56-1.704-7.544 3.056-15.047 10.635-16.76 7.578-1.71 15.103 3.017 16.807 10.56 1.705 7.547-3.06 15.05-10.637 16.76zm-4.31-19.517c-3.31.75-5.387 4.035-4.636 7.345.745 3.306 4.03 5.383 7.34 4.636 3.305-.746 5.38-4.035 4.635-7.34-.747-3.31-4.036-5.387-7.34-4.64z"/><path id="pdfnpng-b" d="M206.772 220.2c-1.53 3.972-3.585 6.744-6.164 8.312-2.582 1.567-5.386 1.77-8.425.6-3.08-1.187-5.042-3.213-5.895-6.08l-.31-.118c-.582 2.13-.957 3.42-1.128 3.855l-3.83 9.967-5.168-1.99 13.512-35.15 4.183 1.603c-.06.502-.235 1.68-.527 3.537l.262.103c2.564-1.847 5.457-2.146 8.685-.904 3.035 1.168 4.977 3.176 5.827 6.027.847 2.85.504 6.26-1.022 10.236zm-4.347-8.827c-.42-1.773-1.563-3.015-3.426-3.732-2.053-.788-3.782-.763-5.19.077-1.408.838-2.623 2.574-3.635 5.22l-.296.766c-1.145 2.964-1.497 5.288-1.07 6.978.43 1.69 1.706 2.944 3.832 3.76 1.788.69 3.453.483 4.98-.61 1.534-1.094 2.822-2.996 3.866-5.71 1.05-2.73 1.36-4.982.937-6.747zm24.548 30.606l-4.048-1.556.326-3.537-.24-.093c-2.59 1.783-5.482 2.06-8.678.828-3.035-1.166-4.98-3.175-5.836-6.03-.854-2.855-.52-6.27 1.01-10.242 1.532-3.99 3.587-6.765 6.164-8.324 2.58-1.56 5.395-1.75 8.444-.58 3.2 1.228 5.178 3.348 5.94 6.353l.263.1c.426-1.842.83-3.268 1.217-4.28l3.41-8.867 5.188 1.996-13.16 34.23zm.708-21.088c-.5-1.678-1.812-2.922-3.937-3.74-1.817-.7-3.502-.5-5.053.6-1.55 1.094-2.846 3.006-3.896 5.734-1.04 2.7-1.352 4.938-.943 6.718.41 1.786 1.568 3.04 3.474 3.774 2.126.815 3.906.815 5.332-.01 1.425-.82 2.672-2.566 3.735-5.244l.28-.725c1.175-3.064 1.515-5.435 1.01-7.108zm29.586-1.3c-1.12-.906-2.256-1.578-3.414-2.023-1.176-.45-2.167-.417-2.985.104-.813.517-1.5 1.506-2.055 2.956l-.612 1.582 5.94 2.285-1.505 3.918-5.94-2.284-7.85 20.414-5.19-1.996 7.85-20.413-4.005-1.538.928-2.423 4.614-.044.61-1.587c1.104-2.87 2.6-4.74 4.48-5.608 1.885-.867 4.21-.77 6.98.294 1.818.7 3.496 1.688 5.022 2.968l-2.868 3.393zm-55.984 148.613l-.152.16c1.2.897 1.915 1.456 2.15 1.674l5.332 4.888-2.54 2.768-18.8-17.257 2.05-2.234c.3.156 1 .563 2.1 1.207l.126-.142c-.524-2.068.005-3.967 1.59-5.69 1.486-1.627 3.237-2.352 5.248-2.178 2.003.172 4.07 1.234 6.196 3.184 2.128 1.952 3.365 3.936 3.71 5.954.348 2.013-.225 3.835-1.717 5.457-1.507 1.65-3.275 2.38-5.293 2.208zm3.318-6.95c-.31-1.238-1.19-2.52-2.643-3.856-1.457-1.338-2.797-2.093-4.017-2.27-1.222-.168-2.29.238-3.203 1.234-1.01 1.103-1.42 2.197-1.247 3.295.18 1.094.977 2.29 2.39 3.587l.412.374c1.584 1.456 2.96 2.257 4.13 2.41 1.172.148 2.28-.344 3.322-1.483.883-.957 1.165-2.054.856-3.29zm16.75-11.826l-2.15-1.083-.117.127c.48 2.077-.066 3.97-1.634 5.677-1.492 1.625-3.244 2.353-5.254 2.184-2.013-.172-4.08-1.23-6.206-3.182-2.133-1.96-3.373-3.943-3.713-5.956-.343-2.01.233-3.835 1.73-5.467 1.57-1.708 3.396-2.436 5.48-2.168l.13-.14c-1.056-.723-1.856-1.335-2.398-1.832l-4.74-4.353 2.547-2.774 18.307 16.804-1.984 2.162zm-4.14-1.433c-.16-1.104-.955-2.32-2.375-3.656l-.39-.354c-1.64-1.504-3.048-2.31-4.23-2.41-1.18-.098-2.29.422-3.334 1.556-.89.977-1.187 2.084-.878 3.336.304 1.25 1.188 2.542 2.647 3.88 1.442 1.326 2.776 2.08 4 2.265 1.226.186 2.306-.23 3.244-1.252 1.043-1.14 1.483-2.26 1.317-3.363zm11.953-7.083l-2.547 2.775-10.923-10.02-1.962 2.142-1.297-1.188 1.122-2.92-.85-.773c-1.538-1.412-2.346-2.818-2.422-4.224-.08-1.4.56-2.84 1.922-4.325.892-.972 1.93-1.78 3.113-2.426l1.426 2.652c-.845.478-1.55 1.028-2.12 1.65-.577.63-.802 1.262-.677 1.903.125.643.58 1.32 1.354 2.034l.85.776 2.916-3.177 2.094 1.92-2.915 3.177 10.918 10.024zM176.977 453.97c-1.05 1.746-2.25 2.885-3.598 3.41-1.35.525-2.692.383-4.027-.418-1.354-.817-2.114-1.94-2.275-3.36l-.137-.083c-.45.957-.738 1.532-.853 1.726l-2.635 4.385-2.275-1.366 9.304-15.47 1.838 1.108c-.066.23-.25.77-.542 1.626l.118.066c1.362-.654 2.75-.56 4.17.296 1.336.806 2.085 1.915 2.25 3.33.16 1.42-.282 3-1.337 4.75zm-2.62-6.574c-.907-.546-1.723-.676-2.458-.396-.738.274-1.45.997-2.15 2.16l-.207.338c-.784 1.303-1.146 2.37-1.083 3.204.062.83.563 1.53 1.497 2.094.79.47 1.587.512 2.4.125.818-.386 1.58-1.18 2.302-2.372.72-1.2 1.052-2.24 1.003-3.108-.053-.868-.486-1.55-1.307-2.044zM184.7 465.93l-1.78-1.074.446-1.64-.107-.064c-1.368.627-2.756.517-4.165-.328-1.335-.806-2.084-1.918-2.25-3.336-.168-1.416.273-3 1.33-4.746 1.052-1.756 2.252-2.897 3.6-3.42 1.346-.52 2.688-.38 4.03.43 1.408.847 2.167 2.01 2.275 3.494l.117.066c.355-.835.662-1.472.928-1.918l2.35-3.9 2.28 1.376-9.054 15.06zm.537-11.984c-.796-.485-1.61-.532-2.43-.143-.825.387-1.596 1.183-2.316 2.383-.712 1.188-1.05 2.22-1.003 3.094.044.877.487 1.563 1.325 2.067.933.563 1.775.712 2.518.442.742-.272 1.474-.992 2.197-2.166l.19-.32c.814-1.35 1.17-2.437 1.073-3.272-.098-.827-.615-1.526-1.553-2.086zm15.62 3.932c-.45-.517-.932-.928-1.44-1.236-.518-.31-.988-.375-1.42-.196-.423.174-.832.583-1.216 1.225l-.416.696 2.613 1.572-1.036 1.722-2.615-1.572-5.402 8.983-2.283-1.373 5.403-8.982-1.764-1.06.64-1.064 2.18.366.422-.698c.76-1.266 1.622-2.025 2.58-2.275.964-.255 2.05-.012 3.273.72.798.48 1.504 1.086 2.12 1.817l-1.637 1.358z"/><path id="pdfnpng-c" opacity=".62" d="M206.772 220.2c-1.53 3.972-3.585 6.744-6.164 8.312-2.582 1.567-5.386 1.77-8.425.6-3.08-1.187-5.042-3.213-5.895-6.08l-.31-.118c-.582 2.13-.957 3.42-1.128 3.855l-3.83 9.967-5.168-1.99 13.512-35.15 4.183 1.603c-.06.502-.235 1.68-.527 3.537l.262.103c2.564-1.847 5.457-2.146 8.685-.904 3.035 1.168 4.977 3.176 5.827 6.027.847 2.85.504 6.26-1.022 10.236zm-4.347-8.827c-.42-1.773-1.563-3.015-3.426-3.732-2.053-.788-3.782-.763-5.19.077-1.408.838-2.623 2.574-3.635 5.22l-.296.766c-1.145 2.964-1.497 5.288-1.07 6.978.43 1.69 1.706 2.944 3.832 3.76 1.788.69 3.453.483 4.98-.61 1.534-1.094 2.822-2.996 3.866-5.71 1.05-2.73 1.36-4.982.937-6.747zm24.548 30.606l-4.048-1.556.326-3.537-.24-.093c-2.59 1.783-5.482 2.06-8.678.828-3.035-1.166-4.98-3.175-5.836-6.03-.854-2.855-.52-6.27 1.01-10.242 1.532-3.99 3.587-6.765 6.164-8.324 2.58-1.56 5.395-1.75 8.444-.58 3.2 1.228 5.178 3.348 5.94 6.353l.263.1c.426-1.842.83-3.268 1.217-4.28l3.41-8.867 5.188 1.996-13.16 34.23zm.708-21.088c-.5-1.678-1.812-2.922-3.937-3.74-1.817-.7-3.502-.5-5.053.6-1.55 1.094-2.846 3.006-3.896 5.734-1.04 2.7-1.352 4.938-.943 6.718.41 1.786 1.568 3.04 3.474 3.774 2.126.815 3.906.815 5.332-.01 1.425-.82 2.672-2.566 3.735-5.244l.28-.725c1.175-3.064 1.515-5.435 1.01-7.108zm29.586-1.3c-1.12-.906-2.256-1.578-3.414-2.023-1.176-.45-2.167-.417-2.985.104-.813.517-1.5 1.506-2.055 2.956l-.612 1.582 5.94 2.285-1.505 3.918-5.94-2.284-7.85 20.414-5.19-1.996 7.85-20.413-4.005-1.538.928-2.423 4.614-.044.61-1.587c1.104-2.87 2.6-4.74 4.48-5.608 1.885-.867 4.21-.77 6.98.294 1.818.7 3.496 1.688 5.022 2.968l-2.868 3.393zm-55.984 148.613l-.152.16c1.2.897 1.915 1.456 2.15 1.674l5.332 4.888-2.54 2.768-18.8-17.257 2.05-2.234c.3.156 1 .563 2.1 1.207l.126-.142c-.524-2.068.005-3.967 1.59-5.69 1.486-1.627 3.237-2.352 5.248-2.178 2.003.172 4.07 1.234 6.196 3.184 2.128 1.952 3.365 3.936 3.71 5.954.348 2.013-.225 3.835-1.717 5.457-1.507 1.65-3.275 2.38-5.293 2.208zm3.318-6.95c-.31-1.238-1.19-2.52-2.643-3.856-1.457-1.338-2.797-2.093-4.017-2.27-1.222-.168-2.29.238-3.203 1.234-1.01 1.103-1.42 2.197-1.247 3.295.18 1.094.977 2.29 2.39 3.587l.412.374c1.584 1.456 2.96 2.257 4.13 2.41 1.172.148 2.28-.344 3.322-1.483.883-.957 1.165-2.054.856-3.29zm16.75-11.826l-2.15-1.083-.117.127c.48 2.077-.066 3.97-1.634 5.677-1.492 1.625-3.244 2.353-5.254 2.184-2.013-.172-4.08-1.23-6.206-3.182-2.133-1.96-3.373-3.943-3.713-5.956-.343-2.01.233-3.835 1.73-5.467 1.57-1.708 3.396-2.436 5.48-2.168l.13-.14c-1.056-.723-1.856-1.335-2.398-1.832l-4.74-4.353 2.547-2.774 18.307 16.804-1.984 2.162zm-4.14-1.433c-.16-1.104-.955-2.32-2.375-3.656l-.39-.354c-1.64-1.504-3.048-2.31-4.23-2.41-1.18-.098-2.29.422-3.334 1.556-.89.977-1.187 2.084-.878 3.336.304 1.25 1.188 2.542 2.647 3.88 1.442 1.326 2.776 2.08 4 2.265 1.226.186 2.306-.23 3.244-1.252 1.043-1.14 1.483-2.26 1.317-3.363zm11.953-7.083l-2.547 2.775-10.923-10.02-1.962 2.142-1.297-1.188 1.122-2.92-.85-.773c-1.538-1.412-2.346-2.818-2.422-4.224-.08-1.4.56-2.84 1.922-4.325.892-.972 1.93-1.78 3.113-2.426l1.426 2.652c-.845.478-1.55 1.028-2.12 1.65-.577.63-.802 1.262-.677 1.903.125.643.58 1.32 1.354 2.034l.85.776 2.916-3.177 2.094 1.92-2.915 3.177 10.918 10.024zM176.977 453.97c-1.05 1.746-2.25 2.885-3.598 3.41-1.35.525-2.692.383-4.027-.418-1.354-.817-2.114-1.94-2.275-3.36l-.137-.083c-.45.957-.738 1.532-.853 1.726l-2.635 4.385-2.275-1.366 9.304-15.47 1.838 1.108c-.066.23-.25.77-.542 1.626l.118.066c1.362-.654 2.75-.56 4.17.296 1.336.806 2.085 1.915 2.25 3.33.16 1.42-.282 3-1.337 4.75zm-2.62-6.574c-.907-.546-1.723-.676-2.458-.396-.738.274-1.45.997-2.15 2.16l-.207.338c-.784 1.303-1.146 2.37-1.083 3.204.062.83.563 1.53 1.497 2.094.79.47 1.587.512 2.4.125.818-.386 1.58-1.18 2.302-2.372.72-1.2 1.052-2.24 1.003-3.108-.053-.868-.486-1.55-1.307-2.044zM184.7 465.93l-1.78-1.074.446-1.64-.107-.064c-1.368.627-2.756.517-4.165-.328-1.335-.806-2.084-1.918-2.25-3.336-.168-1.416.273-3 1.33-4.746 1.052-1.756 2.252-2.897 3.6-3.42 1.346-.52 2.688-.38 4.03.43 1.408.847 2.167 2.01 2.275 3.494l.117.066c.355-.835.662-1.472.928-1.918l2.35-3.9 2.28 1.376-9.054 15.06zm.537-11.984c-.796-.485-1.61-.532-2.43-.143-.825.387-1.596 1.183-2.316 2.383-.712 1.188-1.05 2.22-1.003 3.094.044.877.487 1.563 1.325 2.067.933.563 1.775.712 2.518.442.742-.272 1.474-.992 2.197-2.166l.19-.32c.814-1.35 1.17-2.437 1.073-3.272-.098-.827-.615-1.526-1.553-2.086zm15.62 3.932c-.45-.517-.932-.928-1.44-1.236-.518-.31-.988-.375-1.42-.196-.423.174-.832.583-1.216 1.225l-.416.696 2.613 1.572-1.036 1.722-2.615-1.572-5.402 8.983-2.283-1.373 5.403-8.982-1.764-1.06.64-1.064 2.18.366.422-.698c.76-1.266 1.622-2.025 2.58-2.275.964-.255 2.05-.012 3.273.72.798.48 1.504 1.086 2.12 1.817l-1.637 1.358z"/><path id="pdfnpng-d" d="M220.554 44.763c-.52.367-1.043.51-1.55.417-.514-.088-.96-.404-1.34-.946-.39-.555-.54-1.092-.447-1.6.085-.514.394-.95.916-1.322.55-.383 1.075-.53 1.584-.438.507.096.958.42 1.35.975.38.54.526 1.065.437 1.575-.083.51-.4.954-.95 1.338zm-24.528 15.173c-1.318-.24-2.488-1.096-3.522-2.57-.65-.922-1.08-1.77-1.288-2.53l2.43-1.707c.26.703.604 1.362 1.043 1.98.915 1.308 2.113 1.442 3.597.403l16.145-11.33 2.155 3.072-16.353 11.476c-1.495 1.048-2.896 1.45-4.208 1.206zm29.54 3.735c-.6 1.927-2.083 3.715-4.44 5.374-2.365 1.66-4.566 2.438-6.61 2.343-2.044-.092-3.695-1.042-4.963-2.847-1.283-1.83-1.624-3.714-1.016-5.648l-.13-.184c-1.134.98-1.83 1.56-2.092 1.743l-5.924 4.156-2.154-3.07 20.894-14.657 1.74 2.483c-.22.258-.766.854-1.632 1.788l.112.16c2.133-.07 3.877.854 5.224 2.77 1.26 1.806 1.595 3.67.993 5.59zm-4.067-4.625c-.855-1.222-1.838-1.86-2.947-1.923-1.11-.058-2.447.46-4.014 1.56l-.46.32c-1.762 1.238-2.837 2.41-3.24 3.523-.394 1.108-.148 2.297.735 3.56.745 1.063 1.76 1.58 3.035 1.542 1.276-.037 2.718-.62 4.33-1.75 1.62-1.138 2.647-2.285 3.076-3.44.433-1.154.264-2.288-.517-3.392zm15.465 20.846l-2.19-2.15c-.144.443-.39.892-.73 1.352-.34.458-.76.862-1.258 1.212-1.487 1.046-3.022 1.354-4.597.926-1.575-.43-2.998-1.547-4.264-3.352-.32-.463-.58-.905-.776-1.326-.875-.375-1.584-.37-2.133.013-.33.233-.47.562-.42.988.053.425.37 1.05.95 1.88l1.77 2.52c1.12 1.598 1.632 3.048 1.532 4.354-.102 1.304-.79 2.405-2.073 3.305-1.638 1.15-3.377 1.36-5.21.634-1.838-.726-3.65-2.368-5.443-4.924-1.384-1.967-2.09-3.713-2.12-5.244-.03-1.525.596-2.738 1.89-3.646.888-.62 1.833-.867 2.835-.73.998.137 1.97.63 2.91 1.476-.11-.534-.065-1.066.136-1.605.2-.538.517-.954.94-1.254.544-.38 1.104-.55 1.697-.51.588.046 1.276.24 2.065.584-.206-.98-.105-1.954.293-2.93.403-.975 1.09-1.81 2.066-2.492 1.572-1.1 3.135-1.46 4.69-1.076 1.558.384 2.976 1.493 4.26 3.322.286.41.562.86.82 1.347.26.488.438.867.534 1.138l3.515 5.006-1.69 1.18zm-17.04 2.768l-1.632-2.33c-.62-.88-1.315-1.433-2.09-1.658-.78-.23-1.522-.097-2.227.4-.664.462-.963 1.12-.904 1.967.06.846.47 1.813 1.23 2.894 1.174 1.672 2.287 2.75 3.342 3.235 1.056.483 1.98.445 2.772-.113.63-.437.916-.975.867-1.613-.05-.635-.5-1.565-1.36-2.782zm11.87-10.083c-.625-.89-1.35-1.387-2.175-1.488-.83-.104-1.727.184-2.694.862-.904.637-1.438 1.358-1.6 2.166-.163.81.067 1.647.674 2.52 1.247 1.778 2.824 2 4.725.67.94-.664 1.513-1.392 1.712-2.188.2-.8-.012-1.647-.642-2.543zM77.33 309.85c-.624 1.868-2.116 3.41-4.48 4.618-1.483.76-2.805 1.21-3.964 1.364l-1.992-3.906c1.08-.233 2.118-.605 3.11-1.112 2.1-1.072 2.54-2.797 1.325-5.178l-13.248-25.92 4.93-2.517 13.42 26.25c1.223 2.395 1.52 4.528.9 6.4zM58.82 275c-.894.457-1.707.57-2.436.332-.73-.238-1.31-.774-1.74-1.614-.448-.88-.552-1.683-.315-2.405.237-.72.807-1.313 1.7-1.77.87-.44 1.667-.552 2.392-.322.727.23 1.314.785 1.764 1.67.43.837.525 1.62.292 2.35-.24.73-.792 1.317-1.66 1.76zm39.04 10.17c-.56 2.968-2.285 5.193-5.18 6.673-2.94 1.5-5.763 1.61-8.464.326l-.295.147c1.2 1.86 1.905 2.998 2.12 3.417l4.86 9.51-4.932 2.52-17.14-33.537 3.988-2.038c.334.374 1.092 1.29 2.28 2.75l.25-.13c.338-3.136 2.047-5.49 5.124-7.066 2.897-1.48 5.69-1.58 8.378-.31 2.69 1.274 5.002 3.808 6.94 7.6s2.627 7.172 2.072 10.135zm-7.153-7.595c-1.33-2.6-2.792-4.335-4.393-5.202-1.6-.872-3.29-.853-5.065.06-1.96 1-3.098 2.304-3.41 3.913-.317 1.61.166 3.67 1.454 6.188l.376.735c1.446 2.827 2.938 4.645 4.48 5.45 1.543.813 3.327.696 5.357-.343 1.705-.87 2.664-2.24 2.873-4.114.207-1.87-.347-4.1-1.673-6.688zm35.335 7.01c-1.438 2.533-4.21 4.848-8.308 6.944-3.163 1.618-5.86 2.29-8.1 2.02-2.238-.27-3.883-1.438-4.943-3.508-.728-1.428-.89-2.856-.482-4.29.404-1.434 1.32-2.757 2.75-3.964-.8.057-1.57-.117-2.317-.52-.745-.405-1.29-.95-1.64-1.635-.443-.867-.577-1.73-.393-2.58s.605-1.818 1.27-2.903c-1.466.1-2.875-.245-4.22-1.028-1.343-.79-2.418-1.965-3.22-3.532-1.287-2.518-1.492-4.876-.607-7.073.88-2.196 2.788-4.043 5.727-5.547.655-.333 1.368-.642 2.134-.918.768-.28 1.36-.463 1.773-.55l8.04-4.106 1.385 2.706-3.593 2.763c.612.304 1.22.752 1.826 1.342.6.593 1.11 1.29 1.515 2.085 1.225 2.393 1.358 4.697.408 6.91-.95 2.22-2.872 4.066-5.77 5.546-.74.38-1.442.666-2.1.862-.726 1.2-.863 2.243-.414 3.122.27.534.72.804 1.354.818.633.012 1.613-.32 2.943-1.002l4.052-2.072c2.56-1.308 4.78-1.753 6.668-1.347 1.888.413 3.355 1.647 4.406 3.707 1.347 2.63 1.297 5.21-.142 7.75zm-18.157-15.127c2.855-1.46 3.502-3.71 1.943-6.762-.77-1.514-1.722-2.496-2.844-2.954-1.125-.456-2.41-.318-3.85.42-1.426.728-2.302 1.688-2.62 2.872-.32 1.188-.082 2.56.71 4.11.742 1.458 1.688 2.384 2.838 2.783 1.15.406 2.423.25 3.823-.47zm14.077 10.303c-.513-1.008-1.243-1.54-2.18-1.598-.938-.06-2.385.41-4.343 1.413l-3.74 1.908c-1.414.722-2.365 1.63-2.857 2.718-.496 1.094-.45 2.203.13 3.337.542 1.063 1.438 1.64 2.693 1.722 1.25.082 2.743-.32 4.477-1.206 2.688-1.37 4.49-2.782 5.415-4.22.92-1.442 1.054-2.8.404-4.073z"/></defs><symbol id="add-comment" viewBox="0 0 300 367.098"><path fill="inherit" d="M260.362 248.667c-.294.418-.543.848-.86 1.23L163.627 361.01c-3.4 3.93-10.774 6.087-15.8 6.087-2.032 0-4.1-.35-6.075-1.084-6.894-2.507-8.034-7.317-8.034-14.613 0 0-.322-30.57-.124-51.847 0 0-133.59-16.284-133.59-148.678C0 123.615 15.945 0 147.95 0 230.49 0 300 66.584 300 148.42c0 38.655-15.11 73.81-39.638 100.247zM149.25 32.947c-64.568 0-117.076 52.378-117.076 116.754 0 64.377 52.507 116.732 117.075 116.732 64.55 0 117.074-52.354 117.074-116.73 0-64.377-52.524-116.754-117.075-116.754zm47.125 105.472h-92.518c-6.38 0-11.564-5.185-11.564-11.56v-11.58c0-6.38 5.184-11.564 11.564-11.564h92.518c6.38 0 11.564 5.184 11.564 11.564v11.58c0 6.375-5.185 11.56-11.565 11.56zm0 57.813h-92.518c-6.38 0-11.564-5.184-11.564-11.563v-11.56c0-6.396 5.184-11.563 11.564-11.563h92.518c6.38 0 11.564 5.167 11.564 11.564v11.56c0 6.38-5.185 11.563-11.565 11.563z"/></symbol><symbol id="add" viewBox="0 0 300 300"><path fill-rule="evenodd" clip-rule="evenodd" fill="inherit" d="M149.996 300C67.166 300 0 232.835 0 149.996 0 67.166 67.165 0 149.996 0 232.836 0 300 67.165 300 149.996 300 232.836 232.835 300 149.996 300zm0-271.142c-66.798 0-121.138 54.34-121.138 121.138 0 66.8 54.34 121.146 121.138 121.146 66.8 0 121.146-54.347 121.146-121.146 0-66.798-54.347-121.138-121.146-121.138zm56.442 135.656h-41.44v41.91c0 10.254-4.57 18.574-14.81 18.574h-.375c-10.247 0-14.817-8.32-14.817-18.574v-41.91H93.562c-10.247 0-18.567-4.088-18.567-14.327v-.374c0-10.246 8.32-14.816 18.567-14.816h41.434V93.562c0-10.247 4.57-18.567 14.817-18.567h.374c10.24 0 14.327 8.32 14.327 18.567v41.435h41.924c10.24 0 18.56 4.57 18.56 14.816v.374c0 10.24-8.32 14.327-18.56 14.327z"/></symbol><symbol id="add1" viewBox="0 0 300 300"><path fill-rule="evenodd" clip-rule="evenodd" fill="#ECECEC" d="M149.996 300C67.166 300 0 232.835 0 149.996 0 67.166 67.165 0 149.996 0 232.836 0 300 67.165 300 149.996 300 232.836 232.835 300 149.996 300zm0-271.142c-66.798 0-121.138 54.34-121.138 121.138 0 66.8 54.34 121.146 121.138 121.146 66.8 0 121.146-54.347 121.146-121.146 0-66.798-54.347-121.138-121.146-121.138zm56.442 135.656h-41.44v41.91c0 10.254-4.57 18.574-14.81 18.574h-.375c-10.247 0-14.817-8.32-14.817-18.574v-41.91H93.562c-10.247 0-18.567-4.088-18.567-14.327v-.374c0-10.246 8.32-14.816 18.567-14.816h41.434V93.562c0-10.247 4.57-18.567 14.817-18.567h.374c10.24 0 14.327 8.32 14.327 18.567v41.435h41.924c10.24 0 18.56 4.57 18.56 14.816v.374c0 10.24-8.32 14.327-18.56 14.327z"/></symbol><symbol id="addfile" viewBox="0 0 300 356.742"><path fill-rule="evenodd" clip-rule="evenodd" fill="#AFB5BF" d="M255.194 356.742H55.396C2.616 355.878 0 303.972 0 303.972V90.167C35.136 3.736 112.248 0 112.248 0h115.754C297.622 0 300 61.57 300 61.57v245.2c-.07 46.2-44.806 49.972-44.806 49.972zm20.56-282.644c-.38-54.62-47.95-50.004-47.95-50.004H97.206l.103 32.446c-1.22 28.813-40.406 32.636-40.406 32.636H24.158V282.25c.075 56.174 46.616 50.058 46.616 50.058h156.92c51.246.214 48.195-48.744 48.195-48.744s.103-174.585-.135-209.466z"/><path fill="#19C1E5" d="M154.27 259.666c-40.33 0-73.017-32.69-73.017-73.02 0-40.325 32.687-73.017 73.016-73.017s73.02 32.69 73.02 73.016c0 40.33-32.692 73.02-73.02 73.02zm0-130.03c-31.432 0-57.012 25.58-57.012 57.01 0 31.44 25.58 57.017 57.01 57.017 31.433 0 57.017-25.576 57.017-57.016 0-31.432-25.585-57.012-57.016-57.012zm27.477 64.743H162.27v19.744c0 4.99-2.923 9.032-7.915 9.032h-.174c-5 0-7.926-4.04-7.926-9.032V194.38h-19.46c-4.987 0-9.036-2.655-9.036-7.647v-.174c0-5 4.05-8.202 9.036-8.202h19.183v-19.186c0-4.988 3.205-9.032 8.204-9.032h.175c4.992 0 7.916 4.044 7.916 9.032v19.186h19.477c4.983 0 9.032 3.2 9.032 8.2v.175c0 4.992-4.05 7.646-9.033 7.646z"/></symbol><symbol id="adduser" viewBox="0 0 299.995 299.541"><g fill-rule="evenodd" clip-rule="evenodd"><path fill="#11131E" d="M218.68 139.468c43.88 0 79.458 34.713 79.458 77.518 0 42.826-35.578 77.52-79.457 77.52-43.92 0-79.5-34.693-79.5-77.52 0-42.804 35.58-77.518 79.5-77.518z"/><path fill="#D6DBE3" d="M299.995 213.827c0 47.705-37.978 85.714-85.693 85.714-40.626 0-74.12-27.61-83.19-65.244-4.547.543-9.094 1.043-13.776 1.043C52.534 235.34 0 182.137 0 117.34 0 52.535 52.534 0 117.335 0c64.786 0 118.342 52.534 118.342 117.34 0 4.506-.48 8.906-1 13.286 37.685 9.04 65.318 42.544 65.318 83.2zM118.097 21.45C65 21.45 21.96 64.493 21.96 117.58c0 22.17 7.57 42.534 20.183 58.79 2.148-11.604 11.476-14.576 11.476-14.576L85.15 150.23l11.46-5.86-.078-12.764s-6.225-4.108-6.24-14.338c-.38-.03-.772-.063-1.23-.135-6.112-.77-11.352-10.354-11.795-16.86-.444-6.498 4.843-7.04 4.843-7.04l4.63 1.522s-2.018-6.048-2.018-22.878c0-7.737 2.07-11.512 6.173-13.994 0-.02-.016-.04-.016-.094 0 0-6.157-14.61 26.736-14.912 31.7.303 31.617 27.497 31.617 27.497l-.105 9.96-.96 13.075c.356-.135 4.485-.177 4.902-.177 3.712 0 3.42 7.352 3.42 7.352s-4.463 15.777-10.573 16.548c-.543.073-.98.125-1.398.135-1.105 8.415-4.932 13.42-4.932 13.42v13.348l10.25 5.882 5.09 1.95c15.118-14.484 35.577-23.41 58.35-23.682.397-3.504.96-6.976.96-10.604 0-53.088-43.046-96.133-96.143-96.133zM216.47 149.55c-21.064 1.387-59.77 9.166-65.943 57.268 3.69-33.535-20.834 71.168 63.774 71.168 35.56 0 64.15-28.592 64.15-64.16 0-34.808-27.464-63.088-61.98-64.276zm30.344 74.786h-21.69v22.013c0 5.893-4.796 10.668-10.718 10.668h-.21c-5.9 0-10.698-4.775-10.698-10.667V224.33H181.81c-5.902 0-10.698-4.483-10.698-10.386v-.208c0-5.913 4.796-10.71 10.698-10.71h21.73v-21.688c0-5.902 4.755-10.7 10.657-10.7h.21c5.92 0 10.384 4.798 10.384 10.7V202.7h22.024c5.88 0 10.678 5.12 10.678 11.033v.208c0 5.904-4.797 10.398-10.678 10.398z"/></g></symbol><symbol id="addversion" viewBox="0 0 300 346.131"><path fill="#DBDCE0" d="M184.615 346.13H46.153C20.643 346.13 0 325.467 0 299.98V115.385C0 89.875 20.643 69.23 46.153 69.23V276.924c0 12.71 10.322 23.054 23.055 23.054h161.584c0 25.49-20.666 46.154-46.177 46.154zm69.23-69.206H115.364c-25.488 0-46.154-20.666-46.154-46.177V46.154C69.207 20.666 89.873 0 115.36 0H161.516c6.4 0 12.147 2.57 16.34 6.738L293.24 122.1c4.146 4.214 6.76 10.006 6.76 16.34V230.746c0 25.51-20.666 46.177-46.154 46.177zm0-92.33V161.54h-92.33c-12.73 0-23.054-10.322-23.054-23.077V57.692c0-6.4-5.182-11.54-11.537-11.54-6.378 0-11.56 5.14-11.56 11.54V207.647c0 12.778 10.343 23.1 23.098 23.1h92.333c12.71 0 23.054-10.32 23.054-23.1v-23.053z"/></symbol><symbol id="analytics" viewBox="0 0 300 300"><path fill-rule="evenodd" clip-rule="evenodd" fill="#BEC0CF" d="M258.557 249.69h-91.645v16.987h49.892c9.195 0 16.62 7.452 16.62 16.66 0 9.178-7.425 16.662-16.62 16.662H83.708c-9.17 0-16.628-7.485-16.628-16.662 0-9.21 7.457-16.66 16.628-16.66h49.924V249.69h-91.7C17.488 249.69.454 232.77.454 208.2L0 41.53C0 16.93 17.026 0 41.444 0H258.07c24.45 0 41.476 16.93 41.476 41.53L300 208.2c0 24.57-17.025 41.49-41.443 41.49zm7.228-195.663c0-12.75-8.22-20.754-20.73-20.754H71.102c-12.5 0-37.373 8.005-37.373 20.754l.487 141.645c0 12.757 8.22 20.762 20.722 20.762H228.89c12.51 0 37.384-8.005 37.384-20.762l-.49-141.645zm-65.6 96.022c0-9.202 7.425-16.67 16.62-16.67 9.194 0 16.62 7.47 16.62 16.67v49.983h-33.24V150.05zM133.63 83.403c0-9.21 7.433-16.677 16.62-16.677 9.188 0 16.66 7.468 16.66 16.677v116.63h-33.28V83.403zM67.08 133.38c0-9.21 7.457-16.654 16.628-16.654 9.187 0 16.644 7.444 16.644 16.653v66.653H67.08V133.38z"/></symbol><symbol id="approved" viewBox="0 0 300 300"><path fill="#23B33E" d="M150 300C67.147 300 0 232.853 0 150S67.147 0 150 0s150 67.147 150 150-67.147 150-150 150zm0-270.17C83.747 29.83 29.83 83.747 29.83 150S83.747 270.17 150 270.17 270.17 216.253 270.17 150 216.253 29.83 150 29.83zm71.615 94.78l-96.42 93.4-23.295-23.236-27.442-28.29c-7.12-7.386-8.176-17.935-.806-25.085l.264-.25c7.37-7.12 17.464-5.348 24.614 2.022l27.413 28.29 72.758-70.5c7.356-7.12 17.92-8.176 25.056-.835 0 .015 10.386 12.322-2.14 24.482z"/></symbol><symbol id="archive-icn" viewBox="0 0 300 299.507"><path fill-rule="evenodd" clip-rule="evenodd" fill="inherit" d="M278.54 299.507H21.462c-24 0-21.378-27.664-21.378-21.377V26.063C.084 14.263-.224 0 16.24 0c17.023 0 17.884 14.263 17.884 26.063l.31 189.754 232.102-.03V26.72c0-11.793-.845-26.575 17.202-26.575 17.527 0 16.18 14.782 16.18 26.575V278.83c0-5.427 2.614 20.677-21.378 20.677zM100.375 98.812c4.613 0 8.764 1.854 11.77 4.865l20.872 22.06V30.906c0-9.203 8.154-15.084 17.357-15.084 9.193 0 16.634 5.882 16.634 15.085v95.855l21.556-23.084c3.005-3.012 7.163-4.865 11.776-4.865 9.194 0 16.634 7.442 16.634 16.636 0 4.613-1.868 8.764-4.873 11.77l-49.966 50.477c-3.005 3.006-7.18 4.873-11.76 4.873-4.622 0-8.772-1.867-11.777-4.873L88.63 127.216c-3.037-3.006-4.897-7.156-4.897-11.77 0-9.193 7.473-16.634 16.642-16.634z"/></symbol><symbol id="archive" viewBox="0 0 299.999 257.385"><path fill-rule="evenodd" clip-rule="evenodd" fill="#D6DBE3" d="M74.4 139.407h182.906l-29.48 24.76c-4.19 4.187-4.19 10.984 0 15.174 4.188 4.19 10.975 4.19 15.164 0l53.957-42.52c2.23-2.24 3.184-5.205 3.037-8.127.146-2.922-.807-5.89-3.037-8.117l-53.633-42.568c-4.188-4.19-10.986-4.19-15.175 0-4.19 4.19-4.19 10.986 0 15.176l29.145 24.784H74.4c-5.922 0-10.724 4.802-10.724 10.725 0 5.917 4.802 10.714 10.724 10.714zm118.645-96.51c0-11.845-9.594-21.443-21.46-21.443H42.897c-11.84 0-21.438 9.598-21.438 21.443v171.59c0 11.846 9.598 21.46 21.437 21.46h128.688c11.866 0 21.46-9.614 21.46-21.46v-21.46h21.438v21.46c0 23.7-19.197 42.897-42.897 42.897H42.896C19.214 257.384 0 238.19 0 214.488V42.898C0 19.21 19.213 0 42.897 0h128.688c23.7 0 42.897 19.212 42.897 42.897v21.11h-21.438v-21.11z"/></symbol><symbol id="archive1" viewBox="0 0 299.997 256.979"><path fill-rule="evenodd" clip-rule="evenodd" fill="#DBDCE0" d="M278.478 256.98H21.52c-24.05 0-21.437-27.752-21.437-21.437V42.83c0-11.816 9.62-21.415 21.437-21.415 11.836 0 20.432 9.6 20.432 21.415l.815 128.47 214.442.69-.147-128.49c0-11.838 9.578-21.416 21.415-21.416 11.816 0 21.436 9.578 21.436 21.415v192.734c0-5.417 2.614 20.745-21.436 20.745zm-171.3-192.735c5.92 0 11.294 2.384 15.143 6.274l6.274 6.252V21.415C128.594 9.578 138.172 0 150.03 0c11.796 0 21.395 9.578 21.395 21.415v55.357l6.273-6.253c3.89-3.89 9.223-6.275 15.142-6.275 11.837 0 21.436 9.578 21.436 21.415 0 5.897-2.384 11.25-6.295 15.162l-42.808 42.81c-3.89 3.868-9.223 6.272-15.14 6.272-5.92 0-11.295-2.404-15.163-6.273l-42.81-42.808c-3.89-3.91-6.274-9.265-6.274-15.162 0-11.837 9.578-21.415 21.393-21.415z"/></symbol><symbol id="archive2" viewBox="0 0 300 321.219"><path fill-rule="evenodd" clip-rule="evenodd" fill="#6A6F82" d="M278.5 321.22H21.51c-24.04 0-21.427-27.713-21.427-21.376V42.824c0-11.828 9.6-21.428 21.428-21.428s20.444 9.6 20.444 21.427l.816 192.75 214.46.67-.168-192.74c0-11.827 9.6-21.417 21.438-21.417 11.816 0 21.416 9.59 21.416 21.417v256.99c0-5.438 2.615 20.726-21.416 20.726zM107.208 128.48c5.898 0 11.263 2.394 15.132 6.284l6.254 6.264V21.396C128.594 9.57 138.194 0 150.02 0c11.818 0 21.418 9.57 21.418 21.396v119.632l6.253-6.264c3.912-3.89 9.246-6.285 15.186-6.285 11.816 0 21.417 9.6 21.417 21.426 0 5.94-2.427 11.273-6.296 15.12l-42.812 42.855c-3.89 3.87-9.223 6.255-15.163 6.255-5.897 0-11.272-2.385-15.132-6.254l-42.812-42.853c-3.9-3.848-6.295-9.18-6.295-15.12 0-11.828 9.598-21.428 21.425-21.428z"/></symbol><symbol id="artifacts" viewBox="0 0 300 278.505"><g fill-rule="evenodd" clip-rule="evenodd"><path fill="#11131E" d="M212.986 120.292c49.5 0 71.413 29.808 71.413 76.455 0 46.668-38.57 70.724-75.71 70.034-34.535-.626-68.732-26.04-68.732-72.708 0-46.648 23.528-73.78 73.028-73.78z"/><path fill="#D6DBE3" d="M214.135 278.505c-27.64 0-51.956-12.75-67.61-32.708H24.208C.742 245.42 0 222.327 0 222.327V60.708C17.953 10.926 63.456 0 63.456 0h118.83c30.962 0 32.007 27.368 32.007 27.368v79.402c47.723.083 85.707 38.105 85.707 85.86 0 47.817-38.068 85.875-85.865 85.875zm-21.61-243.452c-.376-13.68-12.487-13.68-12.487-13.68H63.388l.068 25.524c.266 19.19-18.235 17.018-18.235 17.018H21.61v147.607c-.43 14.232 11.155 13.396 11.155 13.396h101.717c-3.997-9.928-6.238-20.816-6.238-32.29 0-40.378 27.206-73.717 64.458-83.127.022-35.778-.01-68.605-.177-74.447zm21.767 92.96v.43h-4.473c-33.607 2.272-60.333 30.037-60.333 64.187 0 35.634 29.003 64.286 64.647 64.286 35.623 0 64.276-28.652 64.276-64.286.002-35.572-28.547-64.517-64.118-64.616zm32.405 75.15h-21.725v22.05c0 5.893-4.818 10.7-10.743 10.7h-.21c-5.915 0-10.73-4.808-10.73-10.7v-22.07h-21.726c-5.926 0-10.71-4.473-10.71-10.408v-.21c0-5.913 4.784-10.72 10.71-10.72h21.777v-21.736c0-5.915 4.765-10.7 10.68-10.7h.21c5.924 0 10.396 4.785 10.396 10.7v21.4h22.07c5.904 0 10.71 5.142 10.71 11.056v.21c.002 5.933-4.805 10.427-10.71 10.427z"/></g></symbol><symbol id="avatar" viewBox="0 0 300 319.902"><path fill-rule="evenodd" clip-rule="evenodd" fill="#7DBE89" d="M300 319.902l-300-.2 19.766-60.883 61.752-29.507 26.29-13.214-.175-27.18s-20.113-8.742-20.14-30.55c-.808-.056-1.67-.11-2.64-.258-12.994-1.667-24.137-22.065-25.09-35.92-.943-13.846 13.653-15.028 13.653-15.028s6.35.725 9.22.807c-1.2-5.194-6.983-19.132-6.983-46.228 0-16.467 4.398-24.54 13.13-29.8 0-.055-.026-.11-.026-.19 0 0-13.104-31.12 56.923-31.752 4.83.055 9.246.458 13.424 1.035 55.53 3.27 47.833 28.553 46.917 31.11.147.32.313.632.478.952 8.283 5.26 12.535 13.277 12.535 29.305 0 25.227 1.21 38.907-.055 44.882 5.425-.146 6.58-.375 8.32.752.02-.01 12.114-1.934 10.923 14.854-.934 13.818-15.394 34.234-28.405 35.884-.99.146-1.852.202-2.62.257-.056 21.81-20.142 30.57-20.142 30.57l-.165 27.16 26.262 13.213 66.142 29.488L300 319.903z"/></symbol><symbol id="baloon" viewBox="0 0 300 198"><path fill-rule="evenodd" clip-rule="evenodd" fill="#B9BBC4" d="M231.48 158.588h-53.59c.315 2.962-1.27 6.07-3.928 8.755l-32.62 26.938c-.484.488-.946.797-1.424 1.185-.4.417-.81.788-1.286 1.082-.285.178-.555.278-.832.426-.5.247-.955.502-1.48.65-.607.19-1.24.254-1.848.277-.2.016-.4.1-.586.1-.23 0-.5-.084-.747-.107-.21-.038-.41-.054-.625-.1-2.74-.426-5.53-2.252-6.146-6.234-.063-.34-.2-.636-.217-1 0-.145-.07-.224-.07-.37v-31.602H68.512C27.92 158.588 0 117.233 0 76.475 0 35.725 27.92 0 68.51 0h162.972C272.072 0 300 35.724 300 76.475c0 40.758-27.928 82.113-68.52 82.113zM220.977 16.134H78.77c-34.844 0-61.786 28.37-61.786 63.358 0 34.995 26.942 63.356 61.787 63.356h63.282v29.606l31.093-29.606h47.83c34.854 0 62.227-28.36 62.227-63.356 0-34.99-27.374-63.358-62.226-63.358z"/></symbol><symbol id="baloon1" viewBox="0 0 300 300"><g fill-rule="evenodd" clip-rule="evenodd"><path fill="#D0FB99" d="M83.04 224.77l-42.415-32.655s-24.007-31.25-25.423-36.944c-1.4-5.693 15.527-89.495 15.527-89.495L90.103 30.17 157.91 18.8l56.527 8.523L258.25 61.42l28.272 49.706-8.496 51.145-21.175 36.945-22.623 26.963-5.647 31.267 5.647 26.996-26.84-19.878s-21.207-18.472-31.103-22.74c-9.88-4.256-25.423-14.204-25.423-14.204h-33.935L83.04 224.77z"/><path fill="#93B36A" d="M250 213.334v69.913c0 .13-.064.245-.064.36.05 4.187-1.514 8.392-4.704 11.598-3.19 3.225-7.39 4.795-11.604 4.746-.098 0-.195.05-.293.05-5.566 0-10.254-2.896-13.266-7.102l-58.48-58.327h-44.922C52.246 234.57 0 182.053 0 117.278 0 52.503 52.246 0 116.667 0h66.667C247.754 0 300 52.503 300 117.277c0 39.807-19.84 74.886-50 96.057zM183.334 33.508h-66.667c-46.013 0-83.333 37.5-83.333 83.77s37.32 83.785 83.333 83.785H172.9l47.934 48.136-3.55-55.548c29.07-13.105 49.383-42.277 49.383-76.374 0-46.27-37.32-83.77-83.333-83.77z"/></g></symbol><symbol id="calendar" viewBox="0 0 300 319.005"><path fill="inherit" d="M280.84 319.005H19.15C8.583 319.005 0 310.45 0 299.88V57.418c0-10.57 8.582-19.15 19.15-19.15h56.09V18.95C75.24 8.5 75.094 0 85.544 0h15.323c10.45 0 11.632 8.5 11.632 18.95v19.315h74.26V18.95C186.76 8.5 187.932 0 198.41 0h15.295c10.44 0 10.917 8.5 10.917 18.95v19.315h56.218c10.57 0 19.16 8.582 19.16 19.15V299.88c0 10.57-8.59 19.125-19.16 19.125zM262.56 84.628c0-5.284-4.306-9.562-9.58-9.562H47.223c-5.285 0-9.562 4.277-9.562 9.562v188.73c0 5.274 4.276 9.58 9.562 9.58H252.98c5.274 0 9.58-4.306 9.58-9.58V84.627zm-65.122 159.86h-95.024c-4.616 0-8.38-4.177-8.38-9.343v-18.537c0-5.166 3.764-9.36 8.38-9.36h28.108v-56.346h-28.108c-4.616 0-8.38-4.186-8.38-9.352v-18.602c0-5.166 3.764-9.36 8.38-9.36H160.344c4.653 0 8.408 4.194 8.408 9.36v84.299h28.686c4.616 0 8.37 4.194 8.37 9.36v18.537c.002 5.168-3.753 9.344-8.37 9.344z"/></symbol><symbol id="calendar1" viewBox="0 0 300 328.806"><path fill="#00AEEF" d="M285.416 328.806H14.564C6.51 328.806 0 322.26 0 314.22V43.734c0-8.047 6.51-14.585 14.564-14.585H57.32V14.43C57.32 6.47 57.206 0 65.17 0h25.944c7.99 0 8.86 6.47 8.86 14.43v14.718h99.483V14.43c0-7.96.88-14.43 8.86-14.43h25.946c7.97 0 8.29 6.47 8.29 14.43v14.718h42.86c8.053 0 14.584 6.538 14.584 14.585V314.22c.003 8.04-6.53 14.586-14.58 14.586zm-13.93-264.32c0-4.034-3.265-7.307-7.3-7.307H35.973c-4.033 0-7.306 3.27-7.306 7.305v229.527c0 4.033 3.272 7.313 7.306 7.313h228.215c4.034 0 7.3-3.28 7.3-7.313V64.485zM193.29 257.74h-72.386c-3.53 0-6.385-3.21-6.385-7.132v-14.123c0-3.936 2.853-7.133 6.384-7.133l21.41-.083v-85.73h-21.41c-3.53 0-6.385-3.18-6.385-7.11v-14.186c0-3.93 2.853-7.11 6.384-7.11h44.137c3.53 0 6.406 3.18 6.406 7.11V229.352h21.842c3.53 0 6.393 3.196 6.393 7.132v14.123c0 3.923-2.86 7.133-6.39 7.133z"/></symbol><symbol id="chat" viewBox="0 0 30.039 25"><path d="M21.35 20.024h-2.003c-.538.398-.952.768-1.29 1.105l-4.136 3.4c-.06.062-.12.1-.18.15-.052.052-.104.1-.166.137-.032.02-.063.032-.094.05-.067.032-.13.066-.2.086-.075.023-.15.03-.226.034-.026.004-.054.013-.08.013-.03 0-.064-.012-.096-.015-.025-.004-.05-.005-.076-.01-.35-.056-.706-.287-.782-.793-.006-.042-.025-.077-.025-.122 0-.02-.01-.03-.01-.048v-3.99H8.688C3.542 20.024 0 14.802 0 9.656S3.542 0 8.688 0H21.35c5.146 0 8.688 4.51 8.688 9.656 0 5.147-3.542 10.368-8.688 10.368zM20.02 2.037H9.987c-4.418 0-7.834 3.582-7.834 8s3.416 8 7.834 8h4.024v3.737l3.94-3.737h2.066c4.418 0 7.89-3.582 7.89-8 .002-4.418-3.47-8-7.89-8z" fill="#999DA5"/></symbol><symbol id="clock" viewBox="0 0 300 300"><path fill-rule="evenodd" clip-rule="evenodd" fill="#FFF" d="M149.31 29.153c68.555 0 124.146 55.564 124.146 124.128 0 68.593-55.592 124.166-124.147 124.166-68.574 0-124.165-55.573-124.165-124.165 0-68.563 55.59-124.127 124.164-124.127z"/><path fill="#00AEEF" d="M149.996 300C67.162 300 0 232.838 0 149.996 0 67.162 67.162 0 149.996 0 232.84 0 300 67.162 300 149.996 300 232.838 232.84 300 149.996 300zm0-262.49C87.968 37.51 37.51 87.97 37.51 149.997c0 62.036 50.458 112.503 112.486 112.503 62.036 0 112.503-50.468 112.503-112.504 0-62.028-50.468-112.485-112.504-112.485zm37.683 150.005H131.062c-10.267 0-18.57-8.312-18.57-18.58v-56.612c0-10.258 8.303-18.57 18.57-18.57h.363c10.267 0 18.57 8.313 18.57 18.57v28.293c0 5.198 4.2 9.38 9.38 9.38h28.303c10.266 0 18.56 8.31 18.56 18.58v.36c0 10.267-8.295 18.58-18.56 18.58z"/></symbol><symbol id="close" viewBox="0 0 300 300"><path fill-rule="evenodd" clip-rule="evenodd" fill="#425182" d="M185.125 150.53l106 106.003c9.774 9.772 9.774 25.603 0 35.374-9.77 9.772-25.625 9.772-35.397 0L149.725 185.905 43.04 292.617c-9.846 9.845-25.798 9.845-35.655 0-9.846-9.82-9.846-25.823 0-35.67l106.698-106.686L8.117 44.27c-9.772-9.77-9.772-25.613 0-35.385 9.736-9.772 25.566-9.772 35.338 0L149.47 114.887 256.95 7.394c9.87-9.858 25.82-9.858 35.667 0 9.845 9.845 9.845 25.798 0 35.655L185.125 150.53z"/></symbol><symbol id="comment-summary" viewBox="0 0 300 289.311"><path fill="inherit" d="M283.29 0H16.716C7.486 0 0 7.534 0 16.83v255.65c0 9.28 7.485 16.83 16.716 16.83H283.29c9.236 0 16.71-7.55 16.71-16.83V16.83C300 7.534 292.526 0 283.29 0zM33.427 255.65V32.976h133.575v89.645h-33.916c-4.216 0-21.61-.94-21.61 21.883 0 21.08 17.058 22.22 21.61 22.22h33.916v88.928H33.427z"/></symbol><symbol id="currentdate" viewBox="0 0 300 300"><path fill-rule="evenodd" clip-rule="evenodd" fill="#52626E" d="M150.01 300C67.15 300 0 232.86 0 150.01 0 67.15 67.148 0 150.01 0 232.86 0 300 67.148 300 150.01 300 232.86 232.86 300 150.01 300zM60.38 88.43v124.193l77.135-62.237L60.38 88.43zm135.647 17.134c0-8.335-6.746-15.08-15.052-15.08-8.35 0-15.095 6.745-15.095 15.08v90.463c0 8.35 6.744 15.095 15.095 15.095 8.306 0 15.052-6.745 15.052-15.095v-90.463zm45.256 0c0-8.335-6.745-15.08-15.08-15.08-8.32 0-15.08 6.745-15.08 15.08v90.463c0 8.35 6.76 15.095 15.08 15.095 8.335 0 15.08-6.745 15.08-15.095v-90.463z"/></symbol><symbol id="dashboard" viewBox="0 0 300 300"><path fill-rule="evenodd" clip-rule="evenodd" fill="#BEC0CF" d="M291.192 300H173.618c-4.873 0-8.822-3.966-8.822-8.84V173.695c0-4.903 3.95-8.84 8.822-8.84h117.574c4.857 0 8.808 3.937 8.808 8.84V291.16c0 4.874-3.95 8.84-8.808 8.84zm-22.195-104.967h-73.9v75.242h73.9v-75.242zm22.195-59.888H173.618c-4.873 0-8.822-3.98-8.822-8.84V8.84c0-4.875 3.95-8.84 8.822-8.84h117.574C296.05 0 300 3.966 300 8.84v117.465c0 4.86-3.95 8.84-8.808 8.84zM268.997 30.178h-73.9v75.227h73.9V30.178zM126.375 300H8.8c-4.857 0-8.8-3.966-8.8-8.84V173.695c0-4.903 3.943-8.84 8.8-8.84h117.574c4.872 0 8.822 3.937 8.822 8.84V291.16c0 4.874-3.95 8.84-8.82 8.84zm-22.18-104.967H30.292v75.242h73.9v-75.242zm22.18-59.888H8.8c-4.857 0-8.8-3.98-8.8-8.84V8.84C0 3.965 3.943 0 8.8 0h117.574c4.872 0 8.822 3.966 8.822 8.84v117.465c0 4.86-3.95 8.84-8.82 8.84zm-22.18-104.967H30.292v75.227h73.9V30.178z"/></symbol><symbol id="delete" viewBox="0 0 300 300"><path fill-rule="evenodd" clip-rule="evenodd" fill="inherit" d="M281.232 93.744h-18.75v187.488c0 10.363-8.366 18.768-18.73 18.768H56.266c-10.354 0-18.75-8.404-18.75-18.768V93.744H18.76C8.403 93.744 0 85.376 0 75.022 0 64.64 8.403 56.264 18.758 56.264h56.265V18.758C75.023 8.403 83.4 0 93.743 0h112.513c10.345 0 18.748 8.403 18.748 18.758v37.507h56.23c10.362 0 18.767 8.376 18.767 18.758 0 10.353-8.404 18.72-18.768 18.72zm-93.744-56.228h-74.986v18.75h74.986v-18.75zm37.516 206.237v-131.25c0-10.355-8.403-18.76-18.748-18.76H93.744c-10.345 0-18.722 8.404-18.722 18.76v131.25c0 5.163 2.097 9.87 5.475 13.256 3.388 3.387 8.084 5.474 13.247 5.474h112.512c5.18 0 9.85-2.087 13.237-5.475 3.424-3.388 5.51-8.094 5.51-13.257zm-37.516-18.75h-74.986c-10.354 0-18.758-8.403-18.758-18.748 0-10.362 8.404-18.767 18.758-18.767h74.986c10.363 0 18.768 8.404 18.768 18.767 0 10.345-8.404 18.75-18.768 18.75zm0-56.245h-74.986c-10.354 0-18.758-8.386-18.758-18.75s8.404-18.748 18.758-18.748h74.986c10.363 0 18.768 8.386 18.768 18.75s-8.404 18.748-18.768 18.748z"/></symbol><symbol id="document-info" viewBox="0 0 300 300.005"><path fill-rule="evenodd" clip-rule="evenodd" fill="inherit" d="M150.003 300.005C67.286 300.005 0 232.72 0 150.003 0 67.293 67.286 0 150.003 0 232.713 0 300 67.292 300 150.003c0 82.717-67.286 150.002-149.997 150.002zM115.86 128.862c-3.695 3.695-16.213 15.63-16.213 20.772 0 1.695 1.71 3.694 3.694 3.694 5.114 0 18.762-24.754 29.303-24.754 2.27 0 4.836 2.564 2.836 7.677l-19.908 50.07c-1.983 4.823-11.666 28.165-11.666 41.813 0 10.8 7.112 15.626 17.36 15.626 28.736 0 62.005-35.273 62.005-43.51 0-2.565-1.988-4.26-3.4-4.26-3.988 0-19.637 24.166-28.178 24.166-2.27 0-3.4-1.978-3.4-3.977 0-4.544 3.128-11.672 4.824-15.932l20.483-55.463c10.246-27.59-2.848-34.98-15.084-34.98-16.484.002-31.28 8.25-42.656 19.057zm58.305-71.394c-12.52 0-23.33 10.23-23.33 22.75 0 11.665 7.682 19.347 19.353 19.347 12.812 0 23.613-9.666 23.613-22.75 0-11.664-8.258-19.347-19.635-19.347z"/></symbol><symbol id="dropdown-icn" viewBox="0 0 15.999 15.999"><path fill-rule="evenodd" clip-rule="evenodd" fill="#68749B" d="M13.656 13.656c-3.125 3.124-8.19 3.124-11.313 0-3.124-3.125-3.124-8.19 0-11.313 3.124-3.125 8.188-3.125 11.313 0 3.124 3.124 3.124 8.188 0 11.313zm-1.414-9.9C9.9 1.414 6.1 1.414 3.757 3.757c-2.344 2.343-2.344 6.144 0 8.486 2.343 2.344 6.143 2.344 8.485 0 2.343-2.343 2.343-6.143 0-8.485zm-4.26 7.223l-3.69-3.305c-.18-.18-.292-.43-.292-.707 0-.552.448-1 1-1 .546 0 .707.293.707.293L8 8.18l2.262-1.886c.182-.183.432-.294.707-.294.55 0 1 .448 1 1 0 .546-.295.707-.295.707L7.982 10.98z"/></symbol><symbol id="dropdown" viewBox="0 0 300.005 300"><path fill-rule="evenodd" clip-rule="evenodd" fill="inherit" d="M256.07 256.052c-58.597 58.597-153.543 58.597-212.122 0-58.597-58.58-58.597-153.543 0-212.104 58.58-58.598 153.525-58.598 212.123 0 58.58 58.56 58.58 153.525 0 212.104zM229.556 70.445c-43.93-43.966-115.18-43.966-159.11 0-43.947 43.93-43.947 115.18 0 159.11 43.93 43.947 115.18 43.947 159.11 0 43.948-43.93 43.948-115.18 0-159.11zM149.68 205.878L80.516 143.91c-3.388-3.387-5.512-8.056-5.512-13.238 0-10.365 8.424-18.75 18.77-18.75 10.236 0 13.258 5.493 13.258 5.493l42.996 35.964 42.41-35.38c3.405-3.406 8.093-5.494 13.257-5.494 10.347 0 18.75 8.387 18.75 18.75 0 10.255-5.51 13.26-5.51 13.26l-69.255 61.362z"/></symbol><symbol id="file-tab" viewBox="0 0 300 329.646"><path fill-rule="evenodd" clip-rule="evenodd" fill="inherit" d="M248.155 329.646l-196.018-.266C23.86 329.38 0 303.43 0 275.9L1.18 57.56S-.44.258 48.708.258c0 0 158.783-.258 160.46-.258L300 107.546V281.03c0 27.53-23.547 48.616-51.845 48.616zm23.84-200.586h-36.557c-28.465 0-49.44-18.663-49.44-46.43 0 0-.21-23.03 0-53.83H53.82C39.8 28.8 27.09 41.93 27.09 55.54v219.244c0 13.625 12.708 26.733 26.732 26.733H245.25c14.028 0 26.745-13.108 26.745-26.733V129.06zm-57.015 128.8H85.194c-7.595 0-13.765-6.177-13.765-13.765 0-7.603 6.17-13.765 13.764-13.765H214.98c7.616 0 13.792 6.162 13.792 13.765 0 7.59-6.175 13.765-13.792 13.765zm0-57.81H85.194c-7.595 0-13.765-6.164-13.765-13.766 0-7.588 6.17-13.765 13.764-13.765H214.98c7.616 0 13.792 6.176 13.792 13.764 0 7.602-6.175 13.765-13.792 13.765z"/></symbol><symbol id="file" viewBox="0 0 300 317.714"><g fill-rule="evenodd" clip-rule="evenodd"><path fill="#FAE696" d="M20.93 272.927L16.874 161.27l23.143-59.905 21.79-29.96 50.418-36.763 51.715-20.42h78.99s21.808 12.25 27.236 20.42c5.466 8.153 19.085 66.724 19.085 66.724s1.354 66.705 2.725 81.695c1.335 14.99-6.82 70.82-8.19 77.62-1.334 6.836 0 42.264-14.953 42.264-15.008 0-50.417 1.316-64.036 1.316H108.13c-9.543 0-61.295-5.41-61.295-5.41L20.93 272.926z"/><path fill="#9A9EA5" d="M265.158 317.714H42.356C1.298 317.02 0 276.656 0 276.656V106.228C31.406 19.12 111 0 111 0h132.99C298.17 0 300 47.895 300 47.895v226.75c-.055 35.94-34.842 43.07-34.842 43.07zM261.92 61.35C261.264 37.4 240.077 37.4 240.077 37.4H110.89l.11 44.66c.456 33.544-31.9 29.778-31.9 29.778H37.786v145.878c-.73 24.897 19.523 23.472 19.523 23.472h180.664c25.43.73 24.058-23.947 24.058-23.947s.548-171.947-.11-195.894z"/></g></symbol><symbol id="file11" viewBox="0 0 300 356.741"><g fill-rule="evenodd" clip-rule="evenodd"><path fill="#AFB5BF" d="M255.194 356.74H55.396C2.616 355.88 0 303.975 0 303.975V90.166C35.136 3.736 112.244 0 112.244 0h115.758C297.622 0 300 61.57 300 61.57v245.2c-.07 46.2-44.806 49.97-44.806 49.97zM275.754 74.1c-.38-54.62-47.95-50.003-47.95-50.003H97.206l.103 32.445c-1.22 28.813-40.405 32.636-40.405 32.636H24.158V282.25c.075 56.174 46.616 50.058 46.616 50.058h156.92c51.246.214 48.195-48.743 48.195-48.743s.103-174.586-.135-209.467z"/><path fill="#B7BCC5" d="M194.836 237.76v29.26c0 .048-.024.095-.024.15.024 2.044-.744 4.08-2.297 5.642-1.562 1.553-3.598 2.32-5.642 2.297-.048 0-.104.023-.15.023-2.702 0-4.976-1.41-6.45-3.438l-28.49-28.262h-21.846c-31.368 0-56.8-25.426-56.8-56.786 0-31.368 25.432-56.797 56.8-56.797h40.567c31.36 0 56.785 25.43 56.785 56.797 0 22.612-13.32 41.977-32.454 51.112zm-24.332-91.68h-40.567c-22.415 0-40.574 18.168-40.574 40.567 0 22.407 18.16 40.566 40.574 40.566h27.383l21.084 21.084v-.618l.205.205v-5.27c-.056.017-.12 0-.183.017l.087-16.234c18.572-3.717 32.557-20.102 32.557-39.75 0-22.4-18.168-40.568-40.566-40.568z"/></g></symbol><symbol id="file12" viewBox="0 0 300 356.742"><path fill-rule="evenodd" clip-rule="evenodd" fill="#AFB5BF" d="M255.194 356.742h-199.8C2.614 355.878 0 303.972 0 303.972V90.167C35.135 3.736 112.248 0 112.248 0h115.754C297.622 0 300 61.57 300 61.57v245.2c-.07 46.2-44.806 49.972-44.806 49.972zm20.56-282.644c-.38-54.62-47.95-50.003-47.95-50.003H97.206l.103 32.446c-1.22 28.814-40.405 32.636-40.405 32.636H24.158v193.072c.075 56.176 46.616 50.06 46.616 50.06h156.92c51.246.214 48.196-48.744 48.196-48.744s.102-174.584-.135-209.466z"/><path fill="#23B33E" d="M154.27 259.667c-40.33 0-73.018-32.69-73.018-73.02 0-40.326 32.688-73.018 73.017-73.018s73.02 32.69 73.02 73.016c0 40.33-32.692 73.02-73.02 73.02zm0-130.032c-31.433 0-57.013 25.58-57.013 57.012 0 31.438 25.58 57.015 57.012 57.015 31.43 0 57.014-25.576 57.014-57.015 0-31.432-25.584-57.012-57.015-57.012zm34.853 44.64L142.21 219.75l-11.358-11.314-13.343-13.77c-3.48-3.582-3.994-8.716-.4-12.202l.122-.127c3.58-3.462 8.506-2.6 11.976.982l13.354 13.785 35.413-34.327c3.58-3.478 8.724-3.98 12.186-.4 0 0 5.064 5.99-1.037 11.897z"/></symbol><symbol id="file13" viewBox="0 0 300 317.714"><path fill-rule="evenodd" clip-rule="evenodd" fill="#AFB5BF" d="M265.158 317.714H42.356C1.298 317.02 0 276.656 0 276.656V106.228C31.406 19.13 111 0 111 0h132.99C298.17 0 300 47.904 300 47.904v226.74c-.055 35.94-34.842 43.07-34.842 43.07zM261.92 61.358c-.657-23.966-21.844-23.966-21.844-23.966H110.89L111 82.06c.456 33.545-31.9 29.78-31.9 29.78H37.786v145.877c-.73 24.897 19.523 23.472 19.523 23.472h180.664c25.43.73 24.058-23.948 24.058-23.948s.548-171.946-.11-195.884zM75.08 205.984h149.77v18.72H75.08v-18.72zm0-56.158h149.77v18.683H75.08v-18.684z"/></symbol><symbol id="file14" viewBox="0 0 300 356.742"><path fill="#AFB5BF" d="M255.193 356.742H55.396C2.616 355.878 0 303.974 0 303.974V90.166C35.136 3.736 112.244 0 112.244 0h115.758C297.622 0 300 61.57 300 61.57v245.2c-.07 46.2-44.807 49.972-44.807 49.972zm20.562-282.644c-.38-54.62-47.95-50.003-47.95-50.003h-130.6l.104 32.445c-1.22 28.813-40.405 32.636-40.405 32.636H24.158V282.25c.075 56.174 46.616 50.06 46.616 50.06h156.92c51.245.213 48.194-48.744 48.194-48.744s.105-174.587-.133-209.468z"/><path fill="#93B36A" d="M194.836 237.76v29.26c0 .048-.023.095-.023.15.023 2.044-.744 4.08-2.297 5.642-1.563 1.553-3.6 2.32-5.643 2.297-.048 0-.104.022-.15.022-2.7 0-4.976-1.41-6.45-3.438l-28.49-28.262h-21.845c-31.368 0-56.8-25.426-56.8-56.786 0-31.368 25.432-56.797 56.8-56.797h40.567c31.36 0 56.785 25.428 56.785 56.796 0 22.613-13.32 41.98-32.454 51.113zm-24.332-91.68h-40.567c-22.415 0-40.574 18.168-40.574 40.567 0 22.407 18.16 40.565 40.574 40.565h27.383l21.084 21.084v-.617l.205.204v-5.268c-.056.016-.12 0-.184.016l.087-16.234c18.572-3.717 32.557-20.102 32.557-39.75 0-22.4-18.168-40.568-40.566-40.568z"/></symbol><symbol id="file_1" viewBox="0 0 300 341.02"><path fill-rule="evenodd" clip-rule="evenodd" fill="#9A9EA5" d="M262.58 341.02H45.47C1.406 340.272 0 296.947 0 296.947v-182.94C33.728 20.53 119.172 0 119.172 0h120.72C298 0 300 51.425 300 51.425v243.402c-.067 38.567-37.42 46.193-37.42 46.193zm10.17-288.823c-.692-25.688-23.448-25.688-23.448-25.688H109.587l-.926 47.917c.507 36.033-38.42 45.62-38.42 45.62H25.883v168.142c-.793 26.715 20.977 25.208 20.977 25.208h200.203c27.288.773 25.822-25.742 25.822-25.742s.587-209.743-.134-235.46zM82.467 218.495H232.64v27.274H82.465v-27.275zm-.5-54.617h150.14v27.3H81.965v-27.3zm54.776-54.617h95.362v27.31h-95.362v-27.31z"/></symbol><symbol id="hamburger" viewBox="0 0 300 238"><path fill="currentColor" d="M0 47.61V0h300v47.61H0zm0 95.203V95.188h300v47.625H0zM0 238v-47.624h300V238H0z"/></symbol><symbol id="icon1" viewBox="0 0 300 356.65"><path fill-rule="evenodd" clip-rule="evenodd" fill="#AFB5BF" d="M179.9 215.91l17.666 7.953s-13.653 2.383-23.594 19.2c-8.327 14.09-13.028 24.442-13.028 24.442H73.288l-.238-20c-.063-16.273 12.22-20.152 12.22-20.152l34.62-11.468 11.723-6.332-.07-13.052s-8.755-4.194-8.787-14.673c-.38-.023-.776-.063-1.25-.127-6.253-.79-11.6-10.59-12.05-17.246-.468-6.64 4.958-7.21 4.958-7.21l4.725 1.566s-2.06-6.174-2.06-23.388c0-7.907 2.114-11.785 6.31-14.31 0-.023-.016-.063-.016-.103 0 0-6.292-14.928 27.338-15.237 32.41.31 32.332 28.09 32.332 28.09l-.104 10.202-.965 13.368c.34-.127 4.574-.19 5.002-.19 3.783 0 3.482 7.52 3.482 7.52s-4.552 16.146-10.797 16.938c-.554.08-1.005.112-1.44.144-1.132 8.588-9.814 14.39-9.814 14.39v13.66l11.49 6.015zm95.714 38.686c.024-50.987.04-154.592-.15-180.577-.38-54.558-47.9-49.952-47.9-49.952H97.104l.103 32.41c-1.22 28.787-40.36 32.603-40.36 32.603H24.132v192.87c.075 56.115 46.566 50.006 46.566 50.006H198l3.482 9.6 29.926 14.81H55.337C2.612 355.502 0 303.653 0 303.653V90.07C35.1 3.73 112.13 0 112.13 0h115.632c69.547 0 71.922 61.506 71.922 61.506v201.772l-24.07-8.682z"/><path fill="#19C1E5" d="M227.05 356.65c-40.287 0-72.944-32.656-72.944-72.95 0-40.28 32.657-72.936 72.943-72.936S300 243.42 300 283.7c0 40.294-32.664 72.95-72.95 72.95zm0-129.89c-31.407 0-56.948 25.55-56.948 56.938 0 31.406 25.54 56.956 56.947 56.956 31.397 0 56.954-25.55 56.954-56.956 0-31.39-25.557-56.938-56.955-56.938zm27.44 64.664h-19.432v19.724c0 4.986-2.928 9.03-7.914 9.03h-.19c-4.98 0-7.907-4.044-7.907-9.03v-19.724H199.61c-4.987 0-9.023-2.636-9.023-7.622v-.19c0-4.985 4.036-8.184 9.022-8.184h19.16v-19.16c0-4.987 3.206-9.032 8.185-9.032h.19c4.986 0 7.914 4.045 7.914 9.03v19.162h19.43c4.987 0 9.03 3.198 9.03 8.185v.19c0 4.986-4.043 7.62-9.03 7.62z"/></symbol><symbol id="icon11" viewBox="0 0 300 340.644"><path fill="#AFB5BF" d="M243.41 224.847c.02-45.03.027-136.528-.126-159.473-.33-48.186-42.31-44.11-42.31-44.11H85.755l.088 28.61c-1.076 25.43-35.65 28.795-35.65 28.795H21.31v170.335c.08 49.56 41.124 44.162 41.124 44.162H174.88l3.06 8.473 26.43 13.1H48.874C2.31 313.954 0 268.17 0 268.17V79.547C30.994 3.296 99.028 0 99.028 0h102.12c61.413 0 63.51 54.315 63.51 54.315v178.207l-21.25-7.675zm-84.747-64.377c-.476.07-.88.098-1.266.125-1 7.584-8.66 12.7-8.66 12.7v12.072l10.135 5.312 15.602 7.024s-12.057 2.11-20.83 16.958c-7.354 12.44-11.498 21.578-11.498 21.578H64.72l-.21-17.657c-.056-14.37 10.807-17.79 10.807-17.79l30.57-10.128 10.353-5.606-.076-11.52s-7.73-3.705-7.74-12.96c-.348-.02-.7-.056-1.124-.11-5.508-.7-10.23-9.35-10.64-15.226-.4-5.875 4.388-6.375 4.388-6.375l4.177 1.387s-1.82-5.452-1.82-20.655c0-6.986 1.862-10.405 5.56-12.64 0-.03-.01-.055-.01-.086 0 0-5.55-13.193 24.146-13.46 28.618.267 28.562 24.81 28.562 24.81l-.098 9.005-.86 11.808c.315-.112 4.048-.168 4.426-.168 3.34 0 3.075 6.65 3.075 6.65s-4.02 14.25-9.542 14.95z"/><path fill="#19C1E5" d="M235.58 340.644c-35.578 0-64.42-28.84-64.42-64.42s28.842-64.42 64.42-64.42 64.42 28.84 64.42 64.42-28.84 64.42-64.42 64.42zm0-114.713c-27.728 0-50.3 22.564-50.3 50.294 0 27.73 22.57 50.3 50.3 50.3 27.73 0 50.294-22.57 50.294-50.3 0-27.73-22.565-50.293-50.293-50.293zm24.242 57.116H242.64v17.412c0 4.41-2.572 7.976-6.983 7.976h-.153c-4.41 0-6.99-3.565-6.99-7.976v-17.412h-17.167c-4.404 0-7.97-2.335-7.97-6.746v-.153c0-4.41 3.565-7.24 7.97-7.24h16.93v-16.924c0-4.397 2.816-7.962 7.228-7.962h.153c4.41 0 6.983 3.565 6.983 7.963v16.923h17.183c4.396 0 7.962 2.83 7.962 7.24v.154c0 4.41-3.567 6.746-7.963 6.746z"/></symbol><symbol id="icon12" viewBox="0 0 300 356.659"><path fill-rule="evenodd" clip-rule="evenodd" fill="#AFB5BF" d="M179.896 215.913l17.666 7.955s-13.653 2.39-23.587 19.2c-8.326 14.09-13.02 24.435-13.02 24.435h-87.67l-.237-19.993c-.062-16.273 12.236-20.144 12.236-20.144l34.617-11.47 11.723-6.347-.087-13.046s-8.754-4.194-8.766-14.674c-.393-.023-.792-.063-1.27-.127-6.238-.79-11.597-10.586-12.048-17.238-.455-6.652 4.967-7.22 4.967-7.22l4.728 1.572s-2.062-6.174-2.062-23.39c0-7.91 2.11-11.78 6.297-14.31 0-.036-.012-.063-.012-.1 0 0-6.284-14.938 27.343-15.24 32.404.302 32.34 28.09 32.34 28.09l-.11 10.2-.974 13.367c.355-.126 4.582-.19 5.01-.19 3.783 0 3.482 7.532 3.482 7.532s-4.55 16.135-10.804 16.926c-.538.08-.997.11-1.433.143-1.132 8.588-9.807 14.382-9.807 14.382v13.67l11.478 6.016zm95.724 38.69c.024-50.99.032-154.597-.143-180.578-.37-54.562-47.91-49.947-47.91-49.947H97.106l.1 32.396C95.984 85.27 56.837 89.08 56.837 89.08h-32.71v192.876c.092 56.117 46.568 50.007 46.568 50.007H198.02l3.467 9.593 29.927 14.832H55.342C2.616 355.502 0 303.658 0 303.658V90.073C35.095 3.732 112.13 0 112.13 0h115.636c69.54 0 71.915 61.503 71.915 61.503v201.773l-24.06-8.674z"/><path fill="#F3B93E" d="M278.635 335.295c-28.494 28.485-74.67 28.485-103.164 0-28.48-28.494-28.48-74.67 0-103.164 28.495-28.478 74.67-28.478 103.165 0 28.487 28.495 28.487 74.67 0 103.165zm-11.302-91.846c-22.21-22.21-58.35-22.21-80.543-.017-22.21 22.21-22.21 58.35 0 80.543 22.194 22.21 58.334 22.21 80.543 0 22.194-22.194 22.194-58.332 0-80.527zm-11.62 23.07l-45.852 45.853c-3.165 3.158-8.294 3.158-11.468 0-3.158-3.166-3.158-8.303 0-11.47l45.852-45.85c3.166-3.167 8.295-3.167 11.47 0 3.165 3.174 3.165 8.302 0 11.468zm0 45.853c-3.174 3.158-8.303 3.158-11.47 0l-45.85-45.852c-3.16-3.165-3.16-8.294 0-11.468 3.173-3.166 8.302-3.166 11.468 0l45.853 45.852c3.166 3.166 3.166 8.303 0 11.47z"/></symbol><symbol id="icon13" viewBox="0 0 300 356.771"><path fill-rule="evenodd" clip-rule="evenodd" fill="#AFB5BF" d="M255.208 356.77H55.4C2.62 355.894 0 303.986 0 303.986V90.178C35.13 3.736 112.248 0 112.248 0h115.767C297.623 0 300 61.578 300 61.578v245.205c-.063 46.217-44.792 49.988-44.792 49.988zM275.77 74.11c-.38-54.617-47.953-50-47.953-50H97.197L97.3 56.54c-1.207 28.83-40.4 32.642-40.4 32.642H24.145V282.26c.088 56.178 46.618 50.076 46.618 50.076h156.94c51.234.206 48.2-48.754 48.2-48.754s.104-174.594-.134-209.474z"/><path fill="#F3B93E" d="M205.908 238.3c-28.524 28.524-74.75 28.524-103.275 0-28.508-28.517-28.508-74.755 0-103.268 28.525-28.524 74.75-28.524 103.275 0 28.517 28.513 28.517 74.75 0 103.268zm-11.322-91.956c-22.233-22.218-58.393-22.218-80.626 0-22.233 22.232-22.233 58.408 0 80.625 22.233 22.232 58.393 22.232 80.626 0 22.233-22.218 22.233-58.394 0-80.626zm-11.624 23.1l-45.9 45.9c-3.174 3.17-8.305 3.17-11.478 0-3.17-3.17-3.17-8.304 0-11.473l45.904-45.9c3.17-3.157 8.305-3.157 11.474 0 3.17 3.17 3.17 8.317 0 11.474zm0 45.902c-3.17 3.17-8.304 3.17-11.474 0l-45.904-45.9c-3.17-3.158-3.17-8.305 0-11.475 3.173-3.156 8.304-3.156 11.477 0l45.902 45.902c3.17 3.17 3.17 8.304 0 11.474z"/></symbol><symbol id="icon15" viewBox="0 0 300 356.771"><g fill-rule="evenodd" clip-rule="evenodd"><path fill="#AFB5BF" d="M255.208 356.77H55.4C2.62 355.894 0 303.986 0 303.986V90.178C35.13 3.736 112.248 0 112.248 0h115.767C297.623 0 300 61.578 300 61.578v245.205c-.063 46.217-44.792 49.988-44.792 49.988zM275.77 74.11c-.38-54.617-47.953-50-47.953-50H97.197L97.3 56.54c-1.207 28.83-40.4 32.642-40.4 32.642H24.145V282.26c.088 56.178 46.618 50.076 46.618 50.076h156.94c51.234.206 48.2-48.754 48.2-48.754s.104-174.594-.134-209.474z"/><path fill="#CADBB3" d="M194.84 221.55v29.27c0 .047-.024.087-.024.15.008 2.036-.73 4.072-2.29 5.634-1.56 1.56-3.613 2.312-5.65 2.29-.055 0-.086.022-.15.022-2.693 0-4.96-1.395-6.44-3.406l-28.493-28.27h-21.865c-31.37 0-56.796-25.436-56.796-56.805 0-31.36 25.427-56.792 56.796-56.792h40.58c31.37 0 56.796 25.43 56.796 56.792-.002 22.614-13.33 41.98-32.465 51.114zm-24.334-91.688h-40.58c-22.396 0-40.564 18.17-40.564 40.572 0 22.4 18.17 40.568 40.564 40.568h27.19l21.487 25.608v-26.424c18.525-3.764 32.463-20.135 32.463-39.753 0-22.402-18.17-40.57-40.56-40.57z"/></g></symbol><symbol id="icon2" viewBox="0 0 300.008 356.655"><path fill-rule="evenodd" clip-rule="evenodd" fill="#AFB5BF" d="M179.91 215.923l17.666 7.946s-13.654 2.39-23.596 19.2c-8.326 14.09-13.027 24.442-13.027 24.442h-87.66l-.237-19.993c-.063-16.274 12.22-20.153 12.22-20.153L119.9 215.89l11.722-6.332-.07-13.044s-8.755-4.195-8.787-14.675c-.38-.032-.776-.064-1.25-.127-6.254-.792-11.605-10.59-12.047-17.255-.475-6.64 4.955-7.203 4.955-7.203l4.727 1.567s-2.058-6.182-2.058-23.397c0-7.9 2.112-11.778 6.307-14.31 0-.016-.016-.063-.016-.095 0 0-6.29-14.936 27.34-15.245 32.412.31 32.333 28.1 32.333 28.1l-.104 10.193-.967 13.37c.34-.12 4.575-.183 5.003-.183 3.783 0 3.482 7.52 3.482 7.52s-4.55 16.146-10.796 16.938c-.555.08-1.006.11-1.44.143-1.132 8.58-9.815 14.39-9.815 14.39v13.66l11.492 6.017zm95.72 38.688c.016-50.988.03-154.596-.158-180.59-.38-54.558-47.898-49.943-47.898-49.943H97.11l.103 32.404c-1.22 28.788-40.367 32.61-40.367 32.61H24.14v192.875c.072 56.117 46.565 50.007 46.565 50.007H198.01l3.483 9.593 29.927 14.817H55.342C2.612 355.512 0 303.67 0 303.67V90.072C35.104 3.736 112.14 0 112.14 0h115.632c69.545 0 71.92 61.516 71.92 61.516v201.77l-24.062-8.675z"/><path fill="#F3B93E" d="M278.638 335.297c-28.48 28.48-74.675 28.48-103.16 0-28.48-28.478-28.48-74.67 0-103.148 28.485-28.495 74.682-28.495 103.16 0 28.494 28.476 28.494 74.67 0 103.147zm-11.303-91.846c-22.21-22.21-58.346-22.21-80.54 0-22.21 22.194-22.21 58.334 0 80.528 22.194 22.21 58.33 22.21 80.54 0 22.21-22.194 22.21-58.333 0-80.527zm-11.62 23.08l-45.848 45.845c-3.166 3.166-8.303 3.166-11.47 0s-3.165-8.295 0-11.46l45.857-45.86c3.166-3.166 8.295-3.166 11.46 0s3.168 8.31.002 11.476zm0 45.845c-3.165 3.166-8.294 3.166-11.46 0L198.4 266.53c-3.167-3.165-3.167-8.31 0-11.476s8.302-3.166 11.468 0l45.85 45.86c3.164 3.166 3.164 8.295-.002 11.46z"/></symbol><symbol id="icon4" viewBox="0 0 300 356.75"><path fill-rule="evenodd" clip-rule="evenodd" fill="#AFB5BF" d="M255.187 356.75H55.39C2.615 355.878 0 303.98 0 303.98V90.167C35.13 3.74 112.24 0 112.24 0h115.77C297.623 0 300 61.58 300 61.58v245.19c-.08 46.21-44.813 49.98-44.813 49.98zm20.568-282.652c-.38-54.614-47.95-49.995-47.95-49.995H97.2l.103 32.438c-1.22 28.817-40.4 32.645-40.4 32.645H24.15v193.072c.08 56.176 46.62 50.06 46.62 50.06H227.69c51.247.205 48.19-48.744 48.19-48.744s.11-174.59-.127-209.475z"/><path fill="#00AEEF" d="M210.832 251.276H97.63c-4.573 0-8.273-3.708-8.273-8.27v-104.89c0-4.562 3.7-8.27 8.272-8.27h24.276v-8.36c0-4.523-.08-8.19 4.453-8.19h6.623c4.524 0 5.023 3.667 5.023 8.19v8.36h32.13v-8.36c0-4.523.514-8.19 5.038-8.19h6.61c4.534 0 4.724 3.667 4.724 8.19v8.36h24.324c4.564 0 8.27 3.708 8.27 8.27v104.89c.002 4.562-3.706 8.27-8.27 8.27zm-7.907-101.385c0-2.273-1.854-4.135-4.15-4.135h-88.99c-2.29 0-4.137 1.862-4.137 4.136v81.642c0 2.28 1.847 4.15 4.136 4.15h88.99c2.297 0 4.15-1.87 4.15-4.15v-81.64zm-28.18 69.155h-41.098c-1.997 0-3.613-1.807-3.613-4.04v-8.02c0-2.234 1.616-4.057 3.613-4.057h12.154v-24.37h-12.154c-1.997 0-3.613-1.808-3.613-4.042v-8.05c0-2.227 1.616-4.04 3.613-4.04h25.07c2.004 0 3.628 1.813 3.628 4.04v36.461h12.4c2.004 0 3.633 1.822 3.633 4.057v8.02c0 2.234-1.63 4.04-3.634 4.04z"/></symbol><symbol id="icon5" viewBox="0 0 300.004 356.742"><g fill-rule="evenodd" clip-rule="evenodd"><path fill="#AFB5BF" d="M255.198 356.742h-199.8C2.616 355.878 0 303.972 0 303.972V90.167C35.14 3.74 112.256 0 112.256 0h115.75c69.62 0 71.998 61.57 71.998 61.57v245.2c-.07 46.2-44.806 49.972-44.806 49.972zM275.76 74.098c-.38-54.623-47.95-50.004-47.95-50.004H97.217l.095 32.446c-1.22 28.81-40.41 32.635-40.41 32.635H24.167v193.073c.07 56.175 46.612 50.06 46.612 50.06h156.92c51.246.213 48.195-48.745 48.195-48.745s.104-174.587-.133-209.465z"/><path fill="#CADBB3" d="M194.84 221.54v29.262c0 .047-.023.087-.023.15.016 2.036-.745 4.08-2.3 5.64-1.56 1.555-3.596 2.308-5.64 2.283-.048 0-.104.024-.15.024-2.687 0-4.96-1.396-6.434-3.416l-28.492-28.27h-21.86c-31.375 0-56.8-25.427-56.8-56.802 0-31.353 25.425-56.778 56.8-56.778h40.568c31.36 0 56.785 25.426 56.785 56.778 0 22.62-13.318 41.993-32.453 51.13zm-24.332-91.695H129.94c-22.415 0-40.566 18.176-40.566 40.567 0 22.414 18.152 40.574 40.566 40.574h27.17l21.503 25.6V210.17c18.516-3.755 32.46-20.133 32.46-39.758 0-22.39-18.167-40.567-40.565-40.567z"/></g></symbol><symbol id="icon_15" viewBox="0 0 300.001 300.009"><path fill-rule="evenodd" clip-rule="evenodd" fill="#222F38" d="M43.94 256.067c-58.587-58.59-58.587-153.57 0-212.126 58.59-58.587 153.547-58.587 212.12 0 58.587 58.557 58.587 153.538 0 212.127-58.573 58.588-153.53 58.588-212.12 0zm188.737-23.4c45.66-45.658 45.66-119.667 0-165.334-45.66-45.66-119.677-45.66-165.344 0-45.66 45.667-45.66 119.676 0 165.335 45.667 45.676 119.684 45.676 165.344 0zM94.103 149.67l61.976-69.156c3.37-3.403 8.075-5.496 13.253-5.496 10.34 0 18.742 8.402 18.742 18.75 0 10.242-5.487 13.28-5.487 13.28l-35.954 42.98L182 192.413c3.405 3.436 5.49 8.11 5.49 13.254 0 10.373-8.403 18.776-18.743 18.776-10.242 0-13.255-5.488-13.255-5.488l-61.39-69.286z"/></symbol><symbol id="icon_16" viewBox="0 0 300.001 300.009"><path fill-rule="evenodd" clip-rule="evenodd" fill="#222F38" d="M256.06 256.067c-58.588 58.588-153.546 58.588-212.118 0-58.588-58.59-58.588-153.57 0-212.126 58.572-58.587 153.53-58.587 212.118 0 58.587 58.557 58.587 153.54 0 212.127zm-188.736-23.4c45.66 45.677 119.677 45.677 165.344 0 45.66-45.658 45.66-119.667 0-165.334-45.667-45.66-119.684-45.66-165.344 0-45.66 45.667-45.66 119.676 0 165.335zm138.573-82.997l-61.39 69.287s-3.012 5.488-13.254 5.488c-10.34 0-18.742-8.403-18.742-18.776 0-5.146 2.085-9.82 5.49-13.255l35.366-42.387-35.954-42.98s-5.487-3.037-5.487-13.28c0-10.347 8.402-18.75 18.742-18.75 5.178 0 9.884 2.093 13.254 5.497l61.977 69.155z"/></symbol><symbol id="img-tab" viewBox="0 0 300 299.994"><path fill-rule="evenodd" clip-rule="evenodd" fill="inherit" d="M262.517 299.994H37.49C16.79 299.994 0 283.21 0 262.51V37.483C0 16.783 16.79 0 37.49 0h225.026C283.216 0 300 16.784 300 37.483V262.51c0 20.7-16.784 37.484-37.483 37.484zm11.363-255.72c0-10.337-8.405-18.735-18.76-18.735H44.88c-10.356 0-18.754 8.397-18.754 18.734v164.53l64.094-64.47 44.48 48.16 87.005-86.874 52.138 50.87.037-112.216zm-182.5 87.05c-21.7 0-39.27-17.51-39.27-39.108 0-21.58 17.57-39.084 39.27-39.084 21.675 0 39.25 17.505 39.25 39.084 0 21.598-17.575 39.11-39.25 39.11zm-.12-52.748c-7.774 0-13.66 5.465-13.66 13.238s5.886 13.245 13.66 13.245 13.244-5.473 13.244-13.246-5.472-13.238-13.245-13.238z"/></symbol><symbol id="left-slider" viewBox="0 0 300.001 300.009"><path fill-rule="evenodd" clip-rule="evenodd" fill="inherit" d="M43.94 256.067c-58.587-58.59-58.587-153.57 0-212.126 58.59-58.587 153.547-58.587 212.12 0 58.587 58.557 58.587 153.538 0 212.127-58.573 58.588-153.53 58.588-212.12 0zm188.737-23.4c45.66-45.658 45.66-119.667 0-165.334-45.66-45.66-119.677-45.66-165.344 0-45.66 45.667-45.66 119.676 0 165.335 45.667 45.676 119.684 45.676 165.344 0zM94.103 149.67l61.976-69.156c3.37-3.403 8.075-5.496 13.253-5.496 10.34 0 18.742 8.402 18.742 18.75 0 10.242-5.487 13.28-5.487 13.28l-35.954 42.98L182 192.413c3.405 3.436 5.49 8.11 5.49 13.254 0 10.373-8.403 18.776-18.743 18.776-10.242 0-13.255-5.488-13.255-5.488l-61.39-69.286z"/></symbol><symbol id="link" viewBox="0 0 200 524.396"><path fill="#52626E" d="M74.898 324.286V200.72h49.973v123.566H74.9zm75.496-74.228V75.228c0-16.43-8.702-25.547-25.182-25.547H73.29c-16.48 0-23.55 8.24-23.55 24.67v175.708C6.644 250.058 0 218.076 0 196.038V58.262C0 25.305 29.412 0 62.37 0h76.615C171.918 0 200 25.304 200 58.26v137.78c0 22.036-6.972 54.018-49.606 54.018zm-12.067 274.338H61.71c-32.933 0-61.015-25.303-61.015-58.26V328.33c0-22.012 6.97-53.995 49.607-53.995v175.71c0 16.43 8.727 24.67 25.18 24.67h51.9c16.502 0 23.62-8.192 23.62-24.647V274.337c48.315 0 48.803 31.983 48.803 53.995v137.803c0 32.958-28.52 58.26-61.478 58.26z"/></symbol><symbol id="linkIcon" viewBox="0 0 300 300"><path fill-rule="evenodd" clip-rule="evenodd" fill="#52626E" d="M211.748 144.497c-3.405-3.368-5.492-8.074-5.492-13.237 0-10.354 8.386-18.758 18.748-18.758 5.164 0 9.87 2.097 13.257 5.475l37.498 37.507-26.53 26.53-37.48-37.517zm-5.492 42.99c0 10.364-8.404 18.768-18.768 18.768-5.163 0-9.87-2.105-13.237-5.51l-74.995-74.996c-3.414-3.38-5.51-8.058-5.51-13.248 0-10.354 8.403-18.758 18.757-18.758 5.19 0 9.87 2.096 13.247 5.51l75.013 74.996c3.386 3.37 5.493 8.075 5.493 13.238zM93.744 37.518v.94c-3.012-.63-6.16-.94-9.375-.94-25.872 0-46.855 20.98-46.855 46.853 0 12.963 5.246 24.663 13.732 33.15l-26.53 26.52C9.467 128.76 0 107.687 0 84.37 0 37.8 37.8 0 84.37 0c2.15 0 4.184.348 6.252.63C91.685.458 92.654 0 93.744 0c10.354 0 18.758 8.403 18.758 18.758 0 10.353-8.404 18.758-18.758 18.758zM88.27 155.482c3.387 3.387 5.475 8.093 5.475 13.274 0 10.363-8.367 18.73-18.722 18.73-5.19 0-9.87-2.088-13.283-5.475l-37.48-37.515 26.503-26.52 37.507 37.506zm117.986 107v-.952c3.04.642 6.15.953 9.374.953 25.89 0 46.854-21 46.854-46.854 0-12.946-5.255-24.664-13.714-33.16l26.513-26.53C290.553 171.23 300 192.305 300 215.63c0 46.598-37.772 84.37-84.37 84.37-2.16 0-4.193-.35-6.262-.642-1.062.184-1.996.642-3.112.642-10.363 0-18.768-8.404-18.768-18.768 0-10.344 8.405-18.75 18.768-18.75z"/></symbol><symbol id="lock1" viewBox="0 0 300 342.89"><path fill-rule="evenodd" clip-rule="evenodd" fill="#DBDCE0" d="M214.304 342.89H85.707C38.38 342.89 0 304.51 0 257.173v-85.718c0-23.69 19.2-42.87 42.87-42.87v-21.438C42.87 47.985 90.823 0 150.016 0c59.16 0 107.146 47.985 107.146 107.146v21.44c23.668 0 42.837 19.18 42.837 42.868v85.718c0 47.338-38.38 85.718-85.696 85.718zm-85.717-91.682v27.373c0 11.866 9.595 21.43 21.43 21.43 11.845 0 21.43-9.563 21.43-21.43V251.21c12.765-7.408 21.407-21.073 21.407-36.915 0-23.67-19.17-42.838-42.837-42.838-23.658 0-42.87 19.17-42.87 42.838 0 15.842 8.685 29.507 21.44 36.915zm21.43-208.33c-35.524 0-64.31 28.776-64.31 64.27 0 7.574 1.55 14.69 3.966 21.438H210.37c2.386-6.75 3.934-13.864 3.934-21.44 0-35.492-28.795-64.267-64.287-64.267z"/></symbol><symbol id="logo" viewBox="0 0 374.267 81.077"><path fill="#304075" d="M87.894 69.223c-9.874.01-17.602-3.014-23.18-9.066-5.583-6.053-8.398-13.854-8.45-23.398l-.012-2.45C56.2 24.396 58.85 16.273 64.2 9.945 69.553 3.615 76.94.465 86.365.5c8.894-.01 15.732 2.707 20.516 8.148 4.78 5.443 7.198 12.775 7.247 21.996l.05 9.24-39.474.04-.183.364c.31 4.53 1.706 8.2 4.19 11.012 2.482 2.814 6.15 4.217 11.008 4.213 3.998-.004 7.392-.414 10.182-1.234 2.79-.817 5.67-2.064 8.64-3.74l4.895 11.01c-2.642 2.167-6.22 3.983-10.743 5.458-4.52 1.47-9.454 2.21-14.798 2.215zM86.44 14.268c-3.593.002-6.35 1.238-8.274 3.71-1.926 2.47-3.08 5.745-3.467 9.825l.123.307 21.788-.02-.007-1.347c-.02-3.877-.832-6.926-2.436-9.146-1.602-2.222-4.18-3.333-7.728-3.33zM221.153 49.45c-.012-1.957-.97-3.64-2.874-5.045-1.905-1.406-5.43-2.635-10.577-3.69-7.76-1.546-13.658-3.886-17.692-7.024-4.036-3.136-6.067-7.397-6.096-12.782-.03-5.67 2.35-10.508 7.145-14.512C195.85 2.392 202.246.388 210.244.38c8.362-.008 15.074 1.986 20.136 5.98 5.06 3.993 7.504 8.968 7.33 14.925l-.118.367-17.26.018c-.013-2.652-.882-4.813-2.603-6.486-1.723-1.67-4.197-2.504-7.42-2.5-2.855.002-5.116.717-6.782 2.148-1.667 1.43-2.492 3.184-2.48 5.264.01 2.043.886 3.7 2.628 4.984 1.74 1.285 5.264 2.436 10.575 3.447 8.128 1.627 14.19 4.018 18.185 7.176 3.994 3.158 6.006 7.512 6.035 13.06.033 5.958-2.492 10.835-7.57 14.634-5.082 3.8-11.803 5.7-20.166 5.71-8.812.01-15.792-2.22-20.936-6.68-5.145-4.464-7.608-9.55-7.396-15.263l.12-.37 16.342-.013c.14 3.55 1.317 6.118 3.528 7.708 2.212 1.59 5.093 2.383 8.643 2.38 3.305-.005 5.82-.67 7.55-1.995 1.723-1.33 2.58-3.136 2.568-5.423zM273.77 69.045c-9.873.01-17.6-3.012-23.18-9.064-5.582-6.054-8.397-13.853-8.45-23.4l-.01-2.448c-.054-9.912 2.595-18.035 7.948-24.365C255.43 3.44 262.818.29 272.243.322c8.894-.008 15.732 2.71 20.515 8.15 4.78 5.44 7.197 12.775 7.247 21.994l.048 9.24-39.473.037-.183.367c.31 4.53 1.707 8.2 4.19 11.014 2.482 2.813 6.15 4.217 11.008 4.21 3.998 0 7.392-.41 10.183-1.233 2.79-.815 5.67-2.063 8.64-3.74l4.893 11.015c-2.64 2.162-6.22 3.982-10.74 5.455-4.52 1.47-9.454 2.212-14.8 2.215zm-1.454-54.955c-3.59.004-6.35 1.24-8.272 3.71-1.926 2.472-3.08 5.747-3.467 9.827l.124.305 21.788-.02-.008-1.348c-.02-3.875-.832-6.924-2.436-9.146-1.602-2.22-4.178-3.33-7.728-3.328zM349.6 1.417c-18.218-5.38-37.35 5.028-42.73 23.248s5.03 37.352 23.25 42.73c0 0 0 .002.002.002l-4.043 13.68 29.72-16.198c.342-.18.68-.364 1.016-.555l.25-.136-.01-.004c7.373-4.255 13.193-11.23 15.794-20.04 5.38-18.218-5.03-37.35-23.25-42.73z"/><path fill="#FFF" d="M354.8 31.217c-1.454-8.252-9.32-13.763-17.572-12.31-8.253 1.453-13.764 9.32-12.31 17.572.728 4.137 3.07 7.583 6.262 9.81l-.01.003 17.262 11.597-1.377-10.692c5.6-3.02 8.908-9.373 7.745-15.98z"/><path fill="#304075" d="M58.288 1.73H37.675l-15.76 24.964-3.977.002.037-24.966H0v66.287l18.156-.01-.146-27.723 4.527-.006 18.508 27.707 20.563-.022L36.936 31.94M137.207 67.882c.01-15.232.026-42.788-.008-44.855-.057-3.41 2.776-6.187 4.79-7.19 2.014-1.002 4.348-1.502 7-1.506 3.305-.003 5.79.985 7.45 2.962 1.665 1.977 2.51 5.332 2.534 10.064l-.074 40.526h17.976l.03-40.604c-.05-9.3-1.964-16.104-5.74-20.402-3.777-4.303-9.012-6.45-15.702-6.443-3.998.004-7.604.947-10.816 2.824-3.214 1.88-5.913 4.516-8.1 7.904l-.006-9.485-17.505.01v66.198h18.17z"/></symbol><symbol id="more-menu" viewBox="0 0 300 236.769"><path fill-rule="evenodd" clip-rule="evenodd" fill="inherit" d="M264.03 154.706l.017-63.85L300 122.796l-35.97 31.91zM118.383 236.77C53.004 236.77 0 183.77 0 118.39 0 53.002 53.003 0 118.384 0c65.38 0 118.37 53.003 118.37 118.39 0 65.38-52.99 118.38-118.37 118.38zM54.424 99.09c-10.918 0-19.758 8.853-19.758 19.76 0 10.905 8.84 19.744 19.757 19.744 10.904 0 19.744-8.84 19.744-19.743 0-10.907-8.84-19.76-19.744-19.76zm63.275 0c-10.905 0-19.744 8.853-19.744 19.76 0 10.905 8.84 19.744 19.743 19.744 10.916 0 19.756-8.84 19.756-19.743 0-10.907-8.84-19.76-19.757-19.76zm63.287 0c-10.903 0-19.742 8.853-19.742 19.76 0 10.905 8.84 19.744 19.742 19.744 10.904 0 19.753-8.84 19.753-19.743 0-10.907-8.848-19.76-19.753-19.76z"/></symbol><symbol id="more" viewBox="0 0 300 300.014"><path fill="inherit" d="M150.003 300.014C67.16 300.014 0 232.854 0 150.004 0 67.16 67.16 0 150.003 0 232.853 0 300 67.16 300 150.003c0 82.85-67.147 150.01-149.997 150.01zm0-271.15c-66.788 0-121.14 54.352-121.14 121.14 0 66.796 54.352 121.14 121.14 121.14 66.796 0 121.14-54.344 121.14-121.14 0-66.79-54.344-121.14-121.14-121.14zM75.005 165.002v-29.99h30.014V165H75.004zm60.006 0v-29.99h29.992V165h-29.99zm60.007 0v-29.99H225V165h-29.983z"/></symbol><symbol id="next-page-icon" viewBox="0 0 300 324.12"><path fill="#222F38" d="M11.91 69.434S0 62.9 0 40.66C0 18.215 10.748 0 33.203 0 44.456 0 54.65 4.54 62.016 11.908l134.4 150.03-133.14 150.273s-6.56 11.91-28.812 11.91c-22.404 0-33.202-18.217-33.202-40.722 0-11.152 4.592-21.345 11.91-28.712l86.387-91.99-87.65-93.262zm249.323 247.924c-21.407 0-38.754-17.358-38.754-38.754V46.096c0-21.408 17.346-38.754 38.753-38.754 21.41 0 38.767 17.346 38.767 38.754v232.51c0 21.394-17.358 38.752-38.767 38.752z"/></symbol><symbol id="notify" viewBox="0 0 300 321.443"><path fill-rule="evenodd" clip-rule="evenodd" fill="#425182" d="M200.39 271.937c-5.18 25.456-23.372 49.507-50.354 49.507-27.005 0-44.653-24.05-49.834-49.507L0 271.32l38.94-88.147v-66.975C38.94 54.538 88.926 0 150.57 0c61.636 0 111.628 54.538 111.628 116.198v66.975L300 271.888l-99.61.05zm36.618-88.958l.642-67.278c0-49.968-37.137-91.596-87.08-91.596-49.95 0-87.578 41.06-87.578 91.026v69.578L37.61 247.387h226.488l-27.09-64.408z"/></symbol><symbol id="paused" viewBox="0 0 300 300"><path fill="#FC830D" d="M149.993 300C67.157 300 0 232.83 0 149.993S67.157 0 149.993 0 300 67.157 300 149.993 232.83 300 149.993 300zm0-270.4C83.613 29.6 29.6 83.612 29.6 149.993c0 66.38 54.012 120.393 120.393 120.393 66.38 0 120.393-54.013 120.393-120.393S216.373 29.6 149.993 29.6zm-30.01 180.413c-8.28 0-14.992-6.71-14.992-15.02V104.99c0-8.308 6.712-15.02 14.992-15.02 8.294 0 15.005 6.712 15.005 15.02v90.003c0 8.31-6.71 15.02-15.005 15.02zm60.034 0c-8.31 0-15.02-6.71-15.02-15.02V104.99c0-8.308 6.71-15.02 15.02-15.02 8.266 0 14.977 6.712 14.977 15.02v90.003c0 8.31-6.71 15.02-14.977 15.02z"/></symbol><symbol id="pdfnpng" viewBox="0 0 300 484.9"><path opacity=".62" fill="#636F97" d="M299.126 166.843l-39.673 103.18c-2.59 6.736-10.146 10.094-16.88 7.508l-84.41-32.455c-6.733-2.59-10.09-10.15-7.504-16.882L190.33 125.01c2.59-6.732 10.147-10.09 16.88-7.504l84.41 32.457c6.733 2.59 10.093 10.148 7.504 16.88zm-11.623-10.152l-81.74-31.43c-3.364-1.293-7.143.388-8.437 3.753L174.97 187.15l31.626-14.856 8.146 19.946 44.23-19.956 17.456 31.758 14.827-38.914c1.293-3.365-.387-7.144-3.752-8.437zm-76.442 9.526c-7.25-2.785-10.878-10.897-8.103-18.116 2.777-7.22 10.906-10.81 18.155-8.024 7.252 2.79 10.88 10.902 8.104 18.122-2.775 7.215-10.903 10.81-18.155 8.018zm7.26-18.62c-3.165-1.216-6.718.36-7.933 3.527-1.217 3.166.36 6.72 3.524 7.933 3.168 1.218 6.722-.362 7.94-3.524 1.214-3.166-.363-6.72-3.53-7.937zm31.297 198.664l-41.427 45.15c-3.31 3.598-8.905 3.84-12.507.536L140.495 341.3c-3.6-3.3-3.84-8.902-.534-12.502l41.43-45.15c3.302-3.598 8.905-3.84 12.503-.536l55.188 50.646c3.604 3.3 3.846 8.905.537 12.502zm-58.76-58.612c-1.8-1.65-4.596-1.53-6.25.267l-40.12 43.725c-1.652 1.798-1.53 4.6.27 6.25l31.094 28.532-1.505-23.627 14.594-.18-1.59-32.837 24.354-3.115-20.848-19.015zm-32.67 51.432c-3.862-3.542-4.107-9.56-.546-13.438 3.56-3.88 9.572-4.15 13.435-.604 3.862 3.54 4.104 9.56.546 13.438-3.556 3.873-9.576 4.148-13.433.604zm9.375-10.062c-1.692-1.555-4.325-1.442-5.875.25-1.555 1.695-1.44 4.325.25 5.878 1.692 1.556 4.325 1.442 5.88-.25 1.553-1.694 1.44-4.325-.255-5.878zm57.442 107.453l-27.308 45.396c-1.78 2.96-5.63 3.92-8.592 2.138l-37.136-22.338c-2.96-1.786-3.92-5.63-2.136-8.592l27.305-45.395c1.783-2.967 5.628-3.922 8.59-2.142l37.14 22.34c2.962 1.782 3.917 5.627 2.137 8.593zm-4.644-5.76l-35.96-21.63c-1.48-.89-3.402-.41-4.296 1.068l-15.385 25.576 16.16-4.38 2.186 10.09L205.6 435.7l5.6 16.436 10.23-17.13c.892-1.48.412-3.404-1.07-4.296zm-36.87-1.86c-3.186-1.918-4.224-6.053-2.313-9.227 1.91-3.177 6.042-4.195 9.233-2.275 3.19 1.918 4.23 6.047 2.32 9.226-1.91 3.172-6.047 4.195-9.24 2.275zm4.978-8.188c-1.394-.837-3.2-.387-4.04 1.007s-.386 3.197 1.008 4.035c1.39.84 3.198.39 4.036-1.004.838-1.388.387-3.198-1.004-4.038z"/><path opacity=".7" fill-rule="evenodd" clip-rule="evenodd" fill="#636F97" d="M172.708 140.507l-88.216 19.92c-7.036 1.59-14.026-2.83-15.614-9.86L44.524 42.733c-1.588-7.037 2.827-14.03 9.863-15.62l88.217-19.92c7.035-1.59 14.027 2.825 15.614 9.86L182.57 124.89c1.59 7.038-2.826 14.032-9.862 15.62zm-21.983-120.5c-.796-3.514-4.29-5.723-7.808-4.93l-85.424 19.29c-3.518.792-5.722 4.29-4.93 7.81L66.28 102.93l18.043-29.924 17.853 12.054 25.687-41.163L160.02 60.6l-9.295-40.593zm-66.07 45.466c-7.58 1.713-15.103-3.014-16.804-10.56-1.704-7.544 3.056-15.047 10.635-16.76 7.578-1.71 15.103 3.017 16.807 10.56 1.705 7.547-3.06 15.05-10.637 16.76zm-4.31-19.517c-3.31.75-5.387 4.035-4.636 7.345.745 3.306 4.03 5.383 7.34 4.636 3.305-.746 5.38-4.035 4.635-7.34-.747-3.31-4.036-5.387-7.34-4.64z"/><g opacity=".62"><use xlink:href="#pdfnpng-c" overflow="visible" fill="#FFF"/></g><path fill="#636F97" d="M285.242 66.255L223.93 109.28c-4.005 2.806-9.523 1.838-12.333-2.16l-35.194-50.16c-2.812-4.004-1.84-9.52 2.16-12.332l61.316-43.02c4-2.812 9.52-1.84 12.325 2.16l35.196 50.16c2.81 4.002 1.842 9.52-2.158 12.327zm-2.696-10.1L248.46 7.578c-1.4-2-4.16-2.482-6.164-1.08l-34.544 24.24 23.4 3.604-2.958 14.29 32.41 5.5-2.19 24.46 23.05-16.277c1.998-1.405 2.483-4.165 1.082-6.163zM249.2 34.964c-4.292 3.01-10.216 1.956-13.24-2.352-3.023-4.307-1.997-10.242 2.29-13.252 4.29-3.01 10.22-1.955 13.244 2.352 3.022 4.308 1.998 10.242-2.295 13.253zm-2.12-10.08c-1.32-1.88-3.914-2.334-5.794-1.017-1.88 1.322-2.336 3.916-1.014 5.797 1.318 1.88 3.91 2.335 5.792 1.018 1.88-1.323 2.334-3.916 1.016-5.797zm-97.24 268.188l-80.528 41.152c-6.42 3.282-14.292.737-17.574-5.685L1.434 230.103c-3.282-6.426-.738-14.293 5.683-17.574l80.532-41.156c6.422-3.282 14.29-.735 17.573 5.687l50.305 98.44c3.28 6.42.74 14.29-5.688 17.573zM98.692 181.777c-1.644-3.21-5.576-4.487-8.788-2.843l-77.98 39.85c-3.215 1.64-4.486 5.576-2.844 8.787l28.34 55.462 10.068-33.458 20.284 7.252 14.684-46.24 35.293 8.213-19.058-37.023zm-52.746 60.415c-6.92 3.537-15.38.818-18.9-6.068-3.52-6.887-.763-15.337 6.156-18.868 6.914-3.536 15.376-.823 18.895 6.066 3.52 6.885.768 15.334-6.15 18.87zm-.75-15.167c-1.543-3.02-5.243-4.215-8.26-2.672-3.02 1.543-4.217 5.24-2.674 8.26s5.237 4.216 8.26 2.673c3.02-1.543 4.217-5.242 2.674-8.26z"/><use xlink:href="#pdfnpng-d" overflow="visible" fill="#FFF"/><path opacity=".7" fill="#FFF" d="M102.724 124.848c-1.275 2.733-3.5 4.46-6.674 5.176-3.218.73-5.977.133-8.278-1.776l-.32.07c.7 2.097 1.1 3.377 1.204 3.836l2.352 10.416-5.403 1.217-8.295-36.736 4.368-.987c.23.446.738 1.526 1.526 3.23l.275-.063c1.103-2.955 3.342-4.815 6.714-5.573 3.172-.718 5.902-.125 8.19 1.772 2.293 1.9 3.906 4.925 4.844 9.078.94 4.157.767 7.6-.504 10.34zm-5.047-9.13c-.642-2.85-1.634-4.897-2.97-6.132-1.332-1.238-2.97-1.637-4.916-1.196-2.147.484-3.572 1.468-4.276 2.947-.704 1.48-.746 3.598-.125 6.357l.183.805c.7 3.096 1.696 5.227 2.988 6.394 1.298 1.163 3.058 1.496 5.28.992 1.866-.42 3.134-1.512 3.8-3.272.666-1.764.678-4.062.037-6.895zm29.783 6.732l-3.53-15.635c-.443-1.96-1.17-3.336-2.177-4.123-1.01-.788-2.368-.988-4.085-.6-2.285.517-3.802 1.567-4.557 3.156-.75 1.588-.77 3.967-.053 7.14l2.86 12.668-5.404 1.22-5.74-25.426 4.232-.955 1.508 3.16.276-.064c.495-1.383 1.37-2.562 2.633-3.538 1.26-.98 2.748-1.663 4.465-2.05 6.098-1.376 9.85 1.037 11.255 7.245l3.744 16.577-5.427 1.226zm34.102 1.722c-2.02 2.1-5.278 3.655-9.767 4.673-3.463.78-6.248.763-8.35-.05-2.1-.813-3.405-2.355-3.917-4.623-.354-1.563-.154-2.99.592-4.276.75-1.293 1.963-2.344 3.647-3.16-.788-.142-1.492-.5-2.114-1.08-.625-.576-1.016-1.238-1.188-1.99-.217-.95-.13-1.816.258-2.596s1.038-1.613 1.95-2.492c-1.445-.272-2.725-.955-3.833-2.047-1.11-1.095-1.855-2.5-2.244-4.218-.625-2.76-.237-5.093 1.16-7.002 1.396-1.91 3.706-3.23 6.924-3.957.72-.163 1.488-.283 2.3-.362.81-.08 1.426-.107 1.852-.09l8.804-1.99.67 2.968-4.165 1.784c.522.446 1.002 1.03 1.436 1.755.438.72.754 1.522.955 2.393.59 2.622.15 4.89-1.316 6.8-1.472 1.908-3.79 3.22-6.965 3.938-.81.184-1.56.288-2.248.316-1 .984-1.393 1.956-1.176 2.923.13.583.5.96 1.113 1.125.607.167 1.64.087 3.096-.243l4.44-1c2.8-.634 5.07-.518 6.793.35 1.726.866 2.843 2.425 3.352 4.68.65 2.882-.035 5.37-2.06 7.472zm-13.844-19.15c3.126-.71 4.314-2.73 3.56-6.074-.375-1.654-1.05-2.842-2.025-3.563-.976-.72-2.255-.905-3.835-.55-1.563.354-2.646 1.066-3.25 2.138-.6 1.066-.714 2.455-.33 4.156.362 1.594 1.05 2.725 2.063 3.4 1.013.67 2.285.837 3.818.492zm11.09 13.464c-.25-1.1-.82-1.796-1.718-2.088-.892-.288-2.415-.192-4.56.295l-4.095.922c-1.546.35-2.692.992-3.443 1.925-.746.934-.98 2.02-.7 3.265.263 1.162.992 1.942 2.185 2.334 1.19.39 2.738.37 4.635-.06 2.944-.663 5.04-1.58 6.29-2.747 1.25-1.166 1.72-2.45 1.405-3.847z"/></symbol><symbol id="previous-page-icon" viewBox="0 0 300 324.12"><path fill="#222F38" d="M288.09 69.434l-87.648 93.263 86.388 91.99c7.317 7.367 11.91 17.56 11.91 28.712 0 22.504-10.8 40.72-33.203 40.72-22.254 0-28.813-11.908-28.813-11.908l-133.14-150.27 134.4-150.034C245.35 4.54 255.543 0 266.796 0 289.252 0 300 18.216 300 40.658c0 22.24-11.91 28.776-11.91 28.776zM38.767 317.358C17.358 317.358 0 300 0 278.604V46.096C0 24.688 17.358 7.342 38.766 7.342S77.52 24.688 77.52 46.096v232.51c0 21.394-17.346 38.752-38.754 38.752z"/></symbol><symbol id="processing" viewBox="0 0 300 300"><path fill="#4D97FA" d="M150 300C67.15 300 0 232.85 0 150.004 0 67.156 67.15 0 150 0s150 67.156 150 150.004C300 232.85 232.85 300 150 300zm0-271.127c-66.797 0-121.133 54.32-121.133 121.13 0 66.78 54.335 121.13 121.133 121.13 66.783 0 121.133-54.35 121.133-121.13 0-66.81-54.35-121.13-121.133-121.13zm70.682 132.12c-5.87 5.887-15.404 5.887-21.29 0l-42.624-42.607c-5.885-5.885-5.885-15.434 0-21.32 5.886-5.884 15.404-5.884 21.29 0l42.624 42.624c5.884 5.885 5.884 15.42 0 21.304zm0 0l-42.624 42.624c-5.886 5.884-15.404 5.884-21.29 0-5.885-5.886-5.885-15.45 0-21.334l42.624-42.593c5.886-5.885 15.42-5.885 21.29 0 5.884 5.885 5.884 15.42 0 21.304zm-75.317 0c-5.885 5.887-15.434 5.887-21.32 0l-42.608-42.607c-5.885-5.885-5.885-15.434 0-21.32 5.885-5.884 15.42-5.884 21.305 0l42.624 42.624c5.884 5.885 5.884 15.42 0 21.304zm0 0l-42.624 42.624c-5.884 5.884-15.418 5.884-21.304 0-5.885-5.886-5.885-15.45 0-21.334l42.61-42.593c5.884-5.885 15.433-5.885 21.318 0 5.886 5.885 5.886 15.42 0 21.304z"/></symbol><symbol id="projects" viewBox="0 0 299.645 323.207"><path fill="#425182" d="M257.83 265.795l-15.28-.1v2.895c0 27.01-16.587 54.616-47.157 54.616H43.123C20.3 323.206 0 302.44 0 269.74V86.47c0-22.197 16.006-39.764 38.807-39.764l18.598-.304.14-2.586C57.546 21.612 74.212.214 97.03.214 97.03.214 225.06 0 226.39 0l73.253 86.72v139.898c0 22.197-18.987 39.177-41.816 39.177zM57.742 222.47V68.855l-14.338.333c-11.32 0-20.53 10.243-20.53 21.223v185.54c0 10.986 10.237 24.474 21.562 24.474H195.9c21.85 0 24.226-17.59 23.482-34.728l3.054-.034-122.642-.067c-22.816-.002-42.05-20.927-42.05-43.124zm219.31-118.415h-29.455c-22.964 0-39.877-15.042-39.877-37.438 0 0-.18-18.564 0-43.388H102.444c-11.325 0-21.562 10.574-21.562 21.56v176.78c0 10.974 10.238 21.556 21.563 21.556h153.042c11.324 0 21.567-10.582 21.567-21.557V104.054zM219.45 149.77h-93c-6.142 0-11.11-4.97-11.11-11.094 0-6.135 4.968-11.104 11.11-11.104h93c6.142 0 11.11 4.97 11.11 11.104 0 6.124-4.968 11.093-11.11 11.093zm0 46.615h-93c-6.142 0-11.11-4.97-11.11-11.11 0-6.118 4.968-11.088 11.11-11.088h93c6.142 0 11.11 4.97 11.11 11.088 0 6.142-4.968 11.11-11.11 11.11z"/></symbol><symbol id="replace" viewBox="0 0 300 318.557"><path fill-rule="evenodd" clip-rule="evenodd" fill="#DBDCE0" d="M283.148 243.432H168.584v58.255c0 9.315-7.555 16.87-16.852 16.87H16.87c-9.334 0-16.87-7.555-16.87-16.87v-135.12c0-9.297 7.536-16.852 16.87-16.852h114.564V91.46c0-9.295 7.555-16.85 16.85-16.85H283.15c9.315 0 16.852 7.555 16.852 16.85v135.103c0 9.334-7.536 16.87-16.852 16.87zm-151.713-16.87v-38.817H37.553v93.883h93.882v-55.065zm131.434-113.94h-93.883v93.863h93.882v-93.863zM73.527 74.775H90.58c32.383-.825 6.64 19.565 6.64 19.565l-32.364 33.574c-2.476 2.438-5.83 3.96-9.59 3.96-7.37 0-9.57-3.96-9.57-3.96l-32.347-32.97c-22.92-22.92 6.252-20.17 5.445-20.17h18.813C38.47 27.542 80.02 0 130.426 0v17.035c-35.664 0-59.025 23.82-56.898 57.74z"/></symbol><symbol id="reviewrequest" viewBox="0 0 300 300"><path fill-rule="evenodd" clip-rule="evenodd" fill="#425182" d="M256.123 246.844V300l-55.544-31.982c-7.29 1.194-14.775 1.886-22.463 1.886-36.097 0-69.92-11.938-92.23-33.762 2.062.126 24.242.355 31.054-.188 17.626 12.126 36.904 13.048 61.178 13.048 8.378 0 16.473-.942 24.264-2.575l32.746 20.965 1.12-31.354c21.09-18.912 42.003-40.36 42.003-71.607 0-19.754-7.54-33.096-20.167-47.872-.493-8.99-.63-30.923-.545-29.766C282.375 99.85 300 132.847 300 163.257c0 34.118-15.383 64.046-43.877 83.587zm-134.24-33.195c-7.68 0-15.17-.692-22.458-1.865L42.38 244.122v-53.177C13.886 171.445 0 141.125 0 107.007 0 48.117 54.57 0 121.883 0c67.303 0 124.49 48.118 124.49 107.007 0 58.91-57.187 106.642-124.49 106.642zm0-192.66c-56.957 0-100.887 38.014-100.887 87.19 0 31.264 14.556 58.7 42.757 74.597v25.74l32.75-16.462c7.787 1.612 17 1.822 25.38 1.822C178.83 193.877 225 157.372 225 108.18c0-49.176-46.17-87.19-103.117-87.19zm38.725 139.984H85.54c-5.92 0-10.717-4.817-10.717-10.723 0-5.92 4.796-10.723 10.718-10.723h75.068c5.917 0 10.713 4.802 10.713 10.724 0 5.907-4.795 10.724-10.712 10.724zm0-42.903H85.54c-5.92 0-10.717-4.796-10.717-10.717 0-5.917 4.796-10.72 10.718-10.72h75.068c5.917 0 10.713 4.803 10.713 10.72 0 5.92-4.795 10.718-10.712 10.718zm0-42.887H85.54c-5.92 0-10.717-4.8-10.717-10.723 0-5.917 4.796-10.718 10.718-10.718h75.068c5.917 0 10.713 4.8 10.713 10.718 0 5.922-4.795 10.723-10.712 10.723z"/></symbol><symbol id="right-slider" viewBox="0 0 300.001 300.009"><path fill-rule="evenodd" clip-rule="evenodd" fill="inherit" d="M256.06 256.067c-58.588 58.588-153.546 58.588-212.118 0-58.588-58.59-58.588-153.57 0-212.126 58.572-58.587 153.53-58.587 212.118 0 58.587 58.557 58.587 153.54 0 212.127zm-188.736-23.4c45.66 45.677 119.677 45.677 165.344 0 45.66-45.658 45.66-119.667 0-165.334-45.667-45.66-119.684-45.66-165.344 0-45.66 45.667-45.66 119.676 0 165.335zm138.573-82.997l-61.39 69.287s-3.012 5.488-13.254 5.488c-10.34 0-18.742-8.403-18.742-18.776 0-5.146 2.085-9.82 5.49-13.255l35.366-42.387-35.954-42.98s-5.487-3.037-5.487-13.28c0-10.347 8.402-18.75 18.742-18.75 5.178 0 9.884 2.093 13.254 5.497l61.977 69.155z"/></symbol><symbol id="search-file" viewBox="0 0 300 312.861"><path opacity=".8" fill-rule="evenodd" clip-rule="evenodd" fill="#425182" d="M256.438 312.86l-212.666-.222c-23.74 0-43.772-21.78-43.772-44.9L.974 48.326S-.386.21 40.886.21c0 0 181.427-.21 182.823-.21L300 90.314v181.743c0 23.12-19.797 40.804-43.562 40.804zm20.02-204.497h-30.687c-23.903 0-41.52-15.667-41.52-38.984 0 0-.187-19.33 0-45.206H45.193c-11.794 0-22.473 11.03-22.473 22.46V266.8c0 11.43 10.678 22.45 22.472 22.45H254.01c11.78 0 22.45-11.02 22.45-22.45V108.363zm-47.855 120.18H71.538c-6.384 0-11.57-5.163-11.57-11.56 0-6.383 5.186-11.56 11.57-11.56h157.064c6.384 0 11.56 5.177 11.56 11.56 0 6.397-5.176 11.56-11.56 11.56zm0-48.536H71.538c-6.384 0-11.57-5.176-11.57-11.56s5.186-11.56 11.57-11.56h157.064c6.384 0 11.56 5.176 11.56 11.56s-5.176 11.56-11.56 11.56z"/></symbol><symbol id="search-folder" viewBox="0 0 300 288.439"><path fill-rule="evenodd" clip-rule="evenodd" fill="#68749B" d="M253.838 288.44H46.158C20.67 288.44 0 267.774 0 242.276V46.147C0 20.664 20.67 0 46.157 0h69.227c25.487 0 46.15 20.665 46.15 46.146h92.304c25.486 0 46.162 20.664 46.162 46.15v149.98c0 25.5-20.676 46.163-46.162 46.163zm23.075-149.98V92.297c0-12.743-10.332-23.075-23.075-23.075h-115.38V46.146c0-12.75-10.342-23.07-23.074-23.07H46.157c-12.744 0-23.076 10.32-23.076 23.07v196.132c0 12.743 10.333 23.087 23.077 23.087h207.68c12.744 0 23.076-10.344 23.076-23.087V138.46zm-57.688 92.302H138.46c-6.366 0-11.538-5.183-11.538-11.538v-23.086h-46.15c-6.378 0-11.54-5.172-11.54-11.538v-80.765c0-6.377 5.16-11.538 11.54-11.538h80.764c6.366 0 11.538 5.16 11.538 11.538v23.075h46.15c6.378 0 11.538 5.16 11.538 11.538v80.775c0 6.356-5.16 11.54-11.537 11.54zm-69.227-115.39H92.32v57.69h34.602V138.45c0-6.378 5.172-11.54 11.537-11.54h11.538v-11.537zm57.678 34.603h-57.678v57.7h57.678v-57.7z"/></symbol><symbol id="search-pic" viewBox="0 0 300 300"><path fill-rule="evenodd" clip-rule="evenodd" fill="#636F97" d="M262.488 300h-225C16.782 300 0 283.218 0 262.488v-225C0 16.782 16.782 0 37.49 0h225C283.22 0 300 16.782 300 37.49v225c0 20.728-16.78 37.51-37.512 37.51zM277.15 41.03c0-10.376-8.39-18.767-18.756-18.767H41.604c-10.364 0-18.755 8.39-18.755 18.767v178.805L92.3 147.45l42.384 45.046L225 103.128l52.5 57.45-.35-119.548zM98.008 126.564c-22.31 0-40.398-18-40.398-40.207 0-22.196 18.09-40.207 40.398-40.207 22.308 0 40.387 18.01 40.387 40.207 0 22.207-18.08 40.207-40.387 40.207zm.27-57.383c-9.744 0-17.64 7.896-17.64 17.64 0 9.722 7.896 17.617 17.64 17.617 9.722 0 17.617-7.895 17.617-17.617 0-9.745-7.895-17.64-17.617-17.64z"/></symbol><symbol id="search" viewBox="0 0 300 315.451"><path fill-rule="evenodd" clip-rule="evenodd" fill="#454C62" d="M294.746 284.602c7.006 7.047 7.006 18.488 0 25.548-3.53 3.517-8.11 5.3-12.7 5.3-4.606 0-9.2-1.783-12.704-5.3l-59.544-60.018c-4.12 2.94-11.48 5.064-20.247 6.652-16.847 7.61-35.505 11.94-55.187 11.94C60.163 268.724 0 208.564 0 134.364S60.162 0 134.363 0c74.2 0 134.362 60.162 134.362 134.363 0 32.66-11.678 62.575-31.03 85.854-.828 1.482-1.616 3.11-2.495 4.37l59.546 60.015zM134.363 25.85C74.53 25.85 25.85 74.53 25.85 134.362c0 59.833 48.68 108.514 108.513 108.514 59.833 0 108.5-48.68 108.5-108.514 0-59.834-48.667-108.514-108.5-108.514z"/></symbol><symbol id="settings" viewBox="0 0 300 300.013"><path fill-rule="evenodd" clip-rule="evenodd" fill="#BEC0CF" d="M298.907 132.084c.693 5.874 1.093 11.854 1.093 17.93 0 6.06-.4 12.015-1.093 17.915l-49.897 8.02c-2.41 9.136-6.02 17.755-10.696 25.693l29.638 40.974c-7.406 9.43-15.918 17.93-25.35 25.348l-40.972-29.637c-7.94 4.662-16.558 8.285-25.695 10.695l-8.02 49.898c-5.873.693-11.854 1.093-17.915 1.093-6.062 0-12.055-.4-17.93-1.092l-8.005-49.897c-9.138-2.41-17.756-6.033-25.708-10.695l-40.973 29.637c-9.43-7.42-17.93-15.918-25.35-25.348l29.64-40.974c-4.663-7.938-8.286-16.558-10.684-25.694l-49.898-8.02C.4 162.03 0 156.073 0 150.012c0-6.074.4-12.055 1.092-17.93l49.898-8.018c2.398-9.138 6.02-17.743 10.683-25.695L32.035 57.397c7.42-9.43 15.918-17.942 25.35-25.35l40.972 29.626c7.952-4.65 16.57-8.272 25.708-10.683l8.006-49.898C137.946.4 143.94 0 150 0c6.06 0 12.042.4 17.915 1.092l8.02 49.898c9.138 2.41 17.756 6.034 25.695 10.683l40.973-29.625c9.43 7.406 17.942 15.918 25.35 25.35l-29.64 40.972c4.677 7.952 8.286 16.557 10.697 25.695l49.897 8.02zM150 81.387c-37.896 0-68.626 30.717-68.626 68.626 0 37.896 30.73 68.613 68.626 68.613s68.612-30.717 68.612-68.613c0-37.91-30.716-68.626-68.612-68.626zm0 109.654c-22.685 0-41.04-18.354-41.04-41.026 0-22.67 18.355-41.04 41.04-41.04 22.67 0 41.026 18.37 41.026 41.04 0 22.67-18.355 41.027-41.026 41.027z"/></symbol><symbol id="severity-drpdwn-icn" viewBox="0 0 19 19"><g fill-rule="evenodd" clip-rule="evenodd"><path fill="#525663" d="M9.503 1.974c4.145 0 7.542 3.36 7.542 7.504s-3.397 7.572-7.542 7.572S1.96 13.62 1.96 9.478c0-4.145 3.398-7.504 7.543-7.504z"/><path fill="#E8E8E9" d="M9.5 19C4.253 19 0 14.747 0 9.5S4.253 0 9.5 0 19 4.253 19 9.5 14.747 19 9.5 19zm0-17C5.358 2 2 5.358 2 9.5S5.36 17 9.5 17 17 13.643 17 9.5 13.643 2 9.5 2zM5.95 6.96h7.01l-3.494 7.02L5.95 6.96z"/></g></symbol><symbol id="share-artefact" viewBox="0 0 300 300.51"><path fill-rule="evenodd" clip-rule="evenodd" fill="inherit" d="M300 256.074c0 24.535-19.89 44.436-44.437 44.436H69.892c0-108.75 85.904-117.942 85.904-117.942 5.133-.542 9.344 1.118 9.344 3.69v23.851c0 5.175 3.517 7.062 7.835 4.23l59.172-47.528c4.32-2.843 4.32-7.487 0-10.31l-4.872-3.905c-7.563-3.18-13.977-8.438-18.74-14.997l-35.538-28.457c-4.33-2.832-7.855-.923-7.855 4.237v23.64s-4.243 4.596-9.397 4.476c0 0-118.643-2.854-155.195 87.863v-9.377V83.847C.325 82.003 0 80.19 0 78.28V44.94C0 20.396 19.9.494 44.447.494h11.1V0H222.24v.494h33.322C280.11.494 300 20.396 300 44.94V256.075z"/></symbol><symbol id="share" viewBox="0 0 299.995 258.272"><path fill-rule="evenodd" clip-rule="evenodd" fill="#DBDCE0" d="M294.367 80.47l-49.78 46.396c-3.867 3.91-1.828 2.964-7.777 2.964-11.898 0-21.547-9.67-21.547-21.526V86.757c-81.27-.567-86.59 85.453-86.59 85.453h-20.62c.25-85.6 48.034-128.78 107.21-128.484v-22.2C215.263 9.628 224.91 0 236.81 0c2.943 0 10.448 3.574 8.388 1.703C259.914 14.926 292.37 49.36 292.37 49.36c8.85 8.87 10.616 20.537 1.997 31.11zM43.053 215.936h172.21v-64.578h42.59v87.598c0 10.68-8.66 19.318-19.34 19.318H19.32c-10.66 0-19.32-8.64-19.32-19.32V19.467C0 8.808 8.66.168 19.32.168h109.123v43.557h-85.39v172.21z"/></symbol><symbol id="submit-review" viewBox="0 0 300 300.691"><path fill="inherit" d="M149.486 300.69C66.876 300.69 0 232.423 0 149.83 0 67.22 66.876 0 149.486 0 232.08 0 300 67.22 300 149.83c0 82.592-67.92 150.86-150.514 150.86zm0-267.578c-64.548 0-116.717 52.17-116.717 116.717 0 64.525 52.168 117.4 116.716 117.4 64.526 0 117.74-52.875 117.74-117.4 0-64.55-53.213-116.718-117.74-116.718zm76.71 89.36l-75.427 95.07c-2.552 3.242-6.402 5.19-10.514 5.363-.186.02-.392.02-.582.02-3.905 0-7.652-1.608-10.34-4.49l-50.232-53.606c-5.363-5.7-5.07-14.653.63-20.015 5.717-5.34 14.69-5.07 20.032.642l39.023 41.628 65.195-82.218c4.862-6.146 13.78-7.152 19.917-2.29 6.124 4.86 7.158 13.765 2.295 19.895z"/></symbol><symbol id="submit" viewBox="0 0 300.002 300.022"><path fill-rule="evenodd" clip-rule="evenodd" fill="#6A6F82" d="M256.057 256.077c-58.576 58.594-153.544 58.594-212.14 0-58.557-58.576-58.557-153.544 0-212.14 58.596-58.584 153.563-58.584 212.14 0 58.594 58.596 58.594 153.564 0 212.14zM229.543 70.452c-43.928-43.927-115.184-43.927-159.11 0-43.928 43.937-43.928 115.184 0 159.11 43.927 43.928 115.183 43.928 159.11 0 43.927-43.926 43.927-115.173 0-159.11zm-10.052 55.326l-75 75c-3.388 3.388-8.057 5.476-13.257 5.476-5.163 0-9.87-2.088-13.257-5.476l-37.5-37.5C77.088 159.854 75 155.186 75 150.02c0-10.353 8.378-18.768 18.732-18.768 5.19 0 9.87 2.097 13.257 5.484l24.242 24.252 61.744-61.725c3.387-3.415 8.093-5.512 13.257-5.512 10.363 0 18.77 8.405 18.77 18.77 0 5.165-2.125 9.87-5.512 13.258z"/></symbol><symbol id="toggle-annotations" viewBox="0 0 300 300.173"><path fill="inherit" d="M270.686 183.916c-.218.293-.392.62-.652.902l-70.885 82.174c-2.51 2.912-6.14 4.498-9.866 4.498-1.5 0-3.032-.25-4.5-.783-5.095-1.868-8.484-6.682-8.484-12.07v-39.05c-.392.685-.837 1.358-1.37 1.966l-63.936 74.102c-2.516 2.934-6.145 4.52-9.87 4.52-1.506 0-3.027-.27-4.478-.804-5.117-1.867-8.485-6.682-8.485-12.07v-34.92C38.513 246.032 0 203.94 0 153.025 0 99.91 41.902 56.44 94.642 53.104 114.07 21.344 149.164 0 189.284 0 250.334 0 300 49.24 300 109.777c0 28.597-11.18 54.57-29.314 74.14zM189.284 25.74c-46.737 0-84.755 37.69-84.755 84.037 0 46.334 38.017 84.026 84.754 84.026 46.742 0 84.77-37.692 84.77-84.026 0-46.346-38.028-84.037-84.77-84.037zm22.132 74.41h-44.504c-6.14 0-11.126-4.993-11.126-11.132 0-6.14 4.987-11.137 11.126-11.137h44.504c6.14 0 11.126 5 11.126 11.138 0 6.14-4.988 11.132-11.126 11.132zm0 44.5h-44.504c-6.14 0-11.126-4.978-11.126-11.133 0-6.14 4.987-11.115 11.126-11.115h44.504c6.14 0 11.126 4.976 11.126 11.115 0 6.155-4.988 11.132-11.126 11.132z"/></symbol><symbol id="up-drpdwn" viewBox="0 0 300.006 300.008"><path fill-rule="evenodd" clip-rule="evenodd" fill="inherit" d="M256.07 43.936c-58.598-58.58-153.546-58.58-212.136 0-58.58 58.58-58.58 153.537 0 212.137 58.59 58.58 153.538 58.58 212.136 0 58.58-58.6 58.58-153.557 0-212.137zm-26.515 185.62c-43.93 43.95-115.183 43.95-159.113 0-43.95-43.93-43.95-115.183 0-159.113 43.93-43.95 115.184-43.95 159.113 0 43.95 43.93 43.95 115.182 0 159.113zM149.687 94.11l-69.174 61.978c-3.388 3.388-5.503 8.057-5.503 13.24 0 10.363 8.405 18.75 18.76 18.75 10.237 0 13.25-5.492 13.25-5.492l43.006-35.975 42.41 35.37c3.407 3.425 8.095 5.513 13.26 5.513 10.346 0 18.75-8.405 18.75-18.752 0-10.254-5.512-13.257-5.512-13.257L149.687 94.11z"/></symbol><symbol id="user" viewBox="0 0 21.975 24.98"><path d="M19.235 24.98H3.33C.103 24.927 0 21.753 0 21.753V8.35C2.47 1.504 8.73 0 8.73 0h8.842c4.26 0 4.403 3.767 4.403 3.767v17.83c-.004 2.827-2.74 3.383-2.74 3.383zm.745-21.156c-.05-1.884-1.718-1.884-1.718-1.884H8.028L7.96 5.67c.036 2.642-2.815 3.343-2.815 3.343H2.02v12.16c-.057 1.958 1.537 1.847 1.537 1.847H18.1c1.998.058 1.89-1.886 1.89-1.886s.042-15.427-.01-17.31z" fill="#999EA5"/><path d="M8.925 15.4c-1.14-.704-1.91-1.956-1.91-3.396 0-2.21 1.792-4 4-4s4 1.79 4 4c0 1.44-.767 2.69-1.908 3.396 2.278.85 3.91 3.03 3.91 5.604h-12c0-2.575 1.63-4.753 3.908-5.604z" fill="#999EA5"/></symbol><symbol id="v_compare" viewBox="0 0 300 300"><path fill="#BDC3C7" d="M18.74 300C8.396 300 0 291.613 0 281.27V18.75C0 8.405 8.396 0 18.74 0c10.355 0 18.75 8.405 18.75 18.75v262.52c0 10.343-8.394 18.73-18.75 18.73zm262.51 0H18.74C8.396 300 0 291.613 0 281.27c0-10.365 8.396-18.75 18.74-18.75h262.51c10.363 0 18.75 8.385 18.75 18.75 0 10.343-8.387 18.73-18.75 18.73zm0 0c-10.327 0-18.75-8.387-18.75-18.73V18.75C262.5 8.405 270.923 0 281.25 0 291.613 0 300 8.405 300 18.75v262.52c0 10.343-8.387 18.73-18.75 18.73zm0-262.5H18.74C8.396 37.5 0 29.096 0 18.75 0 8.405 8.396 0 18.74 0h262.51C291.613 0 300 8.405 300 18.75c0 10.346-8.387 18.75-18.75 18.75zM150 300c-10.346 0-18.75-8.387-18.75-18.73V18.75C131.25 8.405 139.654 0 150 0c10.354 0 18.74 8.405 18.74 18.75v262.52c0 10.343-8.386 18.73-18.74 18.73z"/></symbol><symbol id="v_open" viewBox="0 0 300 300"><path fill="#BDC3C7" d="M271.875 150c-15.527 0-28.125-12.607-28.125-28.116V96.03l-55.115 55.087-2.71-2.692c-2.526.742-5.054 1.575-7.8 1.575C162.588 150 150 137.393 150 121.884c0-2.783.833-5.273 1.574-7.8l-2.72-2.72 55.125-55.123h-25.855C162.588 56.24 150 43.653 150 28.117S162.588 0 178.125 0h93.75C287.402 0 300 12.58 300 28.116v93.77C300 137.392 287.402 150 271.875 150zM93.76 37.49H18.74C8.396 37.49 0 29.124 0 18.75 0 8.396 8.396 0 18.74 0h75.02c10.345 0 18.75 8.396 18.75 18.75 0 10.373-8.406 18.74-18.75 18.74zM18.74 300C8.396 300 0 291.613 0 281.25V18.75C0 8.396 8.396 0 18.74 0c10.346 0 18.75 8.396 18.75 18.75v262.5c0 10.363-8.404 18.75-18.75 18.75zm262.51 0H18.74C8.396 300 0 291.613 0 281.25c0-10.346 8.396-18.73 18.74-18.73h262.51c10.363 0 18.75 8.385 18.75 18.73 0 10.363-8.387 18.75-18.75 18.75zm0 0c-10.327 0-18.75-8.387-18.75-18.75v-75c0-10.363 8.423-18.75 18.75-18.75 10.363 0 18.75 8.387 18.75 18.75v75c0 10.363-8.387 18.75-18.75 18.75z"/></symbol><symbol id="zoom-in" viewBox="0 0 299.998 300.003"><path fill="#222F38" d="M256.07 256.063c-58.587 58.587-153.567 58.587-212.13 0-58.587-58.588-58.587-153.567 0-212.122 58.563-58.586 153.543-58.586 212.13 0 58.57 58.555 58.57 153.535 0 212.123zm-23.4-188.73c-45.657-45.66-119.672-45.66-165.34 0-45.657 45.665-45.657 119.672 0 165.33 45.668 45.676 119.683 45.676 165.34 0 45.66-45.658 45.66-119.665 0-165.33zm-32.696 99.286H99.922c-9.192 0-16.674-7.476-16.674-16.676 0-9.216 7.482-16.674 16.674-16.674h100.05c9.202 0 16.692 7.458 16.692 16.674 0 9.2-7.49 16.675-16.69 16.675zm-33.063 33.248c.052 9.2-7.38 16.732-16.58 16.784-9.217.053-16.716-7.396-16.768-16.598l-.56-100.05c-.05-9.192 7.364-16.716 16.58-16.768 9.2-.052 16.717 7.39 16.77 16.58l.56 100.052z"/></symbol><symbol id="zoom-out" viewBox="0 0 299.998 300.003"><path fill="#222F38" d="M256.07 256.063c-58.587 58.587-153.567 58.587-212.13 0-58.587-58.588-58.587-153.567 0-212.122 58.563-58.586 153.543-58.586 212.13 0 58.57 58.555 58.57 153.535 0 212.123zm-23.4-188.73c-45.657-45.66-119.672-45.66-165.34 0-45.657 45.665-45.657 119.672 0 165.33 45.668 45.676 119.683 45.676 165.34 0 45.66-45.658 45.66-119.665 0-165.33zm-32.696 99.286H99.922c-9.192 0-16.674-7.476-16.674-16.676 0-9.216 7.482-16.674 16.674-16.674h100.05c9.202 0 16.692 7.458 16.692 16.674 0 9.2-7.49 16.675-16.69 16.675z"/></symbol></svg>