<?xml version="1.0" encoding="utf-8"?>
<!-- Generator: Adobe Illustrator 16.0.0, SVG Export Plug-In . SVG Version: 6.00 Build 0)  -->
<!DOCTYPE svg PUBLIC "-//W3C//DTD SVG 1.1//EN" "http://www.w3.org/Graphics/SVG/1.1/DTD/svg11.dtd">
<svg version="1.1" id="Layer_1" xmlns="http://www.w3.org/2000/svg" xmlns:xlink="http://www.w3.org/1999/xlink" x="0px" y="0px"
	 width="200px" height="524.396px" viewBox="0 0 200 524.396" enable-background="new 0 0 200 524.396" xml:space="preserve">
<path fill="#52626E" d="M74.898,324.286V200.72h49.973v123.566H74.898L74.898,324.286z M150.394,250.058V75.228
	c0-16.43-8.702-25.547-25.182-25.547H73.289c-16.479,0-23.548,8.239-23.548,24.669v175.708C6.643,250.058,0,218.076,0,196.039
	V58.261C0,25.304,29.412,0,62.369,0h76.616C171.918,0,200,25.304,200,58.261v137.778C200,218.076,193.028,250.058,150.394,250.058
	L150.394,250.058z M138.327,524.396H61.709c-32.932,0-61.014-25.303-61.014-58.261V328.332c0-22.012,6.971-53.995,49.607-53.995
	v175.709c0,16.43,8.727,24.67,25.181,24.67h51.899c16.502,0,23.621-8.191,23.621-24.646V274.337
	c48.314,0,48.802,31.983,48.802,53.995v137.803C199.805,499.093,171.284,524.396,138.327,524.396L138.327,524.396z"/>
</svg>
