<?xml version="1.0" encoding="UTF-8"?><!DOCTYPE svg PUBLIC "-//W3C//DTD SVG 1.1//EN" "http://www.w3.org/Graphics/SVG/1.1/DTD/svg11.dtd"><svg xmlns="http://www.w3.org/2000/svg"><symbol id="projects" viewBox="0 0 299.645 323.207"><path fill="#425182" d="M257.829 265.795l-15.279-.101v2.896c0 27.01-16.587 54.616-47.157 54.616H43.123C20.299 323.207 0 302.44 0 269.74V86.471c0-22.198 16.006-39.765 38.807-39.765l18.598-.304.141-2.586C57.546 21.612 74.211.214 97.029.214c0 0 128.033-.214 129.363-.214l73.253 86.719v139.899c0 22.197-18.987 39.177-41.816 39.177zM57.743 222.471V68.854l-14.338.333c-11.319 0-20.53 10.243-20.53 21.223v185.54c0 10.986 10.237 24.474 21.562 24.474H195.9c21.849 0 24.226-17.589 23.482-34.728l3.054-.034-122.642-.067c-22.816-.002-42.051-20.927-42.051-43.124zm219.31-118.416h-29.455c-22.964 0-39.877-15.042-39.877-37.438 0 0-.181-18.564 0-43.388H102.443c-11.325 0-21.562 10.575-21.562 21.562v176.778c0 10.975 10.237 21.557 21.562 21.557h153.042c11.324 0 21.567-10.582 21.567-21.557V104.055h.001zm-57.603 45.714h-93.001c-6.141 0-11.11-4.969-11.11-11.093 0-6.135 4.969-11.104 11.11-11.104h93.001c6.142 0 11.11 4.969 11.11 11.104.001 6.124-4.968 11.093-11.11 11.093zm0 46.616h-93.001a11.103 11.103 0 0 1-11.11-11.11c0-6.118 4.969-11.088 11.11-11.088h93.001c6.142 0 11.11 4.97 11.11 11.088a11.102 11.102 0 0 1-11.11 11.11z"/></symbol></svg>