<?xml version="1.0" encoding="utf-8"?>
<!-- Generator: Adobe Illustrator 16.0.0, SVG Export Plug-In . SVG Version: 6.00 Build 0)  -->
<!DOCTYPE svg PUBLIC "-//W3C//DTD SVG 1.1//EN" "http://www.w3.org/Graphics/SVG/1.1/DTD/svg11.dtd">
<svg version="1.1" id="Layer_1" xmlns="http://www.w3.org/2000/svg" xmlns:xlink="http://www.w3.org/1999/xlink" x="0px" y="0px"
	 width="300px" height="300.014px" viewBox="0 0 300 300.014" enable-background="new 0 0 300 300.014" xml:space="preserve">
<path fill="#454C62" d="M150.003,300.014C67.161,300.014,0,232.853,0,150.003C0,67.161,67.161,0,150.003,0
	C232.854,0,300,67.161,300,150.003C300,232.853,232.854,300.014,150.003,300.014L150.003,300.014z M150.003,28.865
	c-66.788,0-121.14,54.352-121.14,121.14c0,66.796,54.352,121.14,121.14,121.14c66.796,0,121.14-54.344,121.14-121.14
	C271.143,83.215,216.799,28.865,150.003,28.865L150.003,28.865z M75.005,165.002v-29.991h30.014v29.991H75.005L75.005,165.002z
	 M135.011,165.002v-29.991h29.991v29.991H135.011L135.011,165.002z M195.018,165.002v-29.991h29.983v29.991H195.018L195.018,165.002
	z"/>
</svg>
