<?xml version="1.0" encoding="utf-8"?>
<!-- Generator: Adobe Illustrator 16.0.0, SVG Export Plug-In . SVG Version: 6.00 Build 0)  -->
<!DOCTYPE svg PUBLIC "-//W3C//DTD SVG 1.1//EN" "http://www.w3.org/Graphics/SVG/1.1/DTD/svg11.dtd">
<svg version="1.1" id="Layer_1" xmlns="http://www.w3.org/2000/svg" xmlns:xlink="http://www.w3.org/1999/xlink" x="0px" y="0px"
	 width="300px" height="319.016px" viewBox="0 0 300 319.016" enable-background="new 0 0 300 319.016" xml:space="preserve">
<path fill-rule="evenodd" clip-rule="evenodd" fill="#00AEEF" d="M280.875,319.016H19.125C8.574,319.016,0,310.46,0,299.909V57.377
	c0-10.552,8.574-19.125,19.125-19.125h56.131V18.942C75.256,8.464,75.073,0,85.552,0h15.296c10.46,0,11.651,8.464,11.651,18.942
	v19.309h74.285V18.942C186.785,8.464,187.922,0,198.4,0h15.333c10.442,0,10.864,8.464,10.864,18.942v19.309h56.277
	c10.551,0,19.125,8.573,19.125,19.125v242.532C300,310.46,291.426,319.016,280.875,319.016L280.875,319.016z M262.555,84.618
	c0-5.276-4.268-9.544-9.545-9.544H47.228c-5.276,0-9.563,4.269-9.563,9.544v188.747c0,5.313,4.287,9.58,9.563,9.58H253.01
	c5.277,0,9.545-4.268,9.545-9.58V84.618L262.555,84.618z M197.43,244.492H158.61h-16.78h-39.406c-4.635,0-8.409-4.177-8.409-9.343
	V216.61c0-5.166,3.774-9.361,8.409-9.361h28.083v-56.352h-28.083c-4.635,0-8.409-4.195-8.409-9.361V122.96
	c0-5.166,3.774-9.361,8.409-9.361h39.406h18.521c4.653,0,8.409,4.195,8.409,9.361v22.771v61.517h28.67
	c4.616,0,8.371,4.195,8.371,9.361v18.539C205.801,240.315,202.046,244.492,197.43,244.492L197.43,244.492z"/>
</svg>
