<?xml version="1.0" encoding="UTF-8"?><!DOCTYPE svg PUBLIC "-//W3C//DTD SVG 1.1//EN" "http://www.w3.org/Graphics/SVG/1.1/DTD/svg11.dtd"><svg xmlns="http://www.w3.org/2000/svg"><symbol id="add" viewBox="0 0 300 300"><path fill-rule="evenodd" clip-rule="evenodd" fill="inherit" d="M149.996 300C67.165 300 0 232.835 0 149.996 0 67.165 67.165 0 149.996 0 232.835 0 300 67.165 300 149.996 300 232.835 232.835 300 149.996 300zm0-271.142c-66.798 0-121.138 54.34-121.138 121.138 0 66.799 54.34 121.146 121.138 121.146 66.799 0 121.146-54.347 121.146-121.146 0-66.798-54.347-121.138-121.146-121.138zm56.442 135.656h-41.441v41.91c0 10.254-4.57 18.574-14.81 18.574h-.374c-10.247 0-14.817-8.32-14.817-18.574v-41.91H93.562c-10.247 0-18.567-4.088-18.567-14.327v-.374c0-10.246 8.321-14.816 18.567-14.816h41.434V93.562c0-10.247 4.57-18.567 14.817-18.567h.374c10.239 0 14.327 8.321 14.327 18.567v41.435h41.924c10.24 0 18.561 4.57 18.561 14.816v.374c-.001 10.239-8.321 14.327-18.561 14.327z"/></symbol><symbol id="close" viewBox="0 0 300 300"><path fill-rule="evenodd" clip-rule="evenodd" fill="inherit" d="M185.125 150.53l106.001 106.003c9.773 9.772 9.773 25.603 0 35.374-9.771 9.772-25.626 9.772-35.398 0L149.725 185.905 43.04 292.617c-9.846 9.845-25.798 9.845-35.655 0-9.846-9.821-9.846-25.823 0-35.669l106.698-106.687L8.117 44.271c-9.772-9.771-9.772-25.614 0-35.386 9.736-9.772 25.566-9.772 35.338 0l106.014 106.002L256.949 7.394c9.87-9.858 25.822-9.858 35.668 0 9.845 9.845 9.845 25.798 0 35.655L185.125 150.53z"/></symbol></svg>