<?xml version="1.0" encoding="UTF-8"?><!DOCTYPE svg PUBLIC "-//W3C//DTD SVG 1.1//EN" "http://www.w3.org/Graphics/SVG/1.1/DTD/svg11.dtd"><svg xmlns="http://www.w3.org/2000/svg"><symbol id="close" viewBox="0 0 300 300"><path fill-rule="evenodd" clip-rule="evenodd" fill="inherit" d="M185.125 150.53l106.001 106.003c9.773 9.772 9.773 25.603 0 35.374-9.771 9.772-25.626 9.772-35.398 0L149.725 185.905 43.04 292.617c-9.846 9.845-25.798 9.845-35.655 0-9.846-9.821-9.846-25.823 0-35.669l106.698-106.687L8.117 44.271c-9.772-9.771-9.772-25.614 0-35.386 9.736-9.772 25.566-9.772 35.338 0l106.014 106.002L256.949 7.394c9.87-9.858 25.822-9.858 35.668 0 9.845 9.845 9.845 25.798 0 35.655L185.125 150.53z"/></symbol><symbol id="pdfnpng" viewBox="0 0 119.623 193.349"><g fill="#9099b5"><path d="M69.397 50.187L59.688 7.189a5.21 5.21 0 0 0-6.228-3.933L18.287 11.2a5.207 5.207 0 0 0-3.933 6.227l9.71 42.998a5.207 5.207 0 0 0 6.227 3.932l35.175-7.942a5.209 5.209 0 0 0 3.931-6.228zm-46.369-8.756l-5.47-24.226a2.604 2.604 0 0 1 1.966-3.114l34.061-7.692a2.605 2.605 0 0 1 3.114 1.967l3.706 16.185-12.822-6.659-10.242 16.413-7.119-4.806-7.194 11.932zm14.532 8.738c-.509 1.092-1.396 1.779-2.66 2.065-1.283.29-2.385.054-3.301-.709l-.129.028c.279.837.438 1.347.48 1.529l.938 4.153-2.154.486-3.309-14.649 1.742-.393c.092.178.295.607.609 1.288l.109-.024c.44-1.179 1.333-1.92 2.678-2.224 1.265-.286 2.354-.05 3.267.708.913.757 1.557 1.964 1.931 3.619.374 1.658.306 3.032-.201 4.123zm9.863-.955l-1.408-6.234c-.176-.781-.465-1.33-.867-1.644s-.945-.394-1.629-.239c-.911.205-1.516.625-1.816 1.258s-.308 1.582-.021 2.848l1.141 5.051-2.154.486-2.29-10.139 1.687-.381.604 1.261.109-.024c.197-.552.547-1.023 1.049-1.412a4.463 4.463 0 0 1 1.781-.816c2.433-.55 3.928.413 4.487 2.889l1.492 6.609-2.165.487zm13.598.686c-.807.837-2.105 1.458-3.896 1.862-1.382.312-2.491.306-3.328-.02-.838-.324-1.359-.939-1.563-1.844-.141-.623-.062-1.191.236-1.705s.783-.934 1.454-1.258a1.662 1.662 0 0 1-.844-.432 1.532 1.532 0 0 1-.473-.794c-.086-.379-.051-.724.104-1.034.154-.312.414-.643.777-.995a2.902 2.902 0 0 1-1.528-.815c-.442-.437-.74-.998-.896-1.682-.248-1.1-.094-2.031.463-2.793.558-.762 1.479-1.287 2.762-1.577.287-.065.592-.112.916-.144s.569-.044.738-.037l3.511-.793.268 1.183-1.66.712c.207.178.397.411.572.699.174.289.301.606.379.955.236 1.045.062 1.949-.524 2.71-.586.763-1.512 1.286-2.777 1.571a4.904 4.904 0 0 1-.896.125c-.398.393-.555.781-.469 1.166a.575.575 0 0 0 .443.449c.243.067.655.035 1.236-.096l1.769-.4c1.119-.252 2.022-.205 2.71.141.688.346 1.134.967 1.337 1.865.26 1.15-.014 2.144-.821 2.981z"/><path d="M34.364 44.084c-.532-.493-1.187-.652-1.963-.478-.855.193-1.424.586-1.705 1.176s-.297 1.436-.049 2.535l.072.32c.279 1.235.677 2.085 1.192 2.55.517.464 1.218.597 2.104.396.745-.168 1.251-.604 1.517-1.306s.27-1.619.016-2.749c-.258-1.136-.652-1.951-1.184-2.444zM34.597 19.813c-.68-3.008-3.68-4.894-6.701-4.211s-4.921 3.674-4.242 6.683c.68 3.008 3.68 4.893 6.701 4.211 3.021-.684 4.92-3.675 4.242-6.683zm-7.811 1.827a2.45 2.45 0 0 1 4.778-1.078 2.448 2.448 0 0 1-4.778 1.078zM59.237 46.802c-.356-.116-.963-.077-1.818.116l-1.632.368c-.617.14-1.075.396-1.373.768-.298.373-.392.807-.279 1.302.104.464.395.774.87.931.475.156 1.092.148 1.85-.023 1.173-.264 2.009-.63 2.508-1.096.498-.466.686-.977.56-1.533-.101-.441-.328-.718-.686-.833zM55.501 42.265c1.246-.282 1.72-1.089 1.419-2.422-.149-.66-.419-1.133-.808-1.422-.39-.287-.899-.36-1.529-.218-.623.141-1.055.425-1.295.852-.241.427-.285.979-.132 1.657.144.637.417 1.088.821 1.356s.913.333 1.524.197z"/></g><g fill="#637097"><path d="M13.239 86.627c-2.758 1.41-3.857 4.778-2.454 7.524s4.777 3.829 7.536 2.42c2.758-1.41 3.857-4.778 2.454-7.524s-4.777-3.829-7.536-2.42zm3.717 7.191a2.448 2.448 0 1 1-2.228-4.36 2.448 2.448 0 0 1 2.228 4.36zM34.417 108.605c-.638-.346-1.311-.338-2.019.024-.781.398-1.235.919-1.361 1.561s.067 1.464.581 2.469l.15.292c.576 1.128 1.171 1.853 1.786 2.175.615.322 1.327.276 2.136-.137.681-.348 1.062-.895 1.146-1.641.083-.746-.139-1.636-.667-2.667-.53-1.038-1.114-1.73-1.752-2.076z"/><path d="M62.016 109.853L41.957 70.601a5.207 5.207 0 0 0-7.007-2.267L2.839 84.743A5.209 5.209 0 0 0 .571 91.75l20.059 39.252a5.21 5.21 0 0 0 7.008 2.268l32.11-16.409a5.21 5.21 0 0 0 2.268-7.008zm-43.08-10.338l-4.014 13.341L3.621 90.742a2.605 2.605 0 0 1 1.134-3.504l31.094-15.89a2.604 2.604 0 0 1 3.503 1.134l7.601 14.762-14.073-3.275-5.856 18.438-8.088-2.892zm3.547 10.271c-.291-.094-.522-.309-.693-.644-.18-.351-.222-.671-.126-.959.096-.288.322-.523.679-.705.346-.178.664-.22.953-.129.289.092.524.312.704.664.171.335.209.647.115.938s-.314.525-.66.702c-.357.182-.682.227-.972.133zm8.352 13.763c-.249.746-.844 1.359-1.787 1.842-.591.302-1.118.483-1.58.543l-.795-1.557a5.073 5.073 0 0 0 1.24-.443c.837-.428 1.013-1.116.528-2.064l-5.282-10.335 1.967-1.005 5.35 10.469c.488.954.608 1.804.359 2.55zm8.186-9.84c-.222 1.183-.911 2.069-2.065 2.659-1.171.599-2.296.643-3.374.131l-.117.06c.478.741.759 1.195.844 1.363l1.938 3.791-1.967 1.005-6.834-13.373 1.59-.812c.133.15.436.516.909 1.098l.101-.052c.135-1.251.815-2.19 2.043-2.817 1.155-.59 2.269-.631 3.34-.124 1.072.508 1.995 1.518 2.767 3.029.772 1.512 1.047 2.859.825 4.042zm11.238-.234c-.574 1.011-1.678 1.935-3.312 2.77-1.261.645-2.337.913-3.229.806-.892-.106-1.549-.573-1.971-1.398-.291-.569-.355-1.14-.194-1.711.162-.572.527-1.099 1.098-1.58-.319.022-.627-.047-.924-.208s-.515-.379-.655-.652c-.177-.346-.229-.688-.156-1.028s.241-.725.507-1.156c-.585.039-1.146-.098-1.683-.411s-.964-.783-1.284-1.407c-.513-1.005-.594-1.944-.243-2.82.351-.876 1.112-1.613 2.284-2.212a7.11 7.11 0 0 1 .852-.367c.306-.11.542-.184.707-.219l3.205-1.638.552 1.079-1.432 1.102c.245.121.487.3.728.536.24.235.442.513.604.831.487.954.542 1.872.163 2.756-.379.883-1.146 1.619-2.301 2.21a4.964 4.964 0 0 1-.837.344c-.29.479-.345.894-.166 1.245.108.212.289.32.541.325.252.005.643-.128 1.173-.399l1.615-.825c1.021-.521 1.908-.7 2.66-.536s1.338.656 1.757 1.477c.534 1.045.515 2.075-.059 3.086z"/><path d="M47.763 110.915c-.375-.023-.952.164-1.733.563l-1.489.762c-.564.288-.944.648-1.14 1.084-.197.434-.179.877.052 1.329.216.424.574.653 1.073.687s1.095-.127 1.787-.48c1.071-.547 1.791-1.108 2.158-1.684.367-.574.421-1.116.162-1.623-.206-.403-.496-.615-.87-.638zM43.793 104.748c-.308-.603-.686-.995-1.134-1.178-.449-.182-.96-.126-1.535.167-.569.291-.917.673-1.045 1.146-.127.474-.033 1.02.284 1.639.296.58.674.95 1.132 1.11s.966.097 1.524-.188c1.138-.581 1.396-1.48.774-2.696z"/></g><g fill="#9da5be"><path d="M116.282 59.796L82.624 46.855a5.207 5.207 0 0 0-6.729 2.992L60.075 90.99a5.207 5.207 0 0 0 2.992 6.73l33.658 12.941a5.208 5.208 0 0 0 6.73-2.992l15.819-41.143a5.208 5.208 0 0 0-2.992-6.73zM79.991 91.117c-1.028.625-2.148.704-3.358.239-1.229-.472-2.012-1.28-2.351-2.424l-.123-.047c-.233.85-.383 1.363-.45 1.538l-1.528 3.974-2.062-.792 5.39-14.018 1.667.641a46.89 46.89 0 0 1-.21 1.409l.105.041c1.021-.735 2.175-.855 3.461-.36 1.211.465 1.985 1.267 2.323 2.403.339 1.137.203 2.498-.406 4.083-.609 1.583-1.428 2.688-2.458 3.313zm8.899 4.75l.13-1.411-.097-.037c-1.032.711-2.186.821-3.46.331-1.211-.465-1.986-1.267-2.327-2.405-.342-1.138-.207-2.499.402-4.084.611-1.591 1.431-2.697 2.459-3.319 1.027-.622 2.149-.699 3.366-.231 1.274.49 2.064 1.334 2.369 2.532l.105.041c.168-.734.329-1.303.484-1.707l1.359-3.535 2.07.796-5.248 13.649-1.612-.62zm13.693-8.308a5.117 5.117 0 0 0-1.362-.806c-.468-.18-.864-.166-1.188.042-.325.207-.599.601-.821 1.18l-.243.631 2.369.911-.601 1.562-2.368-.911-3.13 8.141-2.07-.796 3.13-8.141-1.597-.614.371-.965 1.839-.018.243-.632c.44-1.146 1.036-1.892 1.787-2.238.75-.346 1.678-.306 2.783.119a7.024 7.024 0 0 1 2.002 1.183l-1.144 1.352zm13.553-21.715l-5.912 15.516-6.961-12.662-17.635 7.955-3.248-7.952-12.61 5.923 8.912-23.181a2.605 2.605 0 0 1 3.365-1.496l32.593 12.532a2.605 2.605 0 0 1 1.496 3.365z"/><path d="M89.216 86.588c-.726-.279-1.397-.2-2.015.237-.618.437-1.136 1.2-1.554 2.287-.414 1.076-.539 1.969-.376 2.68.163.71.625 1.211 1.385 1.504.848.326 1.557.325 2.126-.003s1.065-1.025 1.488-2.091l.111-.289c.47-1.222.605-2.167.405-2.835s-.723-1.164-1.57-1.49zM88.167 55.854c-2.892-1.112-6.133.32-7.239 3.199s.34 6.113 3.231 7.225c2.892 1.111 6.133-.321 7.239-3.199 1.107-2.879-.339-6.114-3.231-7.225zm.294 6.162a2.448 2.448 0 1 1-4.57-1.756 2.448 2.448 0 0 1 4.57 1.756zM79.35 82.794c-.818-.314-1.509-.305-2.07.03s-1.044 1.028-1.449 2.081l-.118.307c-.454 1.181-.596 2.108-.425 2.782s.68 1.173 1.528 1.499c.713.274 1.375.193 1.986-.243.61-.437 1.124-1.196 1.54-2.278.418-1.087.543-1.984.375-2.69-.169-.706-.624-1.202-1.367-1.488z"/></g><g fill="#9da5be"><path d="M90.521 137.12c-.244.073-.566.329-.968.767l-.767.835c-.29.316-.446.636-.468.958a.99.99 0 0 0 .347.832c.237.219.519.279.844.183.324-.097.665-.339 1.021-.727.552-.601.876-1.127.974-1.579.098-.451.004-.808-.28-1.069-.227-.208-.46-.275-.703-.2z"/><path d="M99.32 133.083l-22.006-20.194a3.53 3.53 0 0 0-4.986.214l-16.52 18.003a3.527 3.527 0 0 0 .214 4.985l22.006 20.194a3.528 3.528 0 0 0 4.985-.214l16.521-18.002a3.529 3.529 0 0 0-.214-4.986zm-41.599 1.647a1.764 1.764 0 0 1-.107-2.493l15.998-17.433a1.763 1.763 0 0 1 2.492-.107l8.312 7.582-9.711 1.242.633 13.093-5.819.072.601 9.421-12.399-11.377zm17.062 7.327c-.184.2-.379.305-.586.313s-.404-.073-.592-.245c-.197-.181-.299-.374-.307-.579-.007-.206.081-.408.265-.608.178-.194.37-.297.575-.307.205-.011.406.075.604.256.188.172.286.361.295.568s-.075.408-.254.602zm7.269 8.675c-.305.331-.596.57-.875.718l-.873-.801c.252-.161.479-.353.683-.574.431-.47.38-.948-.151-1.437l-5.794-5.316 1.012-1.103 5.869 5.386c.535.491.812 1.003.83 1.535.017.532-.216 1.064-.701 1.592zm2.69-2.933l-7.497-6.88.818-.892c.119.063.398.225.836.482l.052-.057c-.21-.826.001-1.583.633-2.271.594-.647 1.292-.937 2.092-.867.801.069 1.625.493 2.473 1.271.848.778 1.341 1.569 1.479 2.373.139.804-.09 1.529-.684 2.177-.603.656-1.307.95-2.112.879l-.06.066c.478.357.764.58.857.666l2.125 1.95-1.012 1.103zm7.968-9.642c-.126.777-.609 1.624-1.45 2.541-.648.707-1.27 1.132-1.861 1.274s-1.119.001-1.582-.424c-.318-.293-.494-.64-.526-1.041s.075-.822.324-1.263c-.197.09-.409.119-.637.087a1.035 1.035 0 0 1-.569-.26 1.021 1.021 0 0 1-.342-.616 2.538 2.538 0 0 1 .049-.854 1.964 1.964 0 0 1-1.166.136c-.415-.072-.798-.269-1.147-.591-.563-.517-.837-1.094-.82-1.733.016-.639.325-1.287.928-1.944.135-.146.287-.291.455-.434s.3-.244.396-.306l1.649-1.797.605.556-.649 1.037c.184.02.38.075.588.169.209.093.402.221.58.385.535.491.786 1.062.754 1.712s-.345 1.299-.939 1.946a3.322 3.322 0 0 1-.45.416c-.071.373-.009.649.188.83.119.109.259.136.42.079s.379-.233.651-.53l.831-.905c.525-.572 1.046-.896 1.562-.969s1.005.101 1.465.523c.587.539.819 1.198.693 1.976z"/><path d="M62.857 129.846a3.791 3.791 0 0 0 .219 5.358 3.79 3.79 0 0 0 5.356-.242 3.79 3.79 0 0 0-.218-5.358c-1.538-1.413-3.937-1.305-5.357.242zm4.059 3.69a1.659 1.659 0 1 1-2.446-2.243 1.659 1.659 0 0 1 2.446 2.243zM84.154 141.245c-.123-.493-.474-1.006-1.053-1.537-.582-.533-1.116-.835-1.603-.904-.487-.069-.912.095-1.277.492-.401.438-.566.875-.495 1.312.071.437.389.914.951 1.431l.164.15c.632.58 1.182.899 1.648.959s.908-.138 1.324-.591c.352-.382.465-.819.341-1.312zM86.543 134.14c-.338-.311-.671-.471-.998-.48-.328-.01-.64.146-.936.469-.293.318-.424.644-.394.975.031.33.22.655.567.974.325.299.652.444.98.438.329-.006.637-.166.924-.479.587-.64.54-1.272-.143-1.897z"/></g><g fill="#9da5be"><path d="M73.863 181.005a.972.972 0 0 0-.97-.056c-.328.155-.637.472-.924.95-.285.474-.419.885-.4 1.233.018.349.194.624.528.825.373.225.708.283 1.004.175.296-.107.588-.395.876-.862l.077-.128c.323-.537.465-.972.427-1.304-.039-.331-.245-.608-.618-.833zM69.523 178.394c-.36-.216-.688-.269-.979-.158-.293.111-.579.398-.857.861l-.081.136c-.313.52-.457.945-.433 1.277s.224.61.597.834a.956.956 0 0 0 .958.051c.324-.155.63-.471.916-.946.288-.479.422-.892.4-1.239-.021-.347-.194-.619-.521-.816z"/><path d="M88.866 170.613l-14.809-8.907a2.495 2.495 0 0 0-3.425.852L59.744 180.66a2.497 2.497 0 0 0 .852 3.426l14.809 8.907a2.495 2.495 0 0 0 3.425-.853l10.889-18.102a2.495 2.495 0 0 0-.853-3.425zm-19.732 11.762c-.538.209-1.073.153-1.605-.167-.54-.325-.843-.771-.907-1.34l-.055-.032a12.45 12.45 0 0 1-.34.688l-1.052 1.748-.907-.545 3.71-6.167.733.44c-.028.093-.1.309-.217.648l.047.027c.543-.262 1.097-.223 1.663.118.532.32.831.763.896 1.327s-.112 1.196-.531 1.893c-.42.699-.898 1.154-1.435 1.362zm3.804 2.983l.178-.655-.042-.025c-.547.25-1.1.206-1.661-.132-.532-.32-.832-.763-.898-1.329-.066-.565.11-1.196.53-1.894.421-.7.899-1.153 1.437-1.361s1.072-.151 1.607.171c.562.337.864.801.908 1.392l.046.028c.141-.333.265-.588.371-.766l.936-1.555.911.548-3.612 6.005-.711-.427zm7.153-2.782a2.417 2.417 0 0 0-.575-.493c-.206-.124-.394-.15-.564-.08-.171.071-.332.234-.485.488l-.167.278 1.042.627-.414.687-1.042-.627-2.154 3.582-.91-.548 2.154-3.582-.702-.422.255-.425.869.145.168-.277c.303-.505.646-.808 1.029-.908s.817-.005 1.304.288c.318.191.601.434.847.725l-.655.542zm8.203-9.121l-4.08 6.831-2.232-6.555-8.984 2.287-.872-4.023-6.444 1.746 6.135-10.198a1.248 1.248 0 0 1 1.713-.426l14.34 8.625a1.25 1.25 0 0 1 .424 1.713z"/><path d="M75.926 166.414a2.682 2.682 0 0 0-3.683.907 2.68 2.68 0 0 0 .924 3.679 2.683 2.683 0 0 0 3.683-.908 2.683 2.683 0 0 0-.924-3.678zm-.374 2.932a1.173 1.173 0 1 1-2.01-1.211 1.173 1.173 0 0 1 2.01 1.211z"/></g><path d="M88.604 34.255c-.246-.351-.524-.572-.835-.663-.31-.091-.605-.038-.888.16-.264.186-.384.447-.358.785.024.338.188.723.49 1.153.468.667.912 1.097 1.332 1.29.421.192.789.178 1.105-.044.25-.175.365-.39.346-.643s-.2-.624-.541-1.11l-.651-.928zm4.515-3.686c-.329-.041-.688.074-1.072.344-.362.254-.574.542-.639.864-.064.322.025.657.27 1.005.497.709 1.125.798 1.883.266.375-.263.603-.554.683-.872.08-.318-.005-.656-.257-1.014-.249-.354-.538-.552-.868-.593zm21.481-9.066L100.566 1.502A3.53 3.53 0 0 0 95.65.64L71.201 17.795a3.529 3.529 0 0 0-.861 4.916l14.033 20.001a3.53 3.53 0 0 0 4.916.862l24.449-17.155a3.528 3.528 0 0 0 .862-4.916zm-34.476.934c-.512-.73-.646-1.48-.405-2.252l-.051-.073c-.452.39-.73.622-.835.694l-2.361 1.657-.859-1.225 8.33-5.845.694.99c-.088.104-.305.341-.65.713l.044.062c.852-.027 1.546.341 2.083 1.106.504.719.637 1.462.397 2.229-.24.767-.831 1.481-1.772 2.142s-1.82.972-2.635.935-1.475-.414-1.98-1.133zm9.2 2.535c-.363-.518-.782-.79-1.256-.814-.475-.025-1.071.214-1.79.719l-2.872 2.015-.859-1.225 5.765-4.045.673.959-.635.702.044.063c.396-.019.781.079 1.155.294.373.215.697.517.97.906.971 1.383.752 2.568-.655 3.556l-3.758 2.637-.863-1.23 3.544-2.487c.445-.312.715-.635.808-.967.093-.333.003-.694-.271-1.083zm6.725 9.107l-.873-.857a2.158 2.158 0 0 1-.792 1.023c-.595.417-1.206.54-1.834.369-.628-.171-1.194-.616-1.699-1.335a3.413 3.413 0 0 1-.31-.53c-.349-.149-.633-.147-.852.006a.388.388 0 0 0-.167.393c.021.17.146.42.378.75l.706 1.006c.446.636.649 1.214.61 1.735-.04.52-.314.959-.825 1.318-.653.458-1.347.542-2.079.253-.732-.29-1.456-.944-2.17-1.962-.552-.786-.833-1.482-.845-2.091-.013-.609.238-1.093.753-1.455.354-.249.731-.346 1.13-.291s.786.251 1.163.588c-.045-.212-.027-.425.053-.64s.206-.381.376-.501a1.03 1.03 0 0 1 .675-.202c.235.017.51.094.824.231a1.968 1.968 0 0 1 .117-1.168c.16-.39.435-.721.824-.994.625-.439 1.248-.582 1.869-.429.621.153 1.188.594 1.699 1.324.114.163.224.342.326.537.104.195.174.346.213.454l1.401 1.996-.671.472zm16.182-9.231l-9.189 6.49.872-9.751-12.924-2.194 1.18-5.699-9.33-1.437 13.775-9.666a1.763 1.763 0 0 1 2.457.431l13.59 19.368c.56.798.367 1.899-.431 2.458zM95.001 7.72a3.79 3.79 0 0 0-.914 5.284 3.791 3.791 0 0 0 5.279.938 3.792 3.792 0 0 0 .915-5.284 3.792 3.792 0 0 0-5.28-.938zm3.115 4.513a1.66 1.66 0 1 1-1.906-2.717 1.66 1.66 0 0 1 1.906 2.717zM84.889 18.65c-.341-.487-.733-.742-1.175-.766-.442-.024-.977.183-1.603.622l-.182.128c-.702.493-1.133.96-1.291 1.403-.158.443-.061.917.293 1.42.297.424.7.629 1.209.614.508-.014 1.084-.247 1.727-.698.646-.454 1.056-.911 1.228-1.371.173-.46.103-.91-.206-1.352z" fill="#7a84a7"/></symbol><symbol id="archive-icn" viewBox="0 0 300 299.507"><path fill-rule="evenodd" clip-rule="evenodd" fill="inherit" d="M278.54 299.507H21.462c-24.001 0-21.378-27.664-21.378-21.377V26.063C.084 14.263-.224 0 16.24 0c17.023 0 17.884 14.263 17.884 26.063l.309 189.754 232.103-.031V26.722c0-11.793-.845-26.575 17.202-26.575 17.527 0 16.18 14.782 16.18 26.575v252.107c-.001-5.426 2.614 20.678-21.378 20.678zM100.375 98.812c4.613 0 8.764 1.854 11.769 4.865l20.873 22.061V30.905c0-9.203 8.154-15.084 17.357-15.084 9.193 0 16.634 5.881 16.634 15.084v95.855l21.556-23.084a16.558 16.558 0 0 1 11.776-4.865c9.194 0 16.634 7.441 16.634 16.635 0 4.613-1.868 8.764-4.873 11.77l-49.967 50.477a16.61 16.61 0 0 1-11.76 4.873 16.576 16.576 0 0 1-11.777-4.873L88.63 127.216a16.468 16.468 0 0 1-4.897-11.77c0-9.193 7.473-16.634 16.642-16.634z"/></symbol><symbol id="submit" viewBox="0 0 300.002 300.022"><path fill-rule="evenodd" clip-rule="evenodd" fill="#6A6F82" d="M256.057 256.077c-58.576 58.594-153.544 58.594-212.139 0-58.558-58.576-58.558-153.544 0-212.139 58.595-58.585 153.562-58.585 212.139 0 58.594 58.595 58.594 153.563 0 212.139zM229.543 70.452c-43.928-43.927-115.184-43.927-159.111 0-43.927 43.937-43.927 115.184 0 159.111 43.928 43.927 115.184 43.927 159.111 0 43.927-43.927 43.927-115.174 0-159.111zm-10.052 55.326l-75.001 75a18.648 18.648 0 0 1-13.257 5.476 18.713 18.713 0 0 1-13.257-5.476l-37.5-37.5C77.088 159.854 75 155.186 75 150.021c0-10.354 8.378-18.769 18.732-18.769 5.191 0 9.869 2.097 13.257 5.484l24.243 24.252 61.744-61.725a18.628 18.628 0 0 1 13.257-5.512c10.363 0 18.769 8.404 18.769 18.769 0 5.165-2.124 9.871-5.511 13.258z"/></symbol><symbol id="baloon" viewBox="0 0 300 198"><path fill-rule="evenodd" clip-rule="evenodd" fill="#B9BBC4" d="M231.481 158.588H177.89c.315 2.962-1.271 6.071-3.928 8.755l-32.619 26.938c-.485.487-.947.796-1.425 1.184-.4.417-.809.788-1.286 1.082-.285.178-.555.278-.832.426-.501.247-.955.502-1.479.649-.608.192-1.24.255-1.849.278-.2.016-.4.1-.586.1-.23 0-.5-.084-.747-.107-.208-.038-.408-.054-.624-.101-2.741-.425-5.529-2.251-6.146-6.233-.062-.34-.2-.635-.216-.998 0-.146-.069-.225-.069-.371v-31.602H68.511C27.92 158.588 0 117.233 0 76.475 0 35.724 27.92 0 68.511 0h162.971C272.072 0 300 35.724 300 76.475c0 40.758-27.928 82.113-68.519 82.113zM220.976 16.134H78.771c-34.845 0-61.787 28.369-61.787 63.358 0 34.995 26.942 63.356 61.787 63.356h63.281v29.606l31.093-29.606h47.831c34.853 0 62.226-28.361 62.226-63.356-.001-34.99-27.374-63.358-62.226-63.358z"/></symbol><symbol id="delete" viewBox="0 0 300 300"><path fill-rule="evenodd" clip-rule="evenodd" fill="inherit" d="M281.232 93.744h-18.749v187.488c0 10.363-8.367 18.768-18.73 18.768H56.265c-10.354 0-18.749-8.404-18.749-18.768V93.744H18.758C8.403 93.744 0 85.376 0 75.022 0 64.64 8.403 56.264 18.758 56.264h56.265V18.758C75.022 8.403 83.399 0 93.744 0h112.512c10.345 0 18.748 8.403 18.748 18.758v37.507h56.229c10.363 0 18.768 8.376 18.768 18.758-.001 10.353-8.405 18.721-18.769 18.721zm-93.744-56.228h-74.986v18.749h74.986V37.516zm37.516 206.237V112.502c0-10.354-8.403-18.758-18.748-18.758H93.744c-10.345 0-18.722 8.403-18.722 18.758v131.251a18.75 18.75 0 0 0 5.475 13.256 18.688 18.688 0 0 0 13.247 5.475h112.512c5.181 0 9.85-2.087 13.237-5.475a18.59 18.59 0 0 0 5.511-13.256zm-37.516-18.749h-74.986c-10.354 0-18.758-8.404-18.758-18.749 0-10.362 8.404-18.767 18.758-18.767h74.986c10.363 0 18.768 8.404 18.768 18.767 0 10.345-8.404 18.749-18.768 18.749zm0-56.246h-74.986c-10.354 0-18.758-8.386-18.758-18.749s8.404-18.749 18.758-18.749h74.986c10.363 0 18.768 8.386 18.768 18.749s-8.404 18.749-18.768 18.749z"/></symbol></svg>