<?xml version="1.0" encoding="UTF-8"?><!DOCTYPE svg PUBLIC "-//W3C//DTD SVG 1.1//EN" "http://www.w3.org/Graphics/SVG/1.1/DTD/svg11.dtd"><svg xmlns="http://www.w3.org/2000/svg" xmlns:xlink="http://www.w3.org/1999/xlink"><defs><path id="pdfnpng-a" d="M172.708 140.507l-88.216 19.921c-7.036 1.588-14.026-2.83-15.614-9.862L44.524 42.734c-1.588-7.037 2.827-14.031 9.863-15.62l88.217-19.921c7.035-1.588 14.027 2.826 15.614 9.862l24.352 107.833c1.59 7.038-2.826 14.032-9.862 15.619zm-21.983-120.5a6.535 6.535 0 0 0-7.808-4.931L57.493 34.368c-3.518.791-5.722 4.288-4.931 7.808l13.719 60.754 18.042-29.924 17.853 12.054 25.687-41.163L160.021 60.6l-9.296-40.593zm-66.07 45.466c-7.579 1.713-15.103-3.014-16.804-10.56-1.705-7.544 3.055-15.047 10.634-16.761 7.578-1.709 15.103 3.018 16.807 10.562 1.705 7.546-3.06 15.049-10.637 16.759zm-4.311-19.517a6.138 6.138 0 0 0-4.635 7.345 6.138 6.138 0 0 0 7.34 4.635 6.14 6.14 0 0 0-2.705-11.98z"/><path id="pdfnpng-b" d="M206.772 220.199c-1.531 3.973-3.585 6.745-6.164 8.313-2.582 1.567-5.386 1.769-8.425.601-3.081-1.188-5.042-3.214-5.895-6.081l-.309-.118c-.583 2.131-.958 3.419-1.129 3.855l-3.831 9.968-5.167-1.989 13.512-35.152 4.183 1.604c-.059.502-.235 1.68-.527 3.537l.262.103c2.564-1.847 5.457-2.146 8.685-.904 3.035 1.168 4.977 3.176 5.827 6.027.847 2.85.504 6.259-1.022 10.236zm-4.347-8.826c-.421-1.773-1.563-3.015-3.426-3.732-2.052-.789-3.781-.764-5.189.076-1.408.838-2.623 2.574-3.635 5.219l-.296.767c-1.144 2.964-1.496 5.288-1.068 6.978.429 1.689 1.705 2.943 3.831 3.76 1.788.688 3.453.482 4.981-.612 1.533-1.093 2.821-2.995 3.865-5.709 1.05-2.731 1.361-4.982.937-6.747zm24.548 30.606l-4.048-1.555.326-3.537-.242-.093c-2.589 1.783-5.481 2.06-8.677.828-3.035-1.166-4.981-3.175-5.836-6.03-.854-2.855-.521-6.27 1.009-10.242 1.533-3.989 3.588-6.765 6.165-8.324 2.581-1.56 5.395-1.751 8.444-.581 3.199 1.229 5.178 3.349 5.941 6.354l.262.101c.426-1.842.83-3.268 1.217-4.279l3.409-8.868 5.189 1.996-13.159 34.23zm.708-21.087c-.5-1.678-1.813-2.922-3.938-3.739-1.817-.701-3.502-.5-5.053.598-1.55 1.095-2.846 3.007-3.896 5.735-1.039 2.699-1.352 4.938-.943 6.718.409 1.786 1.567 3.04 3.473 3.774 2.126.815 3.906.815 5.332-.01 1.425-.82 2.672-2.566 3.735-5.244l.279-.725c1.175-3.063 1.515-5.434 1.011-7.107zm29.585-1.301c-1.119-.905-2.256-1.577-3.414-2.022-1.176-.45-2.167-.416-2.985.105-.813.517-1.501 1.506-2.055 2.956l-.612 1.582 5.939 2.285-1.504 3.918-5.941-2.284-7.85 20.413-5.189-1.996 7.849-20.413-4.004-1.538.928-2.423 4.614-.044.61-1.587c1.104-2.87 2.601-4.741 4.479-5.608 1.886-.867 4.21-.769 6.982.294a17.64 17.64 0 0 1 5.021 2.969l-2.868 3.393zm-55.984 148.614l-.152.161c1.2.896 1.915 1.455 2.15 1.673l5.332 4.889-2.54 2.768-18.8-17.257 2.05-2.233c.301.156 1.001.563 2.099 1.207l.127-.142c-.524-2.069.005-3.968 1.589-5.692 1.487-1.626 3.238-2.351 5.249-2.177 2.003.172 4.07 1.234 6.196 3.184 2.128 1.952 3.365 3.936 3.71 5.954.348 2.013-.225 3.835-1.717 5.457-1.507 1.649-3.275 2.381-5.293 2.208zm3.318-6.949c-.309-1.239-1.19-2.522-2.643-3.857-1.457-1.337-2.797-2.092-4.017-2.269-1.222-.168-2.29.238-3.203 1.234-1.009 1.103-1.42 2.197-1.247 3.295.181 1.095.977 2.292 2.39 3.588l.412.374c1.584 1.455 2.961 2.256 4.131 2.408 1.171.149 2.28-.343 3.321-1.482.883-.957 1.165-2.054.856-3.291zm16.75-11.827l-2.15-1.082-.117.127c.48 2.077-.066 3.97-1.634 5.677-1.491 1.624-3.243 2.352-5.253 2.183-2.013-.172-4.08-1.229-6.206-3.182-2.133-1.959-3.373-3.943-3.713-5.956-.343-2.011.233-3.835 1.729-5.467 1.572-1.707 3.397-2.435 5.481-2.167l.13-.14c-1.056-.723-1.856-1.335-2.398-1.832l-4.739-4.353 2.547-2.774 18.307 16.804-1.984 2.162zm-4.139-1.432c-.162-1.104-.956-2.321-2.376-3.656l-.389-.355c-1.641-1.504-3.049-2.31-4.23-2.41-1.18-.098-2.292.422-3.335 1.556-.892.977-1.188 2.084-.879 3.336.304 1.251 1.188 2.542 2.647 3.879 1.443 1.327 2.777 2.082 4.002 2.266 1.225.186 2.305-.23 3.243-1.252 1.043-1.141 1.483-2.26 1.317-3.364zm11.952-7.083l-2.547 2.775-10.923-10.018-1.962 2.141-1.298-1.188 1.122-2.92-.85-.773c-1.538-1.413-2.346-2.819-2.422-4.225-.079-1.401.559-2.841 1.922-4.325.892-.973 1.93-1.78 3.113-2.427l1.426 2.652c-.845.478-1.551 1.028-2.121 1.65-.576.629-.801 1.262-.676 1.903.125.644.58 1.322 1.354 2.035l.848.776 2.917-3.177 2.094 1.92-2.915 3.177 10.918 10.024zM176.977 453.97c-1.051 1.746-2.25 2.885-3.598 3.409-1.35.526-2.691.384-4.026-.417-1.354-.817-2.114-1.939-2.275-3.359l-.137-.084c-.451.958-.739 1.533-.854 1.727l-2.635 4.385-2.275-1.367 9.304-15.469 1.837 1.107c-.066.23-.25.771-.542 1.626l.118.066c1.362-.654 2.75-.559 4.171.296 1.335.806 2.084 1.915 2.249 3.331.159 1.418-.282 2.998-1.337 4.749zm-2.621-6.574c-.906-.546-1.722-.676-2.457-.396-.737.274-1.45.997-2.15 2.16l-.206.338c-.784 1.303-1.146 2.371-1.083 3.204.062.83.563 1.53 1.497 2.094.789.47 1.587.512 2.4.125.818-.387 1.58-1.181 2.302-2.373.72-1.2 1.053-2.239 1.004-3.108-.053-.868-.486-1.551-1.307-2.044zm10.345 18.533l-1.781-1.073.446-1.641-.107-.063c-1.367.627-2.755.517-4.164-.328-1.335-.806-2.084-1.918-2.251-3.336-.167-1.416.274-3 1.33-4.746 1.053-1.756 2.253-2.897 3.6-3.419 1.347-.522 2.689-.38 4.031.429 1.408.847 2.167 2.011 2.275 3.494l.117.066c.355-.835.662-1.472.928-1.918l2.349-3.901 2.282 1.377-9.055 15.059zm.536-11.983c-.796-.485-1.609-.532-2.429-.143-.826.387-1.597 1.183-2.317 2.383-.713 1.188-1.051 2.22-1.004 3.094.044.877.487 1.563 1.325 2.067.933.563 1.775.712 2.518.442.742-.271 1.474-.991 2.197-2.165l.191-.32c.813-1.35 1.168-2.437 1.072-3.272-.098-.827-.615-1.526-1.553-2.086zm15.621 3.932a6.15 6.15 0 0 0-1.442-1.236c-.517-.309-.987-.375-1.418-.196-.424.174-.833.583-1.217 1.225l-.417.695 2.613 1.572-1.036 1.722-2.616-1.572-5.402 8.983-2.283-1.374 5.403-8.982-1.764-1.061.642-1.063 2.18.365.421-.698c.759-1.266 1.622-2.025 2.579-2.275.965-.255 2.052-.012 3.274.721a8.464 8.464 0 0 1 2.121 1.816l-1.638 1.358z"/><path id="pdfnpng-c" opacity=".62" d="M206.772 220.199c-1.531 3.973-3.585 6.745-6.164 8.313-2.582 1.567-5.386 1.769-8.425.601-3.081-1.188-5.042-3.214-5.895-6.081l-.309-.118c-.583 2.131-.958 3.419-1.129 3.855l-3.831 9.968-5.167-1.989 13.512-35.152 4.183 1.604c-.059.502-.235 1.68-.527 3.537l.262.103c2.564-1.847 5.457-2.146 8.685-.904 3.035 1.168 4.977 3.176 5.827 6.027.847 2.85.504 6.259-1.022 10.236zm-4.347-8.826c-.421-1.773-1.563-3.015-3.426-3.732-2.052-.789-3.781-.764-5.189.076-1.408.838-2.623 2.574-3.635 5.219l-.296.767c-1.144 2.964-1.496 5.288-1.068 6.978.429 1.689 1.705 2.943 3.831 3.76 1.788.688 3.453.482 4.981-.612 1.533-1.093 2.821-2.995 3.865-5.709 1.05-2.731 1.361-4.982.937-6.747zm24.548 30.606l-4.048-1.555.326-3.537-.242-.093c-2.589 1.783-5.481 2.06-8.677.828-3.035-1.166-4.981-3.175-5.836-6.03-.854-2.855-.521-6.27 1.009-10.242 1.533-3.989 3.588-6.765 6.165-8.324 2.581-1.56 5.395-1.751 8.444-.581 3.199 1.229 5.178 3.349 5.941 6.354l.262.101c.426-1.842.83-3.268 1.217-4.279l3.409-8.868 5.189 1.996-13.159 34.23zm.708-21.087c-.5-1.678-1.813-2.922-3.938-3.739-1.817-.701-3.502-.5-5.053.598-1.55 1.095-2.846 3.007-3.896 5.735-1.039 2.699-1.352 4.938-.943 6.718.409 1.786 1.567 3.04 3.473 3.774 2.126.815 3.906.815 5.332-.01 1.425-.82 2.672-2.566 3.735-5.244l.279-.725c1.175-3.063 1.515-5.434 1.011-7.107zm29.585-1.301c-1.119-.905-2.256-1.577-3.414-2.022-1.176-.45-2.167-.416-2.985.105-.813.517-1.501 1.506-2.055 2.956l-.612 1.582 5.939 2.285-1.504 3.918-5.941-2.284-7.85 20.413-5.189-1.996 7.849-20.413-4.004-1.538.928-2.423 4.614-.044.61-1.587c1.104-2.87 2.601-4.741 4.479-5.608 1.886-.867 4.21-.769 6.982.294a17.64 17.64 0 0 1 5.021 2.969l-2.868 3.393zm-55.984 148.614l-.152.161c1.2.896 1.915 1.455 2.15 1.673l5.332 4.889-2.54 2.768-18.8-17.257 2.05-2.233c.301.156 1.001.563 2.099 1.207l.127-.142c-.524-2.069.005-3.968 1.589-5.692 1.487-1.626 3.238-2.351 5.249-2.177 2.003.172 4.07 1.234 6.196 3.184 2.128 1.952 3.365 3.936 3.71 5.954.348 2.013-.225 3.835-1.717 5.457-1.507 1.649-3.275 2.381-5.293 2.208zm3.318-6.949c-.309-1.239-1.19-2.522-2.643-3.857-1.457-1.337-2.797-2.092-4.017-2.269-1.222-.168-2.29.238-3.203 1.234-1.009 1.103-1.42 2.197-1.247 3.295.181 1.095.977 2.292 2.39 3.588l.412.374c1.584 1.455 2.961 2.256 4.131 2.408 1.171.149 2.28-.343 3.321-1.482.883-.957 1.165-2.054.856-3.291zm16.75-11.827l-2.15-1.082-.117.127c.48 2.077-.066 3.97-1.634 5.677-1.491 1.624-3.243 2.352-5.253 2.183-2.013-.172-4.08-1.229-6.206-3.182-2.133-1.959-3.373-3.943-3.713-5.956-.343-2.011.233-3.835 1.729-5.467 1.572-1.707 3.397-2.435 5.481-2.167l.13-.14c-1.056-.723-1.856-1.335-2.398-1.832l-4.739-4.353 2.547-2.774 18.307 16.804-1.984 2.162zm-4.139-1.432c-.162-1.104-.956-2.321-2.376-3.656l-.389-.355c-1.641-1.504-3.049-2.31-4.23-2.41-1.18-.098-2.292.422-3.335 1.556-.892.977-1.188 2.084-.879 3.336.304 1.251 1.188 2.542 2.647 3.879 1.443 1.327 2.777 2.082 4.002 2.266 1.225.186 2.305-.23 3.243-1.252 1.043-1.141 1.483-2.26 1.317-3.364zm11.952-7.083l-2.547 2.775-10.923-10.018-1.962 2.141-1.298-1.188 1.122-2.92-.85-.773c-1.538-1.413-2.346-2.819-2.422-4.225-.079-1.401.559-2.841 1.922-4.325.892-.973 1.93-1.78 3.113-2.427l1.426 2.652c-.845.478-1.551 1.028-2.121 1.65-.576.629-.801 1.262-.676 1.903.125.644.58 1.322 1.354 2.035l.848.776 2.917-3.177 2.094 1.92-2.915 3.177 10.918 10.024zM176.977 453.97c-1.051 1.746-2.25 2.885-3.598 3.409-1.35.526-2.691.384-4.026-.417-1.354-.817-2.114-1.939-2.275-3.359l-.137-.084c-.451.958-.739 1.533-.854 1.727l-2.635 4.385-2.275-1.367 9.304-15.469 1.837 1.107c-.066.23-.25.771-.542 1.626l.118.066c1.362-.654 2.75-.559 4.171.296 1.335.806 2.084 1.915 2.249 3.331.159 1.418-.282 2.998-1.337 4.749zm-2.621-6.574c-.906-.546-1.722-.676-2.457-.396-.737.274-1.45.997-2.15 2.16l-.206.338c-.784 1.303-1.146 2.371-1.083 3.204.062.83.563 1.53 1.497 2.094.789.47 1.587.512 2.4.125.818-.387 1.58-1.181 2.302-2.373.72-1.2 1.053-2.239 1.004-3.108-.053-.868-.486-1.551-1.307-2.044zm10.345 18.533l-1.781-1.073.446-1.641-.107-.063c-1.367.627-2.755.517-4.164-.328-1.335-.806-2.084-1.918-2.251-3.336-.167-1.416.274-3 1.33-4.746 1.053-1.756 2.253-2.897 3.6-3.419 1.347-.522 2.689-.38 4.031.429 1.408.847 2.167 2.011 2.275 3.494l.117.066c.355-.835.662-1.472.928-1.918l2.349-3.901 2.282 1.377-9.055 15.059zm.536-11.983c-.796-.485-1.609-.532-2.429-.143-.826.387-1.597 1.183-2.317 2.383-.713 1.188-1.051 2.22-1.004 3.094.044.877.487 1.563 1.325 2.067.933.563 1.775.712 2.518.442.742-.271 1.474-.991 2.197-2.165l.191-.32c.813-1.35 1.168-2.437 1.072-3.272-.098-.827-.615-1.526-1.553-2.086zm15.621 3.932a6.15 6.15 0 0 0-1.442-1.236c-.517-.309-.987-.375-1.418-.196-.424.174-.833.583-1.217 1.225l-.417.695 2.613 1.572-1.036 1.722-2.616-1.572-5.402 8.983-2.283-1.374 5.403-8.982-1.764-1.061.642-1.063 2.18.365.421-.698c.759-1.266 1.622-2.025 2.579-2.275.965-.255 2.052-.012 3.274.721a8.464 8.464 0 0 1 2.121 1.816l-1.638 1.358z"/><path id="pdfnpng-d" d="M220.554 44.763c-.521.367-1.043.509-1.55.417-.514-.088-.96-.404-1.339-.946-.392-.555-.542-1.092-.448-1.601.085-.513.394-.95.916-1.321.551-.383 1.075-.529 1.584-.438.507.096.958.42 1.349.975.38.541.527 1.066.438 1.576-.083.509-.399.954-.95 1.338zm-24.528 15.173c-1.318-.241-2.488-1.096-3.522-2.571-.649-.921-1.08-1.769-1.288-2.53l2.43-1.706a8.393 8.393 0 0 0 1.043 1.98c.916 1.309 2.114 1.443 3.598.404l16.145-11.33 2.155 3.072-16.353 11.476c-1.495 1.047-2.896 1.448-4.208 1.205zm29.541 3.735c-.6 1.926-2.084 3.714-4.442 5.373-2.364 1.659-4.565 2.438-6.608 2.343-2.045-.092-3.696-1.042-4.964-2.847-1.283-1.83-1.624-3.714-1.016-5.648l-.13-.184c-1.134.98-1.83 1.559-2.092 1.743l-5.924 4.155-2.155-3.071 20.894-14.656 1.741 2.484c-.22.258-.767.854-1.633 1.788l.112.159c2.133-.071 3.877.854 5.224 2.771 1.26 1.805 1.595 3.669.993 5.59zm-4.068-4.626c-.854-1.222-1.837-1.86-2.946-1.923-1.109-.058-2.447.459-4.014 1.56l-.458.321c-1.763 1.237-2.838 2.409-3.24 3.522-.395 1.108-.149 2.297.734 3.56.745 1.063 1.759 1.58 3.035 1.542 1.276-.037 2.718-.621 4.33-1.75 1.621-1.138 2.647-2.285 3.076-3.439.433-1.155.264-2.289-.517-3.393zm15.466 20.846l-2.189-2.15c-.145.442-.392.891-.73 1.351-.34.458-.762.862-1.259 1.212-1.487 1.046-3.022 1.354-4.597.926-1.575-.43-2.998-1.547-4.264-3.352a8.984 8.984 0 0 1-.776-1.326c-.875-.375-1.584-.37-2.133.013-.331.233-.47.562-.421.988.054.425.37 1.049.951 1.88l1.771 2.521c1.119 1.597 1.631 3.047 1.531 4.353-.101 1.304-.789 2.405-2.072 3.305-1.638 1.151-3.377 1.359-5.209.634-1.839-.726-3.652-2.368-5.444-4.924-1.384-1.967-2.089-3.713-2.119-5.244-.032-1.525.595-2.738 1.888-3.646.889-.621 1.834-.867 2.836-.73.999.137 1.971.629 2.912 1.476a2.834 2.834 0 0 1 .135-1.605c.199-.538.517-.954.94-1.254.544-.379 1.104-.55 1.697-.508.588.045 1.276.238 2.065.583-.206-.979-.105-1.954.293-2.93.402-.975 1.09-1.809 2.065-2.492 1.572-1.101 3.135-1.459 4.69-1.076 1.558.384 2.976 1.493 4.259 3.322.287.409.563.859.821 1.347.259.488.438.867.534 1.138l3.515 5.006-1.69 1.182zm-17.041 2.767l-1.631-2.33c-.619-.879-1.315-1.433-2.091-1.658-.779-.23-1.521-.097-2.226.399-.664.463-.963 1.122-.904 1.968.061.846.47 1.813 1.229 2.894 1.175 1.671 2.288 2.75 3.343 3.234 1.056.483 1.979.445 2.772-.113.629-.437.916-.975.867-1.613-.051-.634-.501-1.564-1.359-2.781zm11.871-10.083c-.625-.891-1.35-1.387-2.175-1.488-.831-.104-1.727.184-2.694.862-.904.638-1.438 1.359-1.599 2.167-.164.81.066 1.647.673 2.519 1.247 1.779 2.824 2 4.725.671.94-.664 1.513-1.392 1.712-2.188.201-.801-.012-1.647-.642-2.543zM77.331 309.849c-.625 1.869-2.117 3.412-4.48 4.619-1.484.759-2.806 1.21-3.965 1.364l-1.992-3.906a12.696 12.696 0 0 0 3.11-1.112c2.1-1.072 2.539-2.797 1.325-5.178l-13.247-25.919 4.931-2.518 13.419 26.252c1.223 2.394 1.519 4.527.899 6.398zm-18.512-34.85c-.893.458-1.706.57-2.435.333-.729-.238-1.309-.774-1.739-1.614-.449-.879-.553-1.683-.316-2.405.238-.72.808-1.313 1.7-1.771.872-.44 1.668-.551 2.393-.321.727.23 1.314.784 1.764 1.668.43.838.525 1.622.292 2.352-.239.728-.792 1.316-1.659 1.758zm39.041 10.17c-.559 2.969-2.285 5.194-5.181 6.674-2.939 1.499-5.762 1.609-8.463.326l-.295.148c1.2 1.859 1.904 2.998 2.118 3.417l4.86 9.51-4.931 2.521-17.14-33.538 3.988-2.038c.334.375 1.092 1.291 2.28 2.75l.251-.129c.337-3.136 2.046-5.489 5.123-7.066 2.897-1.479 5.69-1.579 8.378-.309 2.689 1.273 5.002 3.807 6.94 7.598s2.627 7.173 2.072 10.136zm-7.153-7.594c-1.329-2.601-2.792-4.335-4.393-5.202-1.601-.872-3.289-.853-5.065.059-1.959 1-3.097 2.305-3.41 3.914-.316 1.609.167 3.671 1.455 6.188l.376.735c1.446 2.828 2.938 4.646 4.481 5.451 1.542.813 3.326.696 5.356-.343 1.705-.869 2.664-2.24 2.873-4.114.207-1.871-.347-4.099-1.673-6.688zm35.335 7.011c-1.438 2.532-4.21 4.847-8.308 6.943-3.163 1.619-5.861 2.29-8.099 2.022-2.239-.271-3.884-1.439-4.944-3.509-.729-1.428-.891-2.856-.483-4.291.404-1.433 1.321-2.756 2.751-3.963-.801.057-1.572-.117-2.318-.521s-1.292-.95-1.642-1.634c-.442-.867-.576-1.731-.392-2.581s.605-1.817 1.271-2.902c-1.467.101-2.876-.245-4.222-1.028-1.342-.789-2.417-1.965-3.218-3.532-1.288-2.518-1.493-4.876-.608-7.073.879-2.196 2.788-4.043 5.727-5.547a18.7 18.7 0 0 1 2.134-.918c.767-.279 1.359-.463 1.772-.549l8.041-4.107 1.384 2.706-3.593 2.763c.612.304 1.221.752 1.826 1.342a8.061 8.061 0 0 1 1.514 2.085c1.225 2.393 1.358 4.697.408 6.911-.95 2.219-2.872 4.065-5.769 5.545-.742.38-1.443.666-2.102.862-.725 1.2-.862 2.243-.413 3.122.272.534.721.804 1.355.818.633.012 1.613-.321 2.943-1.002l4.052-2.072c2.56-1.308 4.781-1.753 6.669-1.347 1.888.414 3.355 1.648 4.406 3.708 1.347 2.631 1.297 5.209-.142 7.749zm-18.157-15.128c2.855-1.46 3.502-3.711 1.943-6.762-.771-1.514-1.722-2.496-2.844-2.954-1.125-.456-2.409-.318-3.851.419-1.425.729-2.301 1.689-2.618 2.873-.321 1.188-.083 2.559.709 4.109.742 1.459 1.688 2.385 2.838 2.784 1.15.406 2.423.249 3.823-.469zm14.077 10.303c-.513-1.009-1.243-1.54-2.18-1.599-.938-.059-2.385.411-4.343 1.413l-3.74 1.908c-1.413.722-2.364 1.631-2.856 2.718-.496 1.093-.449 2.202.13 3.336.542 1.063 1.438 1.639 2.693 1.722 1.25.083 2.743-.318 4.477-1.205 2.688-1.371 4.489-2.782 5.415-4.22.921-1.442 1.054-2.801.404-4.073z"/></defs><symbol id="close" viewBox="0 0 300 300"><path fill-rule="evenodd" clip-rule="evenodd" fill="inherit" d="M185.125 150.53l106.001 106.003c9.773 9.772 9.773 25.603 0 35.374-9.771 9.772-25.626 9.772-35.398 0L149.725 185.905 43.04 292.617c-9.846 9.845-25.798 9.845-35.655 0-9.846-9.821-9.846-25.823 0-35.669l106.698-106.687L8.117 44.271c-9.772-9.771-9.772-25.614 0-35.386 9.736-9.772 25.566-9.772 35.338 0l106.014 106.002L256.949 7.394c9.87-9.858 25.822-9.858 35.668 0 9.845 9.845 9.845 25.798 0 35.655L185.125 150.53z"/></symbol><symbol id="pdfnpng" viewBox="0 0 300 484.9"><path opacity=".62" fill="#636F97" d="M299.126 166.843l-39.673 103.181c-2.589 6.735-10.146 10.093-16.879 7.507l-84.411-32.456c-6.733-2.591-10.089-10.149-7.504-16.882l39.673-103.184c2.589-6.731 10.147-10.088 16.879-7.503l84.411 32.457c6.733 2.59 10.093 10.148 7.504 16.88zm-11.623-10.152l-81.739-31.431a6.533 6.533 0 0 0-8.438 3.753l-22.355 58.137 31.625-14.856 8.146 19.946 44.229-19.956 17.457 31.758 14.827-38.914a6.53 6.53 0 0 0-3.752-8.437zm-76.442 9.525c-7.25-2.785-10.879-10.897-8.104-18.116 2.777-7.22 10.906-10.811 18.155-8.024 7.252 2.79 10.881 10.902 8.104 18.122-2.775 7.215-10.903 10.81-18.155 8.018zm7.259-18.621a6.139 6.139 0 0 0-7.933 3.528 6.136 6.136 0 0 0 3.524 7.933 6.143 6.143 0 0 0 7.938-3.524 6.143 6.143 0 0 0-3.529-7.937zm31.297 198.665l-41.427 45.15c-3.309 3.598-8.905 3.84-12.507.536L140.495 341.3c-3.599-3.301-3.841-8.902-.534-12.502l41.429-45.149c3.302-3.599 8.905-3.841 12.503-.537l55.188 50.646c3.603 3.301 3.845 8.905.536 12.502zm-58.761-58.612a4.427 4.427 0 0 0-6.25.267l-40.119 43.725a4.423 4.423 0 0 0 .271 6.25l31.093 28.532-1.506-23.627 14.594-.179-1.589-32.838 24.354-3.115-20.848-19.015zm-32.669 51.432c-3.862-3.542-4.107-9.56-.546-13.438 3.559-3.88 9.571-4.151 13.434-.604 3.862 3.541 4.104 9.559.546 13.438-3.557 3.873-9.577 4.148-13.434.604zm9.375-10.062a4.156 4.156 0 0 0-5.875.25 4.161 4.161 0 0 0 6.13 5.628 4.159 4.159 0 0 0-.255-5.878zm57.442 107.453l-27.308 45.395a6.262 6.262 0 0 1-8.592 2.138l-37.136-22.338c-2.961-1.786-3.921-5.631-2.136-8.592l27.305-45.395a6.258 6.258 0 0 1 8.589-2.141l37.141 22.341a6.262 6.262 0 0 1 2.137 8.592zm-4.644-5.761l-35.96-21.63a3.134 3.134 0 0 0-4.296 1.068l-15.385 25.576 16.162-4.379 2.185 10.088L205.6 435.7l5.599 16.436 10.23-17.129a3.13 3.13 0 0 0-1.069-4.297zm-36.869-1.861c-3.187-1.917-4.225-6.052-2.314-9.226 1.91-3.177 6.042-4.195 9.233-2.275 3.191 1.918 4.229 6.047 2.319 9.226-1.91 3.172-6.046 4.195-9.238 2.275zm4.977-8.187a2.943 2.943 0 1 0-3.032 5.045 2.943 2.943 0 0 0 3.032-5.045z"/><path opacity=".7" fill-rule="evenodd" clip-rule="evenodd" fill="#636F97" d="M172.708 140.507l-88.216 19.921c-7.036 1.588-14.026-2.83-15.614-9.862L44.524 42.734c-1.588-7.037 2.827-14.031 9.863-15.62l88.217-19.921c7.035-1.588 14.027 2.826 15.614 9.862l24.352 107.833c1.59 7.038-2.826 14.032-9.862 15.619zm-21.983-120.5a6.535 6.535 0 0 0-7.808-4.931L57.493 34.368c-3.518.791-5.722 4.288-4.931 7.808l13.719 60.754 18.042-29.924 17.853 12.054 25.687-41.163L160.021 60.6l-9.296-40.593zm-66.07 45.466c-7.579 1.713-15.103-3.014-16.804-10.56-1.705-7.544 3.055-15.047 10.634-16.761 7.578-1.709 15.103 3.018 16.807 10.562 1.705 7.546-3.06 15.049-10.637 16.759zm-4.311-19.517a6.138 6.138 0 0 0-4.635 7.345 6.138 6.138 0 0 0 7.34 4.635 6.14 6.14 0 0 0-2.705-11.98z"/><g opacity=".62"><use xlink:href="#pdfnpng-c" overflow="visible" fill="#FFF"/></g><path fill="#636F97" d="M285.242 66.255l-61.313 43.024a8.857 8.857 0 0 1-12.332-2.16L176.403 56.96c-2.812-4.004-1.839-9.521 2.16-12.332l61.316-43.02c4.002-2.812 9.52-1.839 12.326 2.16l35.196 50.159c2.808 4.003 1.841 9.521-2.159 12.328zm-2.696-10.101L248.461 7.579a4.43 4.43 0 0 0-6.165-1.08L207.752 30.74l23.399 3.604-2.957 14.291 32.409 5.5-2.189 24.458 23.051-16.276a4.43 4.43 0 0 0 1.081-6.163zm-33.347-21.189c-4.291 3.011-10.215 1.956-13.24-2.352-3.022-4.307-1.996-10.242 2.29-13.252 4.291-3.011 10.22-1.956 13.245 2.351 3.022 4.308 1.998 10.242-2.295 13.253zm-2.119-10.079a4.162 4.162 0 0 0-5.794-1.018 4.16 4.16 0 0 0-1.014 5.797 4.159 4.159 0 1 0 6.808-4.779zm-97.24 268.187l-80.528 41.152c-6.421 3.282-14.292.737-17.574-5.685L1.434 230.103c-3.282-6.426-.738-14.293 5.683-17.574l80.532-41.155c6.423-3.282 14.292-.735 17.574 5.687l50.305 98.44c3.281 6.42.739 14.29-5.688 17.572zM98.692 181.777a6.53 6.53 0 0 0-8.788-2.843l-77.979 39.85a6.527 6.527 0 0 0-2.845 8.787l28.341 55.461 10.067-33.458 20.284 7.252 14.684-46.239 35.293 8.212-19.057-37.022zm-52.746 60.415c-6.919 3.537-15.379.818-18.9-6.068-3.519-6.887-.763-15.337 6.156-18.868 6.914-3.536 15.376-.823 18.895 6.066 3.52 6.885.768 15.334-6.151 18.87zm-.75-15.167a6.14 6.14 0 0 0-8.261-2.672 6.139 6.139 0 1 0 5.588 10.933 6.14 6.14 0 0 0 2.673-8.261z"/><use xlink:href="#pdfnpng-d" overflow="visible" fill="#FFF"/><path opacity=".7" fill="#FFF" d="M102.724 124.848c-1.275 2.733-3.501 4.46-6.674 5.176-3.218.73-5.977.133-8.278-1.776l-.321.071c.7 2.096 1.101 3.376 1.205 3.835l2.352 10.416-5.403 1.217-8.295-36.736 4.368-.988c.23.446.738 1.526 1.526 3.23l.275-.063c1.104-2.955 3.343-4.815 6.715-5.573 3.172-.718 5.902-.125 8.191 1.772 2.292 1.9 3.905 4.926 4.843 9.079.939 4.157.767 7.6-.504 10.34zm-5.047-9.129c-.642-2.852-1.634-4.898-2.969-6.133-1.333-1.238-2.972-1.637-4.917-1.196-2.148.484-3.573 1.468-4.277 2.947-.704 1.48-.746 3.598-.125 6.357l.184.805c.701 3.097 1.696 5.228 2.988 6.395 1.297 1.163 3.057 1.496 5.278.992 1.867-.421 3.135-1.512 3.801-3.272.666-1.764.678-4.062.037-6.895zm29.783 6.731l-3.531-15.635c-.442-1.959-1.168-3.336-2.176-4.123-1.009-.788-2.368-.988-4.085-.6-2.285.517-3.802 1.567-4.557 3.156-.751 1.588-.771 3.967-.054 7.14l2.859 12.668-5.403 1.221-5.739-25.427 4.231-.955 1.508 3.159.276-.063c.496-1.384 1.372-2.563 2.634-3.539 1.259-.979 2.748-1.663 4.465-2.051 6.098-1.375 9.851 1.038 11.255 7.246l3.744 16.577-5.427 1.226zm34.102 1.722c-2.021 2.101-5.278 3.655-9.767 4.673-3.463.779-6.248.763-8.349-.05-2.102-.813-3.406-2.355-3.918-4.623-.354-1.563-.154-2.989.592-4.276.75-1.293 1.963-2.344 3.647-3.161-.788-.141-1.492-.5-2.114-1.079-.625-.576-1.016-1.238-1.188-1.989-.217-.95-.129-1.817.258-2.597.388-.779 1.038-1.613 1.951-2.492-1.446-.272-2.726-.955-3.834-2.047-1.11-1.096-1.855-2.5-2.244-4.219-.625-2.759-.237-5.093 1.16-7.002 1.396-1.909 3.706-3.231 6.924-3.957a18.598 18.598 0 0 1 2.301-.362c.808-.08 1.425-.108 1.851-.092l8.804-1.989.671 2.968-4.166 1.784c.521.446 1.001 1.03 1.435 1.755.438.721.754 1.522.955 2.393.59 2.622.149 4.89-1.317 6.799-1.472 1.909-3.789 3.222-6.965 3.939-.81.184-1.56.288-2.247.316-1 .984-1.393 1.956-1.176 2.923.129.583.5.959 1.113 1.125.608.167 1.642.087 3.097-.243l4.439-1c2.802-.633 5.07-.517 6.794.35 1.727.867 2.844 2.426 3.353 4.681.649 2.882-.035 5.37-2.06 7.472zm-13.844-19.15c3.126-.709 4.314-2.73 3.56-6.074-.375-1.654-1.05-2.842-2.025-3.563-.976-.721-2.255-.905-3.835-.55-1.563.354-2.646 1.066-3.251 2.138-.6 1.066-.713 2.455-.329 4.156.362 1.595 1.05 2.726 2.063 3.4 1.012.672 2.284.838 3.817.493zm11.089 13.464c-.25-1.101-.82-1.796-1.717-2.088-.892-.288-2.415-.192-4.561.295l-4.094.922c-1.546.351-2.692.992-3.443 1.925-.746.934-.979 2.021-.7 3.265.263 1.162.992 1.942 2.185 2.334 1.191.392 2.738.371 4.635-.059 2.944-.663 5.041-1.58 6.29-2.747 1.25-1.166 1.721-2.451 1.405-3.847z"/></symbol><symbol id="archive-icn" viewBox="0 0 300 299.507"><path fill-rule="evenodd" clip-rule="evenodd" fill="inherit" d="M278.54 299.507H21.462c-24.001 0-21.378-27.664-21.378-21.377V26.063C.084 14.263-.224 0 16.24 0c17.023 0 17.884 14.263 17.884 26.063l.309 189.754 232.103-.031V26.722c0-11.793-.845-26.575 17.202-26.575 17.527 0 16.18 14.782 16.18 26.575v252.107c-.001-5.426 2.614 20.678-21.378 20.678zM100.375 98.812c4.613 0 8.764 1.854 11.769 4.865l20.873 22.061V30.905c0-9.203 8.154-15.084 17.357-15.084 9.193 0 16.634 5.881 16.634 15.084v95.855l21.556-23.084a16.558 16.558 0 0 1 11.776-4.865c9.194 0 16.634 7.441 16.634 16.635 0 4.613-1.868 8.764-4.873 11.77l-49.967 50.477a16.61 16.61 0 0 1-11.76 4.873 16.576 16.576 0 0 1-11.777-4.873L88.63 127.216a16.468 16.468 0 0 1-4.897-11.77c0-9.193 7.473-16.634 16.642-16.634z"/></symbol><symbol id="submit" viewBox="0 0 300.002 300.022"><path fill-rule="evenodd" clip-rule="evenodd" fill="#6A6F82" d="M256.057 256.077c-58.576 58.594-153.544 58.594-212.139 0-58.558-58.576-58.558-153.544 0-212.139 58.595-58.585 153.562-58.585 212.139 0 58.594 58.595 58.594 153.563 0 212.139zM229.543 70.452c-43.928-43.927-115.184-43.927-159.111 0-43.927 43.937-43.927 115.184 0 159.111 43.928 43.927 115.184 43.927 159.111 0 43.927-43.927 43.927-115.174 0-159.111zm-10.052 55.326l-75.001 75a18.648 18.648 0 0 1-13.257 5.476 18.713 18.713 0 0 1-13.257-5.476l-37.5-37.5C77.088 159.854 75 155.186 75 150.021c0-10.354 8.378-18.769 18.732-18.769 5.191 0 9.869 2.097 13.257 5.484l24.243 24.252 61.744-61.725a18.628 18.628 0 0 1 13.257-5.512c10.363 0 18.769 8.404 18.769 18.769 0 5.165-2.124 9.871-5.511 13.258z"/></symbol><symbol id="baloon" viewBox="0 0 300 198"><path fill-rule="evenodd" clip-rule="evenodd" fill="#B9BBC4" d="M231.481 158.588H177.89c.315 2.962-1.271 6.071-3.928 8.755l-32.619 26.938c-.485.487-.947.796-1.425 1.184-.4.417-.809.788-1.286 1.082-.285.178-.555.278-.832.426-.501.247-.955.502-1.479.649-.608.192-1.24.255-1.849.278-.2.016-.4.1-.586.1-.23 0-.5-.084-.747-.107-.208-.038-.408-.054-.624-.101-2.741-.425-5.529-2.251-6.146-6.233-.062-.34-.2-.635-.216-.998 0-.146-.069-.225-.069-.371v-31.602H68.511C27.92 158.588 0 117.233 0 76.475 0 35.724 27.92 0 68.511 0h162.971C272.072 0 300 35.724 300 76.475c0 40.758-27.928 82.113-68.519 82.113zM220.976 16.134H78.771c-34.845 0-61.787 28.369-61.787 63.358 0 34.995 26.942 63.356 61.787 63.356h63.281v29.606l31.093-29.606h47.831c34.853 0 62.226-28.361 62.226-63.356-.001-34.99-27.374-63.358-62.226-63.358z"/></symbol><symbol id="delete" viewBox="0 0 300 300"><path fill-rule="evenodd" clip-rule="evenodd" fill="inherit" d="M281.232 93.744h-18.749v187.488c0 10.363-8.367 18.768-18.73 18.768H56.265c-10.354 0-18.749-8.404-18.749-18.768V93.744H18.758C8.403 93.744 0 85.376 0 75.022 0 64.64 8.403 56.264 18.758 56.264h56.265V18.758C75.022 8.403 83.399 0 93.744 0h112.512c10.345 0 18.748 8.403 18.748 18.758v37.507h56.229c10.363 0 18.768 8.376 18.768 18.758-.001 10.353-8.405 18.721-18.769 18.721zm-93.744-56.228h-74.986v18.749h74.986V37.516zm37.516 206.237V112.502c0-10.354-8.403-18.758-18.748-18.758H93.744c-10.345 0-18.722 8.403-18.722 18.758v131.251a18.75 18.75 0 0 0 5.475 13.256 18.688 18.688 0 0 0 13.247 5.475h112.512c5.181 0 9.85-2.087 13.237-5.475a18.59 18.59 0 0 0 5.511-13.256zm-37.516-18.749h-74.986c-10.354 0-18.758-8.404-18.758-18.749 0-10.362 8.404-18.767 18.758-18.767h74.986c10.363 0 18.768 8.404 18.768 18.767 0 10.345-8.404 18.749-18.768 18.749zm0-56.246h-74.986c-10.354 0-18.758-8.386-18.758-18.749s8.404-18.749 18.758-18.749h74.986c10.363 0 18.768 8.386 18.768 18.749s-8.404 18.749-18.768 18.749z"/></symbol></svg>