<?xml version="1.0" encoding="UTF-8"?><!DOCTYPE svg PUBLIC "-//W3C//DTD SVG 1.1//EN" "http://www.w3.org/Graphics/SVG/1.1/DTD/svg11.dtd"><svg xmlns="http://www.w3.org/2000/svg"><symbol id="addfile" viewBox="0 0 300 356.742"><path fill-rule="evenodd" clip-rule="evenodd" fill="#AFB5BF" d="M255.194 356.742H55.396C2.615 355.878 0 303.973 0 303.973V90.166C35.136 3.735 112.248 0 112.248 0h115.754C297.623 0 300 61.571 300 61.571V306.77c-.071 46.201-44.806 49.972-44.806 49.972zm20.561-282.644c-.38-54.619-47.951-50.004-47.951-50.004H97.206l.103 32.446c-1.22 28.813-40.405 32.636-40.405 32.636H24.158v193.073c.075 56.175 46.616 50.059 46.616 50.059h156.919c51.247.214 48.196-48.744 48.196-48.744s.104-174.585-.134-209.466z"/><path fill="#19C1E5" d="M154.269 259.666c-40.329 0-73.016-32.69-73.016-73.02 0-40.325 32.687-73.017 73.016-73.017s73.021 32.691 73.021 73.017c-.001 40.33-32.692 73.02-73.021 73.02zm0-130.031c-31.431 0-57.011 25.58-57.011 57.012 0 31.439 25.58 57.016 57.011 57.016 31.432 0 57.016-25.576 57.016-57.016-.001-31.432-25.585-57.012-57.016-57.012zm27.478 64.744h-19.476v19.745c0 4.991-2.924 9.032-7.916 9.032h-.174c-5 0-7.927-4.041-7.927-9.032v-19.745h-19.46c-4.987 0-9.036-2.654-9.036-7.646v-.174c0-5 4.049-8.201 9.036-8.201h19.183v-19.186c0-4.988 3.205-9.032 8.204-9.032h.174c4.992 0 7.916 4.044 7.916 9.032v19.186h19.476c4.983 0 9.032 3.201 9.032 8.201v.174c0 4.992-4.049 7.646-9.032 7.646z"/></symbol><symbol id="more" viewBox="0 0 300 300.014"><path fill="inherit" d="M150.003 300.014C67.161 300.014 0 232.853 0 150.003 0 67.161 67.161 0 150.003 0 232.853 0 300 67.161 300 150.003c0 82.85-67.147 150.011-149.997 150.011zm0-271.15c-66.788 0-121.14 54.352-121.14 121.14 0 66.796 54.352 121.14 121.14 121.14 66.796 0 121.14-54.344 121.14-121.14 0-66.789-54.344-121.14-121.14-121.14zM75.005 165.002v-29.991h30.014v29.991H75.005zm60.006 0v-29.991h29.991v29.991h-29.991zm60.006 0v-29.991h29.984v29.991h-29.984z"/></symbol><symbol id="baloon" viewBox="0 0 300 198"><path fill-rule="evenodd" clip-rule="evenodd" fill="#B9BBC4" d="M231.481 158.588H177.89c.315 2.962-1.271 6.071-3.928 8.755l-32.619 26.938c-.485.487-.947.796-1.425 1.184-.4.417-.809.788-1.286 1.082-.285.178-.555.278-.832.426-.501.247-.955.502-1.479.649-.608.192-1.24.255-1.849.278-.2.016-.4.1-.586.1-.23 0-.5-.084-.747-.107-.208-.038-.408-.054-.624-.101-2.741-.425-5.529-2.251-6.146-6.233-.062-.34-.2-.635-.216-.998 0-.146-.069-.225-.069-.371v-31.602H68.511C27.92 158.588 0 117.233 0 76.475 0 35.724 27.92 0 68.511 0h162.971C272.072 0 300 35.724 300 76.475c0 40.758-27.928 82.113-68.519 82.113zM220.976 16.134H78.771c-34.845 0-61.787 28.369-61.787 63.358 0 34.995 26.942 63.356 61.787 63.356h63.281v29.606l31.093-29.606h47.831c34.853 0 62.226-28.361 62.226-63.356-.001-34.99-27.374-63.358-62.226-63.358z"/></symbol><symbol id="icon4" viewBox="0 0 300 356.75"><path fill-rule="evenodd" clip-rule="evenodd" fill="#AFB5BF" d="M255.187 356.75H55.391C2.614 355.878 0 303.981 0 303.981V90.166C35.131 3.74 112.24 0 112.24 0h115.77C297.623 0 300 61.579 300 61.579V306.77c-.079 46.209-44.813 49.98-44.813 49.98zm20.568-282.652c-.38-54.614-47.951-49.995-47.951-49.995H97.202l.103 32.438c-1.22 28.816-40.4 32.644-40.4 32.644H24.149v193.072c.08 56.176 46.62 50.06 46.62 50.06h156.923c51.247.205 48.189-48.744 48.189-48.744s.111-174.59-.126-209.475z"/><path fill="#00AEEF" d="M210.832 251.276H97.629a8.272 8.272 0 0 1-8.272-8.271V138.117c0-4.563 3.7-8.271 8.272-8.271h24.277v-8.359c0-4.524-.079-8.192 4.453-8.192h6.624c4.524 0 5.023 3.668 5.023 8.192v8.359h32.129v-8.359c0-4.524.515-8.192 5.039-8.192h6.611c4.533 0 4.723 3.668 4.723 8.192v8.359h24.324c4.564 0 8.271 3.708 8.271 8.271v104.888c.001 4.563-3.707 8.271-8.271 8.271zm-7.907-101.385a4.147 4.147 0 0 0-4.151-4.136h-88.99a4.139 4.139 0 0 0-4.136 4.136v81.641c0 2.281 1.847 4.151 4.136 4.151h88.99a4.156 4.156 0 0 0 4.151-4.151v-81.641zm-28.179 69.154h-41.098c-1.997 0-3.613-1.807-3.613-4.041v-8.019c0-2.234 1.616-4.057 3.613-4.057h12.154v-24.371h-12.154c-1.997 0-3.613-1.807-3.613-4.041v-8.05c0-2.227 1.616-4.041 3.613-4.041h25.069c2.005 0 3.629 1.814 3.629 4.041v36.461h12.4c2.004 0 3.633 1.822 3.633 4.057v8.019c0 2.235-1.629 4.042-3.633 4.042z"/></symbol><symbol id="delete" viewBox="0 0 300 300"><path fill-rule="evenodd" clip-rule="evenodd" fill="inherit" d="M281.232 93.744h-18.749v187.488c0 10.363-8.367 18.768-18.73 18.768H56.265c-10.354 0-18.749-8.404-18.749-18.768V93.744H18.758C8.403 93.744 0 85.376 0 75.022 0 64.64 8.403 56.264 18.758 56.264h56.265V18.758C75.022 8.403 83.399 0 93.744 0h112.512c10.345 0 18.748 8.403 18.748 18.758v37.507h56.229c10.363 0 18.768 8.376 18.768 18.758-.001 10.353-8.405 18.721-18.769 18.721zm-93.744-56.228h-74.986v18.749h74.986V37.516zm37.516 206.237V112.502c0-10.354-8.403-18.758-18.748-18.758H93.744c-10.345 0-18.722 8.403-18.722 18.758v131.251a18.75 18.75 0 0 0 5.475 13.256 18.688 18.688 0 0 0 13.247 5.475h112.512c5.181 0 9.85-2.087 13.237-5.475a18.59 18.59 0 0 0 5.511-13.256zm-37.516-18.749h-74.986c-10.354 0-18.758-8.404-18.758-18.749 0-10.362 8.404-18.767 18.758-18.767h74.986c10.363 0 18.768 8.404 18.768 18.767 0 10.345-8.404 18.749-18.768 18.749zm0-56.246h-74.986c-10.354 0-18.758-8.386-18.758-18.749s8.404-18.749 18.758-18.749h74.986c10.363 0 18.768 8.386 18.768 18.749s-8.404 18.749-18.768 18.749z"/></symbol><symbol id="lock1" viewBox="0 0 300 342.89"><path fill-rule="evenodd" clip-rule="evenodd" fill="inherit" d="M214.304 342.89H85.707C38.381 342.89 0 304.51 0 257.173v-85.718c0-23.689 19.201-42.869 42.869-42.869v-21.439C42.869 47.985 90.824 0 150.017 0c59.16 0 107.146 47.985 107.146 107.146v21.439c23.668 0 42.837 19.18 42.837 42.869v85.718c0 47.338-38.38 85.718-85.696 85.718zm-85.717-91.682v27.373c0 11.865 9.595 21.429 21.43 21.429 11.845 0 21.429-9.563 21.429-21.429v-27.373c12.766-7.408 21.408-21.073 21.408-36.915 0-23.669-19.169-42.838-42.837-42.838-23.658 0-42.869 19.169-42.869 42.838-.001 15.842 8.684 29.507 21.439 36.915zm21.43-208.329c-35.524 0-64.31 28.775-64.31 64.268 0 7.575 1.549 14.69 3.966 21.439H210.37c2.386-6.749 3.934-13.864 3.934-21.439 0-35.493-28.795-64.268-64.287-64.268z"/></symbol><symbol id="dropdown" viewBox="0 0 300.005 300"><path fill-rule="evenodd" clip-rule="evenodd" fill="inherit" d="M256.071 256.052c-58.598 58.597-153.544 58.597-212.123 0-58.597-58.579-58.597-153.543 0-212.104 58.579-58.598 153.525-58.598 212.123 0 58.579 58.561 58.579 153.525 0 212.104zM229.555 70.445c-43.93-43.966-115.181-43.966-159.11 0-43.947 43.93-43.947 115.18 0 159.11 43.93 43.947 115.181 43.947 159.11 0 43.948-43.93 43.948-115.18 0-159.11zM149.68 205.878l-69.164-61.967c-3.388-3.388-5.512-8.057-5.512-13.239 0-10.365 8.424-18.751 18.77-18.751 10.236 0 13.258 5.494 13.258 5.494l42.996 35.964L192.437 118a18.686 18.686 0 0 1 13.258-5.494c10.347 0 18.751 8.387 18.751 18.751 0 10.254-5.512 13.258-5.512 13.258l-69.254 61.363z"/></symbol></svg>