<?xml version="1.0" encoding="UTF-8"?><!DOCTYPE svg PUBLIC "-//W3C//DTD SVG 1.1//EN" "http://www.w3.org/Graphics/SVG/1.1/DTD/svg11.dtd"><svg xmlns="http://www.w3.org/2000/svg"><symbol id="addfile" viewBox="0 0 300 356.742"><path fill-rule="evenodd" clip-rule="evenodd" fill="#AFB5BF" d="M255.194 356.742H55.396C2.615 355.878 0 303.973 0 303.973V90.166C35.136 3.735 112.248 0 112.248 0h115.754C297.623 0 300 61.571 300 61.571V306.77c-.071 46.201-44.806 49.972-44.806 49.972zm20.561-282.644c-.38-54.619-47.951-50.004-47.951-50.004H97.206l.103 32.446c-1.22 28.813-40.405 32.636-40.405 32.636H24.158v193.073c.075 56.175 46.616 50.059 46.616 50.059h156.919c51.247.214 48.196-48.744 48.196-48.744s.104-174.585-.134-209.466z"/><path fill="#19C1E5" d="M154.269 259.666c-40.329 0-73.016-32.69-73.016-73.02 0-40.325 32.687-73.017 73.016-73.017s73.021 32.691 73.021 73.017c-.001 40.33-32.692 73.02-73.021 73.02zm0-130.031c-31.431 0-57.011 25.58-57.011 57.012 0 31.439 25.58 57.016 57.011 57.016 31.432 0 57.016-25.576 57.016-57.016-.001-31.432-25.585-57.012-57.016-57.012zm27.478 64.744h-19.476v19.745c0 4.991-2.924 9.032-7.916 9.032h-.174c-5 0-7.927-4.041-7.927-9.032v-19.745h-19.46c-4.987 0-9.036-2.654-9.036-7.646v-.174c0-5 4.049-8.201 9.036-8.201h19.183v-19.186c0-4.988 3.205-9.032 8.204-9.032h.174c4.992 0 7.916 4.044 7.916 9.032v19.186h19.476c4.983 0 9.032 3.201 9.032 8.201v.174c0 4.992-4.049 7.646-9.032 7.646z"/></symbol><symbol id="projects" viewBox="0 0 299.645 323.207"><path fill="#425182" d="M257.829 265.795l-15.279-.101v2.896c0 27.01-16.587 54.616-47.157 54.616H43.123C20.299 323.207 0 302.44 0 269.74V86.471c0-22.198 16.006-39.765 38.807-39.765l18.598-.304.141-2.586C57.546 21.612 74.211.214 97.029.214c0 0 128.033-.214 129.363-.214l73.253 86.719v139.899c0 22.197-18.987 39.177-41.816 39.177zM57.743 222.471V68.854l-14.338.333c-11.319 0-20.53 10.243-20.53 21.223v185.54c0 10.986 10.237 24.474 21.562 24.474H195.9c21.849 0 24.226-17.589 23.482-34.728l3.054-.034-122.642-.067c-22.816-.002-42.051-20.927-42.051-43.124zm219.31-118.416h-29.455c-22.964 0-39.877-15.042-39.877-37.438 0 0-.181-18.564 0-43.388H102.443c-11.325 0-21.562 10.575-21.562 21.562v176.778c0 10.975 10.237 21.557 21.562 21.557h153.042c11.324 0 21.567-10.582 21.567-21.557V104.055h.001zm-57.603 45.714h-93.001c-6.141 0-11.11-4.969-11.11-11.093 0-6.135 4.969-11.104 11.11-11.104h93.001c6.142 0 11.11 4.969 11.11 11.104.001 6.124-4.968 11.093-11.11 11.093zm0 46.616h-93.001a11.103 11.103 0 0 1-11.11-11.11c0-6.118 4.969-11.088 11.11-11.088h93.001c6.142 0 11.11 4.97 11.11 11.088a11.102 11.102 0 0 1-11.11 11.11z"/></symbol><symbol id="more" viewBox="0 0 300 300.014"><path fill="inherit" d="M150.003 300.014C67.161 300.014 0 232.853 0 150.003 0 67.161 67.161 0 150.003 0 232.853 0 300 67.161 300 150.003c0 82.85-67.147 150.011-149.997 150.011zm0-271.15c-66.788 0-121.14 54.352-121.14 121.14 0 66.796 54.352 121.14 121.14 121.14 66.796 0 121.14-54.344 121.14-121.14 0-66.789-54.344-121.14-121.14-121.14zM75.005 165.002v-29.991h30.014v29.991H75.005zm60.006 0v-29.991h29.991v29.991h-29.991zm60.006 0v-29.991h29.984v29.991h-29.984z"/></symbol><symbol id="baloon" viewBox="0 0 300 198"><path fill-rule="evenodd" clip-rule="evenodd" fill="#B9BBC4" d="M231.481 158.588H177.89c.315 2.962-1.271 6.071-3.928 8.755l-32.619 26.938c-.485.487-.947.796-1.425 1.184-.4.417-.809.788-1.286 1.082-.285.178-.555.278-.832.426-.501.247-.955.502-1.479.649-.608.192-1.24.255-1.849.278-.2.016-.4.1-.586.1-.23 0-.5-.084-.747-.107-.208-.038-.408-.054-.624-.101-2.741-.425-5.529-2.251-6.146-6.233-.062-.34-.2-.635-.216-.998 0-.146-.069-.225-.069-.371v-31.602H68.511C27.92 158.588 0 117.233 0 76.475 0 35.724 27.92 0 68.511 0h162.971C272.072 0 300 35.724 300 76.475c0 40.758-27.928 82.113-68.519 82.113zM220.976 16.134H78.771c-34.845 0-61.787 28.369-61.787 63.358 0 34.995 26.942 63.356 61.787 63.356h63.281v29.606l31.093-29.606h47.831c34.853 0 62.226-28.361 62.226-63.356-.001-34.99-27.374-63.358-62.226-63.358z"/></symbol><symbol id="icon4" viewBox="0 0 300 356.75"><path fill-rule="evenodd" clip-rule="evenodd" fill="#AFB5BF" d="M255.187 356.75H55.391C2.614 355.878 0 303.981 0 303.981V90.166C35.131 3.74 112.24 0 112.24 0h115.77C297.623 0 300 61.579 300 61.579V306.77c-.079 46.209-44.813 49.98-44.813 49.98zm20.568-282.652c-.38-54.614-47.951-49.995-47.951-49.995H97.202l.103 32.438c-1.22 28.816-40.4 32.644-40.4 32.644H24.149v193.072c.08 56.176 46.62 50.06 46.62 50.06h156.923c51.247.205 48.189-48.744 48.189-48.744s.111-174.59-.126-209.475z"/><path fill="#00AEEF" d="M210.832 251.276H97.629a8.272 8.272 0 0 1-8.272-8.271V138.117c0-4.563 3.7-8.271 8.272-8.271h24.277v-8.359c0-4.524-.079-8.192 4.453-8.192h6.624c4.524 0 5.023 3.668 5.023 8.192v8.359h32.129v-8.359c0-4.524.515-8.192 5.039-8.192h6.611c4.533 0 4.723 3.668 4.723 8.192v8.359h24.324c4.564 0 8.271 3.708 8.271 8.271v104.888c.001 4.563-3.707 8.271-8.271 8.271zm-7.907-101.385a4.147 4.147 0 0 0-4.151-4.136h-88.99a4.139 4.139 0 0 0-4.136 4.136v81.641c0 2.281 1.847 4.151 4.136 4.151h88.99a4.156 4.156 0 0 0 4.151-4.151v-81.641zm-28.179 69.154h-41.098c-1.997 0-3.613-1.807-3.613-4.041v-8.019c0-2.234 1.616-4.057 3.613-4.057h12.154v-24.371h-12.154c-1.997 0-3.613-1.807-3.613-4.041v-8.05c0-2.227 1.616-4.041 3.613-4.041h25.069c2.005 0 3.629 1.814 3.629 4.041v36.461h12.4c2.004 0 3.633 1.822 3.633 4.057v8.019c0 2.235-1.629 4.042-3.633 4.042z"/></symbol><symbol id="add-people" viewBox="0 0 300 340.644"><path fill="#AFB5BF" d="M243.409 224.847c.021-45.029.028-136.528-.125-159.473-.329-48.186-42.311-44.11-42.311-44.11H85.756l.088 28.61c-1.076 25.429-35.649 28.795-35.649 28.795H21.309v170.336c.08 49.559 41.125 44.162 41.125 44.162h112.445l3.062 8.473 26.429 13.099H48.874C2.31 313.955 0 268.171 0 268.171V79.546C30.994 3.296 99.028 0 99.028 0h102.119c61.414 0 63.512 54.315 63.512 54.315v178.207l-21.25-7.675zm-84.746-64.377c-.476.069-.881.098-1.266.125-.999 7.584-8.66 12.701-8.66 12.701v12.071l10.135 5.312 15.602 7.025s-12.057 2.11-20.83 16.958c-7.354 12.441-11.498 21.578-11.498 21.578H64.72l-.21-17.657c-.056-14.371 10.807-17.79 10.807-17.79l30.571-10.128 10.352-5.606-.076-11.52s-7.731-3.704-7.741-12.959a16.123 16.123 0 0 1-1.123-.111c-5.508-.699-10.229-9.35-10.639-15.225-.401-5.875 4.387-6.375 4.387-6.375l4.177 1.388s-1.821-5.452-1.821-20.655c0-6.986 1.863-10.405 5.561-12.639 0-.031-.01-.056-.01-.087 0 0-5.551-13.193 24.146-13.459 28.617.266 28.561 24.808 28.561 24.808l-.098 9.006-.859 11.807c.314-.112 4.047-.168 4.425-.168 3.341 0 3.075 6.65 3.075 6.65s-4.021 14.251-9.542 14.95z"/><path fill="#19C1E5" d="M235.581 340.644c-35.579 0-64.42-28.841-64.42-64.42s28.841-64.42 64.42-64.42S300 240.645 300 276.224s-28.84 64.42-64.419 64.42zm0-114.713c-27.729 0-50.301 22.563-50.301 50.293 0 27.729 22.571 50.3 50.301 50.3 27.729 0 50.293-22.571 50.293-50.3 0-27.73-22.565-50.293-50.293-50.293zm24.241 57.115H242.64v17.412c0 4.41-2.572 7.976-6.983 7.976h-.153c-4.411 0-6.99-3.565-6.99-7.976v-17.412h-17.167c-4.404 0-7.969-2.335-7.969-6.746v-.153c0-4.411 3.564-7.241 7.969-7.241h16.93v-16.923c0-4.397 2.816-7.962 7.228-7.962h.153c4.411 0 6.983 3.564 6.983 7.962v16.923h17.182c4.396 0 7.962 2.83 7.962 7.241v.153c-.001 4.411-3.567 6.746-7.963 6.746z"/></symbol><symbol id="user-removed" viewBox="0 0 300.008 356.655"><path fill-rule="evenodd" clip-rule="evenodd" fill="#AFB5BF" d="M179.909 215.923l17.667 7.946s-13.654 2.391-23.596 19.202c-8.326 14.088-13.027 24.441-13.027 24.441h-87.66l-.237-19.993c-.063-16.273 12.221-20.152 12.221-20.152l34.621-11.477 11.722-6.332-.071-13.044s-8.754-4.195-8.786-14.675c-.38-.031-.776-.063-1.251-.126-6.253-.792-11.604-10.591-12.046-17.255-.475-6.641 4.955-7.203 4.955-7.203l4.726 1.567s-2.058-6.182-2.058-23.397c0-7.899 2.113-11.778 6.308-14.31 0-.016-.016-.063-.016-.095 0 0-6.292-14.936 27.339-15.245 32.412.309 32.333 28.099 32.333 28.099l-.104 10.194-.966 13.369c.341-.119 4.575-.182 5.003-.182 3.783 0 3.482 7.52 3.482 7.52s-4.551 16.146-10.796 16.938c-.555.079-1.006.11-1.44.143-1.132 8.58-9.815 14.389-9.815 14.389v13.662l11.492 6.016zm95.721 38.688c.016-50.989.031-154.597-.158-180.59-.38-54.559-47.898-49.944-47.898-49.944H97.11l.103 32.404c-1.219 28.787-40.367 32.61-40.367 32.61H24.141v192.874c.071 56.117 46.564 50.007 46.564 50.007h127.306l3.482 9.593 29.927 14.817H55.342C2.612 355.513 0 303.669 0 303.669V90.073C35.104 3.736 112.141 0 112.141 0h115.631c69.545 0 71.92 61.516 71.92 61.516v201.771l-24.062-8.676z"/><path fill="#F3B93E" d="M278.638 335.297c-28.479 28.479-74.675 28.479-103.161 0-28.478-28.478-28.478-74.671 0-103.148 28.486-28.494 74.683-28.494 103.161 0 28.494 28.477 28.494 74.67 0 103.148zm-11.303-91.846c-22.21-22.21-58.346-22.21-80.54 0-22.209 22.193-22.209 58.333 0 80.527 22.194 22.21 58.33 22.21 80.54 0 22.21-22.194 22.21-58.333 0-80.527zm-11.619 23.08l-45.849 45.844c-3.166 3.166-8.303 3.166-11.469 0s-3.166-8.295 0-11.461l45.856-45.859c3.166-3.166 8.295-3.166 11.461 0s3.167 8.31.001 11.476zm0 45.844a8.102 8.102 0 0 1-11.461 0l-45.856-45.844c-3.166-3.166-3.166-8.311 0-11.477s8.303-3.166 11.469 0l45.849 45.859a8.104 8.104 0 0 1-.001 11.462z"/></symbol><symbol id="delete" viewBox="0 0 300 300"><path fill-rule="evenodd" clip-rule="evenodd" fill="inherit" d="M281.232 93.744h-18.749v187.488c0 10.363-8.367 18.768-18.73 18.768H56.265c-10.354 0-18.749-8.404-18.749-18.768V93.744H18.758C8.403 93.744 0 85.376 0 75.022 0 64.64 8.403 56.264 18.758 56.264h56.265V18.758C75.022 8.403 83.399 0 93.744 0h112.512c10.345 0 18.748 8.403 18.748 18.758v37.507h56.229c10.363 0 18.768 8.376 18.768 18.758-.001 10.353-8.405 18.721-18.769 18.721zm-93.744-56.228h-74.986v18.749h74.986V37.516zm37.516 206.237V112.502c0-10.354-8.403-18.758-18.748-18.758H93.744c-10.345 0-18.722 8.403-18.722 18.758v131.251a18.75 18.75 0 0 0 5.475 13.256 18.688 18.688 0 0 0 13.247 5.475h112.512c5.181 0 9.85-2.087 13.237-5.475a18.59 18.59 0 0 0 5.511-13.256zm-37.516-18.749h-74.986c-10.354 0-18.758-8.404-18.758-18.749 0-10.362 8.404-18.767 18.758-18.767h74.986c10.363 0 18.768 8.404 18.768 18.767 0 10.345-8.404 18.749-18.768 18.749zm0-56.246h-74.986c-10.354 0-18.758-8.386-18.758-18.749s8.404-18.749 18.758-18.749h74.986c10.363 0 18.768 8.386 18.768 18.749s-8.404 18.749-18.768 18.749z"/></symbol><symbol id="lock1" viewBox="0 0 300 342.89"><path fill-rule="evenodd" clip-rule="evenodd" fill="inherit" d="M214.304 342.89H85.707C38.381 342.89 0 304.51 0 257.173v-85.718c0-23.689 19.201-42.869 42.869-42.869v-21.439C42.869 47.985 90.824 0 150.017 0c59.16 0 107.146 47.985 107.146 107.146v21.439c23.668 0 42.837 19.18 42.837 42.869v85.718c0 47.338-38.38 85.718-85.696 85.718zm-85.717-91.682v27.373c0 11.865 9.595 21.429 21.43 21.429 11.845 0 21.429-9.563 21.429-21.429v-27.373c12.766-7.408 21.408-21.073 21.408-36.915 0-23.669-19.169-42.838-42.837-42.838-23.658 0-42.869 19.169-42.869 42.838-.001 15.842 8.684 29.507 21.439 36.915zm21.43-208.329c-35.524 0-64.31 28.775-64.31 64.268 0 7.575 1.549 14.69 3.966 21.439H210.37c2.386-6.749 3.934-13.864 3.934-21.439 0-35.493-28.795-64.268-64.287-64.268z"/></symbol><symbol id="dropdown" viewBox="0 0 300.005 300"><path fill-rule="evenodd" clip-rule="evenodd" fill="inherit" d="M256.071 256.052c-58.598 58.597-153.544 58.597-212.123 0-58.597-58.579-58.597-153.543 0-212.104 58.579-58.598 153.525-58.598 212.123 0 58.579 58.561 58.579 153.525 0 212.104zM229.555 70.445c-43.93-43.966-115.181-43.966-159.11 0-43.947 43.93-43.947 115.18 0 159.11 43.93 43.947 115.181 43.947 159.11 0 43.948-43.93 43.948-115.18 0-159.11zM149.68 205.878l-69.164-61.967c-3.388-3.388-5.512-8.057-5.512-13.239 0-10.365 8.424-18.751 18.77-18.751 10.236 0 13.258 5.494 13.258 5.494l42.996 35.964L192.437 118a18.686 18.686 0 0 1 13.258-5.494c10.347 0 18.751 8.387 18.751 18.751 0 10.254-5.512 13.258-5.512 13.258l-69.254 61.363z"/></symbol><symbol id="archive1" viewBox="0 0 299.997 256.979"><path fill-rule="evenodd" clip-rule="evenodd" fill="#DBDCE0" d="M278.478 256.979H21.52c-24.051 0-21.437-27.751-21.437-21.436V42.83c0-11.816 9.62-21.415 21.437-21.415 11.836 0 20.432 9.599 20.432 21.415l.815 128.469 214.442.69-.146-128.49c0-11.837 9.578-21.415 21.415-21.415 11.816 0 21.436 9.578 21.436 21.415v192.735c0-5.417 2.614 20.745-21.436 20.745zM107.179 64.245c5.919 0 11.293 2.384 15.142 6.274l6.273 6.253V21.415C128.594 9.578 138.172 0 150.031 0c11.795 0 21.394 9.578 21.394 21.415v55.357l6.273-6.253c3.891-3.89 9.223-6.274 15.142-6.274 11.837 0 21.436 9.578 21.436 21.415 0 5.897-2.384 11.251-6.295 15.162l-42.809 42.809c-3.89 3.869-9.223 6.273-15.141 6.273a21.398 21.398 0 0 1-15.162-6.273l-42.81-42.809c-3.89-3.911-6.273-9.265-6.273-15.162 0-11.837 9.578-21.415 21.393-21.415z"/></symbol><symbol id="replace" viewBox="0 0 300 318.557"><path fill-rule="evenodd" clip-rule="evenodd" fill="inherit" d="M283.148 243.432H168.584v58.255c0 9.315-7.555 16.87-16.852 16.87H16.869C7.536 318.557 0 311.002 0 301.687v-135.12c0-9.297 7.536-16.852 16.869-16.852h114.565V91.461c0-9.296 7.555-16.851 16.851-16.851h134.863c9.315 0 16.852 7.555 16.852 16.851v135.102c0 9.334-7.536 16.869-16.852 16.869zm-151.713-16.869v-38.818H37.553v93.883h93.882v-55.065zm131.434-113.941h-93.882v93.863h93.882v-93.863zM73.528 74.775h17.053c32.382-.825 6.638 19.565 6.638 19.565l-32.363 33.574c-2.476 2.438-5.831 3.96-9.59 3.96-7.371 0-9.571-3.96-9.571-3.96L13.349 94.945c-22.92-22.92 6.253-20.17 5.446-20.17h18.813C38.47 27.541 80.02 0 130.426 0v17.035c-35.664 0-59.025 23.819-56.898 57.74z"/></symbol><symbol id="addversion" viewBox="0 0 300 346.131"><path fill="#DBDCE0" d="M184.615 346.131H46.153C20.643 346.131 0 325.466 0 299.978V115.385c0-25.511 20.643-46.154 46.153-46.154v207.692c0 12.71 10.322 23.054 23.055 23.054h161.584c0 25.489-20.666 46.154-46.177 46.154zm69.231-69.207H115.363c-25.488 0-46.154-20.666-46.154-46.177V46.154C69.208 20.666 89.874 0 115.362 0H161.516c6.4 0 12.147 2.569 16.339 6.738L293.24 122.1c4.146 4.214 6.761 10.006 6.761 16.339V230.747c-.001 25.511-20.667 46.177-46.155 46.177zm0-92.33V161.54h-92.33c-12.732 0-23.055-10.322-23.055-23.077V57.692c0-6.4-5.183-11.539-11.538-11.539-6.378 0-11.561 5.138-11.561 11.539V207.647c0 12.778 10.344 23.1 23.099 23.1h92.332c12.71 0 23.054-10.321 23.054-23.1v-23.053h-.001z"/></symbol><symbol id="share" viewBox="0 0 299.995 258.272"><path fill-rule="evenodd" clip-rule="evenodd" fill="#DBDCE0" d="M294.367 80.471l-49.779 46.395c-3.868 3.91-1.829 2.964-7.778 2.964-11.898 0-21.547-9.67-21.547-21.526V86.757c-81.271-.567-86.589 85.453-86.589 85.453h-20.622c.252-85.6 48.035-128.779 107.211-128.484v-22.2C215.263 9.628 224.911 0 236.81 0c2.943 0 10.448 3.574 8.388 1.703 14.716 13.223 47.173 47.656 47.173 47.656 8.85 8.871 10.615 20.538 1.996 31.112zM43.053 215.935h172.21v-64.578h42.59v87.598c0 10.679-8.661 19.318-19.34 19.318H19.319C8.661 258.272 0 249.633 0 238.954V19.466C0 8.808 8.661.168 19.319.168h109.124v43.557h-85.39v172.21z"/></symbol><symbol id="editartifact" viewBox="29.722 13.721 242.556 242.56"><path d="M121.509 17.337c-52.666 13.21-91.787 60.946-91.787 117.655 0 19.391 4.584 37.728 12.712 54.012l16.008 24.259c22.265 26.282 55.493 43.018 92.562 43.018 66.869 0 121.274-54.412 121.274-121.288 0-20.447-5.188-40.667-15.011-58.48-12.057-21.866-30.248-39.264-52.616-50.313-16.335-8.073-33.879-12.257-52.156-12.476-18.085-.108-19.663 2.017-30.986 3.613zm29.159 132.607l-26.009 8.077 8.084-25.999 17.925 17.922zm.335 82.063c-53.495 0-97.015-43.527-97.015-97.015 0-53.5 43.52-97.023 97.015-97.023 9.11 0 17.987 1.23 26.552 3.667l-59.015 59.022a12.03 12.03 0 0 0-3.001 4.977h-.004l-.033.102c-.007.025-.015.047-.021.073l-20.839 67.055a12.128 12.128 0 0 0 11.584 15.732c1.208 0 2.419-.175 3.602-.539l67.051-20.854c.021 0 .043-.015.072-.015l.103-.029v-.015a11.956 11.956 0 0 0 4.977-2.998l60.721-60.724a97.51 97.51 0 0 1 5.261 31.569c-.002 53.487-43.522 97.015-97.01 97.015z" fill="#dbdce0"/></symbol><symbol id="renameartifact" viewBox="17 28.706 239.404 265.795"><path fill="inherit" d="M196.096 108.9c0-13.526-4.732-20.289-14.197-20.289-2.604 0-4.548.184-5.848.548-2.969.547-5.479.82-7.518.82-2.412 0-4.455-.865-6.125-2.603-1.67-1.735-2.506-3.88-2.506-6.443 0-6.397 4.08-9.594 12.252-9.594 1.113 0 2.408.096 3.896.273l14.756 1.919c5.566.732 11.322 1.1 17.264 1.1 5.751 0 12.063-.457 18.933-1.373l12.527-1.646c1.484-.177 2.785-.273 3.902-.273 8.162 0 12.244 3.197 12.244 9.594 0 2.563-.832 4.708-2.504 6.443-1.67 1.738-3.715 2.603-6.125 2.603-1.857 0-4.363-.273-7.518-.82-1.301-.365-3.248-.548-5.848-.548-9.465 0-14.197 6.763-14.197 20.289v109.933c0 13.705 4.732 20.56 14.197 20.56 1.482 0 3.432-.178 5.848-.546 3.525-.547 6.031-.825 7.518-.825 5.748 0 8.629 2.93 8.629 8.776 0 6.579-4.082 9.868-12.244 9.868h-1.955c-.74-.184-1.389-.273-1.947-.273l-14.477-2.198c-4.832-.725-9.934-1.09-15.311-1.09-7.8 0-14.76.455-20.886 1.367l-12.807 1.921c-.371 0-1.021.09-1.949.273h-2.225c-7.986 0-11.975-3.289-11.975-9.868 0-5.847 2.875-8.776 8.631-8.776.928 0 3.432.187 7.518.551 2.04.547 3.992.82 5.848.82 9.465 0 14.197-6.854 14.197-20.56V108.9z"/><g fill="inherit"><path d="M227.064 264.104c-3.668 2.908-8.171 4.729-12.863 4.729H67.16c-11.324 0-21.567-10.582-21.567-21.558V132.761h23.454c22.964 0 39.877-15.041 39.877-37.438 0 0 .181-13.564 0-38.388h105.277c4.927 0 9.646 2.002 13.408 5.168h28.795c-5.587-15.746-19.396-33.184-36.789-33.184 0 0-128.033-.214-129.363-.214L17 115.425v139.899c0 22.196 18.986 39.177 41.815 39.177l15.279-.102 23.168.002 119.588-.1c17.177-.002 32.32-14.864 38.759-30.198h-28.545z"/><path d="M169.195 156.278H76.194c-6.142 0-11.11 4.969-11.11 11.104 0 6.124 4.969 11.094 11.11 11.094h93.001c6.141 0 11.11-4.97 11.11-11.094.001-6.135-4.969-11.104-11.11-11.104zM169.195 202.894H76.194c-6.142 0-11.11 4.97-11.11 11.088a11.102 11.102 0 0 0 11.11 11.109h93.001c6.141 0 11.11-4.969 11.11-11.109.001-6.119-4.969-11.088-11.11-11.088z"/></g></symbol><symbol id="meeting" viewBox="0 0 15.992 17.006"><path d="M14.973 2.04h-2.999V1.01c0-.558-.023-1.01-.581-1.01h-.816c-.558 0-.62.452-.62 1.01v1.03h-3.96V1.01C5.997.452 5.934 0 5.376 0h-.815c-.558 0-.55.452-.55 1.01v1.03H1.02A1.02 1.02 0 0 0 0 3.06v12.927c0 .563.457 1.02 1.02 1.02h13.953a1.02 1.02 0 0 0 1.02-1.02V3.06a1.022 1.022 0 0 0-1.02-1.02zm-.977 12.533a.51.51 0 0 1-.51.51H2.517a.51.51 0 0 1-.51-.51V4.512a.51.51 0 0 1 .51-.51h10.969a.51.51 0 0 1 .51.51v10.061zm-3.472-3.524H8.996V6.554c0-.275-.201-.499-.447-.499h-3.09c-.247 0-.447.223-.447.499v.992c0 .275.2.499.447.499h1.498v3.004H5.459c-.247 0-.447.223-.447.498v.989c0 .275.2.499.447.499h5.065c.247 0 .447-.223.447-.499v-.989c.001-.275-.2-.498-.447-.498z"/></symbol></svg>