<?xml version="1.0" encoding="UTF-8"?><!DOCTYPE svg PUBLIC "-//W3C//DTD SVG 1.1//EN" "http://www.w3.org/Graphics/SVG/1.1/DTD/svg11.dtd"><svg xmlns="http://www.w3.org/2000/svg"><symbol id="artifacts" viewBox="0 0 300 278.505"><g fill-rule="evenodd" clip-rule="evenodd"><path fill="#11131E" d="M212.986 120.292c49.5 0 71.413 29.808 71.413 76.455 0 46.668-38.569 70.724-75.708 70.034-34.536-.627-68.733-26.041-68.733-72.709 0-46.648 23.528-73.78 73.028-73.78z"/><path fill="#D6DBE3" d="M214.135 278.505c-27.64 0-51.956-12.749-67.609-32.708H24.207C.742 245.421 0 222.328 0 222.328V60.708C17.953 10.925 63.456 0 63.456 0h118.829c30.963 0 32.008 27.368 32.008 27.368v79.402c47.723.083 85.707 38.105 85.707 85.86 0 47.817-38.068 85.875-85.865 85.875zm-21.61-243.452c-.376-13.679-12.487-13.679-12.487-13.679H63.388l.068 25.523c.266 19.191-18.235 17.018-18.235 17.018H21.61v147.607c-.429 14.232 11.155 13.396 11.155 13.396h101.717a86.244 86.244 0 0 1-6.238-32.29c0-40.378 27.206-73.717 64.458-83.127.022-35.779-.009-68.606-.177-74.448zm21.767 92.961v.428h-4.473c-33.606 2.273-60.332 30.038-60.332 64.188 0 35.634 29.003 64.286 64.647 64.286 35.623 0 64.276-28.652 64.276-64.286.002-35.572-28.547-64.517-64.118-64.616zm32.405 75.149h-21.725v22.049c0 5.894-4.818 10.7-10.743 10.7h-.209c-5.915 0-10.731-4.807-10.731-10.7v-22.069h-21.725c-5.926 0-10.711-4.473-10.711-10.408v-.209c0-5.914 4.785-10.722 10.711-10.722h21.777v-21.735c0-5.914 4.764-10.7 10.679-10.7h.209c5.925 0 10.397 4.786 10.397 10.7v21.401h22.07c5.904 0 10.711 5.142 10.711 11.056v.209c.001 5.934-4.806 10.428-10.71 10.428z"/></g></symbol><symbol id="adduser" viewBox="0 0 299.995 299.541"><g fill-rule="evenodd" clip-rule="evenodd"><path fill="#11131E" d="M218.681 139.468c43.879 0 79.457 34.713 79.457 77.518 0 42.826-35.578 77.519-79.457 77.519-43.922 0-79.5-34.692-79.5-77.519 0-42.804 35.578-77.518 79.5-77.518z"/><path fill="#D6DBE3" d="M299.995 213.827c0 47.705-37.978 85.714-85.693 85.714-40.626 0-74.119-27.612-83.191-65.245-4.546.543-9.093 1.043-13.775 1.043C52.534 235.339 0 182.138 0 117.341 0 52.534 52.534 0 117.335 0c64.786 0 118.342 52.534 118.342 117.341 0 4.505-.479 8.905-1 13.285 37.685 9.04 65.318 42.544 65.318 83.201zM118.097 21.449C65 21.449 21.96 64.494 21.96 117.581c0 22.169 7.571 42.533 20.183 58.79 2.148-11.605 11.476-14.577 11.476-14.577l31.533-11.564 11.46-5.86-.078-12.764s-6.225-4.108-6.241-14.338c-.38-.031-.771-.063-1.23-.135-6.111-.771-11.351-10.354-11.794-16.861-.443-6.497 4.844-7.039 4.844-7.039l4.63 1.522s-2.018-6.048-2.018-22.878c0-7.737 2.07-11.512 6.173-13.994 0-.021-.016-.041-.016-.094 0 0-6.157-14.608 26.736-14.911 31.7.303 31.617 27.497 31.617 27.497l-.105 9.959-.959 13.076c.355-.135 4.484-.177 4.901-.177 3.712 0 3.42 7.352 3.42 7.352s-4.463 15.777-10.573 16.548c-.542.073-.98.125-1.397.135-1.105 8.415-4.932 13.421-4.932 13.421v13.347l10.25 5.882 5.089 1.949c15.119-14.483 35.578-23.409 58.352-23.681.396-3.504.96-6.976.96-10.604-.002-53.088-43.047-96.133-96.144-96.133zm98.373 128.103c-21.064 1.387-59.771 9.166-65.943 57.268 3.691-33.535-20.834 71.168 63.774 71.168 35.558 0 64.149-28.592 64.149-64.16.001-34.808-27.464-63.088-61.98-64.276zm30.344 74.786h-21.689v22.013c0 5.892-4.797 10.667-10.719 10.667h-.209c-5.902 0-10.699-4.775-10.699-10.667v-22.023H181.81c-5.902 0-10.698-4.483-10.698-10.386v-.208c0-5.913 4.796-10.709 10.698-10.709h21.731v-21.689c0-5.902 4.754-10.699 10.656-10.699h.209c5.922 0 10.385 4.797 10.385 10.699V202.7h22.023c5.881 0 10.678 5.12 10.678 11.033v.208c0 5.903-4.797 10.397-10.678 10.397z"/></g></symbol><symbol id="archive" viewBox="0 0 299.999 257.385"><path fill-rule="evenodd" clip-rule="evenodd" fill="#D6DBE3" d="M74.4 139.407h182.906l-29.481 24.759c-4.188 4.188-4.188 10.985 0 15.175 4.189 4.189 10.976 4.189 15.165 0l53.957-42.521c2.23-2.241 3.184-5.205 3.037-8.127.146-2.922-.807-5.891-3.037-8.117l-53.633-42.568c-4.188-4.189-10.986-4.189-15.175 0s-4.189 10.986 0 15.176l29.146 24.784H74.4c-5.922 0-10.724 4.802-10.724 10.725 0 5.917 4.802 10.714 10.724 10.714zm118.645-96.51c0-11.845-9.594-21.443-21.46-21.443H42.897c-11.84 0-21.438 9.598-21.438 21.443v171.59c0 11.846 9.599 21.459 21.438 21.459h128.688c11.866 0 21.46-9.613 21.46-21.459v-21.459h21.438v21.459c0 23.701-19.197 42.897-42.897 42.897H42.897C19.213 257.385 0 238.189 0 214.488V42.897C0 19.212 19.213 0 42.897 0h128.688c23.7 0 42.897 19.212 42.897 42.897v21.109h-21.438V42.897h.001z"/></symbol><symbol id="calendar" viewBox="0 0 300 319.005"><path fill="inherit" d="M280.84 319.005H19.151C8.582 319.005 0 310.45 0 299.881V57.417c0-10.569 8.582-19.151 19.151-19.151H75.24V18.95C75.24 8.499 75.094 0 85.544 0h15.323c10.45 0 11.632 8.499 11.632 18.95v19.315h74.261V18.95C186.76 8.499 187.932 0 198.409 0h15.296c10.441 0 10.917 8.499 10.917 18.95v19.315h56.218c10.569 0 19.16 8.582 19.16 19.151V299.88c0 10.57-8.591 19.125-19.16 19.125zM262.559 84.628c0-5.284-4.305-9.562-9.58-9.562H47.224a9.557 9.557 0 0 0-9.562 9.562v188.729c0 5.275 4.276 9.58 9.562 9.58h205.755c5.275 0 9.58-4.305 9.58-9.58V84.628zm-65.121 159.86h-95.024c-4.616 0-8.38-4.177-8.38-9.343v-18.537c0-5.166 3.764-9.36 8.38-9.36h28.108v-56.346h-28.108c-4.616 0-8.38-4.186-8.38-9.352v-18.602c0-5.166 3.764-9.36 8.38-9.36h57.93c4.653 0 8.408 4.194 8.408 9.36v84.299h28.686c4.616 0 8.371 4.194 8.371 9.36v18.537c.001 5.168-3.754 9.344-8.371 9.344z"/></symbol><symbol id="projects" viewBox="0 0 299.645 323.207"><path fill="#425182" d="M257.829 265.795l-15.279-.101v2.896c0 27.01-16.587 54.616-47.157 54.616H43.123C20.299 323.207 0 302.44 0 269.74V86.471c0-22.198 16.006-39.765 38.807-39.765l18.598-.304.141-2.586C57.546 21.612 74.211.214 97.029.214c0 0 128.033-.214 129.363-.214l73.253 86.719v139.899c0 22.197-18.987 39.177-41.816 39.177zM57.743 222.471V68.854l-14.338.333c-11.319 0-20.53 10.243-20.53 21.223v185.54c0 10.986 10.237 24.474 21.562 24.474H195.9c21.849 0 24.226-17.589 23.482-34.728l3.054-.034-122.642-.067c-22.816-.002-42.051-20.927-42.051-43.124zm219.31-118.416h-29.455c-22.964 0-39.877-15.042-39.877-37.438 0 0-.181-18.564 0-43.388H102.443c-11.325 0-21.562 10.575-21.562 21.562v176.778c0 10.975 10.237 21.557 21.562 21.557h153.042c11.324 0 21.567-10.582 21.567-21.557V104.055h.001zm-57.603 45.714h-93.001c-6.141 0-11.11-4.969-11.11-11.093 0-6.135 4.969-11.104 11.11-11.104h93.001c6.142 0 11.11 4.969 11.11 11.104.001 6.124-4.968 11.093-11.11 11.093zm0 46.616h-93.001a11.103 11.103 0 0 1-11.11-11.11c0-6.118 4.969-11.088 11.11-11.088h93.001c6.142 0 11.11 4.97 11.11 11.088a11.102 11.102 0 0 1-11.11 11.11z"/></symbol></svg>