<?xml version="1.0" encoding="utf-8"?>
<!-- Generator: Adobe Illustrator 16.0.0, SVG Export Plug-In . SVG Version: 6.00 Build 0)  -->
<!DOCTYPE svg PUBLIC "-//W3C//DTD SVG 1.1//EN" "http://www.w3.org/Graphics/SVG/1.1/DTD/svg11.dtd">
<svg version="1.1" id="Layer_1" xmlns="http://www.w3.org/2000/svg" xmlns:xlink="http://www.w3.org/1999/xlink" x="0px" y="0px"
	 width="300px" height="300px" viewBox="0 0 300 300" enable-background="new 0 0 300 300" xml:space="preserve">
<path fill-rule="evenodd" clip-rule="evenodd" fill="#636F97" d="M262.488,300h-225C16.782,300,0,283.218,0,262.488v-225
	C0,16.782,16.782,0,37.489,0h225C283.219,0,300,16.782,300,37.489v225C300,283.218,283.219,300,262.488,300L262.488,300z
	 M277.15,41.03c0-10.376-8.391-18.767-18.756-18.767H41.605c-10.365,0-18.756,8.391-18.756,18.767v178.805l69.451-72.384
	l42.384,45.045L225,103.128l52.5,57.451L277.15,41.03L277.15,41.03z M98.008,126.564c-22.309,0-40.398-18-40.398-40.207
	c0-22.196,18.09-40.207,40.398-40.207c22.308,0,40.387,18.011,40.387,40.207C138.395,108.564,120.316,126.564,98.008,126.564
	L98.008,126.564z M98.278,69.181c-9.744,0-17.639,7.895-17.639,17.639c0,9.722,7.895,17.617,17.639,17.617
	c9.722,0,17.617-7.895,17.617-17.617C115.895,77.075,108,69.181,98.278,69.181L98.278,69.181z"/>
</svg>
