<?xml version="1.0" encoding="UTF-8"?><!DOCTYPE svg PUBLIC "-//W3C//DTD SVG 1.1//EN" "http://www.w3.org/Graphics/SVG/1.1/DTD/svg11.dtd"><svg xmlns="http://www.w3.org/2000/svg"><symbol id="search-folder" viewBox="0 0 300 288.439"><path fill-rule="evenodd" clip-rule="evenodd" fill="#68749B" d="M253.838 288.439H46.157C20.67 288.439 0 267.775 0 242.277V46.146C0 20.665 20.67 0 46.157 0h69.227c25.487 0 46.151 20.665 46.151 46.146h92.303C279.324 46.146 300 66.81 300 92.297v149.98c0 25.498-20.676 46.162-46.162 46.162zm23.075-149.979V92.297c0-12.743-10.332-23.075-23.075-23.075H138.459V46.146c0-12.749-10.343-23.07-23.075-23.07H46.157c-12.744 0-23.076 10.321-23.076 23.07v196.132c0 12.743 10.332 23.087 23.076 23.087h207.681c12.743 0 23.075-10.344 23.075-23.087V138.46zm-57.688 92.302h-80.766c-6.365 0-11.537-5.183-11.537-11.538v-23.086H80.771c-6.377 0-11.538-5.172-11.538-11.538v-80.765c0-6.377 5.16-11.538 11.538-11.538h80.765c6.366 0 11.538 5.161 11.538 11.538v23.075h46.151c6.377 0 11.537 5.161 11.537 11.538v80.775c0 6.356-5.16 11.539-11.537 11.539zm-69.227-115.389H92.32v57.689h34.602v-34.613c0-6.377 5.172-11.538 11.537-11.538h11.539v-11.538zm57.678 34.602h-57.678v57.7h57.678v-57.7z"/></symbol><symbol id="search-file" viewBox="0 0 300 312.861"><path opacity=".8" fill-rule="evenodd" clip-rule="evenodd" fill="#425182" d="M256.438 312.861l-212.666-.223C20.032 312.639 0 290.858 0 267.739L.974 48.325S-.387.211 40.886.211c0 0 181.427-.211 182.823-.211L300 90.314v181.743c0 23.12-19.797 40.804-43.562 40.804zm20.021-204.498h-30.688c-23.904 0-41.52-15.667-41.52-38.984 0 0-.188-19.328 0-45.205H45.192c-11.794 0-22.473 11.031-22.473 22.461V266.8c0 11.431 10.679 22.449 22.473 22.449H254.01c11.781 0 22.449-11.019 22.449-22.449V108.363zm-47.856 120.181H71.538c-6.384 0-11.571-5.164-11.571-11.56 0-6.384 5.187-11.56 11.571-11.56h157.064c6.384 0 11.56 5.176 11.56 11.56 0 6.396-5.176 11.56-11.559 11.56zm0-48.537H71.538c-6.384 0-11.571-5.176-11.571-11.56s5.187-11.559 11.571-11.559h157.064c6.384 0 11.56 5.175 11.56 11.559s-5.176 11.56-11.559 11.56z"/></symbol></svg>