<?xml version="1.0" encoding="utf-8"?>
<!-- Generator: Adobe Illustrator 16.0.0, SVG Export Plug-In . SVG Version: 6.00 Build 0)  -->
<!DOCTYPE svg PUBLIC "-//W3C//DTD SVG 1.1//EN" "http://www.w3.org/Graphics/SVG/1.1/DTD/svg11.dtd">
<svg version="1.1" id="Layer_1" xmlns="http://www.w3.org/2000/svg" xmlns:xlink="http://www.w3.org/1999/xlink" x="0px" y="0px"
	 width="299.995px" height="258.272px" viewBox="0 0 299.995 258.272" enable-background="new 0 0 299.995 258.272"
	 xml:space="preserve">
<path fill-rule="evenodd" clip-rule="evenodd" fill="#DBDCE0" d="M294.367,80.471l-49.779,46.395
	c-3.868,3.91-1.829,2.964-7.778,2.964c-11.898,0-21.547-9.67-21.547-21.526V86.757c-81.271-0.567-86.589,85.453-86.589,85.453
	h-20.622c0.252-85.6,48.035-128.779,107.211-128.484V21.526C215.263,9.628,224.911,0,236.81,0c2.943,0,10.448,3.574,8.388,1.703
	c14.716,13.223,47.173,47.656,47.173,47.656C301.221,58.23,302.986,69.897,294.367,80.471L294.367,80.471z M43.053,215.935h172.21
	v-64.578h42.59v87.598c0,10.679-8.661,19.318-19.34,19.318H19.319C8.661,258.272,0,249.633,0,238.954V19.466
	C0,8.808,8.661,0.168,19.319,0.168h109.124v43.557H43.053V215.935L43.053,215.935z"/>
</svg>
