<?xml version="1.0" encoding="utf-8"?>
<!-- Generator: Adobe Illustrator 16.0.0, SVG Export Plug-In . SVG Version: 6.00 Build 0)  -->
<!DOCTYPE svg PUBLIC "-//W3C//DTD SVG 1.1//EN" "http://www.w3.org/Graphics/SVG/1.1/DTD/svg11.dtd">
<svg version="1.1" id="Layer_1" xmlns="http://www.w3.org/2000/svg" xmlns:xlink="http://www.w3.org/1999/xlink" x="0px" y="0px"
	 width="300px" height="300.51px" viewBox="0 0 300 300.51" enable-background="new 0 0 300 300.51" xml:space="preserve">
<path fill-rule="evenodd" clip-rule="evenodd" fill="#7E878E" d="M300,256.074c0,24.535-19.891,44.436-44.437,44.436h-11.111
	h-22.213H69.893c0-108.751,85.904-117.942,85.904-117.942c5.133-0.542,9.344,1.118,9.344,3.689c0,2.583,0,8.92,0,14.096v9.756
	c0,5.176,3.516,7.063,7.834,4.231l59.172-47.528c4.319-2.843,4.319-7.487,0-10.309l-4.872-3.906
	c-7.563-3.18-13.977-8.438-18.74-14.997l-35.538-28.457c-4.329-2.832-7.855-0.923-7.855,4.237v9.549c0,5.176,0,11.514,0,14.091
	s-4.243,4.596-9.397,4.476c0,0-118.643-2.854-155.195,87.863v-9.376c0-5.176,0-13.618,0-18.794V83.848
	C0.325,82.003,0,80.191,0,78.281V44.94C0,20.396,19.901,0.494,44.447,0.494h11.101V0h166.691v0.494h22.213h11.111
	C280.109,0.494,300,20.396,300,44.94v33.341v33.324v133.346C300,244.951,300,252.211,300,256.074L300,256.074z"/>
</svg>
