<?xml version="1.0" encoding="iso-8859-1"?>
<!-- Generator: Adobe Illustrator 16.0.0, SVG Export Plug-In . SVG Version: 6.00 Build 0)  -->
<!DOCTYPE svg PUBLIC "-//W3C//DTD SVG 1.1//EN" "http://www.w3.org/Graphics/SVG/1.1/DTD/svg11.dtd">
<svg version="1.1" id="Layer_1" xmlns="http://www.w3.org/2000/svg" xmlns:xlink="http://www.w3.org/1999/xlink" x="0px" y="0px"
	 width="21.975px" height="24.98px" viewBox="0 0 21.975 24.98" style="enable-background:new 0 0 21.975 24.98;"
	 xml:space="preserve">
<path style="fill:#999EA5;" d="M19.235,24.98H3.331C0.102,24.927,0,21.753,0,21.753V8.351C2.471,1.503,8.729,0,8.729,0h8.843
	c4.259,0,4.403,3.767,4.403,3.767v17.831C21.971,24.424,19.235,24.98,19.235,24.98z M19.98,3.824
	C19.929,1.94,18.262,1.94,18.262,1.94H8.028L7.96,5.671c0.036,2.641-2.815,3.342-2.815,3.342H2.021v12.16
	c-0.058,1.958,1.536,1.847,1.536,1.847h14.542c1.999,0.058,1.892-1.886,1.892-1.886S20.032,5.707,19.98,3.824z"/>
<path style="fill:#999EA5;" d="M8.925,15.4c-1.141-0.704-1.909-1.956-1.909-3.396c0-2.209,1.791-4,4-4s4,1.791,4,4
	c0,1.44-0.768,2.691-1.909,3.396c2.278,0.851,3.909,3.029,3.909,5.604h-12C5.016,18.429,6.646,16.251,8.925,15.4z"/>
</svg>
