<?xml version="1.0" encoding="utf-8"?>
<!-- Generator: Adobe Illustrator 16.0.0, SVG Export Plug-In . SVG Version: 6.00 Build 0)  -->
<!DOCTYPE svg PUBLIC "-//W3C//DTD SVG 1.1//EN" "http://www.w3.org/Graphics/SVG/1.1/DTD/svg11.dtd">
<svg version="1.1" id="Layer_1" xmlns="http://www.w3.org/2000/svg" xmlns:xlink="http://www.w3.org/1999/xlink" x="0px" y="0px"
	 width="300px" height="317.714px" viewBox="0 0 300 317.714" enable-background="new 0 0 300 317.714" xml:space="preserve">
<g>
	<path fill-rule="evenodd" clip-rule="evenodd" fill="#FAE696" d="M20.931,272.927L16.873,161.27l23.143-59.905l21.79-29.961
		l50.418-36.762l51.715-20.419h78.99c0,0,21.809,12.248,27.237,20.419c5.466,8.153,19.085,66.724,19.085,66.724
		s1.353,66.705,2.724,81.695c1.335,14.99-6.819,70.818-8.19,77.619c-1.334,6.836,0,42.264-14.953,42.264
		c-15.008,0-50.417,1.316-64.036,1.316c-13.618,0-87.161,0-96.667,0c-9.542,0-61.294-5.411-61.294-5.411L20.931,272.927
		L20.931,272.927z"/>
	<path fill-rule="evenodd" clip-rule="evenodd" fill="#9A9EA5" d="M265.158,317.714H42.356C1.298,317.019,0,276.656,0,276.656
		V106.228C31.406,19.121,110.999,0,110.999,0h132.99C298.171,0,300,47.895,300,47.895v226.75
		C299.945,310.584,265.158,317.714,265.158,317.714L265.158,317.714z M261.921,61.349c-0.658-23.947-21.845-23.947-21.845-23.947
		H110.889l0.11,44.659c0.457,33.545-31.899,29.779-31.899,29.779H37.786v145.878c-0.731,24.897,19.523,23.472,19.523,23.472h180.665
		c25.429,0.731,24.058-23.947,24.058-23.947S262.58,85.296,261.921,61.349L261.921,61.349z"/>
</g>
</svg>
