<?xml version="1.0" encoding="utf-8"?>
<!-- Generator: Adobe Illustrator 16.0.0, SVG Export Plug-In . SVG Version: 6.00 Build 0)  -->
<!DOCTYPE svg PUBLIC "-//W3C//DTD SVG 1.1//EN" "http://www.w3.org/Graphics/SVG/1.1/DTD/svg11.dtd">
<svg version="1.1" id="Layer_1" xmlns="http://www.w3.org/2000/svg" xmlns:xlink="http://www.w3.org/1999/xlink" x="0px" y="0px"
	 width="300px" height="356.742px" viewBox="0 0 300 356.742" enable-background="new 0 0 300 356.742" xml:space="preserve">
<g>
	<path fill="#AFB5BF" d="M255.193,356.742H55.396C2.615,355.878,0,303.974,0,303.974V90.166C35.136,3.735,112.244,0,112.244,0
		h115.758C297.623,0,300,61.571,300,61.571v245.2C299.93,352.97,255.193,356.742,255.193,356.742L255.193,356.742z M275.755,74.098
		c-0.38-54.619-47.95-50.003-47.95-50.003H97.206l0.103,32.445c-1.22,28.813-40.404,32.636-40.404,32.636H24.158V282.25
		c0.075,56.174,46.616,50.059,46.616,50.059h156.919c51.246,0.214,48.195-48.743,48.195-48.743S275.993,108.979,275.755,74.098
		L275.755,74.098z"/>
	<path fill="#93B36A" d="M194.836,237.759v29.261c0,0.048-0.023,0.095-0.023,0.149c0.023,2.045-0.744,4.08-2.297,5.643
		c-1.563,1.553-3.599,2.32-5.643,2.297c-0.048,0-0.104,0.023-0.15,0.023c-2.701,0-4.976-1.409-6.449-3.438l-28.491-28.262h-21.845
		c-31.368,0-56.801-25.426-56.801-56.786c0-31.368,25.433-56.797,56.801-56.797h40.567c31.359,0,56.785,25.429,56.785,56.797
		C227.289,209.259,213.971,228.625,194.836,237.759L194.836,237.759z M170.504,146.08h-40.567
		c-22.415,0-40.574,18.168-40.574,40.567c0,22.407,18.16,40.565,40.574,40.565h27.383l21.084,21.084v-0.617l0.205,0.205v-5.268
		c-0.055,0.016-0.118,0-0.183,0.016l0.087-16.234c18.572-3.717,32.557-20.102,32.557-39.751
		C211.07,164.248,192.902,146.08,170.504,146.08L170.504,146.08z"/>
</g>
</svg>
