<?xml version="1.0" encoding="utf-8"?>
<!-- Generator: Adobe Illustrator 16.0.0, SVG Export Plug-In . SVG Version: 6.00 Build 0)  -->
<!DOCTYPE svg PUBLIC "-//W3C//DTD SVG 1.1//EN" "http://www.w3.org/Graphics/SVG/1.1/DTD/svg11.dtd">
<svg version="1.1" id="Layer_1" xmlns="http://www.w3.org/2000/svg" xmlns:xlink="http://www.w3.org/1999/xlink" x="0px" y="0px"
	 width="300px" height="319.016px" viewBox="0 0 300 319.016" enable-background="new 0 0 300 319.016" xml:space="preserve">
<g>
	<rect x="26.022" y="70.035" fill="#FFFFFF" width="252.635" height="223.461"/>
	<path fill="#9599A7" d="M280.874,319.016H19.125C8.573,319.016,0,310.461,0,299.908V57.376c0-10.552,8.573-19.125,19.125-19.125
		h56.131V18.942C75.256,8.463,75.073,0,85.552,0h15.297c10.46,0,11.651,8.463,11.651,18.942v19.309h74.285V18.942
		C186.785,8.463,187.921,0,198.399,0h15.334c10.441,0,10.863,8.463,10.863,18.942v19.309h56.277
		c10.553,0,19.126,8.573,19.126,19.125v242.532C300,310.461,291.427,319.016,280.874,319.016L280.874,319.016z M262.555,84.618
		c0-5.276-4.269-9.544-9.544-9.544H47.228c-5.276,0-9.563,4.268-9.563,9.544v188.746c0,5.313,4.287,9.581,9.563,9.581h205.783
		c5.275,0,9.544-4.269,9.544-9.581V84.618L262.555,84.618z M197.429,244.492H158.61h-16.781h-39.405
		c-4.635,0-8.408-4.195-8.408-9.344v-18.539c0-5.166,3.773-9.361,8.408-9.361h28.084v-56.351h-28.084
		c-4.635,0-8.408-4.195-8.408-9.361V122.96c0-5.167,3.773-9.361,8.408-9.361h39.405h18.521c4.652,0,8.408,4.195,8.408,9.361v22.771
		v61.517h28.67c4.617,0,8.372,4.195,8.372,9.361v18.539C205.801,240.297,202.046,244.492,197.429,244.492L197.429,244.492z"/>
</g>
</svg>
