<?xml version="1.0" encoding="utf-8"?>
<!-- Generator: Adobe Illustrator 16.0.0, SVG Export Plug-In . SVG Version: 6.00 Build 0)  -->
<!DOCTYPE svg PUBLIC "-//W3C//DTD SVG 1.1//EN" "http://www.w3.org/Graphics/SVG/1.1/DTD/svg11.dtd">
<svg version="1.1" id="Layer_1" xmlns="http://www.w3.org/2000/svg" xmlns:xlink="http://www.w3.org/1999/xlink" x="0px" y="0px"
	 width="300px" height="300px" viewBox="0 0 300 300" enable-background="new 0 0 300 300" xml:space="preserve">
<path fill-rule="evenodd" clip-rule="evenodd" fill="#425182" d="M256.123,246.844V300l-55.544-31.982
	c-7.288,1.194-14.774,1.886-22.462,1.886c-36.097,0-69.921-11.938-92.231-33.762c2.063,0.126,24.243,0.355,31.055-0.188
	c17.625,12.126,36.903,13.048,61.177,13.048c8.378,0,16.473-0.942,24.264-2.575l32.746,20.965l1.12-31.354
	c21.091-18.912,42.003-40.359,42.003-71.607c0-19.755-7.54-33.097-20.168-47.873c-0.493-8.99-0.629-30.923-0.545-29.766
	C282.375,99.85,300,132.847,300,163.257C300,197.375,284.617,227.303,256.123,246.844L256.123,246.844z M121.883,213.649
	c-7.681,0-15.169-0.691-22.458-1.864L42.38,244.122v-53.177C13.886,171.446,0,141.125,0,107.007C0,48.118,54.569,0,121.883,0
	c67.303,0,124.49,48.118,124.49,107.007C246.374,165.917,189.186,213.649,121.883,213.649L121.883,213.649z M121.883,20.991
	c-56.957,0-100.887,38.013-100.887,87.189c0,31.264,14.556,58.7,42.757,74.597v25.74l32.75-16.462
	c7.787,1.612,17.001,1.822,25.379,1.822C178.83,193.877,225,157.372,225,108.18C225,59.004,178.83,20.991,121.883,20.991
	L121.883,20.991z M160.608,160.974H85.541c-5.922,0-10.718-4.817-10.718-10.723c0-5.922,4.796-10.724,10.718-10.724h75.067
	c5.917,0,10.713,4.802,10.713,10.724C171.321,156.157,166.525,160.974,160.608,160.974L160.608,160.974z M160.608,118.071H85.541
	c-5.922,0-10.718-4.797-10.718-10.718c0-5.917,4.796-10.719,10.718-10.719h75.067c5.917,0,10.713,4.802,10.713,10.719
	C171.321,113.274,166.525,118.071,160.608,118.071L160.608,118.071z M160.608,75.183H85.541c-5.922,0-10.718-4.801-10.718-10.723
	c0-5.917,4.796-10.718,10.718-10.718h75.067c5.917,0,10.713,4.801,10.713,10.718C171.321,70.382,166.525,75.183,160.608,75.183
	L160.608,75.183z"/>
</svg>
