<?xml version="1.0" encoding="utf-8"?>
<!-- Generator: Adobe Illustrator 16.0.0, SVG Export Plug-In . SVG Version: 6.00 Build 0)  -->
<!DOCTYPE svg PUBLIC "-//W3C//DTD SVG 1.1//EN" "http://www.w3.org/Graphics/SVG/1.1/DTD/svg11.dtd">
<svg version="1.1" id="Layer_1" xmlns="http://www.w3.org/2000/svg" xmlns:xlink="http://www.w3.org/1999/xlink" x="0px" y="0px"
	 width="300px" height="315.451px" viewBox="0 0 300 315.451" enable-background="new 0 0 300 315.451" xml:space="preserve">
<g>
</g>
<path fill-rule="evenodd" clip-rule="evenodd" fill="#454C62" d="M294.746,284.602c7.006,7.047,7.006,18.488,0,25.548
	c-3.53,3.517-8.109,5.301-12.701,5.301c-4.605,0-9.2-1.784-12.703-5.301l-59.544-60.018c-4.12,2.939-11.48,5.064-20.247,6.652
	c-16.848,7.61-35.506,11.94-55.188,11.94C60.162,268.725,0,208.564,0,134.363S60.162,0,134.363,0
	c74.201,0,134.362,60.162,134.362,134.363c0,32.659-11.678,62.575-31.031,85.854c-0.827,1.482-1.615,3.109-2.494,4.369
	L294.746,284.602L294.746,284.602z M134.363,25.849c-59.834,0-108.514,48.68-108.514,108.514
	c0,59.833,48.68,108.514,108.514,108.514c59.833,0,108.5-48.681,108.5-108.514C242.863,74.529,194.196,25.849,134.363,25.849
	L134.363,25.849z"/>
</svg>
