<?xml version="1.0" encoding="utf-8"?>
<!-- Generator: Adobe Illustrator 16.0.0, SVG Export Plug-In . SVG Version: 6.00 Build 0)  -->
<!DOCTYPE svg PUBLIC "-//W3C//DTD SVG 1.1//EN" "http://www.w3.org/Graphics/SVG/1.1/DTD/svg11.dtd">
<svg version="1.1" id="Layer_1" xmlns="http://www.w3.org/2000/svg" xmlns:xlink="http://www.w3.org/1999/xlink" x="0px" y="0px"
	 width="300px" height="300.013px" viewBox="0 0 300 300.013" enable-background="new 0 0 300 300.013" xml:space="preserve">
<path fill-rule="evenodd" clip-rule="evenodd" fill="#BEC0CF" d="M298.907,132.084c0.693,5.874,1.093,11.854,1.093,17.929
	c0,6.061-0.399,12.016-1.093,17.916l-49.897,8.02c-2.411,9.137-6.021,17.756-10.696,25.694l29.638,40.974
	c-7.406,9.43-15.918,17.929-25.349,25.348l-40.973-29.637c-7.939,4.662-16.558,8.285-25.695,10.695l-8.02,49.898
	c-5.873,0.692-11.854,1.092-17.915,1.092c-6.062,0-12.055-0.399-17.929-1.092l-8.006-49.898c-9.138-2.41-17.756-6.033-25.708-10.695
	l-40.973,29.637c-9.431-7.419-17.929-15.918-25.349-25.348l29.638-40.974c-4.662-7.938-8.285-16.558-10.683-25.694l-49.898-8.02
	C0.399,162.029,0,156.074,0,150.013c0-6.074,0.399-12.055,1.092-17.929l49.898-8.019c2.398-9.138,6.021-17.743,10.683-25.695
	L32.035,57.397c7.419-9.431,15.918-17.942,25.349-25.349l40.973,29.625c7.952-4.649,16.57-8.272,25.708-10.683l8.006-49.898
	C137.945,0.4,143.938,0,150,0c6.061,0,12.042,0.4,17.915,1.092l8.02,49.898c9.138,2.411,17.756,6.034,25.695,10.683l40.973-29.625
	c9.431,7.406,17.942,15.918,25.349,25.349l-29.638,40.973c4.676,7.952,8.285,16.557,10.696,25.695L298.907,132.084L298.907,132.084z
	 M150,81.387c-37.896,0-68.626,30.717-68.626,68.626c0,37.896,30.73,68.613,68.626,68.613c37.896,0,68.612-30.717,68.612-68.613
	C218.612,112.104,187.896,81.387,150,81.387L150,81.387z M150,191.041c-22.685,0-41.04-18.355-41.04-41.027
	c0-22.671,18.355-41.04,41.04-41.04c22.671,0,41.026,18.369,41.026,41.04C191.026,172.685,172.671,191.041,150,191.041L150,191.041z
	"/>
</svg>
