<?xml version="1.0" encoding="utf-8"?>
<!-- Generator: Adobe Illustrator 16.0.0, SVG Export Plug-In . SVG Version: 6.00 Build 0)  -->
<!DOCTYPE svg PUBLIC "-//W3C//DTD SVG 1.1//EN" "http://www.w3.org/Graphics/SVG/1.1/DTD/svg11.dtd">
<svg version="1.1" id="Layer_1" xmlns="http://www.w3.org/2000/svg" xmlns:xlink="http://www.w3.org/1999/xlink" x="0px" y="0px"
	 width="300px" height="356.742px" viewBox="0 0 300 356.742" enable-background="new 0 0 300 356.742" xml:space="preserve">
<g>
	<path fill-rule="evenodd" clip-rule="evenodd" fill="#AFB5BF" d="M255.194,356.742H55.396C2.615,355.878,0,303.973,0,303.973
		V90.166C35.136,3.735,112.248,0,112.248,0h115.754C297.623,0,300,61.571,300,61.571V306.77
		C299.929,352.971,255.194,356.742,255.194,356.742L255.194,356.742z M275.755,74.098c-0.38-54.619-47.951-50.004-47.951-50.004
		H97.206l0.103,32.446c-1.22,28.813-40.405,32.636-40.405,32.636H24.158v193.073c0.075,56.175,46.616,50.059,46.616,50.059h156.919
		c51.247,0.214,48.196-48.744,48.196-48.744S275.993,108.979,275.755,74.098L275.755,74.098z"/>
	<path fill="#19C1E5" d="M154.269,259.666c-40.329,0-73.016-32.69-73.016-73.02c0-40.325,32.687-73.017,73.016-73.017
		s73.021,32.691,73.021,73.017C227.289,226.976,194.598,259.666,154.269,259.666L154.269,259.666z M154.269,129.635
		c-31.431,0-57.011,25.58-57.011,57.012c0,31.439,25.58,57.016,57.011,57.016c31.432,0,57.016-25.576,57.016-57.016
		C211.284,155.215,185.7,129.635,154.269,129.635L154.269,129.635z M181.747,194.379h-19.476v19.745
		c0,4.991-2.924,9.032-7.916,9.032h-0.174c-5,0-7.927-4.041-7.927-9.032v-19.745h-19.46c-4.987,0-9.036-2.654-9.036-7.646v-0.174
		c0-5,4.049-8.201,9.036-8.201h19.183v-19.186c0-4.988,3.205-9.032,8.204-9.032h0.174c4.992,0,7.916,4.044,7.916,9.032v19.186
		h19.476c4.983,0,9.032,3.201,9.032,8.201v0.174C190.779,191.725,186.73,194.379,181.747,194.379L181.747,194.379z"/>
</g>
</svg>
