<?xml version="1.0" encoding="utf-8"?>
<!-- Generator: Adobe Illustrator 16.0.0, SVG Export Plug-In . SVG Version: 6.00 Build 0)  -->
<!DOCTYPE svg PUBLIC "-//W3C//DTD SVG 1.1//EN" "http://www.w3.org/Graphics/SVG/1.1/DTD/svg11.dtd">
<svg version="1.1" id="Layer_1" xmlns="http://www.w3.org/2000/svg" xmlns:xlink="http://www.w3.org/1999/xlink" x="0px" y="0px"
	 width="299.995px" height="299.541px" viewBox="0 0 299.995 299.541" enable-background="new 0 0 299.995 299.541"
	 xml:space="preserve">
<g>
	<path fill-rule="evenodd" clip-rule="evenodd" fill="#11131E" d="M218.681,139.468c43.879,0,79.457,34.713,79.457,77.518
		c0,42.826-35.578,77.519-79.457,77.519c-43.922,0-79.5-34.692-79.5-77.519C139.181,174.182,174.759,139.468,218.681,139.468
		L218.681,139.468z"/>
	<path fill-rule="evenodd" clip-rule="evenodd" fill="#D6DBE3" d="M299.995,213.827c0,47.705-37.978,85.714-85.693,85.714
		c-40.626,0-74.119-27.612-83.191-65.245c-4.546,0.543-9.093,1.043-13.775,1.043C52.534,235.339,0,182.138,0,117.341
		C0,52.534,52.534,0,117.335,0c64.786,0,118.342,52.534,118.342,117.341c0,4.505-0.479,8.905-1,13.285
		C272.362,139.666,299.995,173.17,299.995,213.827L299.995,213.827z M118.097,21.449C65,21.449,21.96,64.494,21.96,117.581
		c0,22.169,7.571,42.533,20.183,58.79c2.148-11.605,11.476-14.577,11.476-14.577l31.533-11.564l11.46-5.86l-0.078-12.764
		c0,0-6.225-4.108-6.241-14.338c-0.38-0.031-0.771-0.063-1.23-0.135c-6.111-0.771-11.351-10.354-11.794-16.861
		c-0.443-6.497,4.844-7.039,4.844-7.039l4.63,1.522c0,0-2.018-6.048-2.018-22.878c0-7.737,2.07-11.512,6.173-13.994
		c0-0.021-0.016-0.041-0.016-0.094c0,0-6.157-14.608,26.736-14.911c31.7,0.303,31.617,27.497,31.617,27.497l-0.105,9.959
		l-0.959,13.076c0.355-0.135,4.484-0.177,4.901-0.177c3.712,0,3.42,7.352,3.42,7.352s-4.463,15.777-10.573,16.548
		c-0.542,0.073-0.98,0.125-1.397,0.135c-1.105,8.415-4.932,13.421-4.932,13.421v13.347l10.25,5.882l5.089,1.949
		c15.119-14.483,35.578-23.409,58.352-23.681c0.396-3.504,0.96-6.976,0.96-10.604C214.239,64.494,171.194,21.449,118.097,21.449
		L118.097,21.449z M216.47,149.552c-21.064,1.387-59.771,9.166-65.943,57.268c3.691-33.535-20.834,71.168,63.774,71.168
		c35.558,0,64.149-28.592,64.149-64.16C278.451,179.02,250.986,150.74,216.47,149.552L216.47,149.552z M246.814,224.338h-21.689
		v22.013c0,5.892-4.797,10.667-10.719,10.667h-0.209c-5.902,0-10.699-4.775-10.699-10.667v-22.023h-21.688
		c-5.902,0-10.698-4.483-10.698-10.386v-0.208c0-5.913,4.796-10.709,10.698-10.709h21.731v-21.689
		c0-5.902,4.754-10.699,10.656-10.699h0.209c5.922,0,10.385,4.797,10.385,10.699V202.7h22.023c5.881,0,10.678,5.12,10.678,11.033
		v0.208C257.492,219.844,252.695,224.338,246.814,224.338L246.814,224.338z"/>
</g>
</svg>
