<?xml version="1.0" encoding="utf-8"?>
<!-- Generator: Adobe Illustrator 16.0.0, SVG Export Plug-In . SVG Version: 6.00 Build 0)  -->
<!DOCTYPE svg PUBLIC "-//W3C//DTD SVG 1.1//EN" "http://www.w3.org/Graphics/SVG/1.1/DTD/svg11.dtd">
<svg version="1.1" id="Layer_1" xmlns="http://www.w3.org/2000/svg" xmlns:xlink="http://www.w3.org/1999/xlink" x="0px" y="0px"
	 width="300px" height="346.131px" viewBox="0 0 300 346.131" enable-background="new 0 0 300 346.131" xml:space="preserve">
<path fill="#DBDCE0" d="M184.615,346.131H46.153C20.643,346.131,0,325.466,0,299.978V115.385c0-25.511,20.643-46.154,46.153-46.154
	v69.208v138.484c0,12.71,10.322,23.054,23.055,23.054h92.308h69.276C230.792,325.466,210.126,346.131,184.615,346.131
	L184.615,346.131z M253.846,276.924h-46.153h-69.231h-23.099c-25.488,0-46.154-20.666-46.154-46.177V46.154
	C69.208,20.666,89.874,0,115.362,0h23.099h23.055c6.4,0,12.147,2.569,16.339,6.738l115.385,115.362
	c4.146,4.214,6.761,10.006,6.761,16.339v69.186c0,0.022,0,0.022,0,0.022v23.1C300,256.258,279.334,276.924,253.846,276.924
	L253.846,276.924z M253.846,184.594c0,0,0,0,0-0.023v-23.031h-92.33c-12.732,0-23.055-10.322-23.055-23.077v-11.539V85.908V57.692
	c0-6.4-5.183-11.539-11.538-11.539c-6.378,0-11.561,5.138-11.561,11.539v34.593v34.638v57.67v23.054
	c0,12.778,10.344,23.1,23.099,23.1h23.055h23.1h23.077h23.1c12.71,0,23.054-10.321,23.054-23.1V184.594L253.846,184.594z"/>
</svg>
