<?xml version="1.0" encoding="utf-8"?>
<!-- Generator: Adobe Illustrator 16.0.0, SVG Export Plug-In . SVG Version: 6.00 Build 0)  -->
<!DOCTYPE svg PUBLIC "-//W3C//DTD SVG 1.1//EN" "http://www.w3.org/Graphics/SVG/1.1/DTD/svg11.dtd">
<svg version="1.1" id="Layer_1" xmlns="http://www.w3.org/2000/svg" xmlns:xlink="http://www.w3.org/1999/xlink" x="0px" y="0px"
	 width="300px" height="300px" viewBox="0 0 300 300" enable-background="new 0 0 300 300" xml:space="preserve">
<path fill-rule="evenodd" clip-rule="evenodd" fill="#BEC0CF" d="M258.557,249.691h-91.645v16.986h49.892
	c9.195,0,16.62,7.452,16.62,16.661c0,9.177-7.425,16.661-16.62,16.661H83.708c-9.171,0-16.628-7.484-16.628-16.661
	c0-9.209,7.457-16.661,16.628-16.661h49.924v-16.986H41.931c-24.442,0-41.476-16.922-41.476-41.491L0,41.531
	C0,16.93,17.026,0,41.444,0h216.625c24.451,0,41.477,16.93,41.477,41.531L300,208.2C300,232.77,282.975,249.691,258.557,249.691
	L258.557,249.691z M265.785,54.027c0-12.749-8.22-20.754-20.729-20.754H71.101c-12.501,0-37.374,8.005-37.374,20.754l0.487,141.645
	c0,12.757,8.221,20.762,20.722,20.762h173.955c12.51,0,37.383-8.005,37.383-20.762L265.785,54.027L265.785,54.027z M200.184,150.049
	c0-9.201,7.426-16.669,16.62-16.669c9.195,0,16.62,7.469,16.62,16.669v49.984h-33.24V150.049L200.184,150.049z M133.632,83.404
	c0-9.209,7.433-16.677,16.62-16.677c9.188,0,16.66,7.468,16.66,16.677v116.629h-33.28V83.404L133.632,83.404z M67.08,133.379
	c0-9.209,7.457-16.653,16.628-16.653c9.187,0,16.644,7.444,16.644,16.653v66.654H67.08V133.379L67.08,133.379z"/>
</svg>
