<?xml version="1.0" encoding="utf-8"?>
<!-- Generator: Adobe Illustrator 16.0.0, SVG Export Plug-In . SVG Version: 6.00 Build 0)  -->
<!DOCTYPE svg PUBLIC "-//W3C//DTD SVG 1.1//EN" "http://www.w3.org/Graphics/SVG/1.1/DTD/svg11.dtd">
<svg version="1.1" id="Layer_1" xmlns="http://www.w3.org/2000/svg" xmlns:xlink="http://www.w3.org/1999/xlink" x="0px" y="0px"
	 width="299.997px" height="256.979px" viewBox="0 0 299.997 256.979" enable-background="new 0 0 299.997 256.979"
	 xml:space="preserve">
<path fill-rule="evenodd" clip-rule="evenodd" fill="#DBDCE0" d="M278.478,256.979H21.52c-24.051,0-21.437-27.751-21.437-21.436
	V42.83c0-11.816,9.62-21.415,21.437-21.415c11.836,0,20.432,9.599,20.432,21.415l0.815,128.469l214.442,0.69l-0.146-128.49
	c0-11.837,9.578-21.415,21.415-21.415c11.816,0,21.436,9.578,21.436,21.415v192.735
	C299.914,230.817,302.528,256.979,278.478,256.979L278.478,256.979z M107.179,64.245c5.919,0,11.293,2.384,15.142,6.274l6.273,6.253
	V21.415C128.594,9.578,138.172,0,150.031,0c11.795,0,21.394,9.578,21.394,21.415v55.357l6.273-6.253
	c3.891-3.89,9.223-6.274,15.142-6.274c11.837,0,21.436,9.578,21.436,21.415c0,5.897-2.384,11.251-6.295,15.162l-42.809,42.809
	c-3.89,3.869-9.223,6.273-15.141,6.273c-5.919,0-11.294-2.404-15.162-6.273l-42.81-42.809c-3.89-3.911-6.273-9.265-6.273-15.162
	C85.786,73.823,95.364,64.245,107.179,64.245L107.179,64.245z"/>
</svg>
