<?xml version="1.0" encoding="utf-8"?>
<!-- Generator: Adobe Illustrator 16.0.0, SVG Export Plug-In . SVG Version: 6.00 Build 0)  -->
<!DOCTYPE svg PUBLIC "-//W3C//DTD SVG 1.1//EN" "http://www.w3.org/Graphics/SVG/1.1/DTD/svg11.dtd">
<svg version="1.1" id="Layer_1" xmlns="http://www.w3.org/2000/svg" xmlns:xlink="http://www.w3.org/1999/xlink" x="0px" y="0px"
	 width="300px" height="319.902px" viewBox="0 0 300 319.902" enable-background="new 0 0 300 319.902" xml:space="preserve">
<path fill-rule="evenodd" clip-rule="evenodd" fill="#7DBE89" d="M300,319.902L0,319.701l19.766-60.882l61.752-29.506l26.29-13.214
	l-0.175-27.179c0,0-20.113-8.742-20.141-30.551c-0.807-0.055-1.668-0.109-2.639-0.257c-12.994-1.667-24.137-22.065-25.09-35.92
	c-0.943-13.846,13.653-15.028,13.653-15.028s6.351,0.725,9.219,0.807c-1.2-5.195-6.982-19.133-6.982-46.229
	c0-16.467,4.398-24.539,13.131-29.799c0-0.056-0.027-0.11-0.027-0.192c0,0-13.104-31.119,56.923-31.751
	c4.829,0.055,9.246,0.458,13.424,1.035c55.53,3.271,47.833,28.553,46.917,31.109c0.146,0.321,0.312,0.633,0.477,0.953
	c8.283,5.26,12.535,13.277,12.535,29.305c0,25.227,1.21,38.907-0.055,44.882c5.425-0.146,6.579-0.375,8.32,0.752
	c0.019-0.01,12.114-1.934,10.923,14.854c-0.935,13.818-15.395,34.234-28.406,35.884c-0.99,0.146-1.852,0.202-2.621,0.257
	c-0.055,21.809-20.141,30.569-20.141,30.569l-0.165,27.16l26.262,13.213l66.142,29.488L300,319.902L300,319.902z"/>
</svg>
