<?xml version="1.0" encoding="utf-8"?>
<!-- Generator: Adobe Illustrator 16.0.0, SVG Export Plug-In . SVG Version: 6.00 Build 0)  -->
<!DOCTYPE svg PUBLIC "-//W3C//DTD SVG 1.1//EN" "http://www.w3.org/Graphics/SVG/1.1/DTD/svg11.dtd">
<svg version="1.1" id="Layer_1" xmlns="http://www.w3.org/2000/svg" xmlns:xlink="http://www.w3.org/1999/xlink" x="0px" y="0px"
	 width="300px" height="300px" viewBox="0 0 300 300" enable-background="new 0 0 300 300" xml:space="preserve">
<g>
</g>
<g>
	<path fill-rule="evenodd" clip-rule="evenodd" fill="#D0FB99" d="M83.041,224.771l-42.416-32.656c0,0-24.007-31.251-25.423-36.944
		c-1.4-5.694,15.527-89.496,15.527-89.496L90.104,30.17l67.806-11.371l56.527,8.524l43.814,34.097l28.271,49.706l-8.496,51.145
		l-21.175,36.944l-22.624,26.963l-5.647,31.267l5.647,26.996l-26.839-19.879c0,0-21.208-18.472-31.104-22.741
		c-9.88-4.255-25.423-14.203-25.423-14.203h-33.936L83.041,224.771L83.041,224.771z"/>
	<path fill-rule="evenodd" clip-rule="evenodd" fill="#93B36A" d="M250,213.334v69.913c0,0.129-0.064,0.245-0.064,0.359
		c0.049,4.188-1.514,8.393-4.704,11.599c-3.19,3.225-7.39,4.795-11.604,4.746c-0.098,0-0.195,0.049-0.293,0.049
		c-5.566,0-10.254-2.896-13.266-7.102l-58.479-58.327h-44.922C52.246,234.571,0,182.052,0,117.277C0,52.503,52.246,0,116.667,0
		h66.667C247.754,0,300,52.503,300,117.277C300,157.084,280.16,192.163,250,213.334L250,213.334z M183.334,33.508h-66.667
		c-46.013,0-83.333,37.5-83.333,83.77s37.321,83.785,83.333,83.785H172.9l47.934,48.136l-3.549-55.547
		c29.069-13.105,49.382-42.277,49.382-76.374C266.667,71.008,229.346,33.508,183.334,33.508L183.334,33.508z"/>
</g>
</svg>
