<?xml version="1.0" encoding="iso-8859-1"?>
<!-- Generator: Adobe Illustrator 16.0.0, SVG Export Plug-In . SVG Version: 6.00 Build 0)  -->
<!DOCTYPE svg PUBLIC "-//W3C//DTD SVG 1.1//EN" "http://www.w3.org/Graphics/SVG/1.1/DTD/svg11.dtd">
<svg version="1.1" id="Layer_1" xmlns="http://www.w3.org/2000/svg" xmlns:xlink="http://www.w3.org/1999/xlink" x="0px" y="0px"
	 width="30.039px" height="25px" viewBox="0 0 30.039 25" style="enable-background:new 0 0 30.039 25;" xml:space="preserve">
<path style="fill:#999DA5;" d="M21.35,20.024h-2.003c-0.538,0.398-0.952,0.768-1.29,1.105l-4.136,3.402
	c-0.061,0.061-0.12,0.098-0.18,0.148c-0.053,0.053-0.105,0.1-0.167,0.138c-0.032,0.021-0.063,0.032-0.094,0.05
	c-0.067,0.032-0.131,0.066-0.201,0.086c-0.074,0.023-0.15,0.031-0.225,0.034C13.028,24.991,13,25,12.975,25
	c-0.031,0-0.065-0.012-0.097-0.015c-0.025-0.004-0.05-0.005-0.076-0.011c-0.349-0.055-0.706-0.286-0.782-0.792
	c-0.006-0.042-0.025-0.077-0.025-0.122c0-0.02-0.01-0.029-0.01-0.048v-3.99H8.688C3.542,20.024,0,14.803,0,9.656
	C0,4.51,3.542,0,8.688,0H21.35c5.146,0,8.688,4.51,8.688,9.656C30.039,14.803,26.496,20.024,21.35,20.024z M20.019,2.037H9.988
	c-4.418,0-7.834,3.582-7.834,8c0,4.418,3.416,8,7.834,8h4.024v3.737l3.94-3.737h2.066c4.418,0,7.891-3.582,7.891-8
	C27.91,5.619,24.437,2.037,20.019,2.037z"/>
</svg>
