<?xml version="1.0" encoding="utf-8"?>
<!-- Generator: Adobe Illustrator 16.0.0, SVG Export Plug-In . SVG Version: 6.00 Build 0)  -->
<!DOCTYPE svg PUBLIC "-//W3C//DTD SVG 1.1//EN" "http://www.w3.org/Graphics/SVG/1.1/DTD/svg11.dtd">
<svg version="1.1" id="Layer_1" xmlns="http://www.w3.org/2000/svg" xmlns:xlink="http://www.w3.org/1999/xlink" x="0px" y="0px"
	 width="300px" height="289.311px" viewBox="0 0 300 289.311" enable-background="new 0 0 300 289.311" xml:space="preserve">
<path fill="#7E878E" d="M283.29,0H16.716C7.485,0,0,7.534,0,16.83v255.651c0,9.279,7.485,16.83,16.716,16.83H283.29
	c9.236,0,16.71-7.551,16.71-16.83V167.649v-42.821V16.83C300,7.534,292.526,0,283.29,0L283.29,0z M33.427,255.651V32.975h133.575
	v89.645h-33.916c-4.216,0-21.611-0.941-21.611,21.883c0,21.079,17.059,22.221,21.611,22.221h33.916v88.927H33.427L33.427,255.651z"
	/>
</svg>
