<?xml version="1.0" encoding="utf-8"?>
<!-- Generator: Adobe Illustrator 16.0.0, SVG Export Plug-In . SVG Version: 6.00 Build 0)  -->
<!DOCTYPE svg PUBLIC "-//W3C//DTD SVG 1.1//EN" "http://www.w3.org/Graphics/SVG/1.1/DTD/svg11.dtd">
<svg version="1.1" id="Layer_1" xmlns="http://www.w3.org/2000/svg" xmlns:xlink="http://www.w3.org/1999/xlink" x="0px" y="0px"
	 width="300px" height="300px" viewBox="0 0 300 300" enable-background="new 0 0 300 300" xml:space="preserve">
<path fill-rule="evenodd" clip-rule="evenodd" fill="#BEC0CF" d="M291.192,300H173.618c-4.873,0-8.822-3.966-8.822-8.84V173.695
	c0-4.903,3.949-8.84,8.822-8.84h117.574c4.857,0,8.808,3.937,8.808,8.84V291.16C300,296.034,296.05,300,291.192,300L291.192,300z
	 M268.997,195.033h-73.9v75.242h73.9V195.033L268.997,195.033z M291.192,135.145H173.618c-4.873,0-8.822-3.98-8.822-8.839V8.839
	c0-4.874,3.949-8.839,8.822-8.839h117.574C296.05,0,300,3.966,300,8.839v117.466C300,131.164,296.05,135.145,291.192,135.145
	L291.192,135.145z M268.997,30.178h-73.9v75.227h73.9V30.178L268.997,30.178z M126.375,300H8.8c-4.857,0-8.8-3.966-8.8-8.84V173.695
	c0-4.903,3.943-8.84,8.8-8.84h117.574c4.872,0,8.822,3.937,8.822,8.84V291.16C135.197,296.034,131.247,300,126.375,300L126.375,300z
	 M104.194,195.033H30.293v75.242h73.901V195.033L104.194,195.033z M126.375,135.145H8.8c-4.857,0-8.8-3.98-8.8-8.839V8.839
	C0,3.966,3.943,0,8.8,0h117.574c4.872,0,8.822,3.966,8.822,8.839v117.466C135.197,131.164,131.247,135.145,126.375,135.145
	L126.375,135.145z M104.194,30.178H30.293v75.227h73.901V30.178L104.194,30.178z"/>
</svg>
