<?xml version="1.0" encoding="utf-8"?>
<!-- Generator: Adobe Illustrator 16.0.0, SVG Export Plug-In . SVG Version: 6.00 Build 0)  -->
<!DOCTYPE svg PUBLIC "-//W3C//DTD SVG 1.1//EN" "http://www.w3.org/Graphics/SVG/1.1/DTD/svg11.dtd">
<svg version="1.1" id="Layer_1" xmlns="http://www.w3.org/2000/svg" xmlns:xlink="http://www.w3.org/1999/xlink" x="0px" y="0px"
	 width="300px" height="300.005px" viewBox="0 0 300 300.005" enable-background="new 0 0 300 300.005" xml:space="preserve">
<path fill-rule="evenodd" clip-rule="evenodd" fill="#7E878E" d="M150.003,300.005C67.286,300.005,0,232.72,0,150.003
	C0,67.292,67.286,0,150.003,0C232.714,0,300,67.292,300,150.003C300,232.72,232.714,300.005,150.003,300.005L150.003,300.005z
	 M115.86,128.862c-3.695,3.695-16.213,15.631-16.213,20.772c0,1.695,1.711,3.694,3.694,3.694c5.113,0,18.761-24.754,29.302-24.754
	c2.271,0,4.836,2.564,2.836,7.677l-19.907,50.068c-1.983,4.824-11.666,28.166-11.666,41.814c0,10.801,7.112,15.626,17.36,15.626
	c28.736,0,62.005-35.272,62.005-43.51c0-2.564-1.989-4.26-3.401-4.26c-3.988,0-19.637,24.167-28.178,24.167
	c-2.271,0-3.401-1.978-3.401-3.977c0-4.543,3.129-11.671,4.825-15.931l20.483-55.463c10.247-27.59-2.847-34.979-15.083-34.979
	C142.032,109.807,127.237,118.055,115.86,128.862L115.86,128.862z M174.165,57.468c-12.519,0-23.331,10.231-23.331,22.749
	c0,11.666,7.683,19.348,19.354,19.348c12.812,0,23.613-9.666,23.613-22.75C193.801,65.151,185.542,57.468,174.165,57.468
	L174.165,57.468z"/>
</svg>
