<?xml version="1.0" encoding="utf-8"?>
<!-- Generator: Adobe Illustrator 16.0.0, SVG Export Plug-In . SVG Version: 6.00 Build 0)  -->
<!DOCTYPE svg PUBLIC "-//W3C//DTD SVG 1.1//EN" "http://www.w3.org/Graphics/SVG/1.1/DTD/svg11.dtd">
<svg version="1.1" id="Layer_1" xmlns="http://www.w3.org/2000/svg" xmlns:xlink="http://www.w3.org/1999/xlink" x="0px" y="0px"
	 width="15.999px" height="15.999px" viewBox="0 0 15.999 15.999" enable-background="new 0 0 15.999 15.999" xml:space="preserve">
<path fill-rule="evenodd" clip-rule="evenodd" fill="#68749B" d="M13.656,13.656c-3.125,3.124-8.189,3.124-11.313,0
	c-3.124-3.125-3.124-8.189,0-11.313c3.124-3.125,8.188-3.125,11.313,0C16.78,5.467,16.78,10.531,13.656,13.656L13.656,13.656z
	 M12.242,3.757c-2.343-2.344-6.143-2.344-8.485,0c-2.344,2.342-2.344,6.143,0,8.485c2.343,2.344,6.143,2.344,8.485,0
	C14.585,9.899,14.585,6.099,12.242,3.757L12.242,3.757z M7.982,10.979L4.293,7.675C4.113,7.495,4,7.245,4,6.968
	c0-0.552,0.448-0.999,1-0.999c0.546,0,0.707,0.292,0.707,0.292L8,8.18l2.262-1.886C10.444,6.111,10.694,6,10.969,6
	c0.552,0,1,0.448,1,1c0,0.546-0.294,0.707-0.294,0.707L7.982,10.979L7.982,10.979z"/>
</svg>
