<?xml version="1.0" encoding="utf-8"?>
<!-- Generator: Adobe Illustrator 16.0.0, SVG Export Plug-In . SVG Version: 6.00 Build 0)  -->
<!DOCTYPE svg PUBLIC "-//W3C//DTD SVG 1.1//EN" "http://www.w3.org/Graphics/SVG/1.1/DTD/svg11.dtd">
<svg version="1.1" id="Layer_1" xmlns="http://www.w3.org/2000/svg" xmlns:xlink="http://www.w3.org/1999/xlink" x="0px" y="0px"
	 width="300.005px" height="300px" viewBox="0 0 300.005 300" enable-background="new 0 0 300.005 300" xml:space="preserve">
<path fill-rule="evenodd" clip-rule="evenodd" fill="inherit" d="M256.071,256.052c-58.598,58.597-153.544,58.597-212.123,0
	c-58.597-58.579-58.597-153.543,0-212.104c58.579-58.598,153.525-58.598,212.123,0C314.65,102.509,314.65,197.473,256.071,256.052
	L256.071,256.052z M229.555,70.445c-43.93-43.966-115.181-43.966-159.11,0c-43.947,43.93-43.947,115.18,0,159.11
	c43.93,43.947,115.181,43.947,159.11,0C273.503,185.625,273.503,114.375,229.555,70.445L229.555,70.445z M149.68,205.878
	l-69.164-61.967c-3.388-3.388-5.512-8.057-5.512-13.239c0-10.365,8.424-18.751,18.77-18.751c10.236,0,13.258,5.494,13.258,5.494
	l42.996,35.964L192.437,118c3.406-3.406,8.094-5.494,13.258-5.494c10.347,0,18.751,8.387,18.751,18.751
	c0,10.254-5.512,13.258-5.512,13.258L149.68,205.878L149.68,205.878z"/>
</svg>
