<?xml version="1.0" encoding="utf-8"?>
<!-- Generator: Adobe Illustrator 16.0.0, SVG Export Plug-In . SVG Version: 6.00 Build 0)  -->
<!DOCTYPE svg PUBLIC "-//W3C//DTD SVG 1.1//EN" "http://www.w3.org/Graphics/SVG/1.1/DTD/svg11.dtd">
<svg version="1.1" id="Layer_1" xmlns="http://www.w3.org/2000/svg" xmlns:xlink="http://www.w3.org/1999/xlink" x="0px" y="0px"
	 width="300px" height="329.646px" viewBox="0 0 300 329.646" enable-background="new 0 0 300 329.646" xml:space="preserve">
<path fill-rule="evenodd" clip-rule="evenodd" fill="inherit" d="M248.155,329.646l-196.018-0.266
	C23.861,329.381,0,303.431,0,275.901L1.181,57.56c0,0-1.621-57.302,47.526-57.302c0,0,158.783-0.258,160.46-0.258L300,107.546
	V281.03C300,308.56,276.453,329.646,248.155,329.646L248.155,329.646z M271.995,129.06c-25.908,0-36.557,0-36.557,0
	c-28.465,0-49.441-18.663-49.441-46.43c0,0-0.209-23.03,0-53.829H53.822c-14.023,0-26.733,13.129-26.733,26.74v219.243
	c0,13.625,12.709,26.733,26.733,26.733h191.427c14.029,0,26.746-13.108,26.746-26.733V129.06L271.995,129.06z M214.98,257.86H85.194
	c-7.595,0-13.765-6.177-13.765-13.765c0-7.603,6.17-13.765,13.765-13.765H214.98c7.616,0,13.792,6.162,13.792,13.765
	C228.772,251.684,222.597,257.86,214.98,257.86L214.98,257.86z M214.98,200.049H85.194c-7.595,0-13.765-6.163-13.765-13.765
	c0-7.588,6.17-13.765,13.765-13.765H214.98c7.616,0,13.792,6.177,13.792,13.765C228.772,193.886,222.597,200.049,214.98,200.049
	L214.98,200.049z"/>
</svg>
