<?xml version="1.0" encoding="utf-8"?>
<!-- Generator: Adobe Illustrator 16.0.0, SVG Export Plug-In . SVG Version: 6.00 Build 0)  -->
<!DOCTYPE svg PUBLIC "-//W3C//DTD SVG 1.1//EN" "http://www.w3.org/Graphics/SVG/1.1/DTD/svg11.dtd">
<svg version="1.1" id="Layer_1" xmlns="http://www.w3.org/2000/svg" xmlns:xlink="http://www.w3.org/1999/xlink" x="0px" y="0px"
	 width="300.004px" height="356.742px" viewBox="0 0 300.004 356.742" enable-background="new 0 0 300.004 356.742"
	 xml:space="preserve">
<g>
	<path fill-rule="evenodd" clip-rule="evenodd" fill="#AFB5BF" d="M255.198,356.742H55.399C2.615,355.878,0,303.973,0,303.973
		V90.166C35.14,3.74,112.256,0,112.256,0h115.75c69.621,0,71.998,61.571,71.998,61.571V306.77
		C299.933,352.971,255.198,356.742,255.198,356.742L255.198,356.742z M275.76,74.098c-0.381-54.623-47.951-50.004-47.951-50.004
		H97.218l0.095,32.446c-1.22,28.809-40.409,32.635-40.409,32.635H24.166v193.073c0.071,56.175,46.612,50.059,46.612,50.059h156.919
		c51.247,0.214,48.196-48.744,48.196-48.744S275.997,108.976,275.76,74.098L275.76,74.098z"/>
	<path fill-rule="evenodd" clip-rule="evenodd" fill="#CADBB3" d="M194.84,221.541v29.261c0,0.047-0.023,0.087-0.023,0.15
		c0.016,2.036-0.745,4.08-2.299,5.641c-1.561,1.554-3.597,2.307-5.641,2.282c-0.048,0-0.104,0.024-0.15,0.024
		c-2.687,0-4.96-1.395-6.434-3.415l-28.492-28.271h-21.86c-31.376,0-56.801-25.426-56.801-56.801
		c0-31.353,25.425-56.778,56.801-56.778h40.567c31.359,0,56.785,25.426,56.785,56.778
		C227.293,193.033,213.975,212.405,194.84,221.541L194.84,221.541z M170.508,129.845H129.94c-22.415,0-40.566,18.176-40.566,40.567
		c0,22.414,18.152,40.574,40.566,40.574h27.169l21.504,25.6v-4.92l0,0v-5.27l0,0V210.17c18.516-3.755,32.461-20.133,32.461-39.758
		C211.074,148.021,192.906,129.845,170.508,129.845L170.508,129.845z"/>
</g>
</svg>
