<?xml version="1.0" encoding="utf-8"?>
<!-- Generator: Adobe Illustrator 16.0.0, SVG Export Plug-In . SVG Version: 6.00 Build 0)  -->
<!DOCTYPE svg PUBLIC "-//W3C//DTD SVG 1.1//EN" "http://www.w3.org/Graphics/SVG/1.1/DTD/svg11.dtd">
<svg version="1.1" id="Layer_1" xmlns="http://www.w3.org/2000/svg" xmlns:xlink="http://www.w3.org/1999/xlink" x="0px" y="0px"
	 width="300.008px" height="356.655px" viewBox="0 0 300.008 356.655" enable-background="new 0 0 300.008 356.655"
	 xml:space="preserve">
<g>
	<path fill-rule="evenodd" clip-rule="evenodd" fill="#AFB5BF" d="M179.909,215.923l17.667,7.946c0,0-13.654,2.391-23.596,19.202
		c-8.326,14.088-13.027,24.441-13.027,24.441h-87.66l-0.237-19.993c-0.063-16.273,12.221-20.152,12.221-20.152l34.621-11.477
		l11.722-6.332l-0.071-13.044c0,0-8.754-4.195-8.786-14.675c-0.38-0.031-0.776-0.063-1.251-0.126
		c-6.253-0.792-11.604-10.591-12.046-17.255c-0.475-6.641,4.955-7.203,4.955-7.203l4.726,1.567c0,0-2.058-6.182-2.058-23.397
		c0-7.899,2.113-11.778,6.308-14.31c0-0.016-0.016-0.063-0.016-0.095c0,0-6.292-14.936,27.339-15.245
		c32.412,0.309,32.333,28.099,32.333,28.099l-0.104,10.194l-0.966,13.369c0.341-0.119,4.575-0.182,5.003-0.182
		c3.783,0,3.482,7.52,3.482,7.52s-4.551,16.146-10.796,16.938c-0.555,0.079-1.006,0.11-1.44,0.143
		c-1.132,8.58-9.815,14.389-9.815,14.389v13.662L179.909,215.923L179.909,215.923z M275.63,254.611
		c0.016-50.989,0.031-154.597-0.158-180.59c-0.38-54.559-47.898-49.944-47.898-49.944H97.11l0.103,32.404
		c-1.219,28.787-40.367,32.61-40.367,32.61H24.141v192.874c0.071,56.117,46.564,50.007,46.564,50.007h127.306l3.482,9.593
		l29.927,14.817H55.342C2.612,355.513,0,303.669,0,303.669V90.073C35.104,3.736,112.141,0,112.141,0h115.631
		c69.545,0,71.92,61.516,71.92,61.516v201.771L275.63,254.611L275.63,254.611z"/>
	<path fill="#F3B93E" d="M278.638,335.297c-28.479,28.479-74.675,28.479-103.161,0c-28.478-28.478-28.478-74.671,0-103.148
		c28.486-28.494,74.683-28.494,103.161,0C307.132,260.626,307.132,306.819,278.638,335.297L278.638,335.297z M267.335,243.451
		c-22.21-22.21-58.346-22.21-80.54,0c-22.209,22.193-22.209,58.333,0,80.527c22.194,22.21,58.33,22.21,80.54,0
		C289.545,301.784,289.545,265.645,267.335,243.451L267.335,243.451z M255.716,266.531l-45.849,45.844
		c-3.166,3.166-8.303,3.166-11.469,0s-3.166-8.295,0-11.461l45.856-45.859c3.166-3.166,8.295-3.166,11.461,0
		S258.882,263.365,255.716,266.531L255.716,266.531z M255.716,312.375c-3.166,3.166-8.295,3.166-11.461,0l-45.856-45.844
		c-3.166-3.166-3.166-8.311,0-11.477s8.303-3.166,11.469,0l45.849,45.859C258.882,304.08,258.882,309.209,255.716,312.375
		L255.716,312.375z"/>
</g>
</svg>
