<?xml version="1.0" encoding="utf-8"?>
<!-- Generator: Adobe Illustrator 16.0.0, SVG Export Plug-In . SVG Version: 6.00 Build 0)  -->
<!DOCTYPE svg PUBLIC "-//W3C//DTD SVG 1.1//EN" "http://www.w3.org/Graphics/SVG/1.1/DTD/svg11.dtd">
<svg version="1.1" id="Layer_1" xmlns="http://www.w3.org/2000/svg" xmlns:xlink="http://www.w3.org/1999/xlink" x="0px" y="0px"
	 width="300px" height="300px" viewBox="0 0 300 300" enable-background="new 0 0 300 300" xml:space="preserve">
<path fill-rule="evenodd" clip-rule="evenodd" fill="#52626E" d="M211.748,144.497L211.748,144.497
	c-3.405-3.368-5.492-8.074-5.492-13.237c0-10.354,8.386-18.758,18.748-18.758c5.164,0,9.869,2.097,13.257,5.475l0,0l37.497,37.507
	l-26.53,26.53L211.748,144.497L211.748,144.497z M206.256,187.488c0,10.363-8.404,18.767-18.768,18.767
	c-5.163,0-9.869-2.105-13.237-5.511l0,0l-74.996-74.995l0,0c-3.414-3.379-5.511-8.057-5.511-13.247
	c0-10.354,8.404-18.758,18.758-18.758c5.19,0,9.869,2.096,13.247,5.511l0,0l75.014,74.995l0,0
	C204.149,177.619,206.256,182.325,206.256,187.488L206.256,187.488z M93.744,37.516v0.942c-3.012-0.631-6.161-0.942-9.375-0.942
	c-25.871,0-46.854,20.982-46.854,46.854c0,12.963,5.246,24.663,13.732,33.149l-26.53,26.521C9.466,128.761,0,107.687,0,84.369
	C0,37.8,37.8,0,84.369,0c2.151,0,4.185,0.348,6.253,0.631C91.685,0.457,92.654,0,93.744,0c10.354,0,18.758,8.403,18.758,18.758
	C112.502,29.111,104.098,37.516,93.744,37.516L93.744,37.516z M88.27,155.483L88.27,155.483c3.387,3.387,5.475,8.093,5.475,13.274
	c0,10.363-8.367,18.73-18.722,18.73c-5.19,0-9.869-2.088-13.283-5.475l0,0L24.26,144.497l26.503-26.521L88.27,155.483L88.27,155.483
	z M206.256,262.483v-0.952c3.039,0.641,6.151,0.952,9.374,0.952c25.89,0,46.854-21.001,46.854-46.854
	c0-12.945-5.255-24.663-13.714-33.158l26.513-26.53C290.552,171.229,300,192.304,300,215.63c0,46.598-37.772,84.37-84.37,84.37
	c-2.16,0-4.193-0.349-6.262-0.642c-1.062,0.184-1.996,0.642-3.112,0.642c-10.363,0-18.768-8.404-18.768-18.768
	C187.488,270.888,195.893,262.483,206.256,262.483L206.256,262.483z"/>
</svg>
