<?xml version="1.0" encoding="utf-8"?>
<!-- Generator: Adobe Illustrator 16.0.0, SVG Export Plug-In . SVG Version: 6.00 Build 0)  -->
<!DOCTYPE svg PUBLIC "-//W3C//DTD SVG 1.1//EN" "http://www.w3.org/Graphics/SVG/1.1/DTD/svg11.dtd">
<svg version="1.1" id="Layer_1" xmlns="http://www.w3.org/2000/svg" xmlns:xlink="http://www.w3.org/1999/xlink" x="0px" y="0px"
	 width="374.267px" height="81.077px" viewBox="0 0 374.267 81.077" enable-background="new 0 0 374.267 81.077"
	 xml:space="preserve">
<g>
	<path fill="#304075" d="M87.894,69.223c-9.874,0.01-17.602-3.014-23.181-9.066c-5.582-6.053-8.397-13.854-8.448-23.398
		l-0.013-2.449c-0.053-9.914,2.597-18.037,7.948-24.365c5.353-6.33,12.741-9.479,22.165-9.445c8.894-0.01,15.732,2.707,20.516,8.148
		c4.78,5.443,7.197,12.775,7.246,21.996l0.049,9.24l-39.473,0.039l-0.183,0.365c0.309,4.529,1.706,8.201,4.19,11.012
		c2.482,2.814,6.15,4.217,11.008,4.213c3.998-0.004,7.392-0.414,10.182-1.234c2.79-0.816,5.67-2.063,8.641-3.74l4.894,11.012
		c-2.642,2.166-6.221,3.982-10.743,5.457C98.172,68.479,93.238,69.217,87.894,69.223z M86.439,14.268
		c-3.592,0.002-6.349,1.238-8.273,3.711c-1.926,2.469-3.081,5.744-3.467,9.824l0.124,0.307l21.788-0.021l-0.008-1.346
		c-0.021-3.877-0.832-6.926-2.436-9.146C92.565,15.375,89.988,14.264,86.439,14.268z"/>
	<path fill="#304075" d="M221.153,49.45c-0.012-1.957-0.969-3.639-2.874-5.045c-1.904-1.406-5.43-2.635-10.576-3.691
		c-7.76-1.545-13.658-3.885-17.692-7.023c-4.037-3.137-6.068-7.398-6.097-12.783c-0.029-5.67,2.351-10.508,7.145-14.512
		c4.792-4.004,11.188-6.008,19.186-6.016c8.362-0.008,15.074,1.986,20.136,5.979c5.058,3.994,7.503,8.969,7.33,14.926l-0.119,0.367
		l-17.259,0.018c-0.014-2.652-0.883-4.813-2.604-6.486c-1.722-1.67-4.196-2.504-7.419-2.5c-2.855,0.002-5.116,0.717-6.782,2.148
		c-1.667,1.43-2.492,3.184-2.481,5.264c0.012,2.043,0.887,3.701,2.629,4.984c1.74,1.285,5.264,2.436,10.575,3.447
		c8.127,1.627,14.188,4.018,18.184,7.176c3.994,3.158,6.006,7.512,6.035,13.061c0.033,5.957-2.492,10.834-7.571,14.633
		c-5.081,3.799-11.802,5.701-20.165,5.711c-8.812,0.008-15.792-2.221-20.936-6.682c-5.145-4.463-7.608-9.549-7.396-15.262
		l0.121-0.369l16.341-0.014c0.141,3.549,1.317,6.117,3.528,7.707c2.212,1.59,5.093,2.383,8.643,2.379
		c3.305-0.004,5.819-0.668,7.549-1.994C220.308,53.543,221.165,51.737,221.153,49.45z"/>
	<path fill="#304075" d="M273.771,69.045c-9.874,0.01-17.602-3.012-23.181-9.064c-5.582-6.055-8.397-13.854-8.449-23.402
		l-0.011-2.447c-0.054-9.912,2.595-18.035,7.948-24.365c5.352-6.328,12.74-9.477,22.165-9.445c8.894-0.008,15.732,2.709,20.515,8.15
		c4.779,5.441,7.197,12.775,7.247,21.994l0.048,9.24l-39.473,0.037l-0.183,0.367c0.309,4.529,1.707,8.201,4.189,11.014
		c2.483,2.813,6.152,4.217,11.009,4.211c3.998-0.002,7.392-0.412,10.183-1.234c2.789-0.816,5.67-2.064,8.64-3.74l4.893,11.014
		c-2.64,2.162-6.22,3.982-10.741,5.455C284.049,68.301,279.116,69.042,273.771,69.045z M272.316,14.09
		c-3.591,0.004-6.349,1.24-8.272,3.711c-1.926,2.471-3.081,5.746-3.467,9.826l0.124,0.305l21.787-0.02l-0.008-1.348
		c-0.021-3.875-0.832-6.924-2.436-9.146C278.442,15.198,275.866,14.088,272.316,14.09z"/>
	<path fill="#304075" d="M349.601,1.417c-18.219-5.38-37.351,5.028-42.73,23.248s5.028,37.352,23.248,42.731
		c0.001,0,0.002,0.001,0.003,0.001l-4.043,13.679L355.8,64.879c0.342-0.179,0.68-0.363,1.016-0.554l0.249-0.136l-0.009-0.003
		c7.373-4.255,13.193-11.229,15.794-20.039C378.229,25.928,367.821,6.797,349.601,1.417z"/>
	<path fill="#FFFFFF" d="M354.8,31.217c-1.454-8.252-9.32-13.763-17.572-12.311c-8.253,1.454-13.764,9.322-12.311,17.573
		c0.729,4.138,3.07,7.584,6.263,9.812l-0.01,0.002l17.262,11.597l-1.377-10.692C352.654,44.178,355.963,37.825,354.8,31.217z"/>
	<polygon fill="#304075" points="58.288,1.73 37.675,1.73 21.914,26.694 17.938,26.696 17.975,1.73 0,1.73 0,68.017 18.156,68.006 
		18.01,40.284 22.537,40.278 41.045,67.985 61.608,67.963 36.936,31.94 	"/>
	<path fill="#304075" d="M137.207,67.882c0.011-15.232,0.026-42.788-0.008-44.855c-0.056-3.411,2.777-6.187,4.791-7.19
		c2.014-1.002,4.348-1.502,7-1.506c3.305-0.004,5.789,0.984,7.451,2.961c1.664,1.977,2.508,5.332,2.533,10.064L158.9,67.882h17.976
		l0.029-40.604c-0.05-9.301-1.963-16.104-5.739-20.402c-3.777-4.303-9.012-6.449-15.702-6.443
		c-3.998,0.004-7.604,0.947-10.816,2.824c-3.214,1.881-5.913,4.516-8.099,7.904l-0.007-9.486l-17.505,0.01v66.198H137.207z"/>
</g>
</svg>
