<?xml version="1.0" encoding="utf-8"?>
<!-- Generator: Adobe Illustrator 16.0.0, SVG Export Plug-In . SVG Version: 6.00 Build 0)  -->
<!DOCTYPE svg PUBLIC "-//W3C//DTD SVG 1.1//EN" "http://www.w3.org/Graphics/SVG/1.1/DTD/svg11.dtd">
<svg version="1.1" id="Layer_1" xmlns="http://www.w3.org/2000/svg" xmlns:xlink="http://www.w3.org/1999/xlink" x="0px" y="0px"
	 width="300px" height="236.769px" viewBox="0 0 300 236.769" enable-background="new 0 0 300 236.769" xml:space="preserve">
<path fill-rule="evenodd" clip-rule="evenodd" fill="inherit" d="M264.029,154.706l0.018-63.85L300,122.795L264.029,154.706
	L264.029,154.706z M118.384,236.769C53.003,236.769,0,183.77,0,118.389C0,53.003,53.003,0,118.384,0
	c65.38,0,118.371,53.003,118.371,118.389C236.755,183.77,183.765,236.769,118.384,236.769L118.384,236.769z M54.423,99.09
	c-10.917,0-19.757,8.853-19.757,19.761c0,10.904,8.839,19.743,19.757,19.743c10.904,0,19.744-8.839,19.744-19.743
	C74.167,107.943,65.327,99.09,54.423,99.09L54.423,99.09z M117.699,99.09c-10.904,0-19.743,8.853-19.743,19.761
	c0,10.904,8.839,19.743,19.743,19.743c10.917,0,19.757-8.839,19.757-19.743C137.456,107.943,128.616,99.09,117.699,99.09
	L117.699,99.09z M180.987,99.09c-10.903,0-19.742,8.853-19.742,19.761c0,10.904,8.839,19.743,19.742,19.743
	c10.904,0,19.753-8.839,19.753-19.743C200.74,107.943,191.892,99.09,180.987,99.09L180.987,99.09z"/>
</svg>
