<?xml version="1.0" encoding="utf-8"?>
<!-- Generator: Adobe Illustrator 16.0.0, SVG Export Plug-In . SVG Version: 6.00 Build 0)  -->
<!DOCTYPE svg PUBLIC "-//W3C//DTD SVG 1.1//EN" "http://www.w3.org/Graphics/SVG/1.1/DTD/svg11.dtd">
<svg version="1.1" id="Layer_1" xmlns="http://www.w3.org/2000/svg" xmlns:xlink="http://www.w3.org/1999/xlink" x="0px" y="0px"
	 width="300px" height="324.12px" viewBox="0 0 300 324.12" enable-background="new 0 0 300 324.12" xml:space="preserve">
<path fill="#222F38" d="M11.909,69.434c0,0-11.909-6.535-11.909-28.775C0,18.216,10.748,0,33.203,0
	c11.253,0,21.446,4.541,28.813,11.908l134.4,150.031L63.277,312.211c0,0-6.56,11.909-28.813,11.909
	c-22.404,0-33.202-18.217-33.202-40.722c0-11.152,4.592-21.345,11.909-28.712l86.388-91.99L11.909,69.434L11.909,69.434z
	 M261.233,317.358c-21.407,0-38.754-17.358-38.754-38.754V46.096c0-21.408,17.347-38.754,38.754-38.754
	C282.642,7.342,300,24.688,300,46.096v232.509C300,300,282.642,317.358,261.233,317.358L261.233,317.358z"/>
</svg>
