<?xml version="1.0" encoding="utf-8"?>
<!-- Generator: Adobe Illustrator 16.0.0, SVG Export Plug-In . SVG Version: 6.00 Build 0)  -->
<!DOCTYPE svg PUBLIC "-//W3C//DTD SVG 1.1//EN" "http://www.w3.org/Graphics/SVG/1.1/DTD/svg11.dtd">
<svg version="1.1" id="Layer_1" xmlns="http://www.w3.org/2000/svg" xmlns:xlink="http://www.w3.org/1999/xlink" x="0px" y="0px"
	 width="300px" height="300px" viewBox="0 0 300 300" enable-background="new 0 0 300 300" xml:space="preserve">
<path fill="#FC830D" d="M149.993,300C67.157,300,0,232.829,0,149.993S67.157,0,149.993,0S300,67.157,300,149.993
	S232.829,300,149.993,300L149.993,300z M149.993,29.6C83.612,29.6,29.6,83.612,29.6,149.993c0,66.38,54.012,120.393,120.393,120.393
	c66.38,0,120.393-54.013,120.393-120.393C270.385,83.612,216.373,29.6,149.993,29.6L149.993,29.6z M119.982,210.013
	c-8.279,0-14.991-6.711-14.991-15.02v-90.002c0-8.309,6.711-15.02,14.991-15.02c8.294,0,15.005,6.711,15.005,15.02v90.002
	C134.988,203.302,128.277,210.013,119.982,210.013L119.982,210.013z M180.017,210.013c-8.309,0-15.02-6.711-15.02-15.02v-90.002
	c0-8.309,6.711-15.02,15.02-15.02c8.266,0,14.977,6.711,14.977,15.02v90.002C194.994,203.302,188.283,210.013,180.017,210.013
	L180.017,210.013z"/>
</svg>
