<?xml version="1.0" encoding="utf-8"?>
<!-- Generator: Adobe Illustrator 16.0.0, SVG Export Plug-In . SVG Version: 6.00 Build 0)  -->
<!DOCTYPE svg PUBLIC "-//W3C//DTD SVG 1.1//EN" "http://www.w3.org/Graphics/SVG/1.1/DTD/svg11.dtd">
<svg version="1.1" id="Layer_1" xmlns="http://www.w3.org/2000/svg" xmlns:xlink="http://www.w3.org/1999/xlink" x="0px" y="0px"
	 width="300px" height="484.9px" viewBox="0 0 300 484.9" enable-background="new 0 0 300 484.9" xml:space="preserve">
<g>
	<path opacity="0.62" fill="#636F97" d="M299.126,166.843l-39.673,103.181c-2.589,6.735-10.146,10.093-16.879,7.507l-84.411-32.456
		c-6.733-2.591-10.089-10.149-7.504-16.882l39.673-103.184c2.589-6.731,10.147-10.088,16.879-7.503l84.411,32.457
		C298.355,152.553,301.715,160.111,299.126,166.843L299.126,166.843z M287.503,156.691l-81.739-31.431
		c-3.365-1.293-7.144,0.388-8.438,3.753l-22.355,58.137l31.625-14.856l8.146,19.946l44.229-19.956l17.457,31.758l14.827-38.914
		C292.548,161.763,290.868,157.984,287.503,156.691L287.503,156.691z M211.061,166.216c-7.25-2.785-10.879-10.897-8.104-18.116
		c2.777-7.22,10.906-10.811,18.155-8.024c7.252,2.79,10.881,10.902,8.104,18.122C226.441,165.413,218.313,169.008,211.061,166.216
		L211.061,166.216z M218.32,147.595c-3.165-1.215-6.718,0.362-7.933,3.528c-1.217,3.166,0.36,6.719,3.524,7.933
		c3.167,1.218,6.721-0.362,7.938-3.524C223.064,152.366,221.487,148.812,218.32,147.595L218.32,147.595z M249.617,346.26
		L208.19,391.41c-3.309,3.598-8.905,3.84-12.507,0.536L140.495,341.3c-3.599-3.301-3.841-8.902-0.534-12.502l41.429-45.149
		c3.302-3.599,8.905-3.841,12.503-0.537l55.188,50.646C252.684,337.059,252.926,342.663,249.617,346.26L249.617,346.26z
		 M190.856,287.648c-1.798-1.65-4.595-1.531-6.25,0.267l-40.119,43.725c-1.652,1.798-1.53,4.6,0.271,6.25l31.093,28.532
		l-1.506-23.627l14.594-0.179l-1.589-32.838l24.354-3.115L190.856,287.648L190.856,287.648z M158.187,339.08
		c-3.862-3.542-4.107-9.56-0.546-13.438c3.559-3.88,9.571-4.151,13.434-0.604c3.862,3.541,4.104,9.559,0.546,13.438
		C168.064,342.349,162.044,342.624,158.187,339.08L158.187,339.08z M167.562,329.018c-1.692-1.555-4.325-1.442-5.875,0.25
		c-1.555,1.695-1.44,4.325,0.25,5.878c1.692,1.556,4.325,1.442,5.88-0.25C169.37,333.202,169.257,330.571,167.562,329.018
		L167.562,329.018z M225.004,436.471l-27.308,45.395c-1.781,2.961-5.631,3.921-8.592,2.138l-37.136-22.338
		c-2.961-1.786-3.921-5.631-2.136-8.592l27.305-45.395c1.783-2.966,5.628-3.921,8.589-2.141l37.141,22.341
		C225.829,429.66,226.784,433.505,225.004,436.471L225.004,436.471z M220.36,430.71L184.4,409.08
		c-1.479-0.891-3.402-0.411-4.296,1.068l-15.385,25.576l16.162-4.379l2.185,10.088L205.6,435.7l5.599,16.436l10.23-17.129
		C222.322,433.525,221.842,431.602,220.36,430.71L220.36,430.71z M183.491,428.849c-3.187-1.917-4.225-6.052-2.314-9.226
		c1.91-3.177,6.042-4.195,9.233-2.275c3.191,1.918,4.229,6.047,2.319,9.226C190.819,429.746,186.683,430.769,183.491,428.849
		L183.491,428.849z M188.468,420.662c-1.394-0.837-3.201-0.387-4.039,1.007s-0.387,3.198,1.007,4.036
		c1.391,0.84,3.198,0.39,4.036-1.004C190.31,423.312,189.859,421.502,188.468,420.662L188.468,420.662z"/>
	<path opacity="0.7" fill-rule="evenodd" clip-rule="evenodd" fill="#636F97" d="M172.708,140.507l-88.216,19.921
		c-7.036,1.588-14.026-2.83-15.614-9.862L44.524,42.734c-1.588-7.037,2.827-14.031,9.863-15.62l88.217-19.921
		c7.035-1.588,14.027,2.826,15.614,9.862l24.352,107.833C184.16,131.926,179.744,138.92,172.708,140.507L172.708,140.507z
		 M150.725,20.007c-0.796-3.514-4.29-5.723-7.808-4.931L57.493,34.368c-3.518,0.791-5.722,4.288-4.931,7.808l13.719,60.754
		l18.042-29.924l17.853,12.054l25.687-41.163l32.158,16.703L150.725,20.007L150.725,20.007z M84.655,65.473
		c-7.579,1.713-15.103-3.014-16.804-10.56c-1.705-7.544,3.055-15.047,10.634-16.761c7.578-1.709,15.103,3.018,16.807,10.562
		C96.997,56.26,92.232,63.763,84.655,65.473L84.655,65.473z M80.344,45.956c-3.31,0.75-5.386,4.035-4.635,7.345
		c0.746,3.305,4.03,5.382,7.34,4.635c3.306-0.746,5.382-4.035,4.636-7.34C86.938,47.285,83.649,45.209,80.344,45.956L80.344,45.956z
		"/>
	<g>
		<defs>
			<path id="SVGID_1_" d="M172.708,140.507l-88.216,19.921c-7.036,1.588-14.026-2.83-15.614-9.862L44.524,42.734
				c-1.588-7.037,2.827-14.031,9.863-15.62l88.217-19.921c7.035-1.588,14.027,2.826,15.614,9.862l24.352,107.833
				C184.16,131.926,179.744,138.92,172.708,140.507L172.708,140.507z M150.725,20.007c-0.796-3.514-4.29-5.723-7.808-4.931
				L57.493,34.368c-3.518,0.791-5.722,4.288-4.931,7.808l13.719,60.754l18.042-29.924l17.853,12.054l25.687-41.163l32.158,16.703
				L150.725,20.007L150.725,20.007z M84.655,65.473c-7.579,1.713-15.103-3.014-16.804-10.56
				c-1.705-7.544,3.055-15.047,10.634-16.761c7.578-1.709,15.103,3.018,16.807,10.562C96.997,56.26,92.232,63.763,84.655,65.473
				L84.655,65.473z M80.344,45.956c-3.31,0.75-5.386,4.035-4.635,7.345c0.746,3.305,4.03,5.382,7.34,4.635
				c3.306-0.746,5.382-4.035,4.636-7.34C86.938,47.285,83.649,45.209,80.344,45.956L80.344,45.956z"/>
		</defs>
		<clipPath id="SVGID_2_">
			<use xlink:href="#SVGID_1_"  overflow="visible"/>
		</clipPath>
	</g>
	<g>
		<defs>
			<path id="SVGID_3_" d="M206.772,220.199c-1.531,3.973-3.585,6.745-6.164,8.313c-2.582,1.567-5.386,1.769-8.425,0.601
				c-3.081-1.188-5.042-3.214-5.895-6.081l-0.309-0.118c-0.583,2.131-0.958,3.419-1.129,3.855l-3.831,9.968l-5.167-1.989
				l13.512-35.152l4.183,1.604c-0.059,0.502-0.235,1.68-0.527,3.537l0.262,0.103c2.564-1.847,5.457-2.146,8.685-0.904
				c3.035,1.168,4.977,3.176,5.827,6.027C208.641,212.813,208.298,216.222,206.772,220.199L206.772,220.199z M202.425,211.373
				c-0.421-1.773-1.563-3.015-3.426-3.732c-2.052-0.789-3.781-0.764-5.189,0.076c-1.408,0.838-2.623,2.574-3.635,5.219l-0.296,0.767
				c-1.144,2.964-1.496,5.288-1.068,6.978c0.429,1.689,1.705,2.943,3.831,3.76c1.788,0.688,3.453,0.482,4.981-0.612
				c1.533-1.093,2.821-2.995,3.865-5.709C202.538,215.389,202.849,213.138,202.425,211.373L202.425,211.373z M226.973,241.979
				l-4.048-1.555l0.326-3.537l-0.242-0.093c-2.589,1.783-5.481,2.06-8.677,0.828c-3.035-1.166-4.981-3.175-5.836-6.03
				c-0.854-2.855-0.521-6.27,1.009-10.242c1.533-3.989,3.588-6.765,6.165-8.324c2.581-1.56,5.395-1.751,8.444-0.581
				c3.199,1.229,5.178,3.349,5.941,6.354l0.262,0.101c0.426-1.842,0.83-3.268,1.217-4.279l3.409-8.868l5.189,1.996L226.973,241.979
				L226.973,241.979z M227.681,220.892c-0.5-1.678-1.813-2.922-3.938-3.739c-1.817-0.701-3.502-0.5-5.053,0.598
				c-1.55,1.095-2.846,3.007-3.896,5.735c-1.039,2.699-1.352,4.938-0.943,6.718c0.409,1.786,1.567,3.04,3.473,3.774
				c2.126,0.815,3.906,0.815,5.332-0.01c1.425-0.82,2.672-2.566,3.735-5.244l0.279-0.725
				C227.845,224.936,228.185,222.565,227.681,220.892L227.681,220.892z M257.266,219.591c-1.119-0.905-2.256-1.577-3.414-2.022
				c-1.176-0.45-2.167-0.416-2.985,0.105c-0.813,0.517-1.501,1.506-2.055,2.956l-0.612,1.582l5.939,2.285l-1.504,3.918l-5.941-2.284
				l-7.85,20.413l-5.189-1.996l7.849-20.413l-4.004-1.538l0.928-2.423l4.614-0.044l0.61-1.587c1.104-2.87,2.601-4.741,4.479-5.608
				c1.886-0.867,4.21-0.769,6.982,0.294c1.817,0.7,3.495,1.689,5.021,2.969L257.266,219.591L257.266,219.591z M201.282,368.205
				l-0.152,0.161c1.2,0.896,1.915,1.455,2.15,1.673l5.332,4.889l-2.54,2.768l-18.8-17.257l2.05-2.233
				c0.301,0.156,1.001,0.563,2.099,1.207l0.127-0.142c-0.524-2.069,0.005-3.968,1.589-5.692c1.487-1.626,3.238-2.351,5.249-2.177
				c2.003,0.172,4.07,1.234,6.196,3.184c2.128,1.952,3.365,3.936,3.71,5.954c0.348,2.013-0.225,3.835-1.717,5.457
				C205.068,367.646,203.3,368.378,201.282,368.205L201.282,368.205z M204.6,361.256c-0.309-1.239-1.19-2.522-2.643-3.857
				c-1.457-1.337-2.797-2.092-4.017-2.269c-1.222-0.168-2.29,0.238-3.203,1.234c-1.009,1.103-1.42,2.197-1.247,3.295
				c0.181,1.095,0.977,2.292,2.39,3.588l0.412,0.374c1.584,1.455,2.961,2.256,4.131,2.408c1.171,0.149,2.28-0.343,3.321-1.482
				C204.627,363.59,204.909,362.493,204.6,361.256L204.6,361.256z M221.35,349.429l-2.15-1.082l-0.117,0.127
				c0.48,2.077-0.066,3.97-1.634,5.677c-1.491,1.624-3.243,2.352-5.253,2.183c-2.013-0.172-4.08-1.229-6.206-3.182
				c-2.133-1.959-3.373-3.943-3.713-5.956c-0.343-2.011,0.233-3.835,1.729-5.467c1.572-1.707,3.397-2.435,5.481-2.167l0.13-0.14
				c-1.056-0.723-1.856-1.335-2.398-1.832l-4.739-4.353l2.547-2.774l18.307,16.804L221.35,349.429L221.35,349.429z M217.211,347.997
				c-0.162-1.104-0.956-2.321-2.376-3.656l-0.389-0.355c-1.641-1.504-3.049-2.31-4.23-2.41c-1.18-0.098-2.292,0.422-3.335,1.556
				c-0.892,0.977-1.188,2.084-0.879,3.336c0.304,1.251,1.188,2.542,2.647,3.879c1.443,1.327,2.777,2.082,4.002,2.266
				c1.225,0.186,2.305-0.23,3.243-1.252C216.937,350.22,217.377,349.101,217.211,347.997L217.211,347.997z M229.163,340.914
				l-2.547,2.775l-10.923-10.018l-1.962,2.141l-1.298-1.188l1.122-2.92l-0.85-0.773c-1.538-1.413-2.346-2.819-2.422-4.225
				c-0.079-1.401,0.559-2.841,1.922-4.325c0.892-0.973,1.93-1.78,3.113-2.427l1.426,2.652c-0.845,0.478-1.551,1.028-2.121,1.65
				c-0.576,0.629-0.801,1.262-0.676,1.903c0.125,0.644,0.58,1.322,1.354,2.035l0.848,0.776l2.917-3.177l2.094,1.92l-2.915,3.177
				L229.163,340.914L229.163,340.914z M176.977,453.97c-1.051,1.746-2.25,2.885-3.598,3.409c-1.35,0.526-2.691,0.384-4.026-0.417
				c-1.354-0.817-2.114-1.939-2.275-3.359l-0.137-0.084c-0.451,0.958-0.739,1.533-0.854,1.727l-2.635,4.385l-2.275-1.367
				l9.304-15.469l1.837,1.107c-0.066,0.23-0.25,0.771-0.542,1.626l0.118,0.066c1.362-0.654,2.75-0.559,4.171,0.296
				c1.335,0.806,2.084,1.915,2.249,3.331C178.473,450.639,178.032,452.219,176.977,453.97L176.977,453.97z M174.356,447.396
				c-0.906-0.546-1.722-0.676-2.457-0.396c-0.737,0.274-1.45,0.997-2.15,2.16l-0.206,0.338c-0.784,1.303-1.146,2.371-1.083,3.204
				c0.062,0.83,0.563,1.53,1.497,2.094c0.789,0.47,1.587,0.512,2.4,0.125c0.818-0.387,1.58-1.181,2.302-2.373
				c0.72-1.2,1.053-2.239,1.004-3.108C175.61,448.572,175.177,447.889,174.356,447.396L174.356,447.396z M184.701,465.929
				l-1.781-1.073l0.446-1.641l-0.107-0.063c-1.367,0.627-2.755,0.517-4.164-0.328c-1.335-0.806-2.084-1.918-2.251-3.336
				c-0.167-1.416,0.274-3,1.33-4.746c1.053-1.756,2.253-2.897,3.6-3.419c1.347-0.522,2.689-0.38,4.031,0.429
				c1.408,0.847,2.167,2.011,2.275,3.494l0.117,0.066c0.355-0.835,0.662-1.472,0.928-1.918l2.349-3.901l2.282,1.377L184.701,465.929
				L184.701,465.929z M185.237,453.946c-0.796-0.485-1.609-0.532-2.429-0.143c-0.826,0.387-1.597,1.183-2.317,2.383
				c-0.713,1.188-1.051,2.22-1.004,3.094c0.044,0.877,0.487,1.563,1.325,2.067c0.933,0.563,1.775,0.712,2.518,0.442
				c0.742-0.271,1.474-0.991,2.197-2.165l0.191-0.32c0.813-1.35,1.168-2.437,1.072-3.272
				C186.692,455.205,186.175,454.506,185.237,453.946L185.237,453.946z M200.858,457.878c-0.451-0.517-0.933-0.928-1.442-1.236
				c-0.517-0.309-0.987-0.375-1.418-0.196c-0.424,0.174-0.833,0.583-1.217,1.225l-0.417,0.695l2.613,1.572l-1.036,1.722
				l-2.616-1.572l-5.402,8.983l-2.283-1.374l5.403-8.982l-1.764-1.061l0.642-1.063l2.18,0.365l0.421-0.698
				c0.759-1.266,1.622-2.025,2.579-2.275c0.965-0.255,2.052-0.012,3.274,0.721c0.798,0.479,1.504,1.085,2.121,1.816L200.858,457.878
				L200.858,457.878z"/>
		</defs>
		<clipPath id="SVGID_4_">
			<use xlink:href="#SVGID_3_"  overflow="visible"/>
		</clipPath>
	</g>
	<g opacity="0.62">
		<defs>
			<path id="SVGID_5_" opacity="0.62" d="M206.772,220.199c-1.531,3.973-3.585,6.745-6.164,8.313
				c-2.582,1.567-5.386,1.769-8.425,0.601c-3.081-1.188-5.042-3.214-5.895-6.081l-0.309-0.118c-0.583,2.131-0.958,3.419-1.129,3.855
				l-3.831,9.968l-5.167-1.989l13.512-35.152l4.183,1.604c-0.059,0.502-0.235,1.68-0.527,3.537l0.262,0.103
				c2.564-1.847,5.457-2.146,8.685-0.904c3.035,1.168,4.977,3.176,5.827,6.027C208.641,212.813,208.298,216.222,206.772,220.199
				L206.772,220.199z M202.425,211.373c-0.421-1.773-1.563-3.015-3.426-3.732c-2.052-0.789-3.781-0.764-5.189,0.076
				c-1.408,0.838-2.623,2.574-3.635,5.219l-0.296,0.767c-1.144,2.964-1.496,5.288-1.068,6.978c0.429,1.689,1.705,2.943,3.831,3.76
				c1.788,0.688,3.453,0.482,4.981-0.612c1.533-1.093,2.821-2.995,3.865-5.709C202.538,215.389,202.849,213.138,202.425,211.373
				L202.425,211.373z M226.973,241.979l-4.048-1.555l0.326-3.537l-0.242-0.093c-2.589,1.783-5.481,2.06-8.677,0.828
				c-3.035-1.166-4.981-3.175-5.836-6.03c-0.854-2.855-0.521-6.27,1.009-10.242c1.533-3.989,3.588-6.765,6.165-8.324
				c2.581-1.56,5.395-1.751,8.444-0.581c3.199,1.229,5.178,3.349,5.941,6.354l0.262,0.101c0.426-1.842,0.83-3.268,1.217-4.279
				l3.409-8.868l5.189,1.996L226.973,241.979L226.973,241.979z M227.681,220.892c-0.5-1.678-1.813-2.922-3.938-3.739
				c-1.817-0.701-3.502-0.5-5.053,0.598c-1.55,1.095-2.846,3.007-3.896,5.735c-1.039,2.699-1.352,4.938-0.943,6.718
				c0.409,1.786,1.567,3.04,3.473,3.774c2.126,0.815,3.906,0.815,5.332-0.01c1.425-0.82,2.672-2.566,3.735-5.244l0.279-0.725
				C227.845,224.936,228.185,222.565,227.681,220.892L227.681,220.892z M257.266,219.591c-1.119-0.905-2.256-1.577-3.414-2.022
				c-1.176-0.45-2.167-0.416-2.985,0.105c-0.813,0.517-1.501,1.506-2.055,2.956l-0.612,1.582l5.939,2.285l-1.504,3.918l-5.941-2.284
				l-7.85,20.413l-5.189-1.996l7.849-20.413l-4.004-1.538l0.928-2.423l4.614-0.044l0.61-1.587c1.104-2.87,2.601-4.741,4.479-5.608
				c1.886-0.867,4.21-0.769,6.982,0.294c1.817,0.7,3.495,1.689,5.021,2.969L257.266,219.591L257.266,219.591z M201.282,368.205
				l-0.152,0.161c1.2,0.896,1.915,1.455,2.15,1.673l5.332,4.889l-2.54,2.768l-18.8-17.257l2.05-2.233
				c0.301,0.156,1.001,0.563,2.099,1.207l0.127-0.142c-0.524-2.069,0.005-3.968,1.589-5.692c1.487-1.626,3.238-2.351,5.249-2.177
				c2.003,0.172,4.07,1.234,6.196,3.184c2.128,1.952,3.365,3.936,3.71,5.954c0.348,2.013-0.225,3.835-1.717,5.457
				C205.068,367.646,203.3,368.378,201.282,368.205L201.282,368.205z M204.6,361.256c-0.309-1.239-1.19-2.522-2.643-3.857
				c-1.457-1.337-2.797-2.092-4.017-2.269c-1.222-0.168-2.29,0.238-3.203,1.234c-1.009,1.103-1.42,2.197-1.247,3.295
				c0.181,1.095,0.977,2.292,2.39,3.588l0.412,0.374c1.584,1.455,2.961,2.256,4.131,2.408c1.171,0.149,2.28-0.343,3.321-1.482
				C204.627,363.59,204.909,362.493,204.6,361.256L204.6,361.256z M221.35,349.429l-2.15-1.082l-0.117,0.127
				c0.48,2.077-0.066,3.97-1.634,5.677c-1.491,1.624-3.243,2.352-5.253,2.183c-2.013-0.172-4.08-1.229-6.206-3.182
				c-2.133-1.959-3.373-3.943-3.713-5.956c-0.343-2.011,0.233-3.835,1.729-5.467c1.572-1.707,3.397-2.435,5.481-2.167l0.13-0.14
				c-1.056-0.723-1.856-1.335-2.398-1.832l-4.739-4.353l2.547-2.774l18.307,16.804L221.35,349.429L221.35,349.429z M217.211,347.997
				c-0.162-1.104-0.956-2.321-2.376-3.656l-0.389-0.355c-1.641-1.504-3.049-2.31-4.23-2.41c-1.18-0.098-2.292,0.422-3.335,1.556
				c-0.892,0.977-1.188,2.084-0.879,3.336c0.304,1.251,1.188,2.542,2.647,3.879c1.443,1.327,2.777,2.082,4.002,2.266
				c1.225,0.186,2.305-0.23,3.243-1.252C216.937,350.22,217.377,349.101,217.211,347.997L217.211,347.997z M229.163,340.914
				l-2.547,2.775l-10.923-10.018l-1.962,2.141l-1.298-1.188l1.122-2.92l-0.85-0.773c-1.538-1.413-2.346-2.819-2.422-4.225
				c-0.079-1.401,0.559-2.841,1.922-4.325c0.892-0.973,1.93-1.78,3.113-2.427l1.426,2.652c-0.845,0.478-1.551,1.028-2.121,1.65
				c-0.576,0.629-0.801,1.262-0.676,1.903c0.125,0.644,0.58,1.322,1.354,2.035l0.848,0.776l2.917-3.177l2.094,1.92l-2.915,3.177
				L229.163,340.914L229.163,340.914z M176.977,453.97c-1.051,1.746-2.25,2.885-3.598,3.409c-1.35,0.526-2.691,0.384-4.026-0.417
				c-1.354-0.817-2.114-1.939-2.275-3.359l-0.137-0.084c-0.451,0.958-0.739,1.533-0.854,1.727l-2.635,4.385l-2.275-1.367
				l9.304-15.469l1.837,1.107c-0.066,0.23-0.25,0.771-0.542,1.626l0.118,0.066c1.362-0.654,2.75-0.559,4.171,0.296
				c1.335,0.806,2.084,1.915,2.249,3.331C178.473,450.639,178.032,452.219,176.977,453.97L176.977,453.97z M174.356,447.396
				c-0.906-0.546-1.722-0.676-2.457-0.396c-0.737,0.274-1.45,0.997-2.15,2.16l-0.206,0.338c-0.784,1.303-1.146,2.371-1.083,3.204
				c0.062,0.83,0.563,1.53,1.497,2.094c0.789,0.47,1.587,0.512,2.4,0.125c0.818-0.387,1.58-1.181,2.302-2.373
				c0.72-1.2,1.053-2.239,1.004-3.108C175.61,448.572,175.177,447.889,174.356,447.396L174.356,447.396z M184.701,465.929
				l-1.781-1.073l0.446-1.641l-0.107-0.063c-1.367,0.627-2.755,0.517-4.164-0.328c-1.335-0.806-2.084-1.918-2.251-3.336
				c-0.167-1.416,0.274-3,1.33-4.746c1.053-1.756,2.253-2.897,3.6-3.419c1.347-0.522,2.689-0.38,4.031,0.429
				c1.408,0.847,2.167,2.011,2.275,3.494l0.117,0.066c0.355-0.835,0.662-1.472,0.928-1.918l2.349-3.901l2.282,1.377L184.701,465.929
				L184.701,465.929z M185.237,453.946c-0.796-0.485-1.609-0.532-2.429-0.143c-0.826,0.387-1.597,1.183-2.317,2.383
				c-0.713,1.188-1.051,2.22-1.004,3.094c0.044,0.877,0.487,1.563,1.325,2.067c0.933,0.563,1.775,0.712,2.518,0.442
				c0.742-0.271,1.474-0.991,2.197-2.165l0.191-0.32c0.813-1.35,1.168-2.437,1.072-3.272
				C186.692,455.205,186.175,454.506,185.237,453.946L185.237,453.946z M200.858,457.878c-0.451-0.517-0.933-0.928-1.442-1.236
				c-0.517-0.309-0.987-0.375-1.418-0.196c-0.424,0.174-0.833,0.583-1.217,1.225l-0.417,0.695l2.613,1.572l-1.036,1.722
				l-2.616-1.572l-5.402,8.983l-2.283-1.374l5.403-8.982l-1.764-1.061l0.642-1.063l2.18,0.365l0.421-0.698
				c0.759-1.266,1.622-2.025,2.579-2.275c0.965-0.255,2.052-0.012,3.274,0.721c0.798,0.479,1.504,1.085,2.121,1.816L200.858,457.878
				L200.858,457.878z"/>
		</defs>
		<use xlink:href="#SVGID_5_"  overflow="visible" fill="#FFFFFF"/>
		<clipPath id="SVGID_6_">
			<use xlink:href="#SVGID_5_"  overflow="visible"/>
		</clipPath>
	</g>
	<path fill="#636F97" d="M285.242,66.255l-61.313,43.024c-4.004,2.807-9.522,1.839-12.332-2.16l-35.194-50.159
		c-2.812-4.004-1.839-9.521,2.16-12.332l61.316-43.02c4.002-2.812,9.52-1.839,12.326,2.16l35.196,50.159
		C290.209,57.93,289.242,63.448,285.242,66.255L285.242,66.255z M282.546,56.154L248.461,7.579c-1.401-1.998-4.161-2.481-6.165-1.08
		L207.752,30.74l23.399,3.604l-2.957,14.291l32.409,5.5l-2.189,24.458l23.051-16.276C283.462,60.912,283.947,58.152,282.546,56.154
		L282.546,56.154z M249.199,34.965c-4.291,3.011-10.215,1.956-13.24-2.352c-3.022-4.307-1.996-10.242,2.29-13.252
		c4.291-3.011,10.22-1.956,13.245,2.351C254.516,26.02,253.492,31.954,249.199,34.965L249.199,34.965z M247.08,24.886
		c-1.32-1.881-3.914-2.335-5.794-1.018c-1.881,1.322-2.336,3.916-1.014,5.797c1.318,1.881,3.911,2.335,5.792,1.018
		C247.945,29.36,248.398,26.767,247.08,24.886L247.08,24.886z M149.84,293.073l-80.528,41.152
		c-6.421,3.282-14.292,0.737-17.574-5.685L1.434,230.103c-3.282-6.426-0.738-14.293,5.683-17.574l80.532-41.155
		c6.423-3.282,14.292-0.735,17.574,5.687l50.305,98.44C158.809,281.921,156.267,289.791,149.84,293.073L149.84,293.073z
		 M98.692,181.777c-1.644-3.211-5.576-4.487-8.788-2.843l-77.979,39.85c-3.216,1.641-4.487,5.576-2.845,8.787l28.341,55.461
		l10.067-33.458l20.284,7.252l14.684-46.239l35.293,8.212L98.692,181.777L98.692,181.777z M45.946,242.192
		c-6.919,3.537-15.379,0.818-18.9-6.068c-3.519-6.887-0.763-15.337,6.156-18.868c6.914-3.536,15.376-0.823,18.895,6.066
		C55.617,230.207,52.865,238.656,45.946,242.192L45.946,242.192z M45.196,227.025c-1.543-3.02-5.243-4.215-8.261-2.672
		c-3.02,1.543-4.216,5.241-2.673,8.261s5.237,4.215,8.261,2.672C45.542,233.743,46.739,230.044,45.196,227.025L45.196,227.025z"/>
	<g>
		<defs>
			<path id="SVGID_7_" d="M220.554,44.763c-0.521,0.367-1.043,0.509-1.55,0.417c-0.514-0.088-0.96-0.404-1.339-0.946
				c-0.392-0.555-0.542-1.092-0.448-1.601c0.085-0.513,0.394-0.95,0.916-1.321c0.551-0.383,1.075-0.529,1.584-0.438
				c0.507,0.096,0.958,0.42,1.349,0.975c0.38,0.541,0.527,1.066,0.438,1.576C221.421,43.934,221.105,44.379,220.554,44.763
				L220.554,44.763z M196.026,59.936c-1.318-0.241-2.488-1.096-3.522-2.571c-0.649-0.921-1.08-1.769-1.288-2.53l2.43-1.706
				c0.259,0.704,0.604,1.363,1.043,1.98c0.916,1.309,2.114,1.443,3.598,0.404l16.145-11.33l2.155,3.072l-16.353,11.476
				C198.739,59.778,197.338,60.179,196.026,59.936L196.026,59.936z M225.567,63.671c-0.6,1.926-2.084,3.714-4.442,5.373
				c-2.364,1.659-4.565,2.438-6.608,2.343c-2.045-0.092-3.696-1.042-4.964-2.847c-1.283-1.83-1.624-3.714-1.016-5.648l-0.13-0.184
				c-1.134,0.98-1.83,1.559-2.092,1.743l-5.924,4.155l-2.155-3.071l20.894-14.656l1.741,2.484c-0.22,0.258-0.767,0.854-1.633,1.788
				l0.112,0.159c2.133-0.071,3.877,0.854,5.224,2.771C225.834,59.886,226.169,61.75,225.567,63.671L225.567,63.671z M221.499,59.045
				c-0.854-1.222-1.837-1.86-2.946-1.923c-1.109-0.058-2.447,0.459-4.014,1.56l-0.458,0.321c-1.763,1.237-2.838,2.409-3.24,3.522
				c-0.395,1.108-0.149,2.297,0.734,3.56c0.745,1.063,1.759,1.58,3.035,1.542c1.276-0.037,2.718-0.621,4.33-1.75
				c1.621-1.138,2.647-2.285,3.076-3.439C222.449,61.283,222.28,60.149,221.499,59.045L221.499,59.045z M236.965,79.891l-2.189-2.15
				c-0.145,0.442-0.392,0.891-0.73,1.351c-0.34,0.458-0.762,0.862-1.259,1.212c-1.487,1.046-3.022,1.354-4.597,0.926
				c-1.575-0.43-2.998-1.547-4.264-3.352c-0.321-0.463-0.581-0.905-0.776-1.326c-0.875-0.375-1.584-0.37-2.133,0.013
				c-0.331,0.233-0.47,0.562-0.421,0.988c0.054,0.425,0.37,1.049,0.951,1.88l1.771,2.521c1.119,1.597,1.631,3.047,1.531,4.353
				c-0.101,1.304-0.789,2.405-2.072,3.305c-1.638,1.151-3.377,1.359-5.209,0.634c-1.839-0.726-3.652-2.368-5.444-4.924
				c-1.384-1.967-2.089-3.713-2.119-5.244c-0.032-1.525,0.595-2.738,1.888-3.646c0.889-0.621,1.834-0.867,2.836-0.73
				c0.999,0.137,1.971,0.629,2.912,1.476c-0.112-0.534-0.066-1.066,0.135-1.605c0.199-0.538,0.517-0.954,0.94-1.254
				c0.544-0.379,1.104-0.55,1.697-0.508c0.588,0.045,1.276,0.238,2.065,0.583c-0.206-0.979-0.105-1.954,0.293-2.93
				c0.402-0.975,1.09-1.809,2.065-2.492c1.572-1.101,3.135-1.459,4.69-1.076c1.558,0.384,2.976,1.493,4.259,3.322
				c0.287,0.409,0.563,0.859,0.821,1.347c0.259,0.488,0.438,0.867,0.534,1.138l3.515,5.006L236.965,79.891L236.965,79.891z
				 M219.924,82.658l-1.631-2.33c-0.619-0.879-1.315-1.433-2.091-1.658c-0.779-0.23-1.521-0.097-2.226,0.399
				c-0.664,0.463-0.963,1.122-0.904,1.968c0.061,0.846,0.47,1.813,1.229,2.894c1.175,1.671,2.288,2.75,3.343,3.234
				c1.056,0.483,1.979,0.445,2.772-0.113c0.629-0.437,0.916-0.975,0.867-1.613C221.232,84.805,220.782,83.875,219.924,82.658
				L219.924,82.658z M231.795,72.575c-0.625-0.891-1.35-1.387-2.175-1.488c-0.831-0.104-1.727,0.184-2.694,0.862
				c-0.904,0.638-1.438,1.359-1.599,2.167c-0.164,0.81,0.066,1.647,0.673,2.519c1.247,1.779,2.824,2,4.725,0.671
				c0.94-0.664,1.513-1.392,1.712-2.188C232.638,74.317,232.425,73.471,231.795,72.575L231.795,72.575z M77.331,309.849
				c-0.625,1.869-2.117,3.412-4.48,4.619c-1.484,0.759-2.806,1.21-3.965,1.364l-1.992-3.906c1.08-0.233,2.118-0.605,3.11-1.112
				c2.1-1.072,2.539-2.797,1.325-5.178l-13.247-25.919l4.931-2.518l13.419,26.252C77.655,305.845,77.951,307.978,77.331,309.849
				L77.331,309.849z M58.819,274.999c-0.893,0.458-1.706,0.57-2.435,0.333c-0.729-0.238-1.309-0.774-1.739-1.614
				c-0.449-0.879-0.553-1.683-0.316-2.405c0.238-0.72,0.808-1.313,1.7-1.771c0.872-0.44,1.668-0.551,2.393-0.321
				c0.727,0.23,1.314,0.784,1.764,1.668c0.43,0.838,0.525,1.622,0.292,2.352C60.239,273.969,59.686,274.557,58.819,274.999
				L58.819,274.999z M97.86,285.169c-0.559,2.969-2.285,5.194-5.181,6.674c-2.939,1.499-5.762,1.609-8.463,0.326l-0.295,0.148
				c1.2,1.859,1.904,2.998,2.118,3.417l4.86,9.51l-4.931,2.521l-17.14-33.538l3.988-2.038c0.334,0.375,1.092,1.291,2.28,2.75
				l0.251-0.129c0.337-3.136,2.046-5.489,5.123-7.066c2.897-1.479,5.69-1.579,8.378-0.309c2.689,1.273,5.002,3.807,6.94,7.598
				S98.415,282.206,97.86,285.169L97.86,285.169z M90.707,277.575c-1.329-2.601-2.792-4.335-4.393-5.202
				c-1.601-0.872-3.289-0.853-5.065,0.059c-1.959,1-3.097,2.305-3.41,3.914c-0.316,1.609,0.167,3.671,1.455,6.188l0.376,0.735
				c1.446,2.828,2.938,4.646,4.481,5.451c1.542,0.813,3.326,0.696,5.356-0.343c1.705-0.869,2.664-2.24,2.873-4.114
				C92.587,282.392,92.033,280.164,90.707,277.575L90.707,277.575z M126.042,284.586c-1.438,2.532-4.21,4.847-8.308,6.943
				c-3.163,1.619-5.861,2.29-8.099,2.022c-2.239-0.271-3.884-1.439-4.944-3.509c-0.729-1.428-0.891-2.856-0.483-4.291
				c0.404-1.433,1.321-2.756,2.751-3.963c-0.801,0.057-1.572-0.117-2.318-0.521c-0.746-0.404-1.292-0.95-1.642-1.634
				c-0.442-0.867-0.576-1.731-0.392-2.581s0.605-1.817,1.271-2.902c-1.467,0.101-2.876-0.245-4.222-1.028
				c-1.342-0.789-2.417-1.965-3.218-3.532c-1.288-2.518-1.493-4.876-0.608-7.073c0.879-2.196,2.788-4.043,5.727-5.547
				c0.655-0.333,1.368-0.642,2.134-0.918c0.767-0.279,1.359-0.463,1.772-0.549l8.041-4.107l1.384,2.706l-3.593,2.763
				c0.612,0.304,1.221,0.752,1.826,1.342c0.6,0.593,1.108,1.289,1.514,2.085c1.225,2.393,1.358,4.697,0.408,6.911
				c-0.95,2.219-2.872,4.065-5.769,5.545c-0.742,0.38-1.443,0.666-2.102,0.862c-0.725,1.2-0.862,2.243-0.413,3.122
				c0.272,0.534,0.721,0.804,1.355,0.818c0.633,0.012,1.613-0.321,2.943-1.002l4.052-2.072c2.56-1.308,4.781-1.753,6.669-1.347
				c1.888,0.414,3.355,1.648,4.406,3.708C127.531,279.468,127.481,282.046,126.042,284.586L126.042,284.586z M107.885,269.458
				c2.855-1.46,3.502-3.711,1.943-6.762c-0.771-1.514-1.722-2.496-2.844-2.954c-1.125-0.456-2.409-0.318-3.851,0.419
				c-1.425,0.729-2.301,1.689-2.618,2.873c-0.321,1.188-0.083,2.559,0.709,4.109c0.742,1.459,1.688,2.385,2.838,2.784
				C105.212,270.333,106.485,270.176,107.885,269.458L107.885,269.458z M121.962,279.761c-0.513-1.009-1.243-1.54-2.18-1.599
				c-0.938-0.059-2.385,0.411-4.343,1.413l-3.74,1.908c-1.413,0.722-2.364,1.631-2.856,2.718c-0.496,1.093-0.449,2.202,0.13,3.336
				c0.542,1.063,1.438,1.639,2.693,1.722c1.25,0.083,2.743-0.318,4.477-1.205c2.688-1.371,4.489-2.782,5.415-4.22
				C122.479,282.392,122.612,281.033,121.962,279.761L121.962,279.761z"/>
		</defs>
		<use xlink:href="#SVGID_7_"  overflow="visible" fill="#FFFFFF"/>
		<clipPath id="SVGID_8_">
			<use xlink:href="#SVGID_7_"  overflow="visible"/>
		</clipPath>
	</g>
	<path opacity="0.7" fill="#FFFFFF" d="M102.724,124.848c-1.275,2.733-3.501,4.46-6.674,5.176c-3.218,0.73-5.977,0.133-8.278-1.776
		l-0.321,0.071c0.7,2.096,1.101,3.376,1.205,3.835l2.352,10.416l-5.403,1.217l-8.295-36.736l4.368-0.988
		c0.23,0.446,0.738,1.526,1.526,3.23l0.275-0.063c1.104-2.955,3.343-4.815,6.715-5.573c3.172-0.718,5.902-0.125,8.191,1.772
		c2.292,1.9,3.905,4.926,4.843,9.079C104.167,118.665,103.995,122.108,102.724,124.848L102.724,124.848z M97.677,115.719
		c-0.642-2.852-1.634-4.898-2.969-6.133c-1.333-1.238-2.972-1.637-4.917-1.196c-2.148,0.484-3.573,1.468-4.277,2.947
		c-0.704,1.48-0.746,3.598-0.125,6.357l0.184,0.805c0.701,3.097,1.696,5.228,2.988,6.395c1.297,1.163,3.057,1.496,5.278,0.992
		c1.867-0.421,3.135-1.512,3.801-3.272C98.306,120.85,98.318,118.552,97.677,115.719L97.677,115.719z M127.46,122.45l-3.531-15.635
		c-0.442-1.959-1.168-3.336-2.176-4.123c-1.009-0.788-2.368-0.988-4.085-0.6c-2.285,0.517-3.802,1.567-4.557,3.156
		c-0.751,1.588-0.771,3.967-0.054,7.14l2.859,12.668l-5.403,1.221l-5.739-25.427l4.231-0.955l1.508,3.159l0.276-0.063
		c0.496-1.384,1.372-2.563,2.634-3.539c1.259-0.979,2.748-1.663,4.465-2.051c6.098-1.375,9.851,1.038,11.255,7.246l3.744,16.577
		L127.46,122.45L127.46,122.45z M161.562,124.172c-2.021,2.101-5.278,3.655-9.767,4.673c-3.463,0.779-6.248,0.763-8.349-0.05
		c-2.102-0.813-3.406-2.355-3.918-4.623c-0.354-1.563-0.154-2.989,0.592-4.276c0.75-1.293,1.963-2.344,3.647-3.161
		c-0.788-0.141-1.492-0.5-2.114-1.079c-0.625-0.576-1.016-1.238-1.188-1.989c-0.217-0.95-0.129-1.817,0.258-2.597
		c0.388-0.779,1.038-1.613,1.951-2.492c-1.446-0.272-2.726-0.955-3.834-2.047c-1.11-1.096-1.855-2.5-2.244-4.219
		c-0.625-2.759-0.237-5.093,1.16-7.002c1.396-1.909,3.706-3.231,6.924-3.957c0.721-0.163,1.488-0.283,2.301-0.362
		c0.808-0.08,1.425-0.108,1.851-0.092l8.804-1.989l0.671,2.968l-4.166,1.784c0.521,0.446,1.001,1.03,1.435,1.755
		c0.438,0.721,0.754,1.522,0.955,2.393c0.59,2.622,0.149,4.89-1.317,6.799c-1.472,1.909-3.789,3.222-6.965,3.939
		c-0.81,0.184-1.56,0.288-2.247,0.316c-1,0.984-1.393,1.956-1.176,2.923c0.129,0.583,0.5,0.959,1.113,1.125
		c0.608,0.167,1.642,0.087,3.097-0.243l4.439-1c2.802-0.633,5.07-0.517,6.794,0.35c1.727,0.867,2.844,2.426,3.353,4.681
		C164.271,119.582,163.587,122.07,161.562,124.172L161.562,124.172z M147.718,105.022c3.126-0.709,4.314-2.73,3.56-6.074
		c-0.375-1.654-1.05-2.842-2.025-3.563c-0.976-0.721-2.255-0.905-3.835-0.55c-1.563,0.354-2.646,1.066-3.251,2.138
		c-0.6,1.066-0.713,2.455-0.329,4.156c0.362,1.595,1.05,2.726,2.063,3.4C144.913,105.201,146.185,105.367,147.718,105.022
		L147.718,105.022z M158.807,118.486c-0.25-1.101-0.82-1.796-1.717-2.088c-0.892-0.288-2.415-0.192-4.561,0.295l-4.094,0.922
		c-1.546,0.351-2.692,0.992-3.443,1.925c-0.746,0.934-0.979,2.021-0.7,3.265c0.263,1.162,0.992,1.942,2.185,2.334
		c1.191,0.392,2.738,0.371,4.635-0.059c2.944-0.663,5.041-1.58,6.29-2.747C158.652,121.167,159.123,119.882,158.807,118.486
		L158.807,118.486z"/>
</g>
</svg>
