<?xml version="1.0" encoding="utf-8"?>
<!-- Generator: Adobe Illustrator 16.0.0, SVG Export Plug-In . SVG Version: 6.00 Build 0)  -->
<!DOCTYPE svg PUBLIC "-//W3C//DTD SVG 1.1//EN" "http://www.w3.org/Graphics/SVG/1.1/DTD/svg11.dtd">
<svg version="1.1" id="Layer_1" xmlns="http://www.w3.org/2000/svg" xmlns:xlink="http://www.w3.org/1999/xlink" x="0px" y="0px"
	 width="300px" height="324.12px" viewBox="0 0 300 324.12" enable-background="new 0 0 300 324.12" xml:space="preserve">
<path fill="#222F38" d="M288.091,69.434l-87.649,93.263l86.388,91.99c7.317,7.367,11.909,17.56,11.909,28.712
	c0,22.505-10.798,40.722-33.202,40.722c-22.254,0-28.813-11.909-28.813-11.909l-133.14-150.271L237.983,11.908
	C245.351,4.541,255.544,0,266.797,0C289.252,0,300,18.216,300,40.658C300,62.898,288.091,69.434,288.091,69.434L288.091,69.434z
	 M38.766,317.358C17.358,317.358,0,300,0,278.604V46.096C0,24.688,17.358,7.342,38.766,7.342S77.52,24.688,77.52,46.096v232.509
	C77.52,300,60.174,317.358,38.766,317.358L38.766,317.358z"/>
</svg>
