<?xml version="1.0" encoding="utf-8"?>
<!-- Generator: Adobe Illustrator 16.0.0, SVG Export Plug-In . SVG Version: 6.00 Build 0)  -->
<!DOCTYPE svg PUBLIC "-//W3C//DTD SVG 1.1//EN" "http://www.w3.org/Graphics/SVG/1.1/DTD/svg11.dtd">
<svg version="1.1" id="Layer_1" xmlns="http://www.w3.org/2000/svg" xmlns:xlink="http://www.w3.org/1999/xlink" x="0px" y="0px"
	 width="300px" height="300px" viewBox="0 0 300 300" enable-background="new 0 0 300 300" xml:space="preserve">
<path fill="#4D97FA" d="M150,300C67.15,300,0,232.851,0,150.004C0,67.156,67.15,0,150,0s150,67.156,150,150.004
	C300,232.851,232.85,300,150,300L150,300z M150,28.873c-66.797,0-121.133,54.32-121.133,121.131
	c0,66.78,54.335,121.13,121.133,121.13c66.783,0,121.133-54.35,121.133-121.13C271.133,83.193,216.783,28.873,150,28.873L150,28.873
	z M220.682,160.994c-5.871,5.886-15.404,5.886-21.29,0l-42.624-42.608c-5.885-5.885-5.885-15.434,0-21.319
	c5.886-5.885,15.404-5.885,21.29,0l42.624,42.623C226.566,145.575,226.566,155.109,220.682,160.994L220.682,160.994z
	 M220.682,160.994l-42.624,42.623c-5.886,5.884-15.404,5.884-21.29,0c-5.885-5.886-5.885-15.449,0-21.334l42.624-42.593
	c5.886-5.885,15.419-5.885,21.29,0C226.566,145.575,226.566,155.109,220.682,160.994L220.682,160.994z M145.365,160.994
	c-5.885,5.886-15.434,5.886-21.319,0l-42.609-42.608c-5.885-5.885-5.885-15.434,0-21.319c5.885-5.885,15.419-5.885,21.305,0
	l42.624,42.623C151.25,145.575,151.25,155.109,145.365,160.994L145.365,160.994z M145.365,160.994l-42.624,42.623
	c-5.885,5.884-15.419,5.884-21.305,0c-5.885-5.886-5.885-15.449,0-21.334l42.609-42.593c5.885-5.885,15.434-5.885,21.319,0
	C151.25,145.575,151.25,155.109,145.365,160.994L145.365,160.994z"/>
</svg>
