<?xml version="1.0" encoding="utf-8"?>
<!-- Generator: Adobe Illustrator 16.0.0, SVG Export Plug-In . SVG Version: 6.00 Build 0)  -->
<!DOCTYPE svg PUBLIC "-//W3C//DTD SVG 1.1//EN" "http://www.w3.org/Graphics/SVG/1.1/DTD/svg11.dtd">
<svg version="1.1" id="Layer_1" xmlns="http://www.w3.org/2000/svg" xmlns:xlink="http://www.w3.org/1999/xlink" x="0px" y="0px"
	 width="299.645px" height="323.207px" viewBox="0 0 299.645 323.207" enable-background="new 0 0 299.645 323.207"
	 xml:space="preserve">
<g>
</g>
<path fill="#425182" d="M257.829,265.795l-15.279-0.101v2.896c0,27.01-16.587,54.616-47.157,54.616H43.123
	C20.299,323.207,0,302.44,0,269.74V86.471c0-22.198,16.006-39.765,38.807-39.765l18.598-0.304l0.141-2.586
	c0-22.204,16.665-43.602,39.483-43.602c0,0,128.033-0.214,129.363-0.214l73.253,86.719v139.899
	C299.645,248.815,280.658,265.795,257.829,265.795L257.829,265.795z M57.743,222.471V68.854l-14.338,0.333
	c-11.319,0-20.53,10.243-20.53,21.223v185.54c0,10.986,10.237,24.474,21.562,24.474H195.9c21.849,0,24.226-17.589,23.482-34.728
	l3.054-0.034l-122.642-0.067C76.978,265.593,57.743,244.668,57.743,222.471L57.743,222.471z M277.053,104.055
	c-20.892,0-29.455,0-29.455,0c-22.964,0-39.877-15.042-39.877-37.438c0,0-0.181-18.564,0-43.388H102.443
	c-11.325,0-21.562,10.575-21.562,21.562v176.778c0,10.975,10.237,21.557,21.562,21.557h153.042
	c11.324,0,21.567-10.582,21.567-21.557V104.055L277.053,104.055z M219.45,149.769h-93.001c-6.141,0-11.11-4.969-11.11-11.093
	c0-6.135,4.969-11.104,11.11-11.104h93.001c6.142,0,11.11,4.969,11.11,11.104C230.561,144.8,225.592,149.769,219.45,149.769
	L219.45,149.769z M219.45,196.385h-93.001c-6.141,0-11.11-4.969-11.11-11.11c0-6.118,4.969-11.088,11.11-11.088h93.001
	c6.142,0,11.11,4.97,11.11,11.088C230.561,191.417,225.592,196.385,219.45,196.385L219.45,196.385z"/>
</svg>
