<?xml version="1.0" encoding="utf-8"?>
<!-- Generator: Adobe Illustrator 16.0.0, SVG Export Plug-In . SVG Version: 6.00 Build 0)  -->
<!DOCTYPE svg PUBLIC "-//W3C//DTD SVG 1.1//EN" "http://www.w3.org/Graphics/SVG/1.1/DTD/svg11.dtd">
<svg version="1.1" id="Layer_1" xmlns="http://www.w3.org/2000/svg" xmlns:xlink="http://www.w3.org/1999/xlink" x="0px" y="0px"
	 width="300px" height="288.439px" viewBox="0 0 300 288.439" enable-background="new 0 0 300 288.439" xml:space="preserve">
<path fill-rule="evenodd" clip-rule="evenodd" fill="#68749B" d="M253.838,288.439H46.157C20.67,288.439,0,267.775,0,242.277V46.146
	C0,20.665,20.67,0,46.157,0h69.227c25.487,0,46.151,20.665,46.151,46.146h92.303C279.324,46.146,300,66.81,300,92.297v149.98
	C300,267.775,279.324,288.439,253.838,288.439L253.838,288.439z M276.913,138.46L276.913,138.46v-23.087l0,0V92.297
	c0-12.743-10.332-23.075-23.075-23.075H138.459V46.146c0-12.749-10.343-23.07-23.075-23.07H46.157
	c-12.744,0-23.076,10.321-23.076,23.07v57.689l0,0v46.14l0,0v92.303c0,12.743,10.332,23.087,23.076,23.087h207.681
	c12.743,0,23.075-10.344,23.075-23.087V138.46L276.913,138.46z M219.225,230.762h-80.766c-6.365,0-11.537-5.183-11.537-11.538
	v-23.086H80.771c-6.377,0-11.538-5.172-11.538-11.538v-80.765c0-6.377,5.16-11.538,11.538-11.538h80.765
	c6.366,0,11.538,5.161,11.538,11.538v23.075h46.151c6.377,0,11.537,5.161,11.537,11.538v80.775
	C230.762,225.579,225.602,230.762,219.225,230.762L219.225,230.762z M149.998,115.373H92.32v57.689h34.602v-34.613
	c0-6.377,5.172-11.538,11.537-11.538h11.539V115.373L149.998,115.373z M207.676,149.975h-57.678v57.7h57.678V149.975
	L207.676,149.975z"/>
</svg>
