<?xml version="1.0" encoding="utf-8"?>
<!-- Generator: Adobe Illustrator 16.0.0, SVG Export Plug-In . SVG Version: 6.00 Build 0)  -->
<!DOCTYPE svg PUBLIC "-//W3C//DTD SVG 1.1//EN" "http://www.w3.org/Graphics/SVG/1.1/DTD/svg11.dtd">
<svg version="1.1" id="Layer_1" xmlns="http://www.w3.org/2000/svg" xmlns:xlink="http://www.w3.org/1999/xlink" x="0px" y="0px"
	 width="19px" height="19px" viewBox="0 0 19 19" enable-background="new 0 0 19 19" xml:space="preserve">
<g>
	<path fill-rule="evenodd" clip-rule="evenodd" fill="#525663" d="M9.503,1.974c4.145,0,7.542,3.359,7.542,7.504
		c0,4.144-3.397,7.572-7.542,7.572s-7.542-3.429-7.542-7.572C1.961,5.333,5.358,1.974,9.503,1.974L9.503,1.974z"/>
	<path fill-rule="evenodd" clip-rule="evenodd" fill="#E8E8E9" d="M9.5,19C4.253,19,0,14.747,0,9.5S4.253,0,9.5,0S19,4.253,19,9.5
		S14.747,19,9.5,19L9.5,19z M9.5,2C5.358,2,2,5.358,2,9.5s3.359,7.501,7.5,7.501s7.501-3.359,7.501-7.501S13.642,2,9.5,2L9.5,2z
		 M5.949,6.959h7.011l-3.494,7.022L5.949,6.959L5.949,6.959z"/>
</g>
<g>
</g>
</svg>
