<?xml version="1.0" encoding="utf-8"?>
<!-- Generator: Adobe Illustrator 16.0.0, SVG Export Plug-In . SVG Version: 6.00 Build 0)  -->
<!DOCTYPE svg PUBLIC "-//W3C//DTD SVG 1.1//EN" "http://www.w3.org/Graphics/SVG/1.1/DTD/svg11.dtd">
<svg version="1.1" id="Layer_1" xmlns="http://www.w3.org/2000/svg" xmlns:xlink="http://www.w3.org/1999/xlink" x="0px" y="0px"
	 width="300px" height="300.173px" viewBox="0 0 300 300.173" enable-background="new 0 0 300 300.173" xml:space="preserve">
<path fill="#7E878E" d="M270.686,183.916c-0.218,0.293-0.392,0.619-0.652,0.902l-70.885,82.174c-2.51,2.912-6.139,4.498-9.865,4.498
	c-1.5,0-3.032-0.25-4.499-0.783c-5.096-1.868-8.485-6.682-8.485-12.07v-39.05c-0.392,0.685-0.837,1.358-1.369,1.966l-63.937,74.102
	c-2.516,2.934-6.145,4.52-9.871,4.52c-1.505,0-3.026-0.271-4.477-0.804c-5.117-1.868-8.485-6.683-8.485-12.071v-34.921
	C38.512,246.033,0,203.941,0,153.026c0-53.115,41.902-96.586,94.642-99.922C114.069,21.345,149.164,0,189.284,0
	C250.334,0,300,49.241,300,109.777C300,138.374,288.82,164.347,270.686,183.916L270.686,183.916z M189.284,25.74
	c-46.737,0-84.755,37.691-84.755,84.037c0,46.334,38.018,84.026,84.755,84.026c46.742,0,84.77-37.692,84.77-84.026
	C274.053,63.431,236.026,25.74,189.284,25.74L189.284,25.74z M211.416,100.15h-44.504c-6.139,0-11.126-4.993-11.126-11.132
	c0-6.139,4.987-11.137,11.126-11.137h44.504c6.139,0,11.126,4.998,11.126,11.137C222.542,95.158,217.554,100.15,211.416,100.15
	L211.416,100.15z M211.416,144.649h-44.504c-6.139,0-11.126-4.977-11.126-11.132c0-6.139,4.987-11.115,11.126-11.115h44.504
	c6.139,0,11.126,4.976,11.126,11.115C222.542,139.672,217.554,144.649,211.416,144.649L211.416,144.649z"/>
</svg>
