<?xml version="1.0" encoding="utf-8"?>
<!-- Generator: Adobe Illustrator 16.0.0, SVG Export Plug-In . SVG Version: 6.00 Build 0)  -->
<!DOCTYPE svg PUBLIC "-//W3C//DTD SVG 1.1//EN" "http://www.w3.org/Graphics/SVG/1.1/DTD/svg11.dtd">
<svg version="1.1" id="Layer_1" xmlns="http://www.w3.org/2000/svg" xmlns:xlink="http://www.w3.org/1999/xlink" x="0px" y="0px"
	 width="300px" height="300px" viewBox="0 0 300 300" enable-background="new 0 0 300 300" xml:space="preserve">
<path fill="#BDC3C7" d="M18.74,300C8.396,300,0,291.613,0,281.269V18.75C0,8.405,8.396,0,18.74,0c10.355,0,18.75,8.405,18.75,18.75
	v262.519C37.49,291.613,29.096,300,18.74,300L18.74,300z M281.25,300H18.74C8.396,300,0,291.613,0,281.269
	c0-10.364,8.396-18.75,18.74-18.75h262.51c10.363,0,18.75,8.386,18.75,18.75C300,291.613,291.613,300,281.25,300L281.25,300z
	 M281.25,300c-10.327,0-18.75-8.387-18.75-18.731V18.75C262.5,8.405,270.923,0,281.25,0C291.613,0,300,8.405,300,18.75v262.519
	C300,291.613,291.613,300,281.25,300L281.25,300z M281.25,37.5H18.74C8.396,37.5,0,29.096,0,18.75C0,8.405,8.396,0,18.74,0h262.51
	C291.613,0,300,8.405,300,18.75C300,29.096,291.613,37.5,281.25,37.5L281.25,37.5z M150,300c-10.346,0-18.75-8.387-18.75-18.731
	V18.75C131.25,8.405,139.654,0,150,0c10.354,0,18.74,8.405,18.74,18.75v262.519C168.74,291.613,160.354,300,150,300L150,300z"/>
</svg>
