<?xml version="1.0" encoding="utf-8"?>
<!-- Generator: Adobe Illustrator 16.0.0, SVG Export Plug-In . SVG Version: 6.00 Build 0)  -->
<!DOCTYPE svg PUBLIC "-//W3C//DTD SVG 1.1//EN" "http://www.w3.org/Graphics/SVG/1.1/DTD/svg11.dtd">
<svg version="1.1" id="Layer_1" xmlns="http://www.w3.org/2000/svg" xmlns:xlink="http://www.w3.org/1999/xlink" x="0px" y="0px"
	 width="300px" height="300px" viewBox="0 0 300 300" enable-background="new 0 0 300 300" xml:space="preserve">
<path fill="#BDC3C7" d="M271.875,150c-15.527,0-28.125-12.607-28.125-28.116V96.03l-55.115,55.087l-2.709-2.692
	c-2.527,0.742-5.055,1.575-7.801,1.575C162.588,150,150,137.393,150,121.884c0-2.783,0.833-5.273,1.574-7.8l-2.719-2.719
	l55.124-55.124h-25.854C162.588,56.241,150,43.652,150,28.116C150,12.58,162.588,0,178.125,0h93.75C287.402,0,300,12.58,300,28.116
	v93.769C300,137.393,287.402,150,271.875,150L271.875,150z M93.76,37.491H18.74C8.396,37.491,0,29.123,0,18.75
	C0,8.396,8.396,0,18.74,0h75.02c10.345,0,18.75,8.396,18.75,18.75C112.51,29.123,104.104,37.491,93.76,37.491L93.76,37.491z
	 M18.74,300C8.396,300,0,291.613,0,281.25V18.75C0,8.396,8.396,0,18.74,0c10.346,0,18.75,8.396,18.75,18.75v262.5
	C37.49,291.613,29.086,300,18.74,300L18.74,300z M281.25,300H18.74C8.396,300,0,291.613,0,281.25
	c0-10.346,8.396-18.731,18.74-18.731h262.51c10.363,0,18.75,8.386,18.75,18.731C300,291.613,291.613,300,281.25,300L281.25,300z
	 M281.25,300c-10.327,0-18.75-8.387-18.75-18.75v-75c0-10.363,8.423-18.75,18.75-18.75c10.363,0,18.75,8.387,18.75,18.75v75
	C300,291.613,291.613,300,281.25,300L281.25,300z"/>
</svg>
